%TF.GenerationSoftware,KiCad,Pcbnew,10.0.6*%
%TF.CreationDate,2026-10-02T22:39:59-04:00*%
%TF.ProjectId,Mainboard,4d61696e-626f-4617-9264-2e6b69636164,rev?*%
%TF.SameCoordinates,Original*%
%TF.FileFunction,Copper,L2,Bot*%
%TF.FilePolarity,Positive*%
%FSLAX46Y46*%
G04 Gerber Fmt 4.6, Leading zero omitted, Abs format (unit mm)*
G04 Created by KiCad (PCBNEW 10.0.6) date 2026-10-02 22:39:59*
%MOMM*%
%LPD*%
G01*
G04 APERTURE LIST*
G04 Aperture macros list*
%AMRoundRect*
0 Rectangle with rounded corners*
0 $1 Rounding radius*
0 $2 $3 $4 $5 $6 $7 $8 $9 X,Y pos of 4 corners*
0 Add a 4 corners polygon primitive as box body*
4,1,4,$2,$3,$4,$5,$6,$7,$8,$9,$2,$3,0*
0 Add four circle primitives for the rounded corners*
1,1,$1+$1,$2,$3*
1,1,$1+$1,$4,$5*
1,1,$1+$1,$6,$7*
1,1,$1+$1,$8,$9*
0 Add four rect primitives between the rounded corners*
20,1,$1+$1,$2,$3,$4,$5,0*
20,1,$1+$1,$4,$5,$6,$7,0*
20,1,$1+$1,$6,$7,$8,$9,0*
20,1,$1+$1,$8,$9,$2,$3,0*%
G04 Aperture macros list end*
%TA.AperFunction,ComponentPad*%
%ADD10RoundRect,0.250000X0.625000X-0.350000X0.625000X0.350000X-0.625000X0.350000X-0.625000X-0.350000X0*%
%TD*%
%TA.AperFunction,ComponentPad*%
%ADD11O,1.750000X1.200000*%
%TD*%
%TA.AperFunction,ComponentPad*%
%ADD12RoundRect,0.250000X-0.625000X0.350000X-0.625000X-0.350000X0.625000X-0.350000X0.625000X0.350000X0*%
%TD*%
%TA.AperFunction,ComponentPad*%
%ADD13RoundRect,0.250000X0.350000X0.625000X-0.350000X0.625000X-0.350000X-0.625000X0.350000X-0.625000X0*%
%TD*%
%TA.AperFunction,ComponentPad*%
%ADD14O,1.200000X1.750000*%
%TD*%
%TA.AperFunction,ComponentPad*%
%ADD15RoundRect,0.250000X-0.350000X-0.625000X0.350000X-0.625000X0.350000X0.625000X-0.350000X0.625000X0*%
%TD*%
%TA.AperFunction,ComponentPad*%
%ADD16C,4.700000*%
%TD*%
%TA.AperFunction,ComponentPad*%
%ADD17R,2.000000X1.200000*%
%TD*%
%TA.AperFunction,ComponentPad*%
%ADD18O,2.000000X1.200000*%
%TD*%
%TA.AperFunction,ComponentPad*%
%ADD19RoundRect,0.250000X-0.500000X-0.500000X0.500000X-0.500000X0.500000X0.500000X-0.500000X0.500000X0*%
%TD*%
%TA.AperFunction,ComponentPad*%
%ADD20C,1.500000*%
%TD*%
%TA.AperFunction,ComponentPad*%
%ADD21C,3.000000*%
%TD*%
%TA.AperFunction,ViaPad*%
%ADD22C,0.600000*%
%TD*%
%TA.AperFunction,Conductor*%
%ADD23C,0.200000*%
%TD*%
%TA.AperFunction,Conductor*%
%ADD24C,0.500000*%
%TD*%
%TA.AperFunction,Conductor*%
%ADD25C,1.000000*%
%TD*%
G04 APERTURE END LIST*
D10*
%TO.P,J9,1,Pin_1_1*%
%TO.N,Thumb Hat - Left*%
X176300000Y-86000000D03*
D11*
%TO.P,J9,2,Pin_2_2*%
%TO.N,Thumb Hat - Center*%
X176300000Y-84000000D03*
%TO.P,J9,3,Pin_3_3*%
%TO.N,Thumb Hat - Up*%
X176300000Y-82000000D03*
%TO.P,J9,4,Pin_4_4*%
%TO.N,Thumb Hat - Right*%
X176300000Y-80000000D03*
%TO.P,J9,5,Pin_5_5*%
%TO.N,Thumb Hat - Down*%
X176300000Y-78000000D03*
%TD*%
D12*
%TO.P,J2,1,Pin_1_1*%
%TO.N,GND*%
X110220000Y-82850000D03*
D11*
%TO.P,J2,2,Pin_2_2*%
%TO.N,3V3*%
X110220000Y-84850000D03*
%TO.P,J2,3,Pin_3_3*%
%TO.N,X-Axis*%
X110220000Y-86850000D03*
%TD*%
D13*
%TO.P,J11,1,Pin_1_1*%
%TO.N,GND*%
X153000000Y-103000000D03*
D14*
%TO.P,J11,2,Pin_2_2*%
%TO.N,Box Switch 1*%
X151000000Y-103000000D03*
%TD*%
D13*
%TO.P,J10,1,Pin_1_1*%
%TO.N,GND*%
X190400000Y-102900000D03*
D14*
%TO.P,J10,2,Pin_2_2*%
%TO.N,3V3*%
X188400000Y-102900000D03*
%TO.P,J10,3,Pin_3_3*%
%TO.N,RE Switch*%
X186400000Y-102900000D03*
%TO.P,J10,4,Pin_4_4*%
%TO.N,RE A*%
X184400000Y-102900000D03*
%TO.P,J10,5,Pin_5_5*%
%TO.N,RE B*%
X182400000Y-102900000D03*
%TD*%
D15*
%TO.P,J8,1,Pin_1_1*%
%TO.N,Face Hat Right - Down*%
X182400000Y-96200000D03*
D14*
%TO.P,J8,2,Pin_2_2*%
%TO.N,Face Hat Right - Left*%
X184400000Y-96200000D03*
%TO.P,J8,3,Pin_3_3*%
%TO.N,Face Hat Right - Center*%
X186400000Y-96200000D03*
%TO.P,J8,4,Pin_4_4*%
%TO.N,Face Hat Right - Right*%
X188400000Y-96200000D03*
%TO.P,J8,5,Pin_5_5*%
%TO.N,Face Hat Right - Up*%
X190400000Y-96200000D03*
%TD*%
D16*
%TO.P,M2.5,1*%
%TO.N,GND*%
X104019998Y-122210000D03*
%TD*%
D12*
%TO.P,J7,1,Pin_1_1*%
%TO.N,Face Hat Left - Up*%
X197700000Y-81600000D03*
D11*
%TO.P,J7,2,Pin_2_2*%
%TO.N,Face Hat Left - Right*%
X197700000Y-83600000D03*
%TO.P,J7,3,Pin_3_3*%
%TO.N,Face Hat Left - Down*%
X197700000Y-85600000D03*
%TO.P,J7,4,Pin_4_4*%
%TO.N,Face Hat Left - Left*%
X197700000Y-87600000D03*
%TO.P,J7,5,Pin_5_5*%
%TO.N,Face Hat Left - Center*%
X197700000Y-89600000D03*
%TD*%
D13*
%TO.P,J12,1,Pin_1_1*%
%TO.N,GND*%
X160000000Y-103000000D03*
D14*
%TO.P,J12,2,Pin_2_2*%
%TO.N,Box Switch 2*%
X158000000Y-103000000D03*
%TD*%
D12*
%TO.P,J1,1,Pin_1_1*%
%TO.N,GND*%
X104710000Y-82850000D03*
D11*
%TO.P,J1,2,Pin_2_2*%
X104710000Y-84850000D03*
%TD*%
D12*
%TO.P,J4,1,Pin_1_1*%
%TO.N,GND*%
X110219000Y-100670000D03*
D11*
%TO.P,J4,2,Pin_2_2*%
%TO.N,3V3*%
X110219000Y-102670000D03*
%TO.P,J4,3,Pin_3_3*%
%TO.N,Joystick X*%
X110219000Y-104670000D03*
%TO.P,J4,4,Pin_4_4*%
%TO.N,Joystick Y*%
X110219000Y-106670000D03*
%TO.P,J4,5,Pin_5_5*%
%TO.N,Joystick Button*%
X110219000Y-108670000D03*
%TD*%
D12*
%TO.P,J3,1,Pin_1_1*%
%TO.N,GND*%
X110220000Y-91760000D03*
D11*
%TO.P,J3,2,Pin_2_2*%
%TO.N,3V3*%
X110220000Y-93760000D03*
%TO.P,J3,3,Pin_3_3*%
%TO.N,Y-Axis*%
X110220000Y-95760000D03*
%TD*%
D16*
%TO.P,M2.5,1*%
%TO.N,GND*%
X197019998Y-75150000D03*
%TD*%
D17*
%TO.P,U1,1,3V3_1*%
%TO.N,3V3*%
X122070000Y-74830000D03*
D18*
%TO.P,U1,2,EN/RESET_2*%
%TO.N,unconnected-(U1-EN{slash}RESET-Pad2)*%
X122070000Y-77370000D03*
%TO.P,U1,3,GPIO4/MTMS_3*%
%TO.N,X-Axis*%
X122070000Y-79910000D03*
%TO.P,U1,4,GPIO5/MTDI_4*%
%TO.N,Y-Axis*%
X122070000Y-82450000D03*
%TO.P,U1,5,GPIO6_5*%
%TO.N,SCK*%
X122070000Y-84990000D03*
%TO.P,U1,6,GPIO7_6*%
%TO.N,SDA*%
X122070000Y-87530000D03*
%TO.P,U1,7,GPIO0_7*%
%TO.N,Joystick X*%
X122070000Y-90070000D03*
%TO.P,U1,8,GPIO1_8*%
%TO.N,Joystick Y*%
X122070000Y-92610000D03*
%TO.P,U1,9,GPIO8/BOOT_9*%
%TO.N,Joystick Button*%
X122070000Y-95150000D03*
%TO.P,U1,10,GPIO10_10*%
%TO.N,Base Button*%
X122070000Y-97690000D03*
%TO.P,U1,11,GPIO11_11*%
%TO.N,Head Button*%
X122070000Y-100230000D03*
%TO.P,U1,12,GPIO2_12*%
%TO.N,Face Button*%
X122070000Y-102770000D03*
%TO.P,U1,13,GPIO3_13*%
%TO.N,Primary Trigger*%
X122070000Y-105310000D03*
%TO.P,U1,14,5V_14*%
%TO.N,5V*%
X122070000Y-107850000D03*
%TO.P,U1,15,GND_15*%
%TO.N,GND*%
X122070000Y-110390000D03*
%TO.P,U1,16,NC_16*%
%TO.N,unconnected-(U1-NC-Pad16)*%
X122070000Y-112930000D03*
%TO.P,U1,17,NC_17*%
%TO.N,unconnected-(U1-NC-Pad17)*%
X144930000Y-112930000D03*
%TO.P,U1,18,GND_18*%
%TO.N,GND*%
X144930000Y-110390000D03*
%TO.P,U1,19,GPIO12/USB_D-_19*%
%TO.N,CAN-LOW*%
X144930000Y-107850000D03*
%TO.P,U1,20,GPIO13/USB_D+_20*%
%TO.N,CAN-HI*%
X144930000Y-105310000D03*
%TO.P,U1,21,GND_21*%
%TO.N,GND*%
X144930000Y-102770000D03*
%TO.P,U1,22,GPIO9/BOOT_22*%
%TO.N,Box Switch 1*%
X144930000Y-100230000D03*
%TO.P,U1,23,GPIO18_23*%
%TO.N,Box Switch 2*%
X144930000Y-97690000D03*
%TO.P,U1,24,GPIO19_24*%
%TO.N,Box Switch 3*%
X144930000Y-95150000D03*
%TO.P,U1,25,GPIO20_25*%
%TO.N,RE B*%
X144930000Y-92610000D03*
%TO.P,U1,26,GPIO21_26*%
%TO.N,RE A*%
X144930000Y-90070000D03*
%TO.P,U1,27,GPIO22_27*%
%TO.N,RE Switch*%
X144930000Y-87530000D03*
%TO.P,U1,28,GPIO23_28*%
%TO.N,Secondary Trigger*%
X144930000Y-84990000D03*
%TO.P,U1,29,GPIO15/JTAG_29*%
%TO.N,INT*%
X144930000Y-82450000D03*
%TO.P,U1,30,GPIO17/U0RXD_30*%
%TO.N,Face Hat Right - Down*%
X144930000Y-79910000D03*
%TO.P,U1,31,GPIO16/U0TXD_31*%
%TO.N,Extra*%
X144930000Y-77370000D03*
%TO.P,U1,32,GND_32*%
%TO.N,GND*%
X144930000Y-74830000D03*
%TD*%
D16*
%TO.P,M2.5,1*%
%TO.N,GND*%
X104019998Y-75210000D03*
%TD*%
D19*
%TO.P,J6,1,VBUS1_1*%
%TO.N,5V*%
X154250000Y-110550000D03*
D20*
%TO.P,J6,2,D1-_2*%
%TO.N,CAN-LOW*%
X156750000Y-110550000D03*
%TO.P,J6,3,D1+_3*%
%TO.N,CAN-HI*%
X158750000Y-110550000D03*
%TO.P,J6,4,GND1_4*%
%TO.N,GND*%
X161250000Y-110550000D03*
%TO.P,J6,5,VBUS2_5*%
%TO.N,5V*%
X154250000Y-113170000D03*
%TO.P,J6,6,D2-_6*%
%TO.N,CAN-LOW*%
X156750000Y-113170000D03*
%TO.P,J6,7,D2+_7*%
%TO.N,CAN-HI*%
X158750000Y-113170000D03*
%TO.P,J6,8,GND2_8*%
%TO.N,GND*%
X161250000Y-113170000D03*
D21*
%TO.P,J6,SH*%
%TO.N,N/C*%
X151180000Y-110200000D03*
X151180000Y-115880000D03*
X164320000Y-110200000D03*
X164320000Y-115880000D03*
%TD*%
D13*
%TO.P,J13,1,Pin_1_1*%
%TO.N,GND*%
X167002499Y-103000000D03*
D14*
%TO.P,J13,2,Pin_2_2*%
%TO.N,Box Switch 3*%
X165002499Y-103000000D03*
%TD*%
D12*
%TO.P,J5,1,Pin_1_1*%
%TO.N,Base Button*%
X110210000Y-113580000D03*
D11*
%TO.P,J5,2,Pin_2_2*%
%TO.N,Head Button*%
X110210000Y-115580000D03*
%TO.P,J5,3,Pin_3_3*%
%TO.N,Face Button*%
X110210000Y-117580000D03*
%TO.P,J5,4,Pin_4_4*%
%TO.N,Secondary Trigger*%
X110210000Y-119580000D03*
%TO.P,J5,5,Pin_5_5*%
%TO.N,Primary Trigger*%
X110210000Y-121580000D03*
%TD*%
D15*
%TO.P,J14,1,Pin_1_1*%
%TO.N,GND*%
X112000000Y-77000000D03*
D14*
%TO.P,J14,2,Pin_2_2*%
%TO.N,3V3*%
X114000000Y-77000000D03*
%TO.P,J14,3,Pin_3_3*%
%TO.N,Extra*%
X116000000Y-77000000D03*
%TD*%
D16*
%TO.P,M2.5,1*%
%TO.N,GND*%
X197019998Y-122150000D03*
%TD*%
D22*
%TO.N,Secondary Trigger*%
X142000000Y-89000000D03*
%TO.N,GND*%
X183500000Y-87890000D03*
X189000000Y-90430000D03*
X189000000Y-92970000D03*
X189000000Y-91700000D03*
%TO.N,3V3*%
X185000000Y-80750000D03*
X185000000Y-89160000D03*
X189035000Y-89160000D03*
X185000000Y-76920000D03*
%TO.N,Face Hat Right - Down*%
X174500000Y-96200000D03*
%TO.N,INT*%
X178500000Y-96850000D03*
X173750000Y-96850000D03*
%TD*%
%TO.N,Secondary Trigger*%
D23*
X142000000Y-89000000D02*
X142000000Y-85390000D01*
X142000000Y-85390000D02*
X142400000Y-84990000D01*
X142400000Y-84990000D02*
X144930000Y-84990000D01*
%TO.N,3V3*%
D24*
X188400000Y-101500000D02*
X188400000Y-102900000D01*
X194000000Y-98000000D02*
X191000000Y-101000000D01*
X194000000Y-90160000D02*
X194000000Y-98000000D01*
X109670000Y-102670000D02*
X110220000Y-102670000D01*
X188900000Y-101000000D02*
X188400000Y-101500000D01*
X185000000Y-89160000D02*
X189035000Y-89160000D01*
X191000000Y-101000000D02*
X188900000Y-101000000D01*
X185000000Y-76920000D02*
X185000000Y-80750000D01*
X189035000Y-89160000D02*
X193000000Y-89160000D01*
X193000000Y-89160000D02*
X194000000Y-90160000D01*
%TO.N,Face Hat Right - Down*%
D23*
X174500000Y-96200000D02*
X182400000Y-96200000D01*
%TO.N,5V*%
D25*
X139679998Y-120000000D02*
X127529998Y-107850000D01*
X154250000Y-113170000D02*
X154250000Y-110550000D01*
X154250000Y-117750000D02*
X152000000Y-120000000D01*
X152000000Y-120000000D02*
X139679998Y-120000000D01*
X127529998Y-107850000D02*
X122070000Y-107850000D01*
X154250000Y-113170000D02*
X154250000Y-117750000D01*
%TO.N,Head Button*%
D23*
X110240588Y-115580000D02*
X110220588Y-115600000D01*
%TO.N,INT*%
X178500000Y-96850000D02*
X173750000Y-96850000D01*
%TD*%
%TA.AperFunction,Conductor*%
%TO.N,GND*%
G36*
X199412604Y-72685523D02*
G01*
X199427602Y-72689927D01*
X199486353Y-72727672D01*
X199487540Y-72729041D01*
X199515016Y-72783902D01*
X199516661Y-72791460D01*
X199519498Y-72817831D01*
X199519498Y-124567670D01*
X199514473Y-124602614D01*
X199510068Y-124617612D01*
X199472325Y-124676355D01*
X199470956Y-124677542D01*
X199416095Y-124705018D01*
X199408537Y-124706663D01*
X199382166Y-124709500D01*
X101662328Y-124709500D01*
X101627387Y-124704475D01*
X101612388Y-124700070D01*
X101553642Y-124662327D01*
X101552455Y-124660958D01*
X101524975Y-124606083D01*
X101523330Y-124598521D01*
X101520498Y-124572168D01*
X101520498Y-113179983D01*
X108834500Y-113179983D01*
X108834500Y-113980001D01*
X108834500Y-113980009D01*
X108834503Y-113980045D01*
X108840502Y-114038762D01*
X108845000Y-114082796D01*
X108845001Y-114082799D01*
X108858596Y-114123825D01*
X108900186Y-114249334D01*
X108992288Y-114398656D01*
X109116344Y-114522712D01*
X109165373Y-114552953D01*
X109192465Y-114575564D01*
X109201748Y-114585885D01*
X109231943Y-114648894D01*
X109223284Y-114718213D01*
X109219492Y-114726942D01*
X109193442Y-114765216D01*
X109095584Y-114863074D01*
X108993768Y-115003210D01*
X108915129Y-115157547D01*
X108861598Y-115322297D01*
X108861596Y-115322304D01*
X108835216Y-115488870D01*
X108835214Y-115488884D01*
X108834500Y-115493389D01*
X108834500Y-115666611D01*
X108861598Y-115837701D01*
X108915127Y-116002445D01*
X108993768Y-116156788D01*
X109095586Y-116296928D01*
X109218072Y-116419414D01*
X109218571Y-116419823D01*
X109220094Y-116420884D01*
X109286598Y-116469203D01*
X109311909Y-116493801D01*
X109320384Y-116504792D01*
X109345732Y-116569902D01*
X109331859Y-116638373D01*
X109328599Y-116644552D01*
X109291814Y-116687007D01*
X109218069Y-116740587D01*
X109091092Y-116867564D01*
X109086961Y-116874941D01*
X109051859Y-116923255D01*
X109051859Y-116923256D01*
X108993768Y-117003210D01*
X108915129Y-117157549D01*
X108861596Y-117322305D01*
X108834500Y-117493383D01*
X108834500Y-117493389D01*
X108834500Y-117666611D01*
X108861598Y-117837701D01*
X108915127Y-118002445D01*
X108993768Y-118156788D01*
X109095586Y-118296928D01*
X109186438Y-118387780D01*
X109218072Y-118419414D01*
X109218571Y-118419823D01*
X109220094Y-118420884D01*
X109286598Y-118469203D01*
X109311909Y-118493801D01*
X109320384Y-118504792D01*
X109345732Y-118569902D01*
X109331859Y-118638373D01*
X109328599Y-118644552D01*
X109291814Y-118687007D01*
X109218069Y-118740587D01*
X109091092Y-118867564D01*
X109086961Y-118874941D01*
X109051859Y-118923255D01*
X109051859Y-118923256D01*
X108993768Y-119003210D01*
X108915129Y-119157549D01*
X108861596Y-119322305D01*
X108834500Y-119493383D01*
X108834500Y-119493389D01*
X108834500Y-119666611D01*
X108861598Y-119837701D01*
X108915127Y-120002445D01*
X108993768Y-120156788D01*
X109095586Y-120296928D01*
X109218072Y-120419414D01*
X109218571Y-120419823D01*
X109220094Y-120420884D01*
X109286598Y-120469203D01*
X109311909Y-120493801D01*
X109320384Y-120504792D01*
X109345732Y-120569902D01*
X109331859Y-120638373D01*
X109328599Y-120644552D01*
X109291814Y-120687007D01*
X109218069Y-120740587D01*
X109091092Y-120867564D01*
X109086961Y-120874941D01*
X109051859Y-120923255D01*
X109051859Y-120923256D01*
X108993768Y-121003210D01*
X108915129Y-121157549D01*
X108861596Y-121322305D01*
X108834500Y-121493383D01*
X108834500Y-121493389D01*
X108834500Y-121666611D01*
X108861598Y-121837701D01*
X108915127Y-122002445D01*
X108993768Y-122156788D01*
X109095586Y-122296928D01*
X109218072Y-122419414D01*
X109358212Y-122521232D01*
X109512555Y-122599873D01*
X109677299Y-122653402D01*
X109848389Y-122680500D01*
X109848390Y-122680500D01*
X110571610Y-122680500D01*
X110571611Y-122680500D01*
X110742701Y-122653402D01*
X110907445Y-122599873D01*
X111061788Y-122521232D01*
X111201928Y-122419414D01*
X111324414Y-122296928D01*
X111426232Y-122156788D01*
X111504873Y-122002445D01*
X111558402Y-121837701D01*
X111585500Y-121666611D01*
X111585500Y-121493389D01*
X111558402Y-121322299D01*
X111504873Y-121157555D01*
X111426232Y-121003212D01*
X111324414Y-120863072D01*
X111201928Y-120740586D01*
X111133397Y-120690795D01*
X111108091Y-120666202D01*
X111107731Y-120665735D01*
X111099615Y-120655210D01*
X111074265Y-120590103D01*
X111088138Y-120521626D01*
X111091404Y-120515437D01*
X111128185Y-120472990D01*
X111201365Y-120419823D01*
X111201924Y-120419417D01*
X111201924Y-120419416D01*
X111201928Y-120419414D01*
X111324414Y-120296928D01*
X111426232Y-120156788D01*
X111504873Y-120002445D01*
X111558402Y-119837701D01*
X111585500Y-119666611D01*
X111585500Y-119493389D01*
X111558402Y-119322299D01*
X111504873Y-119157555D01*
X111426232Y-119003212D01*
X111324414Y-118863072D01*
X111201928Y-118740586D01*
X111133397Y-118690795D01*
X111108091Y-118666202D01*
X111107731Y-118665735D01*
X111099615Y-118655210D01*
X111074265Y-118590103D01*
X111088138Y-118521626D01*
X111091404Y-118515437D01*
X111128185Y-118472990D01*
X111201365Y-118419823D01*
X111201924Y-118419417D01*
X111201924Y-118419416D01*
X111201928Y-118419414D01*
X111324414Y-118296928D01*
X111426232Y-118156788D01*
X111504873Y-118002445D01*
X111558402Y-117837701D01*
X111585500Y-117666611D01*
X111585500Y-117493389D01*
X111558402Y-117322299D01*
X111504873Y-117157555D01*
X111426232Y-117003212D01*
X111324414Y-116863072D01*
X111201928Y-116740586D01*
X111133397Y-116690795D01*
X111108091Y-116666202D01*
X111103073Y-116659695D01*
X111099615Y-116655210D01*
X111074265Y-116590103D01*
X111088138Y-116521626D01*
X111091404Y-116515437D01*
X111128185Y-116472990D01*
X111201365Y-116419823D01*
X111201924Y-116419417D01*
X111201924Y-116419416D01*
X111201928Y-116419414D01*
X111324414Y-116296928D01*
X111426232Y-116156788D01*
X111504873Y-116002445D01*
X111558402Y-115837701D01*
X111585500Y-115666611D01*
X111585500Y-115493389D01*
X111558402Y-115322299D01*
X111504873Y-115157555D01*
X111426232Y-115003212D01*
X111324414Y-114863072D01*
X111229479Y-114768137D01*
X111208330Y-114739887D01*
X111201675Y-114727699D01*
X111186824Y-114659429D01*
X111211238Y-114593968D01*
X111216946Y-114586343D01*
X111251110Y-114555122D01*
X111303656Y-114522712D01*
X111427712Y-114398656D01*
X111519814Y-114249334D01*
X111574999Y-114082797D01*
X111585500Y-113980009D01*
X111585499Y-113179992D01*
X111574999Y-113077203D01*
X111519814Y-112910666D01*
X111478314Y-112843383D01*
X120569500Y-112843383D01*
X120569500Y-113016615D01*
X120595373Y-113179978D01*
X120595374Y-113179978D01*
X120596596Y-113187695D01*
X120596598Y-113187703D01*
X120650128Y-113352449D01*
X120706365Y-113462820D01*
X120728768Y-113506788D01*
X120830586Y-113646928D01*
X120953072Y-113769414D01*
X121093212Y-113871232D01*
X121247555Y-113949873D01*
X121412299Y-114003402D01*
X121583389Y-114030500D01*
X121583390Y-114030500D01*
X122556610Y-114030500D01*
X122556611Y-114030500D01*
X122727701Y-114003402D01*
X122892445Y-113949873D01*
X123046788Y-113871232D01*
X123186928Y-113769414D01*
X123309414Y-113646928D01*
X123411232Y-113506788D01*
X123489873Y-113352445D01*
X123543402Y-113187701D01*
X123570500Y-113016611D01*
X123570500Y-112843389D01*
X123543402Y-112672299D01*
X123489873Y-112507555D01*
X123411232Y-112353212D01*
X123309414Y-112213072D01*
X123186928Y-112090586D01*
X123046788Y-111988768D01*
X123025517Y-111977930D01*
X122892449Y-111910128D01*
X122736532Y-111859467D01*
X122732010Y-111857614D01*
X122722820Y-111855444D01*
X122718057Y-111855070D01*
X122659945Y-111845866D01*
X122596271Y-111835781D01*
X122580407Y-111833268D01*
X122556614Y-111829500D01*
X122556611Y-111829500D01*
X121583389Y-111829500D01*
X121583388Y-111829500D01*
X121543726Y-111835781D01*
X121543725Y-111835780D01*
X121412304Y-111856596D01*
X121247549Y-111910129D01*
X121093211Y-111988767D01*
X121062451Y-112011117D01*
X120964943Y-112081961D01*
X120957562Y-112086094D01*
X120826092Y-112217564D01*
X120821961Y-112224941D01*
X120786859Y-112273255D01*
X120786859Y-112273256D01*
X120728768Y-112353210D01*
X120650129Y-112507549D01*
X120596596Y-112672305D01*
X120569500Y-112843383D01*
X111478314Y-112843383D01*
X111427712Y-112761344D01*
X111303656Y-112637288D01*
X111154334Y-112545186D01*
X110996265Y-112492807D01*
X110993445Y-112491641D01*
X110987792Y-112489999D01*
X110885019Y-112479500D01*
X110885010Y-112479500D01*
X109534998Y-112479500D01*
X109534981Y-112479501D01*
X109520959Y-112480933D01*
X109432198Y-112490000D01*
X109432193Y-112490001D01*
X109432032Y-112490056D01*
X109265667Y-112545185D01*
X109265665Y-112545186D01*
X109265663Y-112545187D01*
X109166115Y-112606588D01*
X109116340Y-112637290D01*
X108992290Y-112761340D01*
X108900187Y-112910662D01*
X108900152Y-112910770D01*
X108855300Y-113046123D01*
X108846852Y-113059069D01*
X108845365Y-113073630D01*
X108844542Y-113079881D01*
X108844387Y-113082913D01*
X108844396Y-113083104D01*
X108844355Y-113083514D01*
X108834500Y-113179983D01*
X101520498Y-113179983D01*
X101520498Y-102583389D01*
X108843500Y-102583389D01*
X108843500Y-102756611D01*
X108870598Y-102927701D01*
X108924127Y-103092445D01*
X109002768Y-103246788D01*
X109104586Y-103386928D01*
X109204586Y-103486928D01*
X109227072Y-103509414D01*
X109227571Y-103509823D01*
X109229094Y-103510884D01*
X109295598Y-103559203D01*
X109320909Y-103583801D01*
X109329384Y-103594792D01*
X109354732Y-103659902D01*
X109340859Y-103728373D01*
X109337599Y-103734552D01*
X109300814Y-103777007D01*
X109227069Y-103830587D01*
X109100094Y-103957562D01*
X109095965Y-103964936D01*
X109082577Y-103983364D01*
X109076355Y-103991929D01*
X109018568Y-104071463D01*
X109002767Y-104093212D01*
X109002764Y-104093218D01*
X108924129Y-104247547D01*
X108870598Y-104412298D01*
X108870597Y-104412300D01*
X108861366Y-104470585D01*
X108861366Y-104470586D01*
X108843500Y-104583383D01*
X108843500Y-104756610D01*
X108864238Y-104887549D01*
X108870598Y-104927701D01*
X108924127Y-105092445D01*
X109002768Y-105246788D01*
X109104586Y-105386928D01*
X109227069Y-105509411D01*
X109227072Y-105509414D01*
X109227571Y-105509823D01*
X109229094Y-105510884D01*
X109295598Y-105559203D01*
X109320909Y-105583801D01*
X109329384Y-105594792D01*
X109354732Y-105659902D01*
X109340859Y-105728373D01*
X109337599Y-105734552D01*
X109300814Y-105777007D01*
X109227069Y-105830587D01*
X109100092Y-105957564D01*
X109095961Y-105964941D01*
X109060859Y-106013255D01*
X109060859Y-106013256D01*
X109002768Y-106093210D01*
X108924129Y-106247549D01*
X108870596Y-106412305D01*
X108843500Y-106583383D01*
X108843500Y-106756613D01*
X108846665Y-106776597D01*
X108857669Y-106846073D01*
X108864301Y-106887947D01*
X108870598Y-106927701D01*
X108924127Y-107092445D01*
X109002768Y-107246788D01*
X109104586Y-107386928D01*
X109227072Y-107509414D01*
X109227571Y-107509823D01*
X109229094Y-107510884D01*
X109295598Y-107559203D01*
X109320909Y-107583801D01*
X109329384Y-107594792D01*
X109354732Y-107659902D01*
X109340859Y-107728373D01*
X109337599Y-107734552D01*
X109300814Y-107777007D01*
X109227069Y-107830587D01*
X109100092Y-107957564D01*
X109095961Y-107964941D01*
X109060859Y-108013255D01*
X109060859Y-108013256D01*
X109002768Y-108093210D01*
X108924129Y-108247549D01*
X108870596Y-108412305D01*
X108843500Y-108583383D01*
X108843500Y-108756614D01*
X108859970Y-108860599D01*
X108862749Y-108878148D01*
X108870598Y-108927701D01*
X108924127Y-109092445D01*
X109002768Y-109246788D01*
X109104586Y-109386928D01*
X109227072Y-109509414D01*
X109367212Y-109611232D01*
X109521555Y-109689873D01*
X109686299Y-109743402D01*
X109857389Y-109770500D01*
X109857390Y-109770500D01*
X110580610Y-109770500D01*
X110580611Y-109770500D01*
X110751701Y-109743402D01*
X110916445Y-109689873D01*
X111070788Y-109611232D01*
X111210928Y-109509414D01*
X111333414Y-109386928D01*
X111435232Y-109246788D01*
X111513873Y-109092445D01*
X111567402Y-108927701D01*
X111594500Y-108756611D01*
X111594500Y-108583389D01*
X111567402Y-108412299D01*
X111513873Y-108247555D01*
X111435232Y-108093212D01*
X111333414Y-107953072D01*
X111210928Y-107830586D01*
X111138953Y-107778292D01*
X111137032Y-107776779D01*
X111134639Y-107773412D01*
X111124676Y-107763389D01*
X120569500Y-107763389D01*
X120569500Y-107936611D01*
X120596598Y-108107701D01*
X120650127Y-108272445D01*
X120728768Y-108426788D01*
X120830586Y-108566928D01*
X120953072Y-108689414D01*
X121093212Y-108791232D01*
X121247555Y-108869873D01*
X121412299Y-108923402D01*
X121583389Y-108950500D01*
X121583390Y-108950500D01*
X122556610Y-108950500D01*
X122556611Y-108950500D01*
X122727701Y-108923402D01*
X122892445Y-108869873D01*
X122892449Y-108869871D01*
X122892451Y-108869869D01*
X122896734Y-108868115D01*
X122896841Y-108868377D01*
X122918160Y-108860602D01*
X122945971Y-108853924D01*
X122974915Y-108850500D01*
X127046386Y-108850500D01*
X127081318Y-108855521D01*
X127106562Y-108862934D01*
X127159308Y-108894230D01*
X138898271Y-120633193D01*
X138898302Y-120633225D01*
X138899747Y-120634670D01*
X138899762Y-120634686D01*
X139042212Y-120777136D01*
X139042216Y-120777139D01*
X139206077Y-120886628D01*
X139206090Y-120886635D01*
X139206092Y-120886635D01*
X139206096Y-120886638D01*
X139334831Y-120939961D01*
X139377742Y-120957735D01*
X139377747Y-120957737D01*
X139388154Y-120962048D01*
X139388159Y-120962050D01*
X139388160Y-120962050D01*
X139388162Y-120962051D01*
X139484810Y-120981275D01*
X139533133Y-120990887D01*
X139581455Y-121000500D01*
X139581456Y-121000500D01*
X139581457Y-121000500D01*
X152098542Y-121000500D01*
X152117870Y-120996655D01*
X152195188Y-120981275D01*
X152291836Y-120962051D01*
X152345165Y-120939961D01*
X152473914Y-120886632D01*
X152637782Y-120777139D01*
X152777139Y-120637782D01*
X152777139Y-120637780D01*
X152787347Y-120627573D01*
X152787347Y-120627571D01*
X152787774Y-120627145D01*
X152787784Y-120627136D01*
X152797545Y-120617376D01*
X152797556Y-120617361D01*
X155027140Y-118387781D01*
X155136632Y-118223914D01*
X155212052Y-118041835D01*
X155250501Y-117848540D01*
X155250501Y-117651459D01*
X155250501Y-117646349D01*
X155250501Y-117643965D01*
X155250500Y-117643939D01*
X155250500Y-115748872D01*
X162319500Y-115748872D01*
X162319500Y-116011127D01*
X162338678Y-116156788D01*
X162353730Y-116271116D01*
X162413398Y-116493801D01*
X162420747Y-116521228D01*
X162421598Y-116524405D01*
X162421604Y-116524426D01*
X162521954Y-116766693D01*
X162521967Y-116766717D01*
X162653074Y-116993803D01*
X162812718Y-117201851D01*
X162812721Y-117201855D01*
X162998120Y-117387255D01*
X162998142Y-117387276D01*
X162998148Y-117387281D01*
X163206195Y-117546924D01*
X163433281Y-117678031D01*
X163433291Y-117678036D01*
X163433299Y-117678041D01*
X163433309Y-117678046D01*
X163675571Y-117778394D01*
X163675581Y-117778398D01*
X163928884Y-117846270D01*
X164188880Y-117880500D01*
X164188887Y-117880500D01*
X164451113Y-117880500D01*
X164451120Y-117880500D01*
X164711116Y-117846270D01*
X164964419Y-117778398D01*
X165206697Y-117678043D01*
X165433803Y-117546924D01*
X165636256Y-117391574D01*
X165636993Y-117391074D01*
X165641407Y-117387628D01*
X165641862Y-117387275D01*
X165642385Y-117386758D01*
X165646006Y-117383209D01*
X165646702Y-117382433D01*
X165822433Y-117206702D01*
X165823209Y-117206006D01*
X165826758Y-117202385D01*
X165827275Y-117201862D01*
X165827628Y-117201407D01*
X165831074Y-117196993D01*
X165831574Y-117196256D01*
X165986924Y-116993803D01*
X166118043Y-116766697D01*
X166128862Y-116740579D01*
X166171197Y-116638373D01*
X166218398Y-116524419D01*
X166286270Y-116271116D01*
X166320500Y-116011120D01*
X166320500Y-115748880D01*
X166286270Y-115488884D01*
X166218398Y-115235581D01*
X166186079Y-115157555D01*
X166118046Y-114993309D01*
X166118041Y-114993299D01*
X165986924Y-114766196D01*
X165986921Y-114766193D01*
X165986920Y-114766190D01*
X165878206Y-114624515D01*
X165864424Y-114606554D01*
X165827282Y-114558149D01*
X165827281Y-114558148D01*
X165827274Y-114558140D01*
X165827272Y-114558137D01*
X165641855Y-114372721D01*
X165641851Y-114372718D01*
X165433803Y-114213074D01*
X165206717Y-114081967D01*
X165206693Y-114081954D01*
X164971772Y-113984647D01*
X164968471Y-113983279D01*
X164966654Y-113982450D01*
X164966174Y-113982268D01*
X164964653Y-113981664D01*
X164766626Y-113928603D01*
X164711116Y-113913730D01*
X164653339Y-113906123D01*
X164641809Y-113904605D01*
X164451128Y-113879500D01*
X164451127Y-113879500D01*
X164451120Y-113879500D01*
X164188880Y-113879500D01*
X164188872Y-113879500D01*
X164188864Y-113879500D01*
X163957773Y-113909925D01*
X163957772Y-113909926D01*
X163929347Y-113913669D01*
X163928884Y-113913730D01*
X163753600Y-113960697D01*
X163675578Y-113981602D01*
X163433305Y-114081954D01*
X163433281Y-114081967D01*
X163206195Y-114213074D01*
X162998152Y-114372714D01*
X162998142Y-114372723D01*
X162812723Y-114558142D01*
X162812714Y-114558152D01*
X162653074Y-114766195D01*
X162521967Y-114993281D01*
X162521954Y-114993305D01*
X162421602Y-115235578D01*
X162353734Y-115488870D01*
X162353730Y-115488885D01*
X162353729Y-115488891D01*
X162353729Y-115488892D01*
X162330331Y-115666611D01*
X162319500Y-115748872D01*
X155250500Y-115748872D01*
X155250500Y-113978526D01*
X155255522Y-113943593D01*
X155264310Y-113913663D01*
X155282966Y-113875720D01*
X155319524Y-113825405D01*
X155381423Y-113703918D01*
X155401757Y-113675075D01*
X155410651Y-113665658D01*
X155470995Y-113630439D01*
X155540800Y-113633435D01*
X155594509Y-113669602D01*
X155600578Y-113676606D01*
X155617350Y-113701514D01*
X155651947Y-113769414D01*
X155680476Y-113825405D01*
X155796172Y-113984646D01*
X155935354Y-114123828D01*
X156094595Y-114239524D01*
X156177455Y-114281743D01*
X156263521Y-114325596D01*
X156265124Y-114326534D01*
X156268823Y-114328326D01*
X156270831Y-114329324D01*
X156274597Y-114330386D01*
X156312082Y-114342565D01*
X156370315Y-114361486D01*
X156370316Y-114361487D01*
X156392031Y-114368542D01*
X156457173Y-114389709D01*
X156651578Y-114420500D01*
X156651583Y-114420500D01*
X156848421Y-114420500D01*
X156848422Y-114420500D01*
X157042826Y-114389709D01*
X157230025Y-114328884D01*
X157405405Y-114239524D01*
X157564646Y-114123828D01*
X157649717Y-114038756D01*
X157677964Y-114017611D01*
X157691688Y-114010117D01*
X157759946Y-113995266D01*
X157761756Y-113995395D01*
X157819953Y-114014761D01*
X157826471Y-114018950D01*
X157847106Y-114035580D01*
X157935354Y-114123828D01*
X158094595Y-114239524D01*
X158177455Y-114281743D01*
X158263521Y-114325596D01*
X158265124Y-114326534D01*
X158268823Y-114328326D01*
X158270831Y-114329324D01*
X158274597Y-114330386D01*
X158312082Y-114342565D01*
X158370315Y-114361486D01*
X158370316Y-114361487D01*
X158392031Y-114368542D01*
X158457173Y-114389709D01*
X158651578Y-114420500D01*
X158651583Y-114420500D01*
X158848421Y-114420500D01*
X158848422Y-114420500D01*
X159042826Y-114389709D01*
X159230025Y-114328884D01*
X159405405Y-114239524D01*
X159564646Y-114123828D01*
X159703828Y-113984646D01*
X159819524Y-113825405D01*
X159908884Y-113650025D01*
X159969709Y-113462826D01*
X160000500Y-113268422D01*
X160000500Y-113071577D01*
X159969709Y-112877173D01*
X159918494Y-112719551D01*
X159918494Y-112719550D01*
X159918494Y-112719549D01*
X159910388Y-112694604D01*
X159909324Y-112690832D01*
X159908317Y-112688806D01*
X159906531Y-112685119D01*
X159905600Y-112683529D01*
X159835111Y-112545187D01*
X159819524Y-112514595D01*
X159819522Y-112514592D01*
X159819521Y-112514590D01*
X159774181Y-112452186D01*
X159703828Y-112355354D01*
X159564646Y-112216172D01*
X159405405Y-112100476D01*
X159405404Y-112100475D01*
X159405402Y-112100474D01*
X159385995Y-112090585D01*
X159385995Y-112090586D01*
X159230029Y-112011116D01*
X159230023Y-112011114D01*
X159161246Y-111988768D01*
X159161246Y-111988767D01*
X159161239Y-111988766D01*
X159154122Y-111986453D01*
X159144843Y-111983438D01*
X159113180Y-111967870D01*
X159103843Y-111961486D01*
X159059612Y-111907398D01*
X159051645Y-111837985D01*
X159082468Y-111775286D01*
X159084584Y-111772981D01*
X159137605Y-111738912D01*
X159230025Y-111708884D01*
X159405405Y-111619524D01*
X159564646Y-111503828D01*
X159703828Y-111364646D01*
X159819524Y-111205405D01*
X159908884Y-111030025D01*
X159969709Y-110842826D01*
X160000500Y-110648422D01*
X160000500Y-110451577D01*
X159969709Y-110257173D01*
X159919660Y-110103140D01*
X159919659Y-110103137D01*
X159919655Y-110103126D01*
X159919655Y-110103116D01*
X159919635Y-110103065D01*
X159908884Y-110069974D01*
X159908884Y-110069973D01*
X159908322Y-110068871D01*
X162319500Y-110068871D01*
X162319500Y-110331127D01*
X162346123Y-110533339D01*
X162353729Y-110591108D01*
X162353731Y-110591119D01*
X162369084Y-110648418D01*
X162421602Y-110844420D01*
X162521954Y-111086693D01*
X162521967Y-111086717D01*
X162653074Y-111313803D01*
X162812713Y-111521845D01*
X162812721Y-111521855D01*
X162998120Y-111707255D01*
X162998142Y-111707276D01*
X162998148Y-111707281D01*
X163206195Y-111866924D01*
X163433281Y-111998031D01*
X163433291Y-111998036D01*
X163433299Y-111998041D01*
X163433309Y-111998046D01*
X163656721Y-112090586D01*
X163675581Y-112098398D01*
X163928884Y-112166270D01*
X164188880Y-112200500D01*
X164188887Y-112200500D01*
X164451113Y-112200500D01*
X164451120Y-112200500D01*
X164711116Y-112166270D01*
X164964419Y-112098398D01*
X165175136Y-112011116D01*
X165206690Y-111998046D01*
X165206691Y-111998045D01*
X165206697Y-111998043D01*
X165433803Y-111866924D01*
X165636256Y-111711574D01*
X165636993Y-111711074D01*
X165641407Y-111707628D01*
X165641862Y-111707275D01*
X165642385Y-111706758D01*
X165646006Y-111703209D01*
X165646702Y-111702433D01*
X165822433Y-111526702D01*
X165823209Y-111526006D01*
X165826758Y-111522385D01*
X165827275Y-111521862D01*
X165827628Y-111521407D01*
X165831074Y-111516993D01*
X165831574Y-111516256D01*
X165986924Y-111313803D01*
X166118043Y-111086697D01*
X166218398Y-110844419D01*
X166286270Y-110591116D01*
X166320500Y-110331120D01*
X166320500Y-110068880D01*
X166286270Y-109808884D01*
X166218398Y-109555581D01*
X166199274Y-109509411D01*
X166118046Y-109313309D01*
X166118041Y-109313299D01*
X166116169Y-109310056D01*
X165986924Y-109086195D01*
X165827281Y-108878148D01*
X165827276Y-108878142D01*
X165827255Y-108878120D01*
X165641855Y-108692721D01*
X165641851Y-108692718D01*
X165433803Y-108533074D01*
X165206717Y-108401967D01*
X165206693Y-108401954D01*
X164968474Y-108303281D01*
X164966654Y-108302450D01*
X164966174Y-108302268D01*
X164964653Y-108301664D01*
X164762689Y-108247549D01*
X164711116Y-108233730D01*
X164653339Y-108226123D01*
X164451128Y-108199500D01*
X164451127Y-108199500D01*
X164451120Y-108199500D01*
X164188880Y-108199500D01*
X164188872Y-108199500D01*
X164188864Y-108199500D01*
X163957773Y-108229925D01*
X163957772Y-108229926D01*
X163928892Y-108233729D01*
X163928884Y-108233730D01*
X163675578Y-108301602D01*
X163433305Y-108401954D01*
X163433281Y-108401967D01*
X163206195Y-108533074D01*
X162998152Y-108692714D01*
X162998142Y-108692723D01*
X162812723Y-108878142D01*
X162812714Y-108878152D01*
X162653074Y-109086195D01*
X162521967Y-109313281D01*
X162521954Y-109313305D01*
X162421602Y-109555578D01*
X162356406Y-109798899D01*
X162356404Y-109798905D01*
X162353731Y-109808875D01*
X162353730Y-109808885D01*
X162319500Y-110068871D01*
X159908322Y-110068871D01*
X159833819Y-109922651D01*
X159819524Y-109894595D01*
X159819521Y-109894591D01*
X159819521Y-109894590D01*
X159773986Y-109831918D01*
X159703828Y-109735354D01*
X159564646Y-109596172D01*
X159405405Y-109480476D01*
X159230029Y-109391117D01*
X159042826Y-109330290D01*
X159042820Y-109330289D01*
X158848427Y-109299500D01*
X158848422Y-109299500D01*
X158848417Y-109299500D01*
X158651583Y-109299500D01*
X158651578Y-109299500D01*
X158651573Y-109299500D01*
X158457178Y-109330289D01*
X158457176Y-109330289D01*
X158457173Y-109330290D01*
X158269970Y-109391117D01*
X158210774Y-109421279D01*
X158094594Y-109480475D01*
X158054765Y-109509414D01*
X157947226Y-109587546D01*
X157939842Y-109591681D01*
X157850285Y-109681239D01*
X157822027Y-109702392D01*
X157808309Y-109709882D01*
X157740051Y-109724733D01*
X157738245Y-109724604D01*
X157680044Y-109705236D01*
X157673529Y-109701049D01*
X157652893Y-109684419D01*
X157564648Y-109596174D01*
X157564646Y-109596172D01*
X157405405Y-109480476D01*
X157230029Y-109391117D01*
X157042826Y-109330290D01*
X157042820Y-109330289D01*
X156848427Y-109299500D01*
X156848422Y-109299500D01*
X156848417Y-109299500D01*
X156651583Y-109299500D01*
X156651578Y-109299500D01*
X156651573Y-109299500D01*
X156457178Y-109330289D01*
X156457176Y-109330289D01*
X156457173Y-109330290D01*
X156269970Y-109391117D01*
X156210774Y-109421279D01*
X156094594Y-109480475D01*
X156054765Y-109509414D01*
X155947225Y-109587547D01*
X155939844Y-109591680D01*
X155796173Y-109735351D01*
X155701567Y-109865561D01*
X155676973Y-109890867D01*
X155666638Y-109898837D01*
X155601530Y-109924189D01*
X155533052Y-109910316D01*
X155485847Y-109866497D01*
X155481004Y-109858770D01*
X155468367Y-109831922D01*
X155460733Y-109808884D01*
X155434814Y-109730666D01*
X155342712Y-109581344D01*
X155218656Y-109457288D01*
X155218655Y-109457287D01*
X155111375Y-109391117D01*
X155111374Y-109391116D01*
X155095265Y-109381180D01*
X155069336Y-109365187D01*
X155069331Y-109365185D01*
X155067862Y-109364698D01*
X154911265Y-109312807D01*
X154908445Y-109311641D01*
X154902792Y-109309999D01*
X154800019Y-109299500D01*
X154800010Y-109299500D01*
X153699998Y-109299500D01*
X153699980Y-109299501D01*
X153699972Y-109299501D01*
X153699953Y-109299503D01*
X153597197Y-109310000D01*
X153597193Y-109310001D01*
X153597032Y-109310056D01*
X153430667Y-109365185D01*
X153430665Y-109365186D01*
X153430663Y-109365187D01*
X153388624Y-109391117D01*
X153281342Y-109457288D01*
X153252880Y-109485751D01*
X153224621Y-109506903D01*
X153212439Y-109513554D01*
X153144165Y-109528403D01*
X153078705Y-109503984D01*
X153074512Y-109500845D01*
X153034264Y-109449032D01*
X152978047Y-109313311D01*
X152978041Y-109313299D01*
X152976140Y-109310007D01*
X152976136Y-109309999D01*
X152846927Y-109086200D01*
X152846925Y-109086196D01*
X152687281Y-108878148D01*
X152687276Y-108878142D01*
X152687255Y-108878120D01*
X152501855Y-108692721D01*
X152501851Y-108692718D01*
X152293803Y-108533074D01*
X152066717Y-108401967D01*
X152066693Y-108401954D01*
X151828474Y-108303281D01*
X151826654Y-108302450D01*
X151826174Y-108302268D01*
X151824653Y-108301664D01*
X151622689Y-108247549D01*
X151571116Y-108233730D01*
X151513339Y-108226123D01*
X151311128Y-108199500D01*
X151311127Y-108199500D01*
X151311120Y-108199500D01*
X151048880Y-108199500D01*
X151048872Y-108199500D01*
X151048864Y-108199500D01*
X150817773Y-108229925D01*
X150817772Y-108229926D01*
X150788892Y-108233729D01*
X150788884Y-108233730D01*
X150535578Y-108301602D01*
X150293305Y-108401954D01*
X150293281Y-108401967D01*
X150066195Y-108533074D01*
X149858152Y-108692714D01*
X149858142Y-108692723D01*
X149672723Y-108878142D01*
X149672714Y-108878152D01*
X149513074Y-109086195D01*
X149381967Y-109313281D01*
X149381954Y-109313305D01*
X149281602Y-109555578D01*
X149216406Y-109798899D01*
X149216404Y-109798905D01*
X149213731Y-109808875D01*
X149213730Y-109808885D01*
X149179500Y-110068871D01*
X149179500Y-110331127D01*
X149206123Y-110533339D01*
X149213729Y-110591108D01*
X149213731Y-110591119D01*
X149229084Y-110648418D01*
X149281602Y-110844420D01*
X149381954Y-111086693D01*
X149381967Y-111086717D01*
X149513074Y-111313803D01*
X149672713Y-111521845D01*
X149672721Y-111521855D01*
X149858120Y-111707255D01*
X149858142Y-111707276D01*
X149858148Y-111707281D01*
X150066195Y-111866924D01*
X150293281Y-111998031D01*
X150293291Y-111998036D01*
X150293299Y-111998041D01*
X150293309Y-111998046D01*
X150516721Y-112090586D01*
X150535581Y-112098398D01*
X150788884Y-112166270D01*
X151048880Y-112200500D01*
X151048887Y-112200500D01*
X151311113Y-112200500D01*
X151311120Y-112200500D01*
X151571116Y-112166270D01*
X151824419Y-112098398D01*
X152035136Y-112011116D01*
X152066690Y-111998046D01*
X152066691Y-111998045D01*
X152066697Y-111998043D01*
X152293803Y-111866924D01*
X152496256Y-111711574D01*
X152496993Y-111711074D01*
X152501407Y-111707628D01*
X152501862Y-111707275D01*
X152502381Y-111706762D01*
X152506005Y-111703211D01*
X152506702Y-111702432D01*
X152687273Y-111521860D01*
X152687278Y-111521855D01*
X152687282Y-111521851D01*
X152833187Y-111331703D01*
X152858438Y-111307047D01*
X152869338Y-111299088D01*
X152935089Y-111275451D01*
X153003180Y-111291115D01*
X153048387Y-111334766D01*
X153052778Y-111341981D01*
X153064557Y-111367437D01*
X153065186Y-111369335D01*
X153070316Y-111377651D01*
X153070321Y-111377659D01*
X153148140Y-111503825D01*
X153157289Y-111518657D01*
X153157290Y-111518659D01*
X153200573Y-111561941D01*
X153221725Y-111590196D01*
X153234332Y-111613284D01*
X153249500Y-111672711D01*
X153249500Y-112361471D01*
X153244476Y-112396409D01*
X153235689Y-112426332D01*
X153217031Y-112464279D01*
X153180480Y-112514587D01*
X153180478Y-112514591D01*
X153091117Y-112689970D01*
X153030290Y-112877173D01*
X153030290Y-112877175D01*
X153030289Y-112877178D01*
X152999500Y-113071571D01*
X152999500Y-113268427D01*
X153012808Y-113352447D01*
X153030290Y-113462826D01*
X153091117Y-113650029D01*
X153151946Y-113769411D01*
X153180477Y-113825407D01*
X153215339Y-113873390D01*
X153231809Y-113904604D01*
X153235065Y-113913729D01*
X153242288Y-113933971D01*
X153249500Y-113975642D01*
X153249500Y-115007437D01*
X153244476Y-115042377D01*
X153241941Y-115051009D01*
X153204164Y-115109786D01*
X153140607Y-115138808D01*
X153071449Y-115128861D01*
X153022388Y-115088597D01*
X153019391Y-115084441D01*
X153005407Y-115059365D01*
X153001946Y-115051009D01*
X152978046Y-114993309D01*
X152978041Y-114993299D01*
X152846924Y-114766196D01*
X152846921Y-114766193D01*
X152846920Y-114766190D01*
X152738206Y-114624515D01*
X152724424Y-114606554D01*
X152687282Y-114558149D01*
X152687281Y-114558148D01*
X152687274Y-114558140D01*
X152687272Y-114558137D01*
X152501855Y-114372721D01*
X152501851Y-114372718D01*
X152293803Y-114213074D01*
X152066717Y-114081967D01*
X152066693Y-114081954D01*
X151831772Y-113984647D01*
X151828471Y-113983279D01*
X151826654Y-113982450D01*
X151826174Y-113982268D01*
X151824653Y-113981664D01*
X151626626Y-113928603D01*
X151571116Y-113913730D01*
X151513339Y-113906123D01*
X151501809Y-113904605D01*
X151311128Y-113879500D01*
X151311127Y-113879500D01*
X151311120Y-113879500D01*
X151048880Y-113879500D01*
X151048872Y-113879500D01*
X151048864Y-113879500D01*
X150817773Y-113909925D01*
X150817772Y-113909926D01*
X150789347Y-113913669D01*
X150788884Y-113913730D01*
X150613600Y-113960697D01*
X150535578Y-113981602D01*
X150293305Y-114081954D01*
X150293281Y-114081967D01*
X150066195Y-114213074D01*
X149858152Y-114372714D01*
X149858142Y-114372723D01*
X149672723Y-114558142D01*
X149672714Y-114558152D01*
X149513074Y-114766195D01*
X149381967Y-114993281D01*
X149381954Y-114993305D01*
X149281602Y-115235578D01*
X149213734Y-115488870D01*
X149213730Y-115488885D01*
X149213729Y-115488891D01*
X149213729Y-115488892D01*
X149190331Y-115666611D01*
X149179500Y-115748872D01*
X149179500Y-116011127D01*
X149198678Y-116156788D01*
X149213730Y-116271116D01*
X149273398Y-116493801D01*
X149280747Y-116521228D01*
X149281598Y-116524405D01*
X149281604Y-116524426D01*
X149381954Y-116766693D01*
X149381967Y-116766717D01*
X149513074Y-116993803D01*
X149672718Y-117201851D01*
X149672721Y-117201855D01*
X149858120Y-117387255D01*
X149858142Y-117387276D01*
X149858148Y-117387281D01*
X150066195Y-117546924D01*
X150293281Y-117678031D01*
X150293291Y-117678036D01*
X150293299Y-117678041D01*
X150293309Y-117678046D01*
X150535571Y-117778394D01*
X150535581Y-117778398D01*
X150788884Y-117846270D01*
X151048880Y-117880500D01*
X151048887Y-117880500D01*
X151311113Y-117880500D01*
X151311120Y-117880500D01*
X151571116Y-117846270D01*
X151824419Y-117778398D01*
X152066697Y-117678043D01*
X152293803Y-117546924D01*
X152496256Y-117391574D01*
X152496993Y-117391074D01*
X152501407Y-117387628D01*
X152501862Y-117387275D01*
X152502385Y-117386758D01*
X152506006Y-117383209D01*
X152506702Y-117382433D01*
X152682433Y-117206702D01*
X152683209Y-117206006D01*
X152686758Y-117202385D01*
X152687275Y-117201862D01*
X152687628Y-117201407D01*
X152691074Y-117196993D01*
X152691574Y-117196256D01*
X152846924Y-116993803D01*
X152978043Y-116766697D01*
X152988861Y-116740581D01*
X153004117Y-116703749D01*
X153022119Y-116673406D01*
X153027765Y-116666399D01*
X153085152Y-116626548D01*
X153154977Y-116624048D01*
X153215069Y-116659695D01*
X153244993Y-116715665D01*
X153246172Y-116720651D01*
X153249500Y-116749185D01*
X153249500Y-117266387D01*
X153244476Y-117301324D01*
X153237064Y-117326565D01*
X153205769Y-117379309D01*
X151634506Y-118950573D01*
X151606255Y-118971722D01*
X151583167Y-118984330D01*
X151523737Y-118999500D01*
X140163610Y-118999500D01*
X140128674Y-118994477D01*
X140103432Y-118987065D01*
X140050687Y-118955769D01*
X133938301Y-112843383D01*
X143429500Y-112843383D01*
X143429500Y-113016615D01*
X143455373Y-113179978D01*
X143455374Y-113179978D01*
X143456596Y-113187695D01*
X143456598Y-113187703D01*
X143510128Y-113352449D01*
X143566365Y-113462820D01*
X143588768Y-113506788D01*
X143690586Y-113646928D01*
X143813072Y-113769414D01*
X143953212Y-113871232D01*
X144107555Y-113949873D01*
X144272299Y-114003402D01*
X144443389Y-114030500D01*
X144443390Y-114030500D01*
X145416610Y-114030500D01*
X145416611Y-114030500D01*
X145587701Y-114003402D01*
X145752445Y-113949873D01*
X145906788Y-113871232D01*
X146046928Y-113769414D01*
X146169414Y-113646928D01*
X146271232Y-113506788D01*
X146349873Y-113352445D01*
X146403402Y-113187701D01*
X146430500Y-113016611D01*
X146430500Y-112843389D01*
X146403402Y-112672299D01*
X146349873Y-112507555D01*
X146271232Y-112353212D01*
X146169414Y-112213072D01*
X146046928Y-112090586D01*
X145906788Y-111988768D01*
X145885517Y-111977930D01*
X145752449Y-111910128D01*
X145596532Y-111859467D01*
X145592010Y-111857614D01*
X145582820Y-111855444D01*
X145578057Y-111855070D01*
X145519945Y-111845866D01*
X145456271Y-111835781D01*
X145440407Y-111833268D01*
X145416614Y-111829500D01*
X145416611Y-111829500D01*
X144443389Y-111829500D01*
X144443388Y-111829500D01*
X144403726Y-111835781D01*
X144403725Y-111835780D01*
X144272304Y-111856596D01*
X144107549Y-111910129D01*
X143953211Y-111988767D01*
X143922451Y-112011117D01*
X143824943Y-112081961D01*
X143817562Y-112086094D01*
X143686092Y-112217564D01*
X143681961Y-112224941D01*
X143646859Y-112273255D01*
X143646859Y-112273256D01*
X143588768Y-112353210D01*
X143510129Y-112507549D01*
X143456596Y-112672305D01*
X143429500Y-112843383D01*
X133938301Y-112843383D01*
X128858307Y-107763389D01*
X143429500Y-107763389D01*
X143429500Y-107936611D01*
X143456598Y-108107701D01*
X143510127Y-108272445D01*
X143588768Y-108426788D01*
X143690586Y-108566928D01*
X143813072Y-108689414D01*
X143953212Y-108791232D01*
X144107555Y-108869873D01*
X144272299Y-108923402D01*
X144443389Y-108950500D01*
X144443390Y-108950500D01*
X145416610Y-108950500D01*
X145416611Y-108950500D01*
X145587701Y-108923402D01*
X145752445Y-108869873D01*
X145906788Y-108791232D01*
X146046928Y-108689414D01*
X146169414Y-108566928D01*
X146271232Y-108426788D01*
X146349873Y-108272445D01*
X146403402Y-108107701D01*
X146430500Y-107936611D01*
X146430500Y-107763389D01*
X146403402Y-107592299D01*
X146349873Y-107427555D01*
X146271232Y-107273212D01*
X146169414Y-107133072D01*
X146046928Y-107010586D01*
X145906788Y-106908768D01*
X145906786Y-106908767D01*
X145752449Y-106830128D01*
X145596532Y-106779467D01*
X145592010Y-106777614D01*
X145582820Y-106775444D01*
X145578057Y-106775070D01*
X145567513Y-106773400D01*
X145456271Y-106755781D01*
X145440407Y-106753268D01*
X145416614Y-106749500D01*
X145416611Y-106749500D01*
X144443389Y-106749500D01*
X144443388Y-106749500D01*
X144403726Y-106755781D01*
X144403725Y-106755780D01*
X144272304Y-106776596D01*
X144107549Y-106830129D01*
X143953210Y-106908768D01*
X143878067Y-106963364D01*
X143824943Y-107001961D01*
X143817562Y-107006094D01*
X143686092Y-107137564D01*
X143681961Y-107144941D01*
X143646859Y-107193255D01*
X143646859Y-107193256D01*
X143588768Y-107273210D01*
X143510129Y-107427547D01*
X143456598Y-107592297D01*
X143456596Y-107592304D01*
X143440482Y-107694048D01*
X143440473Y-107694106D01*
X143440391Y-107694626D01*
X143429500Y-107763389D01*
X128858307Y-107763389D01*
X128312541Y-107217623D01*
X128312499Y-107217580D01*
X128311466Y-107216547D01*
X128311457Y-107216537D01*
X128167783Y-107072863D01*
X128167782Y-107072862D01*
X128167781Y-107072861D01*
X128003924Y-106963375D01*
X128003923Y-106963374D01*
X128003918Y-106963371D01*
X128003905Y-106963364D01*
X128003891Y-106963358D01*
X127872095Y-106908767D01*
X127872094Y-106908767D01*
X127821836Y-106887950D01*
X127821834Y-106887949D01*
X127821800Y-106887941D01*
X127725186Y-106868724D01*
X127628544Y-106849500D01*
X127628542Y-106849500D01*
X127628539Y-106849500D01*
X122974915Y-106849500D01*
X122945965Y-106846073D01*
X122918210Y-106839409D01*
X122897101Y-106831622D01*
X122896949Y-106831992D01*
X122892454Y-106830130D01*
X122892451Y-106830129D01*
X122892449Y-106830128D01*
X122810073Y-106803362D01*
X122810072Y-106803361D01*
X122736532Y-106779467D01*
X122732011Y-106777614D01*
X122722820Y-106775444D01*
X122718057Y-106775070D01*
X122707513Y-106773400D01*
X122596271Y-106755781D01*
X122580407Y-106753268D01*
X122556614Y-106749500D01*
X122556611Y-106749500D01*
X121583389Y-106749500D01*
X121583388Y-106749500D01*
X121543726Y-106755781D01*
X121543725Y-106755780D01*
X121412304Y-106776596D01*
X121247549Y-106830129D01*
X121093210Y-106908768D01*
X121018067Y-106963364D01*
X120964943Y-107001961D01*
X120957562Y-107006094D01*
X120826092Y-107137564D01*
X120821961Y-107144941D01*
X120786859Y-107193255D01*
X120786859Y-107193256D01*
X120728768Y-107273210D01*
X120650129Y-107427547D01*
X120596598Y-107592297D01*
X120596596Y-107592304D01*
X120580391Y-107694625D01*
X120580391Y-107694626D01*
X120569500Y-107763389D01*
X111124676Y-107763389D01*
X111113016Y-107751659D01*
X111110291Y-107747860D01*
X111105998Y-107741876D01*
X111099956Y-107724616D01*
X111096554Y-107719829D01*
X111096287Y-107714135D01*
X111082915Y-107675932D01*
X111097083Y-107611730D01*
X111100404Y-107605435D01*
X111137185Y-107562991D01*
X111210365Y-107509823D01*
X111210924Y-107509417D01*
X111210924Y-107509416D01*
X111210928Y-107509414D01*
X111333414Y-107386928D01*
X111435232Y-107246788D01*
X111513873Y-107092445D01*
X111567402Y-106927701D01*
X111594500Y-106756611D01*
X111594500Y-106583389D01*
X111567402Y-106412299D01*
X111513873Y-106247555D01*
X111435232Y-106093212D01*
X111333414Y-105953072D01*
X111210928Y-105830586D01*
X111142397Y-105780795D01*
X111117091Y-105756202D01*
X111116731Y-105755735D01*
X111108615Y-105745210D01*
X111083265Y-105680103D01*
X111097138Y-105611626D01*
X111100407Y-105605433D01*
X111137187Y-105562990D01*
X111142399Y-105559203D01*
X111210928Y-105509414D01*
X111333414Y-105386928D01*
X111435232Y-105246788D01*
X111447154Y-105223389D01*
X120569500Y-105223389D01*
X120569500Y-105227948D01*
X120569500Y-105396610D01*
X120595851Y-105562990D01*
X120596598Y-105567701D01*
X120650127Y-105732445D01*
X120728768Y-105886788D01*
X120830586Y-106026928D01*
X120953072Y-106149414D01*
X121093212Y-106251232D01*
X121247555Y-106329873D01*
X121412299Y-106383402D01*
X121583389Y-106410500D01*
X121583390Y-106410500D01*
X122556610Y-106410500D01*
X122556611Y-106410500D01*
X122727701Y-106383402D01*
X122892445Y-106329873D01*
X123046788Y-106251232D01*
X123186928Y-106149414D01*
X123309414Y-106026928D01*
X123411232Y-105886788D01*
X123489873Y-105732445D01*
X123543402Y-105567701D01*
X123570500Y-105396611D01*
X123570500Y-105223389D01*
X143429500Y-105223389D01*
X143429500Y-105227948D01*
X143429500Y-105396610D01*
X143455851Y-105562990D01*
X143456598Y-105567701D01*
X143510127Y-105732445D01*
X143588768Y-105886788D01*
X143690586Y-106026928D01*
X143813072Y-106149414D01*
X143953212Y-106251232D01*
X144107555Y-106329873D01*
X144272299Y-106383402D01*
X144443389Y-106410500D01*
X144443390Y-106410500D01*
X145416610Y-106410500D01*
X145416611Y-106410500D01*
X145587701Y-106383402D01*
X145752445Y-106329873D01*
X145906788Y-106251232D01*
X146046928Y-106149414D01*
X146169414Y-106026928D01*
X146271232Y-105886788D01*
X146349873Y-105732445D01*
X146403402Y-105567701D01*
X146430500Y-105396611D01*
X146430500Y-105223389D01*
X146403402Y-105052299D01*
X146349873Y-104887555D01*
X146271232Y-104733212D01*
X146169414Y-104593072D01*
X146046928Y-104470586D01*
X145906788Y-104368768D01*
X145752449Y-104290128D01*
X145596532Y-104239467D01*
X145592010Y-104237614D01*
X145582820Y-104235444D01*
X145578057Y-104235070D01*
X145567513Y-104233400D01*
X145456271Y-104215781D01*
X145440407Y-104213268D01*
X145416614Y-104209500D01*
X145416611Y-104209500D01*
X144443389Y-104209500D01*
X144443388Y-104209500D01*
X144403726Y-104215781D01*
X144403725Y-104215780D01*
X144272304Y-104236596D01*
X144107549Y-104290129D01*
X143953210Y-104368768D01*
X143943945Y-104375500D01*
X143893297Y-104412299D01*
X143824942Y-104461962D01*
X143817562Y-104466094D01*
X143686092Y-104597564D01*
X143681961Y-104604941D01*
X143646859Y-104653255D01*
X143646859Y-104653256D01*
X143588768Y-104733210D01*
X143510129Y-104887549D01*
X143456596Y-105052305D01*
X143456595Y-105052306D01*
X143450288Y-105092133D01*
X143450239Y-105092445D01*
X143429500Y-105223389D01*
X123570500Y-105223389D01*
X123543402Y-105052299D01*
X123489873Y-104887555D01*
X123411232Y-104733212D01*
X123309414Y-104593072D01*
X123186928Y-104470586D01*
X123046788Y-104368768D01*
X122892449Y-104290128D01*
X122736532Y-104239467D01*
X122732010Y-104237614D01*
X122722820Y-104235444D01*
X122718057Y-104235070D01*
X122707513Y-104233400D01*
X122596271Y-104215781D01*
X122580407Y-104213268D01*
X122556614Y-104209500D01*
X122556611Y-104209500D01*
X121583389Y-104209500D01*
X121583388Y-104209500D01*
X121543726Y-104215781D01*
X121543725Y-104215780D01*
X121412304Y-104236596D01*
X121247549Y-104290129D01*
X121093210Y-104368768D01*
X121083945Y-104375500D01*
X121033297Y-104412299D01*
X120964942Y-104461962D01*
X120957562Y-104466094D01*
X120826092Y-104597564D01*
X120821961Y-104604941D01*
X120786859Y-104653255D01*
X120786859Y-104653256D01*
X120728768Y-104733210D01*
X120650129Y-104887549D01*
X120596596Y-105052305D01*
X120596595Y-105052306D01*
X120590288Y-105092133D01*
X120590239Y-105092445D01*
X120569500Y-105223389D01*
X111447154Y-105223389D01*
X111513873Y-105092445D01*
X111567402Y-104927701D01*
X111594500Y-104756611D01*
X111594500Y-104583389D01*
X111567402Y-104412299D01*
X111513873Y-104247555D01*
X111435232Y-104093212D01*
X111333414Y-103953072D01*
X111210928Y-103830586D01*
X111142397Y-103780795D01*
X111117091Y-103756202D01*
X111113687Y-103751788D01*
X111108615Y-103745210D01*
X111083265Y-103680103D01*
X111097138Y-103611626D01*
X111100404Y-103605437D01*
X111137185Y-103562990D01*
X111210365Y-103509823D01*
X111210924Y-103509417D01*
X111210928Y-103509414D01*
X111333413Y-103386929D01*
X111333415Y-103386926D01*
X111435232Y-103246788D01*
X111513873Y-103092445D01*
X111567402Y-102927701D01*
X111594500Y-102756611D01*
X111594500Y-102683383D01*
X120569500Y-102683383D01*
X120569500Y-102856614D01*
X120580758Y-102927697D01*
X120580759Y-102927701D01*
X120596598Y-103027701D01*
X120650127Y-103192445D01*
X120728768Y-103346788D01*
X120830586Y-103486928D01*
X120953072Y-103609414D01*
X121093212Y-103711232D01*
X121247555Y-103789873D01*
X121412299Y-103843402D01*
X121583389Y-103870500D01*
X121583390Y-103870500D01*
X122556610Y-103870500D01*
X122556611Y-103870500D01*
X122727701Y-103843402D01*
X122892445Y-103789873D01*
X123046788Y-103711232D01*
X123186928Y-103609414D01*
X123309414Y-103486928D01*
X123411232Y-103346788D01*
X123489873Y-103192445D01*
X123543402Y-103027701D01*
X123570500Y-102856611D01*
X123570500Y-102683389D01*
X123570500Y-102683384D01*
X123565674Y-102652916D01*
X123565674Y-102652915D01*
X123563372Y-102638383D01*
X149899500Y-102638383D01*
X149899500Y-103361614D01*
X149922909Y-103509414D01*
X149926596Y-103532696D01*
X149926597Y-103532699D01*
X149956591Y-103625012D01*
X149980127Y-103697447D01*
X149989065Y-103714988D01*
X150012169Y-103760332D01*
X150058766Y-103851786D01*
X150087932Y-103891929D01*
X150160586Y-103991928D01*
X150283072Y-104114414D01*
X150423212Y-104216232D01*
X150577555Y-104294873D01*
X150742299Y-104348402D01*
X150913389Y-104375500D01*
X150913390Y-104375500D01*
X151086610Y-104375500D01*
X151086611Y-104375500D01*
X151257701Y-104348402D01*
X151422445Y-104294873D01*
X151576788Y-104216232D01*
X151716928Y-104114414D01*
X151839414Y-103991928D01*
X151941232Y-103851788D01*
X152019873Y-103697445D01*
X152073402Y-103532701D01*
X152100500Y-103361611D01*
X152100500Y-102638389D01*
X152100499Y-102638383D01*
X156899500Y-102638383D01*
X156899500Y-103361614D01*
X156922909Y-103509414D01*
X156926596Y-103532696D01*
X156926597Y-103532699D01*
X156956591Y-103625012D01*
X156980127Y-103697447D01*
X156989065Y-103714988D01*
X157012169Y-103760332D01*
X157058766Y-103851786D01*
X157087932Y-103891929D01*
X157160586Y-103991928D01*
X157283072Y-104114414D01*
X157423212Y-104216232D01*
X157577555Y-104294873D01*
X157742299Y-104348402D01*
X157913389Y-104375500D01*
X157913390Y-104375500D01*
X158086610Y-104375500D01*
X158086611Y-104375500D01*
X158257701Y-104348402D01*
X158422445Y-104294873D01*
X158576788Y-104216232D01*
X158716928Y-104114414D01*
X158839414Y-103991928D01*
X158941232Y-103851788D01*
X159019873Y-103697445D01*
X159073402Y-103532701D01*
X159100500Y-103361611D01*
X159100500Y-102638389D01*
X159100499Y-102638383D01*
X163901999Y-102638383D01*
X163901999Y-103361614D01*
X163925408Y-103509414D01*
X163929095Y-103532696D01*
X163929096Y-103532699D01*
X163959090Y-103625012D01*
X163982626Y-103697447D01*
X163991564Y-103714988D01*
X164014668Y-103760332D01*
X164061265Y-103851786D01*
X164090431Y-103891929D01*
X164163085Y-103991928D01*
X164285571Y-104114414D01*
X164425711Y-104216232D01*
X164580054Y-104294873D01*
X164744798Y-104348402D01*
X164915888Y-104375500D01*
X164915889Y-104375500D01*
X165089109Y-104375500D01*
X165089110Y-104375500D01*
X165260200Y-104348402D01*
X165424944Y-104294873D01*
X165579287Y-104216232D01*
X165719427Y-104114414D01*
X165841913Y-103991928D01*
X165943731Y-103851788D01*
X166022372Y-103697445D01*
X166075901Y-103532701D01*
X166102999Y-103361611D01*
X166102999Y-102638389D01*
X166087160Y-102538383D01*
X181299500Y-102538383D01*
X181299500Y-103261614D01*
X181312990Y-103346788D01*
X181319348Y-103386930D01*
X181326598Y-103432701D01*
X181380127Y-103597445D01*
X181458768Y-103751788D01*
X181560586Y-103891928D01*
X181683072Y-104014414D01*
X181823212Y-104116232D01*
X181977555Y-104194873D01*
X182142299Y-104248402D01*
X182313389Y-104275500D01*
X182313390Y-104275500D01*
X182486610Y-104275500D01*
X182486611Y-104275500D01*
X182657701Y-104248402D01*
X182822445Y-104194873D01*
X182976788Y-104116232D01*
X183116928Y-104014414D01*
X183239414Y-103891928D01*
X183289203Y-103823397D01*
X183313797Y-103798091D01*
X183324794Y-103789611D01*
X183389899Y-103764265D01*
X183458370Y-103778138D01*
X183464551Y-103781399D01*
X183507007Y-103818185D01*
X183531422Y-103851788D01*
X183560586Y-103891928D01*
X183683072Y-104014414D01*
X183823212Y-104116232D01*
X183977555Y-104194873D01*
X184142299Y-104248402D01*
X184313389Y-104275500D01*
X184313390Y-104275500D01*
X184486610Y-104275500D01*
X184486611Y-104275500D01*
X184657701Y-104248402D01*
X184822445Y-104194873D01*
X184976788Y-104116232D01*
X185116928Y-104014414D01*
X185239414Y-103891928D01*
X185289203Y-103823397D01*
X185313797Y-103798091D01*
X185324794Y-103789611D01*
X185389899Y-103764265D01*
X185458370Y-103778138D01*
X185464551Y-103781399D01*
X185507007Y-103818185D01*
X185531422Y-103851788D01*
X185560586Y-103891928D01*
X185683072Y-104014414D01*
X185823212Y-104116232D01*
X185977555Y-104194873D01*
X186142299Y-104248402D01*
X186313389Y-104275500D01*
X186313390Y-104275500D01*
X186486610Y-104275500D01*
X186486611Y-104275500D01*
X186657701Y-104248402D01*
X186822445Y-104194873D01*
X186976788Y-104116232D01*
X187116928Y-104014414D01*
X187239414Y-103891928D01*
X187289203Y-103823397D01*
X187313797Y-103798091D01*
X187324794Y-103789611D01*
X187389899Y-103764265D01*
X187458370Y-103778138D01*
X187464551Y-103781399D01*
X187507007Y-103818185D01*
X187531422Y-103851788D01*
X187560586Y-103891928D01*
X187683072Y-104014414D01*
X187823212Y-104116232D01*
X187977555Y-104194873D01*
X188142299Y-104248402D01*
X188313389Y-104275500D01*
X188313390Y-104275500D01*
X188486610Y-104275500D01*
X188486611Y-104275500D01*
X188657701Y-104248402D01*
X188822445Y-104194873D01*
X188976788Y-104116232D01*
X189116928Y-104014414D01*
X189239414Y-103891928D01*
X189341232Y-103751788D01*
X189419873Y-103597445D01*
X189473402Y-103432701D01*
X189500500Y-103261611D01*
X189500500Y-102538389D01*
X189473402Y-102367299D01*
X189419873Y-102202555D01*
X189341232Y-102048212D01*
X189278454Y-101961806D01*
X189261985Y-101930592D01*
X189257634Y-101918397D01*
X189253646Y-101848641D01*
X189288004Y-101787803D01*
X189344619Y-101756363D01*
X189353621Y-101754133D01*
X189383422Y-101750500D01*
X191073921Y-101750500D01*
X191129268Y-101739490D01*
X191183169Y-101728768D01*
X191218913Y-101721658D01*
X191355495Y-101665084D01*
X191404729Y-101632186D01*
X191416233Y-101624500D01*
X191457992Y-101596598D01*
X191478416Y-101582952D01*
X194582952Y-98478415D01*
X194610205Y-98437627D01*
X194665084Y-98355495D01*
X194702968Y-98264035D01*
X194721659Y-98218912D01*
X194750500Y-98073917D01*
X194750500Y-97926082D01*
X194750500Y-90086082D01*
X194750500Y-90086079D01*
X194750500Y-90086076D01*
X194730073Y-89983389D01*
X194725520Y-89960500D01*
X194725520Y-89960499D01*
X194721659Y-89941088D01*
X194667567Y-89810500D01*
X194665084Y-89804505D01*
X194665082Y-89804502D01*
X194665080Y-89804498D01*
X194586310Y-89686611D01*
X196324499Y-89686611D01*
X196328109Y-89709395D01*
X196328109Y-89709397D01*
X196344407Y-89812302D01*
X196351598Y-89857701D01*
X196405127Y-90022445D01*
X196483768Y-90176788D01*
X196585586Y-90316928D01*
X196708072Y-90439414D01*
X196848212Y-90541232D01*
X197002555Y-90619873D01*
X197167299Y-90673402D01*
X197338389Y-90700500D01*
X197338390Y-90700500D01*
X198061610Y-90700500D01*
X198061611Y-90700500D01*
X198232701Y-90673402D01*
X198397445Y-90619873D01*
X198551788Y-90541232D01*
X198691928Y-90439414D01*
X198814414Y-90316928D01*
X198916232Y-90176788D01*
X198994873Y-90022445D01*
X199048402Y-89857701D01*
X199075500Y-89686611D01*
X199075500Y-89513389D01*
X199048402Y-89342299D01*
X198994873Y-89177555D01*
X198916232Y-89023212D01*
X198814414Y-88883072D01*
X198691928Y-88760586D01*
X198623397Y-88710795D01*
X198598091Y-88686202D01*
X198597731Y-88685735D01*
X198589615Y-88675210D01*
X198564265Y-88610103D01*
X198578138Y-88541626D01*
X198581407Y-88535433D01*
X198618187Y-88492990D01*
X198648134Y-88471232D01*
X198691928Y-88439414D01*
X198814414Y-88316928D01*
X198916232Y-88176788D01*
X198994873Y-88022445D01*
X199048402Y-87857701D01*
X199075500Y-87686611D01*
X199075500Y-87513389D01*
X199048402Y-87342299D01*
X198994873Y-87177555D01*
X198916232Y-87023212D01*
X198814414Y-86883072D01*
X198691928Y-86760586D01*
X198623397Y-86710795D01*
X198598091Y-86686202D01*
X198594821Y-86681961D01*
X198589615Y-86675210D01*
X198564265Y-86610103D01*
X198578138Y-86541626D01*
X198581404Y-86535437D01*
X198618185Y-86492990D01*
X198691365Y-86439823D01*
X198691924Y-86439417D01*
X198691924Y-86439416D01*
X198691928Y-86439414D01*
X198814414Y-86316928D01*
X198916232Y-86176788D01*
X198994873Y-86022445D01*
X199048402Y-85857701D01*
X199075500Y-85686611D01*
X199075500Y-85513389D01*
X199048402Y-85342299D01*
X198994873Y-85177555D01*
X198916232Y-85023212D01*
X198814414Y-84883072D01*
X198691928Y-84760586D01*
X198623397Y-84710795D01*
X198598091Y-84686202D01*
X198597731Y-84685735D01*
X198589615Y-84675210D01*
X198564265Y-84610103D01*
X198578138Y-84541626D01*
X198581404Y-84535437D01*
X198618185Y-84492990D01*
X198691365Y-84439823D01*
X198691924Y-84439417D01*
X198691924Y-84439416D01*
X198691928Y-84439414D01*
X198814414Y-84316928D01*
X198916232Y-84176788D01*
X198994873Y-84022445D01*
X199048402Y-83857701D01*
X199075500Y-83686611D01*
X199075500Y-83513389D01*
X199048402Y-83342299D01*
X198994873Y-83177555D01*
X198916232Y-83023212D01*
X198814414Y-82883072D01*
X198719479Y-82788137D01*
X198698330Y-82759887D01*
X198691675Y-82747699D01*
X198676824Y-82679429D01*
X198701238Y-82613968D01*
X198706946Y-82606343D01*
X198741110Y-82575122D01*
X198793656Y-82542712D01*
X198917712Y-82418656D01*
X199009814Y-82269334D01*
X199064999Y-82102797D01*
X199075500Y-82000009D01*
X199075499Y-81199992D01*
X199066000Y-81107007D01*
X199064999Y-81097203D01*
X199064998Y-81097200D01*
X199054700Y-81066123D01*
X199009814Y-80930666D01*
X198917712Y-80781344D01*
X198793656Y-80657288D01*
X198644334Y-80565186D01*
X198486265Y-80512807D01*
X198483445Y-80511641D01*
X198477792Y-80509999D01*
X198375019Y-80499500D01*
X198375010Y-80499500D01*
X197024998Y-80499500D01*
X197024981Y-80499501D01*
X197010959Y-80500933D01*
X196922198Y-80510000D01*
X196922193Y-80510001D01*
X196922032Y-80510056D01*
X196755667Y-80565185D01*
X196755665Y-80565186D01*
X196755663Y-80565187D01*
X196736855Y-80576788D01*
X196606340Y-80657290D01*
X196482290Y-80781340D01*
X196452988Y-80828846D01*
X196390675Y-80929873D01*
X196390185Y-80930667D01*
X196390178Y-80930685D01*
X196372678Y-80983500D01*
X196372677Y-80983502D01*
X196345298Y-81066123D01*
X196336852Y-81079066D01*
X196335365Y-81093630D01*
X196334542Y-81099881D01*
X196334387Y-81102913D01*
X196334396Y-81103104D01*
X196334355Y-81103514D01*
X196324500Y-81199983D01*
X196324500Y-82000001D01*
X196324500Y-82000009D01*
X196324503Y-82000045D01*
X196327314Y-82027555D01*
X196335000Y-82102796D01*
X196335001Y-82102799D01*
X196364659Y-82192299D01*
X196390186Y-82269333D01*
X196390187Y-82269336D01*
X196482289Y-82418657D01*
X196606344Y-82542712D01*
X196655368Y-82572950D01*
X196682464Y-82595564D01*
X196691744Y-82605881D01*
X196721942Y-82668887D01*
X196713284Y-82738213D01*
X196709492Y-82746942D01*
X196683442Y-82785216D01*
X196585584Y-82883074D01*
X196483768Y-83023210D01*
X196405129Y-83177549D01*
X196351596Y-83342305D01*
X196324500Y-83513383D01*
X196324500Y-83686614D01*
X196347230Y-83830127D01*
X196351596Y-83857696D01*
X196351598Y-83857701D01*
X196405127Y-84022445D01*
X196483768Y-84176788D01*
X196585586Y-84316928D01*
X196647634Y-84378976D01*
X196708072Y-84439414D01*
X196708571Y-84439823D01*
X196710094Y-84440884D01*
X196776598Y-84489203D01*
X196801909Y-84513801D01*
X196810384Y-84524792D01*
X196835732Y-84589902D01*
X196821859Y-84658373D01*
X196818599Y-84664552D01*
X196781814Y-84707007D01*
X196708069Y-84760587D01*
X196581094Y-84887562D01*
X196576961Y-84894943D01*
X196546688Y-84936610D01*
X196483768Y-85023210D01*
X196405129Y-85177547D01*
X196351596Y-85342301D01*
X196351596Y-85342302D01*
X196331521Y-85469057D01*
X196331521Y-85469060D01*
X196328712Y-85486791D01*
X196327064Y-85497203D01*
X196324500Y-85513389D01*
X196324500Y-85686611D01*
X196324944Y-85689414D01*
X196324945Y-85689418D01*
X196324945Y-85689420D01*
X196324944Y-85689420D01*
X196334489Y-85749682D01*
X196347117Y-85829414D01*
X196351598Y-85857701D01*
X196405127Y-86022445D01*
X196483768Y-86176788D01*
X196585586Y-86316928D01*
X196668656Y-86399998D01*
X196708072Y-86439414D01*
X196708571Y-86439823D01*
X196710094Y-86440884D01*
X196776598Y-86489203D01*
X196801909Y-86513801D01*
X196810384Y-86524792D01*
X196835732Y-86589902D01*
X196821859Y-86658373D01*
X196818599Y-86664552D01*
X196781814Y-86707007D01*
X196708069Y-86760587D01*
X196581094Y-86887562D01*
X196576961Y-86894943D01*
X196546688Y-86936610D01*
X196483768Y-87023210D01*
X196405129Y-87177549D01*
X196351596Y-87342305D01*
X196351595Y-87342306D01*
X196338216Y-87426787D01*
X196338216Y-87426789D01*
X196324500Y-87513384D01*
X196324500Y-87513389D01*
X196324500Y-87686611D01*
X196351598Y-87857701D01*
X196405127Y-88022445D01*
X196483768Y-88176788D01*
X196585586Y-88316928D01*
X196656537Y-88387879D01*
X196708072Y-88439414D01*
X196708571Y-88439823D01*
X196710094Y-88440884D01*
X196776598Y-88489203D01*
X196801909Y-88513801D01*
X196810384Y-88524792D01*
X196835732Y-88589902D01*
X196821859Y-88658373D01*
X196818599Y-88664552D01*
X196781814Y-88707007D01*
X196708069Y-88760587D01*
X196581093Y-88887563D01*
X196576962Y-88894940D01*
X196554027Y-88926508D01*
X196554026Y-88926510D01*
X196483768Y-89023210D01*
X196405129Y-89177547D01*
X196351596Y-89342301D01*
X196343490Y-89393488D01*
X196343490Y-89393489D01*
X196324500Y-89513383D01*
X196324500Y-89686611D01*
X196324499Y-89686611D01*
X194586310Y-89686611D01*
X194582954Y-89681588D01*
X194582953Y-89681587D01*
X194582951Y-89681584D01*
X194478416Y-89577049D01*
X194243666Y-89342299D01*
X193478421Y-88577052D01*
X193478418Y-88577049D01*
X193402911Y-88526598D01*
X193362629Y-88499683D01*
X193362628Y-88499682D01*
X193362624Y-88499679D01*
X193355552Y-88494953D01*
X193354456Y-88494222D01*
X193349828Y-88492568D01*
X193248539Y-88450613D01*
X193218917Y-88438343D01*
X193218913Y-88438341D01*
X193218911Y-88438341D01*
X193218900Y-88438338D01*
X193073922Y-88409500D01*
X193073920Y-88409500D01*
X193073918Y-88409500D01*
X189351815Y-88409500D01*
X189327627Y-88407117D01*
X189307637Y-88403141D01*
X189304131Y-88402444D01*
X189280880Y-88395391D01*
X189268490Y-88390260D01*
X189113849Y-88359500D01*
X189113845Y-88359500D01*
X189113842Y-88359500D01*
X188956158Y-88359500D01*
X188956155Y-88359500D01*
X188956150Y-88359500D01*
X188813479Y-88387879D01*
X188805316Y-88388683D01*
X188801507Y-88390261D01*
X188801505Y-88390262D01*
X188801504Y-88390262D01*
X188801503Y-88390262D01*
X188801500Y-88390264D01*
X188789118Y-88395392D01*
X188765864Y-88402444D01*
X188742375Y-88407117D01*
X188718185Y-88409500D01*
X185316815Y-88409500D01*
X185292627Y-88407117D01*
X185272637Y-88403141D01*
X185269131Y-88402444D01*
X185245880Y-88395391D01*
X185233490Y-88390260D01*
X185078849Y-88359500D01*
X185078845Y-88359500D01*
X185078842Y-88359500D01*
X184921158Y-88359500D01*
X184921155Y-88359500D01*
X184921153Y-88359500D01*
X184766527Y-88390257D01*
X184766496Y-88390264D01*
X184620833Y-88450598D01*
X184620824Y-88450603D01*
X184620807Y-88450613D01*
X184489708Y-88538211D01*
X184489707Y-88538212D01*
X184489701Y-88538217D01*
X184378217Y-88649701D01*
X184378212Y-88649707D01*
X184378211Y-88649708D01*
X184290613Y-88780807D01*
X184290603Y-88780824D01*
X184290598Y-88780833D01*
X184230264Y-88926496D01*
X184230261Y-88926510D01*
X184199500Y-89081150D01*
X184199500Y-89081153D01*
X184199500Y-89238846D01*
X184199500Y-89238848D01*
X184199499Y-89238848D01*
X184230257Y-89393471D01*
X184230264Y-89393502D01*
X184290598Y-89539165D01*
X184290603Y-89539174D01*
X184290613Y-89539191D01*
X184378211Y-89670290D01*
X184378212Y-89670291D01*
X184378217Y-89670297D01*
X184489701Y-89781781D01*
X184489707Y-89781786D01*
X184489711Y-89781789D01*
X184620814Y-89869390D01*
X184620827Y-89869397D01*
X184720060Y-89910500D01*
X184766503Y-89929737D01*
X184766505Y-89929737D01*
X184766510Y-89929739D01*
X184889637Y-89954230D01*
X184913506Y-89958978D01*
X184913512Y-89958979D01*
X184916247Y-89959703D01*
X184921155Y-89960500D01*
X185078844Y-89960500D01*
X185082964Y-89960500D01*
X185090813Y-89958118D01*
X185176447Y-89941085D01*
X185229151Y-89930601D01*
X185232931Y-89929990D01*
X185234348Y-89929662D01*
X185239092Y-89927418D01*
X185245885Y-89924605D01*
X185269134Y-89917554D01*
X185292627Y-89912881D01*
X185316815Y-89910500D01*
X188718183Y-89910500D01*
X188742370Y-89912882D01*
X188765862Y-89917554D01*
X188789130Y-89924612D01*
X188801502Y-89929737D01*
X188801509Y-89929738D01*
X188801511Y-89929739D01*
X188948528Y-89958982D01*
X188951252Y-89959704D01*
X188956155Y-89960500D01*
X189113844Y-89960500D01*
X189117964Y-89960500D01*
X189125813Y-89958118D01*
X189211447Y-89941085D01*
X189264151Y-89930601D01*
X189267931Y-89929990D01*
X189269348Y-89929662D01*
X189274092Y-89927418D01*
X189280885Y-89924605D01*
X189304134Y-89917554D01*
X189327627Y-89912881D01*
X189351815Y-89910500D01*
X192619940Y-89910500D01*
X192654872Y-89915521D01*
X192680116Y-89922934D01*
X192732862Y-89954230D01*
X193200573Y-90421940D01*
X193221723Y-90450192D01*
X193234331Y-90473281D01*
X193249500Y-90532710D01*
X193249500Y-97619940D01*
X193244476Y-97654877D01*
X193237064Y-97680118D01*
X193205769Y-97732862D01*
X190738058Y-100200573D01*
X190709807Y-100221722D01*
X190686719Y-100234330D01*
X190627289Y-100249500D01*
X188826077Y-100249500D01*
X188681104Y-100278336D01*
X188681096Y-100278338D01*
X188681076Y-100278345D01*
X188544519Y-100334908D01*
X188544505Y-100334915D01*
X188544494Y-100334922D01*
X188495269Y-100367813D01*
X188421591Y-100417041D01*
X188421575Y-100417053D01*
X187817050Y-101021578D01*
X187743231Y-101132054D01*
X187743166Y-101132155D01*
X187734928Y-101144484D01*
X187734915Y-101144505D01*
X187734908Y-101144519D01*
X187678345Y-101281076D01*
X187678338Y-101281096D01*
X187678336Y-101281104D01*
X187649500Y-101426074D01*
X187649500Y-101692403D01*
X187648631Y-101695360D01*
X187649357Y-101698357D01*
X187649336Y-101698777D01*
X187647778Y-101729030D01*
X187648737Y-101739490D01*
X187644231Y-101785739D01*
X187637065Y-101810143D01*
X187605769Y-101862888D01*
X187560587Y-101908069D01*
X187510796Y-101976599D01*
X187486198Y-102001909D01*
X187475207Y-102010384D01*
X187410097Y-102035732D01*
X187341619Y-102021856D01*
X187341612Y-102021852D01*
X187335433Y-102018591D01*
X187292992Y-101981813D01*
X187240884Y-101910095D01*
X187239820Y-101908567D01*
X187239414Y-101908072D01*
X187179983Y-101848641D01*
X187116928Y-101785586D01*
X186976788Y-101683768D01*
X186976780Y-101683764D01*
X186822449Y-101605128D01*
X186666532Y-101554467D01*
X186662010Y-101552614D01*
X186652820Y-101550444D01*
X186648057Y-101550070D01*
X186637513Y-101548400D01*
X186526271Y-101530781D01*
X186510407Y-101528268D01*
X186486614Y-101524500D01*
X186486611Y-101524500D01*
X186313389Y-101524500D01*
X186313388Y-101524500D01*
X186273726Y-101530781D01*
X186273725Y-101530780D01*
X186142304Y-101551596D01*
X185977549Y-101605129D01*
X185823218Y-101683764D01*
X185823205Y-101683772D01*
X185761274Y-101728768D01*
X185694942Y-101776961D01*
X185687563Y-101781093D01*
X185560587Y-101908069D01*
X185510796Y-101976599D01*
X185486198Y-102001909D01*
X185475207Y-102010384D01*
X185410097Y-102035732D01*
X185341619Y-102021856D01*
X185341612Y-102021852D01*
X185335433Y-102018591D01*
X185292992Y-101981813D01*
X185240884Y-101910095D01*
X185239820Y-101908567D01*
X185239414Y-101908072D01*
X185179983Y-101848641D01*
X185116928Y-101785586D01*
X184976788Y-101683768D01*
X184976780Y-101683764D01*
X184822449Y-101605128D01*
X184666532Y-101554467D01*
X184662010Y-101552614D01*
X184652820Y-101550444D01*
X184648057Y-101550070D01*
X184637513Y-101548400D01*
X184526271Y-101530781D01*
X184510407Y-101528268D01*
X184486614Y-101524500D01*
X184486611Y-101524500D01*
X184313389Y-101524500D01*
X184313388Y-101524500D01*
X184273726Y-101530781D01*
X184273725Y-101530780D01*
X184142304Y-101551596D01*
X183977549Y-101605129D01*
X183823218Y-101683764D01*
X183823205Y-101683772D01*
X183761274Y-101728768D01*
X183694942Y-101776961D01*
X183687563Y-101781093D01*
X183560587Y-101908069D01*
X183510796Y-101976599D01*
X183486198Y-102001909D01*
X183475207Y-102010384D01*
X183410097Y-102035732D01*
X183341619Y-102021856D01*
X183341612Y-102021852D01*
X183335433Y-102018591D01*
X183292992Y-101981813D01*
X183240884Y-101910095D01*
X183239820Y-101908567D01*
X183239414Y-101908072D01*
X183179983Y-101848641D01*
X183116928Y-101785586D01*
X182976788Y-101683768D01*
X182976780Y-101683764D01*
X182822449Y-101605128D01*
X182666532Y-101554467D01*
X182662010Y-101552614D01*
X182652820Y-101550444D01*
X182648057Y-101550070D01*
X182637513Y-101548400D01*
X182526271Y-101530781D01*
X182510407Y-101528268D01*
X182486614Y-101524500D01*
X182486611Y-101524500D01*
X182313389Y-101524500D01*
X182313388Y-101524500D01*
X182273726Y-101530781D01*
X182273725Y-101530780D01*
X182142304Y-101551596D01*
X181977549Y-101605129D01*
X181823218Y-101683764D01*
X181823205Y-101683772D01*
X181761274Y-101728768D01*
X181694942Y-101776961D01*
X181687563Y-101781093D01*
X181556092Y-101912564D01*
X181551961Y-101919941D01*
X181516859Y-101968255D01*
X181516859Y-101968256D01*
X181458768Y-102048210D01*
X181380101Y-102202604D01*
X181379629Y-102203547D01*
X181378547Y-102207413D01*
X181353362Y-102284926D01*
X181353362Y-102284927D01*
X181326598Y-102367298D01*
X181326597Y-102367298D01*
X181299500Y-102538383D01*
X166087160Y-102538383D01*
X166083029Y-102512302D01*
X166075902Y-102467303D01*
X166075901Y-102467302D01*
X166075901Y-102467301D01*
X166075901Y-102467299D01*
X166022372Y-102302555D01*
X165943731Y-102148212D01*
X165841913Y-102008072D01*
X165719427Y-101885586D01*
X165659242Y-101841859D01*
X165579291Y-101783770D01*
X165579283Y-101783766D01*
X165513262Y-101750127D01*
X165442443Y-101714043D01*
X165437103Y-101710163D01*
X165412786Y-101700090D01*
X165406266Y-101699058D01*
X165334624Y-101675780D01*
X165269031Y-101654467D01*
X165264509Y-101652614D01*
X165255319Y-101650444D01*
X165250556Y-101650070D01*
X165240012Y-101648400D01*
X165128770Y-101630781D01*
X165112906Y-101628268D01*
X165089113Y-101624500D01*
X165089110Y-101624500D01*
X164915888Y-101624500D01*
X164915887Y-101624500D01*
X164876225Y-101630781D01*
X164876224Y-101630780D01*
X164744803Y-101651596D01*
X164580048Y-101705129D01*
X164425709Y-101783768D01*
X164345755Y-101841859D01*
X164345754Y-101841859D01*
X164297440Y-101876961D01*
X164290063Y-101881092D01*
X164158591Y-102012564D01*
X164154460Y-102019941D01*
X164119358Y-102068255D01*
X164119358Y-102068256D01*
X164061267Y-102148210D01*
X163982600Y-102302604D01*
X163982128Y-102303547D01*
X163981046Y-102307413D01*
X163961589Y-102367298D01*
X163961589Y-102367300D01*
X163929095Y-102467301D01*
X163901999Y-102638383D01*
X159100499Y-102638383D01*
X159073402Y-102467299D01*
X159019873Y-102302555D01*
X158941232Y-102148212D01*
X158839414Y-102008072D01*
X158716928Y-101885586D01*
X158656743Y-101841859D01*
X158576792Y-101783770D01*
X158576784Y-101783766D01*
X158510763Y-101750127D01*
X158439944Y-101714043D01*
X158434604Y-101710163D01*
X158410287Y-101700090D01*
X158403767Y-101699058D01*
X158332125Y-101675780D01*
X158266532Y-101654467D01*
X158262010Y-101652614D01*
X158252820Y-101650444D01*
X158248057Y-101650070D01*
X158237513Y-101648400D01*
X158126271Y-101630781D01*
X158110407Y-101628268D01*
X158086614Y-101624500D01*
X158086611Y-101624500D01*
X157913389Y-101624500D01*
X157913388Y-101624500D01*
X157873726Y-101630781D01*
X157873725Y-101630780D01*
X157742304Y-101651596D01*
X157577549Y-101705129D01*
X157423210Y-101783768D01*
X157343256Y-101841859D01*
X157343255Y-101841859D01*
X157294941Y-101876961D01*
X157287564Y-101881092D01*
X157156092Y-102012564D01*
X157151961Y-102019941D01*
X157116859Y-102068255D01*
X157116859Y-102068256D01*
X157058768Y-102148210D01*
X156980101Y-102302604D01*
X156979629Y-102303547D01*
X156978547Y-102307413D01*
X156959090Y-102367298D01*
X156959090Y-102367300D01*
X156926596Y-102467301D01*
X156899500Y-102638383D01*
X152100499Y-102638383D01*
X152073402Y-102467299D01*
X152019873Y-102302555D01*
X151941232Y-102148212D01*
X151839414Y-102008072D01*
X151716928Y-101885586D01*
X151656743Y-101841859D01*
X151576792Y-101783770D01*
X151576784Y-101783766D01*
X151510763Y-101750127D01*
X151439944Y-101714043D01*
X151434604Y-101710163D01*
X151410287Y-101700090D01*
X151403767Y-101699058D01*
X151332125Y-101675780D01*
X151266532Y-101654467D01*
X151262010Y-101652614D01*
X151252820Y-101650444D01*
X151248057Y-101650070D01*
X151237513Y-101648400D01*
X151126271Y-101630781D01*
X151110407Y-101628268D01*
X151086614Y-101624500D01*
X151086611Y-101624500D01*
X150913389Y-101624500D01*
X150913388Y-101624500D01*
X150873726Y-101630781D01*
X150873725Y-101630780D01*
X150742304Y-101651596D01*
X150577549Y-101705129D01*
X150423210Y-101783768D01*
X150343256Y-101841859D01*
X150343255Y-101841859D01*
X150294941Y-101876961D01*
X150287564Y-101881092D01*
X150156092Y-102012564D01*
X150151961Y-102019941D01*
X150116859Y-102068255D01*
X150116859Y-102068256D01*
X150058768Y-102148210D01*
X149980101Y-102302604D01*
X149979629Y-102303547D01*
X149978547Y-102307413D01*
X149959090Y-102367298D01*
X149959090Y-102367300D01*
X149926596Y-102467301D01*
X149899500Y-102638383D01*
X123563372Y-102638383D01*
X123549835Y-102552914D01*
X123549835Y-102552913D01*
X123542890Y-102509065D01*
X123540389Y-102503026D01*
X123496289Y-102367302D01*
X123489873Y-102347555D01*
X123489871Y-102347552D01*
X123489871Y-102347550D01*
X123438917Y-102247547D01*
X123411232Y-102193212D01*
X123309414Y-102053072D01*
X123186928Y-101930586D01*
X123074141Y-101848641D01*
X123046786Y-101828766D01*
X122927123Y-101767796D01*
X122909946Y-101759044D01*
X122904605Y-101755163D01*
X122880287Y-101745090D01*
X122873767Y-101744058D01*
X122781391Y-101714043D01*
X122736532Y-101699467D01*
X122732010Y-101697614D01*
X122722820Y-101695444D01*
X122718057Y-101695070D01*
X122646724Y-101683772D01*
X122596271Y-101675781D01*
X122580407Y-101673268D01*
X122556614Y-101669500D01*
X122556611Y-101669500D01*
X121583389Y-101669500D01*
X121583388Y-101669500D01*
X121543726Y-101675781D01*
X121543725Y-101675780D01*
X121412304Y-101696596D01*
X121247549Y-101750129D01*
X121093211Y-101828767D01*
X121056450Y-101855477D01*
X120964943Y-101921961D01*
X120957562Y-101926094D01*
X120826092Y-102057564D01*
X120821961Y-102064941D01*
X120786859Y-102113255D01*
X120786859Y-102113256D01*
X120728768Y-102193210D01*
X120650129Y-102347549D01*
X120650129Y-102347550D01*
X120650128Y-102347552D01*
X120596798Y-102511685D01*
X120596597Y-102512303D01*
X120569500Y-102683383D01*
X111594500Y-102683383D01*
X111594500Y-102583389D01*
X111567402Y-102412299D01*
X111513873Y-102247555D01*
X111435232Y-102093212D01*
X111333414Y-101953072D01*
X111210928Y-101830586D01*
X111070788Y-101728768D01*
X111056830Y-101721656D01*
X110916449Y-101650128D01*
X110760532Y-101599467D01*
X110756010Y-101597614D01*
X110746820Y-101595444D01*
X110742057Y-101595070D01*
X110665553Y-101582953D01*
X110620271Y-101575781D01*
X110604407Y-101573268D01*
X110580614Y-101569500D01*
X110580611Y-101569500D01*
X109857389Y-101569500D01*
X109857388Y-101569500D01*
X109817726Y-101575781D01*
X109817725Y-101575780D01*
X109686304Y-101596596D01*
X109521549Y-101650129D01*
X109367210Y-101728768D01*
X109291511Y-101783768D01*
X109238943Y-101821961D01*
X109231562Y-101826094D01*
X109100093Y-101957563D01*
X109095961Y-101964942D01*
X109064626Y-102008071D01*
X109020899Y-102068256D01*
X109002768Y-102093211D01*
X109002766Y-102093213D01*
X109002764Y-102093218D01*
X108924129Y-102247547D01*
X108870596Y-102412301D01*
X108854856Y-102511685D01*
X108854844Y-102511764D01*
X108854759Y-102512302D01*
X108843500Y-102583389D01*
X101520498Y-102583389D01*
X101520498Y-100143383D01*
X120569500Y-100143383D01*
X120569500Y-100316610D01*
X120585406Y-100417041D01*
X120596598Y-100487701D01*
X120650127Y-100652445D01*
X120728768Y-100806788D01*
X120830586Y-100946928D01*
X120953072Y-101069414D01*
X121093212Y-101171232D01*
X121247555Y-101249873D01*
X121412299Y-101303402D01*
X121583389Y-101330500D01*
X121583390Y-101330500D01*
X122556610Y-101330500D01*
X122556611Y-101330500D01*
X122727701Y-101303402D01*
X122892445Y-101249873D01*
X123046788Y-101171232D01*
X123186928Y-101069414D01*
X123309414Y-100946928D01*
X123411232Y-100806788D01*
X123489873Y-100652445D01*
X123543402Y-100487701D01*
X123570500Y-100316611D01*
X123570500Y-100143389D01*
X123570499Y-100143383D01*
X143429500Y-100143383D01*
X143429500Y-100316610D01*
X143445406Y-100417041D01*
X143456598Y-100487701D01*
X143510127Y-100652445D01*
X143588768Y-100806788D01*
X143690586Y-100946928D01*
X143813072Y-101069414D01*
X143953212Y-101171232D01*
X144107555Y-101249873D01*
X144272299Y-101303402D01*
X144443389Y-101330500D01*
X144443390Y-101330500D01*
X145416610Y-101330500D01*
X145416611Y-101330500D01*
X145587701Y-101303402D01*
X145752445Y-101249873D01*
X145906788Y-101171232D01*
X146046928Y-101069414D01*
X146169414Y-100946928D01*
X146271232Y-100806788D01*
X146349873Y-100652445D01*
X146403402Y-100487701D01*
X146430500Y-100316611D01*
X146430500Y-100143389D01*
X146403402Y-99972299D01*
X146349873Y-99807555D01*
X146271232Y-99653212D01*
X146169414Y-99513072D01*
X146046928Y-99390586D01*
X145906788Y-99288768D01*
X145752449Y-99210128D01*
X145596532Y-99159467D01*
X145592010Y-99157614D01*
X145582820Y-99155444D01*
X145578057Y-99155070D01*
X145567513Y-99153400D01*
X145456271Y-99135781D01*
X145440407Y-99133268D01*
X145416614Y-99129500D01*
X145416611Y-99129500D01*
X144443389Y-99129500D01*
X144443388Y-99129500D01*
X144403726Y-99135781D01*
X144403725Y-99135780D01*
X144272304Y-99156596D01*
X144107549Y-99210129D01*
X143953210Y-99288768D01*
X143873256Y-99346859D01*
X143873255Y-99346859D01*
X143824941Y-99381961D01*
X143817564Y-99386092D01*
X143686092Y-99517564D01*
X143681961Y-99524941D01*
X143646859Y-99573255D01*
X143646859Y-99573256D01*
X143588768Y-99653210D01*
X143510129Y-99807549D01*
X143456596Y-99972305D01*
X143429500Y-100143383D01*
X123570499Y-100143383D01*
X123543402Y-99972299D01*
X123489873Y-99807555D01*
X123411232Y-99653212D01*
X123309414Y-99513072D01*
X123186928Y-99390586D01*
X123046788Y-99288768D01*
X122892449Y-99210128D01*
X122736532Y-99159467D01*
X122732010Y-99157614D01*
X122722820Y-99155444D01*
X122718057Y-99155070D01*
X122707513Y-99153400D01*
X122596271Y-99135781D01*
X122580407Y-99133268D01*
X122556614Y-99129500D01*
X122556611Y-99129500D01*
X121583389Y-99129500D01*
X121583388Y-99129500D01*
X121543726Y-99135781D01*
X121543725Y-99135780D01*
X121412304Y-99156596D01*
X121247549Y-99210129D01*
X121093210Y-99288768D01*
X121013256Y-99346859D01*
X121013255Y-99346859D01*
X120964941Y-99381961D01*
X120957564Y-99386092D01*
X120826092Y-99517564D01*
X120821961Y-99524941D01*
X120786859Y-99573255D01*
X120786859Y-99573256D01*
X120728768Y-99653210D01*
X120650129Y-99807549D01*
X120596596Y-99972305D01*
X120569500Y-100143383D01*
X101520498Y-100143383D01*
X101520498Y-97603389D01*
X120569500Y-97603389D01*
X120569500Y-97776611D01*
X120596598Y-97947701D01*
X120650127Y-98112445D01*
X120728768Y-98266788D01*
X120830586Y-98406928D01*
X120953072Y-98529414D01*
X121093212Y-98631232D01*
X121247555Y-98709873D01*
X121412299Y-98763402D01*
X121583389Y-98790500D01*
X121583390Y-98790500D01*
X122556610Y-98790500D01*
X122556611Y-98790500D01*
X122727701Y-98763402D01*
X122892445Y-98709873D01*
X123046788Y-98631232D01*
X123186928Y-98529414D01*
X123309414Y-98406928D01*
X123411232Y-98266788D01*
X123489873Y-98112445D01*
X123543402Y-97947701D01*
X123570500Y-97776611D01*
X123570500Y-97603389D01*
X143429500Y-97603389D01*
X143429500Y-97776611D01*
X143456598Y-97947701D01*
X143510127Y-98112445D01*
X143588768Y-98266788D01*
X143690586Y-98406928D01*
X143813072Y-98529414D01*
X143953212Y-98631232D01*
X144107555Y-98709873D01*
X144272299Y-98763402D01*
X144443389Y-98790500D01*
X144443390Y-98790500D01*
X145416610Y-98790500D01*
X145416611Y-98790500D01*
X145587701Y-98763402D01*
X145752445Y-98709873D01*
X145906788Y-98631232D01*
X146046928Y-98529414D01*
X146169414Y-98406928D01*
X146271232Y-98266788D01*
X146349873Y-98112445D01*
X146403402Y-97947701D01*
X146430500Y-97776611D01*
X146430500Y-97603389D01*
X146403402Y-97432299D01*
X146349873Y-97267555D01*
X146271232Y-97113212D01*
X146169414Y-96973072D01*
X146125190Y-96928848D01*
X172949499Y-96928848D01*
X172980257Y-97083471D01*
X172980264Y-97083502D01*
X173040598Y-97229165D01*
X173040603Y-97229174D01*
X173040613Y-97229191D01*
X173128211Y-97360290D01*
X173128212Y-97360291D01*
X173128217Y-97360297D01*
X173239701Y-97471781D01*
X173239707Y-97471786D01*
X173239711Y-97471789D01*
X173370814Y-97559390D01*
X173370827Y-97559397D01*
X173477035Y-97603389D01*
X173516503Y-97619737D01*
X173516505Y-97619737D01*
X173516510Y-97619739D01*
X173607160Y-97637770D01*
X173663513Y-97648979D01*
X173666247Y-97649703D01*
X173671155Y-97650500D01*
X173828844Y-97650500D01*
X173832964Y-97650500D01*
X173840814Y-97648118D01*
X173983497Y-97619737D01*
X174129179Y-97559394D01*
X174203384Y-97509812D01*
X174246053Y-97481301D01*
X174277885Y-97466071D01*
X174297574Y-97459906D01*
X174309529Y-97456164D01*
X174346578Y-97450500D01*
X177902404Y-97450500D01*
X177937336Y-97455521D01*
X177969150Y-97464863D01*
X178003098Y-97480735D01*
X178120814Y-97559390D01*
X178120827Y-97559397D01*
X178227035Y-97603389D01*
X178266503Y-97619737D01*
X178266505Y-97619737D01*
X178266510Y-97619739D01*
X178357160Y-97637770D01*
X178413513Y-97648979D01*
X178416247Y-97649703D01*
X178421155Y-97650500D01*
X178578844Y-97650500D01*
X178582964Y-97650500D01*
X178590814Y-97648118D01*
X178733497Y-97619737D01*
X178879179Y-97559394D01*
X179010289Y-97471789D01*
X179121789Y-97360289D01*
X179209394Y-97229179D01*
X179269737Y-97083497D01*
X179289341Y-96984941D01*
X179301689Y-96922868D01*
X179302130Y-96922955D01*
X179304428Y-96911124D01*
X179309928Y-96892394D01*
X179347672Y-96833644D01*
X179349041Y-96832457D01*
X179403920Y-96804977D01*
X179411479Y-96803333D01*
X179437832Y-96800500D01*
X181162081Y-96800500D01*
X181197017Y-96805523D01*
X181212015Y-96809927D01*
X181270782Y-96847690D01*
X181274157Y-96851584D01*
X181300120Y-96900301D01*
X181300608Y-96902098D01*
X181304300Y-96921992D01*
X181309359Y-96971511D01*
X181309530Y-96974883D01*
X181310001Y-96977801D01*
X181365182Y-97144322D01*
X181365186Y-97144335D01*
X181388869Y-97182730D01*
X181388870Y-97182732D01*
X181457286Y-97293654D01*
X181457288Y-97293656D01*
X181581344Y-97417712D01*
X181730666Y-97509814D01*
X181897203Y-97564999D01*
X181999991Y-97575500D01*
X182800008Y-97575499D01*
X182800058Y-97575499D01*
X182800225Y-97575489D01*
X182801331Y-97575363D01*
X182846459Y-97570753D01*
X182856303Y-97569748D01*
X182856303Y-97569747D01*
X182902797Y-97564999D01*
X183069334Y-97509814D01*
X183218656Y-97417712D01*
X183342712Y-97293656D01*
X183372951Y-97244629D01*
X183395559Y-97217538D01*
X183405890Y-97208246D01*
X183468895Y-97178054D01*
X183538219Y-97186715D01*
X183546945Y-97190506D01*
X183585212Y-97216554D01*
X183683072Y-97314414D01*
X183823212Y-97416232D01*
X183977555Y-97494873D01*
X184142299Y-97548402D01*
X184313389Y-97575500D01*
X184313390Y-97575500D01*
X184486610Y-97575500D01*
X184486611Y-97575500D01*
X184657701Y-97548402D01*
X184822445Y-97494873D01*
X184976788Y-97416232D01*
X185116928Y-97314414D01*
X185239414Y-97191928D01*
X185289203Y-97123397D01*
X185313797Y-97098091D01*
X185324794Y-97089611D01*
X185389899Y-97064265D01*
X185458370Y-97078138D01*
X185464551Y-97081399D01*
X185507007Y-97118185D01*
X185550506Y-97178054D01*
X185560586Y-97191928D01*
X185683072Y-97314414D01*
X185823212Y-97416232D01*
X185977555Y-97494873D01*
X186142299Y-97548402D01*
X186313389Y-97575500D01*
X186313390Y-97575500D01*
X186486610Y-97575500D01*
X186486611Y-97575500D01*
X186657701Y-97548402D01*
X186822445Y-97494873D01*
X186976788Y-97416232D01*
X187116928Y-97314414D01*
X187239414Y-97191928D01*
X187289203Y-97123397D01*
X187313797Y-97098091D01*
X187324794Y-97089611D01*
X187389899Y-97064265D01*
X187458370Y-97078138D01*
X187464551Y-97081399D01*
X187507007Y-97118185D01*
X187550506Y-97178054D01*
X187560586Y-97191928D01*
X187683072Y-97314414D01*
X187823212Y-97416232D01*
X187977555Y-97494873D01*
X188142299Y-97548402D01*
X188313389Y-97575500D01*
X188313390Y-97575500D01*
X188486610Y-97575500D01*
X188486611Y-97575500D01*
X188657701Y-97548402D01*
X188822445Y-97494873D01*
X188976788Y-97416232D01*
X189116928Y-97314414D01*
X189239414Y-97191928D01*
X189289203Y-97123397D01*
X189313797Y-97098091D01*
X189324794Y-97089611D01*
X189389899Y-97064265D01*
X189458370Y-97078138D01*
X189464551Y-97081399D01*
X189507007Y-97118185D01*
X189550506Y-97178054D01*
X189560586Y-97191928D01*
X189683072Y-97314414D01*
X189823212Y-97416232D01*
X189977555Y-97494873D01*
X190142299Y-97548402D01*
X190313389Y-97575500D01*
X190313390Y-97575500D01*
X190486610Y-97575500D01*
X190486611Y-97575500D01*
X190657701Y-97548402D01*
X190822445Y-97494873D01*
X190976788Y-97416232D01*
X191116928Y-97314414D01*
X191239414Y-97191928D01*
X191341232Y-97051788D01*
X191419873Y-96897445D01*
X191473402Y-96732701D01*
X191500500Y-96561611D01*
X191500500Y-95838389D01*
X191473402Y-95667299D01*
X191419873Y-95502555D01*
X191341232Y-95348212D01*
X191239414Y-95208072D01*
X191116928Y-95085586D01*
X190976788Y-94983768D01*
X190973881Y-94982287D01*
X190822449Y-94905128D01*
X190666532Y-94854467D01*
X190662010Y-94852614D01*
X190652820Y-94850444D01*
X190648057Y-94850070D01*
X190570631Y-94837807D01*
X190526271Y-94830781D01*
X190510407Y-94828268D01*
X190486614Y-94824500D01*
X190486611Y-94824500D01*
X190313389Y-94824500D01*
X190313388Y-94824500D01*
X190273726Y-94830781D01*
X190273725Y-94830780D01*
X190142304Y-94851596D01*
X189977549Y-94905129D01*
X189823210Y-94983768D01*
X189743256Y-95041859D01*
X189743255Y-95041859D01*
X189694941Y-95076961D01*
X189687564Y-95081092D01*
X189560587Y-95208069D01*
X189510796Y-95276599D01*
X189486198Y-95301909D01*
X189475207Y-95310384D01*
X189410097Y-95335732D01*
X189341619Y-95321856D01*
X189341612Y-95321852D01*
X189335433Y-95318591D01*
X189292992Y-95281813D01*
X189240884Y-95210095D01*
X189239820Y-95208567D01*
X189239414Y-95208072D01*
X189190225Y-95158883D01*
X189116928Y-95085586D01*
X188976788Y-94983768D01*
X188973881Y-94982287D01*
X188822449Y-94905128D01*
X188666532Y-94854467D01*
X188662010Y-94852614D01*
X188652820Y-94850444D01*
X188648057Y-94850070D01*
X188570631Y-94837807D01*
X188526271Y-94830781D01*
X188510407Y-94828268D01*
X188486614Y-94824500D01*
X188486611Y-94824500D01*
X188313389Y-94824500D01*
X188313388Y-94824500D01*
X188273726Y-94830781D01*
X188273725Y-94830780D01*
X188142304Y-94851596D01*
X187977549Y-94905129D01*
X187823210Y-94983768D01*
X187743256Y-95041859D01*
X187743255Y-95041859D01*
X187694941Y-95076961D01*
X187687564Y-95081092D01*
X187560587Y-95208069D01*
X187510796Y-95276599D01*
X187486198Y-95301909D01*
X187475207Y-95310384D01*
X187410097Y-95335732D01*
X187341619Y-95321856D01*
X187341612Y-95321852D01*
X187335433Y-95318591D01*
X187292992Y-95281813D01*
X187240884Y-95210095D01*
X187239820Y-95208567D01*
X187239414Y-95208072D01*
X187190225Y-95158883D01*
X187116928Y-95085586D01*
X186976788Y-94983768D01*
X186973881Y-94982287D01*
X186822449Y-94905128D01*
X186666532Y-94854467D01*
X186662010Y-94852614D01*
X186652820Y-94850444D01*
X186648057Y-94850070D01*
X186570631Y-94837807D01*
X186526271Y-94830781D01*
X186510407Y-94828268D01*
X186486614Y-94824500D01*
X186486611Y-94824500D01*
X186313389Y-94824500D01*
X186313388Y-94824500D01*
X186273726Y-94830781D01*
X186273725Y-94830780D01*
X186142304Y-94851596D01*
X185977549Y-94905129D01*
X185823210Y-94983768D01*
X185743256Y-95041859D01*
X185743255Y-95041859D01*
X185694941Y-95076961D01*
X185687564Y-95081092D01*
X185560587Y-95208069D01*
X185510796Y-95276599D01*
X185486198Y-95301909D01*
X185475207Y-95310384D01*
X185410097Y-95335732D01*
X185341619Y-95321856D01*
X185341612Y-95321852D01*
X185335433Y-95318591D01*
X185292992Y-95281813D01*
X185240884Y-95210095D01*
X185239820Y-95208567D01*
X185239414Y-95208072D01*
X185190225Y-95158883D01*
X185116928Y-95085586D01*
X184976788Y-94983768D01*
X184973881Y-94982287D01*
X184822449Y-94905128D01*
X184666532Y-94854467D01*
X184662010Y-94852614D01*
X184652820Y-94850444D01*
X184648057Y-94850070D01*
X184570631Y-94837807D01*
X184526271Y-94830781D01*
X184510407Y-94828268D01*
X184486614Y-94824500D01*
X184486611Y-94824500D01*
X184313389Y-94824500D01*
X184313388Y-94824500D01*
X184273726Y-94830781D01*
X184273725Y-94830780D01*
X184142304Y-94851596D01*
X183977549Y-94905129D01*
X183823210Y-94983768D01*
X183683074Y-95085584D01*
X183588138Y-95180520D01*
X183559881Y-95201672D01*
X183547698Y-95208324D01*
X183479425Y-95223174D01*
X183413962Y-95198756D01*
X183406344Y-95193053D01*
X183375120Y-95158886D01*
X183358168Y-95131403D01*
X183342712Y-95106344D01*
X183218656Y-94982288D01*
X183218655Y-94982287D01*
X183093559Y-94905128D01*
X183093559Y-94905127D01*
X183093557Y-94905127D01*
X183069336Y-94890187D01*
X183069331Y-94890185D01*
X183067862Y-94889698D01*
X182911265Y-94837807D01*
X182908445Y-94836641D01*
X182902792Y-94834999D01*
X182800019Y-94824500D01*
X182800010Y-94824500D01*
X181999998Y-94824500D01*
X181999980Y-94824501D01*
X181999972Y-94824501D01*
X181999953Y-94824503D01*
X181897197Y-94835000D01*
X181897193Y-94835001D01*
X181897032Y-94835056D01*
X181730667Y-94890185D01*
X181730665Y-94890186D01*
X181730663Y-94890187D01*
X181631115Y-94951588D01*
X181581340Y-94982290D01*
X181457290Y-95106340D01*
X181365187Y-95255662D01*
X181365187Y-95255663D01*
X181365186Y-95255666D01*
X181344335Y-95318591D01*
X181314807Y-95407700D01*
X181314804Y-95407708D01*
X181312411Y-95414928D01*
X181310174Y-95420499D01*
X181305079Y-95470368D01*
X181296533Y-95504607D01*
X181290628Y-95519080D01*
X181247075Y-95573716D01*
X181243224Y-95576420D01*
X181242848Y-95576685D01*
X181191814Y-95597537D01*
X181189974Y-95597841D01*
X181169761Y-95599500D01*
X175097596Y-95599500D01*
X175062661Y-95594477D01*
X175030852Y-95585137D01*
X174996898Y-95569263D01*
X174879185Y-95490609D01*
X174879172Y-95490602D01*
X174879165Y-95490598D01*
X174733502Y-95430264D01*
X174733471Y-95430257D01*
X174578847Y-95399500D01*
X174578845Y-95399500D01*
X174578842Y-95399500D01*
X174421158Y-95399500D01*
X174421155Y-95399500D01*
X174421153Y-95399500D01*
X174266527Y-95430257D01*
X174266496Y-95430264D01*
X174120833Y-95490598D01*
X174120824Y-95490603D01*
X174120807Y-95490613D01*
X173989708Y-95578211D01*
X173989707Y-95578212D01*
X173989701Y-95578217D01*
X173878217Y-95689701D01*
X173878212Y-95689707D01*
X173878211Y-95689708D01*
X173790613Y-95820807D01*
X173790603Y-95820824D01*
X173790600Y-95820829D01*
X173731879Y-95962597D01*
X173721023Y-95983125D01*
X173709339Y-96000949D01*
X173659643Y-96044588D01*
X173648640Y-96049912D01*
X173618822Y-96059909D01*
X173516514Y-96080259D01*
X173516508Y-96080261D01*
X173516498Y-96080264D01*
X173516493Y-96080265D01*
X173516475Y-96080272D01*
X173370833Y-96140598D01*
X173370824Y-96140603D01*
X173370807Y-96140613D01*
X173239708Y-96228211D01*
X173239707Y-96228212D01*
X173239701Y-96228217D01*
X173128217Y-96339701D01*
X173128212Y-96339707D01*
X173128211Y-96339708D01*
X173040613Y-96470807D01*
X173040603Y-96470824D01*
X173040598Y-96470833D01*
X172980264Y-96616496D01*
X172980257Y-96616527D01*
X172949500Y-96771150D01*
X172949500Y-96771153D01*
X172949500Y-96928846D01*
X172949500Y-96928848D01*
X172949499Y-96928848D01*
X146125190Y-96928848D01*
X146046928Y-96850586D01*
X145906788Y-96748768D01*
X145752449Y-96670128D01*
X145596532Y-96619467D01*
X145592010Y-96617614D01*
X145582820Y-96615444D01*
X145578057Y-96615070D01*
X145567513Y-96613400D01*
X145456271Y-96595781D01*
X145440407Y-96593268D01*
X145416614Y-96589500D01*
X145416611Y-96589500D01*
X144443389Y-96589500D01*
X144443388Y-96589500D01*
X144403726Y-96595781D01*
X144403725Y-96595780D01*
X144272304Y-96616596D01*
X144107549Y-96670129D01*
X143953210Y-96748768D01*
X143882009Y-96800500D01*
X143824943Y-96841961D01*
X143817562Y-96846094D01*
X143686092Y-96977564D01*
X143681961Y-96984941D01*
X143588772Y-97113205D01*
X143588768Y-97113211D01*
X143588766Y-97113213D01*
X143588764Y-97113218D01*
X143510129Y-97267549D01*
X143456596Y-97432305D01*
X143456595Y-97432306D01*
X143434093Y-97574382D01*
X143434085Y-97574432D01*
X143433917Y-97575499D01*
X143429500Y-97603389D01*
X123570500Y-97603389D01*
X123543402Y-97432299D01*
X123489873Y-97267555D01*
X123411232Y-97113212D01*
X123309414Y-96973072D01*
X123186928Y-96850586D01*
X123046788Y-96748768D01*
X122892449Y-96670128D01*
X122736532Y-96619467D01*
X122732010Y-96617614D01*
X122722820Y-96615444D01*
X122718057Y-96615070D01*
X122707513Y-96613400D01*
X122596271Y-96595781D01*
X122580407Y-96593268D01*
X122556614Y-96589500D01*
X122556611Y-96589500D01*
X121583389Y-96589500D01*
X121583388Y-96589500D01*
X121543726Y-96595781D01*
X121543725Y-96595780D01*
X121412304Y-96616596D01*
X121247549Y-96670129D01*
X121093210Y-96748768D01*
X121022009Y-96800500D01*
X120964943Y-96841961D01*
X120957562Y-96846094D01*
X120826092Y-96977564D01*
X120821961Y-96984941D01*
X120728772Y-97113205D01*
X120728768Y-97113211D01*
X120728766Y-97113213D01*
X120728764Y-97113218D01*
X120650129Y-97267549D01*
X120596596Y-97432305D01*
X120596595Y-97432306D01*
X120574093Y-97574382D01*
X120574085Y-97574432D01*
X120573917Y-97575499D01*
X120569500Y-97603389D01*
X101520498Y-97603389D01*
X101520498Y-93673389D01*
X108844500Y-93673389D01*
X108844500Y-93846611D01*
X108871598Y-94017701D01*
X108925127Y-94182445D01*
X109003768Y-94336788D01*
X109105586Y-94476928D01*
X109201869Y-94573211D01*
X109228072Y-94599414D01*
X109228571Y-94599823D01*
X109230094Y-94600884D01*
X109296598Y-94649203D01*
X109321909Y-94673801D01*
X109330384Y-94684792D01*
X109355732Y-94749902D01*
X109341859Y-94818373D01*
X109338599Y-94824552D01*
X109301814Y-94867007D01*
X109228069Y-94920587D01*
X109101093Y-95047563D01*
X109096964Y-95054937D01*
X109080964Y-95076961D01*
X109074698Y-95085586D01*
X109041409Y-95131404D01*
X109003767Y-95183212D01*
X109003764Y-95183218D01*
X108925129Y-95337549D01*
X108871596Y-95502305D01*
X108844500Y-95673383D01*
X108844500Y-95846614D01*
X108847718Y-95866929D01*
X108867117Y-95989414D01*
X108871598Y-96017701D01*
X108925127Y-96182445D01*
X109003768Y-96336788D01*
X109105586Y-96476928D01*
X109228072Y-96599414D01*
X109368212Y-96701232D01*
X109522555Y-96779873D01*
X109687299Y-96833402D01*
X109858389Y-96860500D01*
X109858390Y-96860500D01*
X110581610Y-96860500D01*
X110581611Y-96860500D01*
X110752701Y-96833402D01*
X110917445Y-96779873D01*
X111071788Y-96701232D01*
X111211928Y-96599414D01*
X111334414Y-96476928D01*
X111436232Y-96336788D01*
X111514873Y-96182445D01*
X111568402Y-96017701D01*
X111595500Y-95846611D01*
X111595500Y-95673389D01*
X111568402Y-95502299D01*
X111514873Y-95337555D01*
X111436232Y-95183212D01*
X111349174Y-95063388D01*
X120569500Y-95063388D01*
X120569500Y-95063389D01*
X120569500Y-95236611D01*
X120596598Y-95407701D01*
X120650127Y-95572445D01*
X120728768Y-95726788D01*
X120830586Y-95866928D01*
X120953072Y-95989414D01*
X121093212Y-96091232D01*
X121247555Y-96169873D01*
X121412299Y-96223402D01*
X121583389Y-96250500D01*
X121583390Y-96250500D01*
X122556610Y-96250500D01*
X122556611Y-96250500D01*
X122727701Y-96223402D01*
X122892445Y-96169873D01*
X123046788Y-96091232D01*
X123186928Y-95989414D01*
X123309414Y-95866928D01*
X123411232Y-95726788D01*
X123489873Y-95572445D01*
X123543402Y-95407701D01*
X123570500Y-95236611D01*
X123570500Y-95063389D01*
X123570500Y-95063388D01*
X143429500Y-95063388D01*
X143429500Y-95063389D01*
X143429500Y-95236611D01*
X143456598Y-95407701D01*
X143510127Y-95572445D01*
X143588768Y-95726788D01*
X143690586Y-95866928D01*
X143813072Y-95989414D01*
X143953212Y-96091232D01*
X144107555Y-96169873D01*
X144272299Y-96223402D01*
X144443389Y-96250500D01*
X144443390Y-96250500D01*
X145416610Y-96250500D01*
X145416611Y-96250500D01*
X145587701Y-96223402D01*
X145752445Y-96169873D01*
X145906788Y-96091232D01*
X146046928Y-95989414D01*
X146169414Y-95866928D01*
X146271232Y-95726788D01*
X146349873Y-95572445D01*
X146403402Y-95407701D01*
X146430500Y-95236611D01*
X146430500Y-95063389D01*
X146403402Y-94892299D01*
X146349873Y-94727555D01*
X146271232Y-94573212D01*
X146169414Y-94433072D01*
X146046928Y-94310586D01*
X145906788Y-94208768D01*
X145855126Y-94182445D01*
X145752449Y-94130128D01*
X145596532Y-94079467D01*
X145592010Y-94077614D01*
X145582820Y-94075444D01*
X145578057Y-94075070D01*
X145567513Y-94073400D01*
X145456271Y-94055781D01*
X145440407Y-94053268D01*
X145416614Y-94049500D01*
X145416611Y-94049500D01*
X144443389Y-94049500D01*
X144443388Y-94049500D01*
X144403726Y-94055781D01*
X144403725Y-94055780D01*
X144272304Y-94076596D01*
X144107549Y-94130129D01*
X143953210Y-94208768D01*
X143873256Y-94266859D01*
X143873255Y-94266859D01*
X143824941Y-94301961D01*
X143817564Y-94306092D01*
X143686093Y-94437563D01*
X143681964Y-94444937D01*
X143662978Y-94471070D01*
X143658723Y-94476928D01*
X143603788Y-94552537D01*
X143588767Y-94573212D01*
X143588764Y-94573218D01*
X143510129Y-94727549D01*
X143456596Y-94892305D01*
X143432717Y-95043066D01*
X143432718Y-95043067D01*
X143429500Y-95063388D01*
X123570500Y-95063388D01*
X123543402Y-94892299D01*
X123489873Y-94727555D01*
X123411232Y-94573212D01*
X123309414Y-94433072D01*
X123186928Y-94310586D01*
X123046788Y-94208768D01*
X122995126Y-94182445D01*
X122892449Y-94130128D01*
X122736532Y-94079467D01*
X122732010Y-94077614D01*
X122722820Y-94075444D01*
X122718057Y-94075070D01*
X122707513Y-94073400D01*
X122596271Y-94055781D01*
X122580407Y-94053268D01*
X122556614Y-94049500D01*
X122556611Y-94049500D01*
X121583389Y-94049500D01*
X121583388Y-94049500D01*
X121543726Y-94055781D01*
X121543725Y-94055780D01*
X121412304Y-94076596D01*
X121247549Y-94130129D01*
X121093210Y-94208768D01*
X121013256Y-94266859D01*
X121013255Y-94266859D01*
X120964941Y-94301961D01*
X120957564Y-94306092D01*
X120826093Y-94437563D01*
X120821964Y-94444937D01*
X120802978Y-94471070D01*
X120798723Y-94476928D01*
X120743788Y-94552537D01*
X120728767Y-94573212D01*
X120728764Y-94573218D01*
X120650129Y-94727549D01*
X120596596Y-94892305D01*
X120572717Y-95043066D01*
X120572718Y-95043067D01*
X120569500Y-95063388D01*
X111349174Y-95063388D01*
X111334414Y-95043072D01*
X111211928Y-94920586D01*
X111143397Y-94870795D01*
X111118091Y-94846202D01*
X111117731Y-94845735D01*
X111109615Y-94835210D01*
X111084265Y-94770103D01*
X111098138Y-94701626D01*
X111101404Y-94695437D01*
X111138185Y-94652990D01*
X111211365Y-94599823D01*
X111211924Y-94599417D01*
X111211924Y-94599416D01*
X111211928Y-94599414D01*
X111334414Y-94476928D01*
X111436232Y-94336788D01*
X111514873Y-94182445D01*
X111568402Y-94017701D01*
X111595500Y-93846611D01*
X111595500Y-93673389D01*
X111568402Y-93502299D01*
X111514873Y-93337555D01*
X111436232Y-93183212D01*
X111334414Y-93043072D01*
X111211928Y-92920586D01*
X111071788Y-92818768D01*
X111071780Y-92818764D01*
X110917449Y-92740128D01*
X110761532Y-92689467D01*
X110757010Y-92687614D01*
X110747820Y-92685444D01*
X110743057Y-92685070D01*
X110732513Y-92683400D01*
X110621271Y-92665781D01*
X110605407Y-92663268D01*
X110581614Y-92659500D01*
X110581611Y-92659500D01*
X109858389Y-92659500D01*
X109858388Y-92659500D01*
X109818726Y-92665781D01*
X109818725Y-92665780D01*
X109687304Y-92686596D01*
X109522549Y-92740129D01*
X109368218Y-92818764D01*
X109368205Y-92818772D01*
X109300866Y-92867696D01*
X109300867Y-92867697D01*
X109239943Y-92911961D01*
X109232562Y-92916094D01*
X109101092Y-93047564D01*
X109096961Y-93054941D01*
X109061859Y-93103255D01*
X109061859Y-93103256D01*
X109003768Y-93183210D01*
X108925129Y-93337549D01*
X108871596Y-93502305D01*
X108871595Y-93502306D01*
X108851526Y-93629021D01*
X108851515Y-93629091D01*
X108851392Y-93629873D01*
X108844500Y-93673389D01*
X101520498Y-93673389D01*
X101520498Y-92523383D01*
X120569500Y-92523383D01*
X120569500Y-92523389D01*
X120569500Y-92696611D01*
X120596598Y-92867701D01*
X120650127Y-93032445D01*
X120728768Y-93186788D01*
X120830586Y-93326928D01*
X120953072Y-93449414D01*
X121093212Y-93551232D01*
X121247555Y-93629873D01*
X121412299Y-93683402D01*
X121583389Y-93710500D01*
X121583390Y-93710500D01*
X122556610Y-93710500D01*
X122556611Y-93710500D01*
X122727701Y-93683402D01*
X122892445Y-93629873D01*
X123046788Y-93551232D01*
X123186928Y-93449414D01*
X123309414Y-93326928D01*
X123411232Y-93186788D01*
X123489873Y-93032445D01*
X123543402Y-92867701D01*
X123570500Y-92696611D01*
X123570500Y-92523389D01*
X123570499Y-92523383D01*
X143429500Y-92523383D01*
X143429500Y-92523389D01*
X143429500Y-92696611D01*
X143456598Y-92867701D01*
X143510127Y-93032445D01*
X143588768Y-93186788D01*
X143690586Y-93326928D01*
X143813072Y-93449414D01*
X143953212Y-93551232D01*
X144107555Y-93629873D01*
X144272299Y-93683402D01*
X144443389Y-93710500D01*
X144443390Y-93710500D01*
X145416610Y-93710500D01*
X145416611Y-93710500D01*
X145587701Y-93683402D01*
X145752445Y-93629873D01*
X145906788Y-93551232D01*
X146046928Y-93449414D01*
X146169414Y-93326928D01*
X146271232Y-93186788D01*
X146349873Y-93032445D01*
X146403402Y-92867701D01*
X146430500Y-92696611D01*
X146430500Y-92523389D01*
X146403402Y-92352299D01*
X146349873Y-92187555D01*
X146271232Y-92033212D01*
X146169414Y-91893072D01*
X146046928Y-91770586D01*
X145906788Y-91668768D01*
X145752449Y-91590128D01*
X145596532Y-91539467D01*
X145592010Y-91537614D01*
X145582820Y-91535444D01*
X145578057Y-91535070D01*
X145567513Y-91533400D01*
X145456271Y-91515781D01*
X145440407Y-91513268D01*
X145416614Y-91509500D01*
X145416611Y-91509500D01*
X144443389Y-91509500D01*
X144443388Y-91509500D01*
X144403726Y-91515781D01*
X144403725Y-91515780D01*
X144272304Y-91536596D01*
X144107549Y-91590129D01*
X143953210Y-91668768D01*
X143873256Y-91726859D01*
X143873255Y-91726859D01*
X143824941Y-91761961D01*
X143817564Y-91766092D01*
X143686092Y-91897564D01*
X143681961Y-91904941D01*
X143646859Y-91953255D01*
X143646859Y-91953256D01*
X143588768Y-92033210D01*
X143510129Y-92187549D01*
X143456596Y-92352305D01*
X143429500Y-92523383D01*
X123570499Y-92523383D01*
X123543402Y-92352299D01*
X123489873Y-92187555D01*
X123411232Y-92033212D01*
X123309414Y-91893072D01*
X123186928Y-91770586D01*
X123046788Y-91668768D01*
X122892449Y-91590128D01*
X122736532Y-91539467D01*
X122732010Y-91537614D01*
X122722820Y-91535444D01*
X122718057Y-91535070D01*
X122707513Y-91533400D01*
X122596271Y-91515781D01*
X122580407Y-91513268D01*
X122556614Y-91509500D01*
X122556611Y-91509500D01*
X121583389Y-91509500D01*
X121583388Y-91509500D01*
X121543726Y-91515781D01*
X121543725Y-91515780D01*
X121412304Y-91536596D01*
X121247549Y-91590129D01*
X121093210Y-91668768D01*
X121013256Y-91726859D01*
X121013255Y-91726859D01*
X120964941Y-91761961D01*
X120957564Y-91766092D01*
X120826092Y-91897564D01*
X120821961Y-91904941D01*
X120786859Y-91953255D01*
X120786859Y-91953256D01*
X120728768Y-92033210D01*
X120650129Y-92187549D01*
X120596596Y-92352305D01*
X120569500Y-92523383D01*
X101520498Y-92523383D01*
X101520498Y-89983383D01*
X120569500Y-89983383D01*
X120569500Y-90156615D01*
X120594889Y-90316922D01*
X120594890Y-90316922D01*
X120596598Y-90327701D01*
X120650128Y-90492449D01*
X120715053Y-90619871D01*
X120728768Y-90646788D01*
X120830586Y-90786928D01*
X120953072Y-90909414D01*
X121093212Y-91011232D01*
X121247555Y-91089873D01*
X121412299Y-91143402D01*
X121583389Y-91170500D01*
X121583390Y-91170500D01*
X122556610Y-91170500D01*
X122556611Y-91170500D01*
X122727701Y-91143402D01*
X122892445Y-91089873D01*
X123046788Y-91011232D01*
X123186928Y-90909414D01*
X123309414Y-90786928D01*
X123411232Y-90646788D01*
X123489873Y-90492445D01*
X123543402Y-90327701D01*
X123570500Y-90156611D01*
X123570500Y-89983389D01*
X123570499Y-89983383D01*
X143429500Y-89983383D01*
X143429500Y-90156615D01*
X143454889Y-90316922D01*
X143454890Y-90316922D01*
X143456598Y-90327701D01*
X143510128Y-90492449D01*
X143575053Y-90619871D01*
X143588768Y-90646788D01*
X143690586Y-90786928D01*
X143813072Y-90909414D01*
X143953212Y-91011232D01*
X144107555Y-91089873D01*
X144272299Y-91143402D01*
X144443389Y-91170500D01*
X144443390Y-91170500D01*
X145416610Y-91170500D01*
X145416611Y-91170500D01*
X145587701Y-91143402D01*
X145752445Y-91089873D01*
X145906788Y-91011232D01*
X146046928Y-90909414D01*
X146169414Y-90786928D01*
X146271232Y-90646788D01*
X146349873Y-90492445D01*
X146403402Y-90327701D01*
X146430500Y-90156611D01*
X146430500Y-89983389D01*
X146403402Y-89812299D01*
X146349873Y-89647555D01*
X146271232Y-89493212D01*
X146169414Y-89353072D01*
X146046928Y-89230586D01*
X145994185Y-89192266D01*
X145906792Y-89128770D01*
X145906784Y-89128766D01*
X145813347Y-89081158D01*
X145769944Y-89059043D01*
X145764604Y-89055163D01*
X145740287Y-89045090D01*
X145733767Y-89044058D01*
X145669604Y-89023210D01*
X145596532Y-88999467D01*
X145592010Y-88997614D01*
X145582820Y-88995444D01*
X145578057Y-88995070D01*
X145567513Y-88993400D01*
X145456271Y-88975781D01*
X145440407Y-88973268D01*
X145416614Y-88969500D01*
X145416611Y-88969500D01*
X144443389Y-88969500D01*
X144443388Y-88969500D01*
X144403726Y-88975781D01*
X144403725Y-88975780D01*
X144272304Y-88996596D01*
X144107549Y-89050129D01*
X143953210Y-89128768D01*
X143911858Y-89158813D01*
X143886067Y-89177552D01*
X143824943Y-89221961D01*
X143817562Y-89226094D01*
X143686093Y-89357563D01*
X143681963Y-89364939D01*
X143661214Y-89393499D01*
X143661212Y-89393502D01*
X143588767Y-89493211D01*
X143510129Y-89647549D01*
X143456597Y-89812302D01*
X143429500Y-89983383D01*
X123570499Y-89983383D01*
X123543402Y-89812299D01*
X123489873Y-89647555D01*
X123411232Y-89493212D01*
X123309414Y-89353072D01*
X123186928Y-89230586D01*
X123134185Y-89192266D01*
X123046792Y-89128770D01*
X123046784Y-89128766D01*
X122957301Y-89083172D01*
X122957293Y-89083168D01*
X122953347Y-89081158D01*
X122948813Y-89078848D01*
X141199499Y-89078848D01*
X141230253Y-89233450D01*
X141230264Y-89233502D01*
X141290598Y-89379165D01*
X141290603Y-89379174D01*
X141290613Y-89379191D01*
X141378211Y-89510290D01*
X141378212Y-89510291D01*
X141378217Y-89510297D01*
X141489701Y-89621781D01*
X141489707Y-89621786D01*
X141489711Y-89621789D01*
X141620814Y-89709390D01*
X141620827Y-89709397D01*
X141766498Y-89769735D01*
X141766503Y-89769737D01*
X141913513Y-89798979D01*
X141916247Y-89799703D01*
X141921155Y-89800500D01*
X142078844Y-89800500D01*
X142082964Y-89800500D01*
X142090814Y-89798118D01*
X142233497Y-89769737D01*
X142357834Y-89718235D01*
X142379172Y-89709397D01*
X142379172Y-89709396D01*
X142379179Y-89709394D01*
X142510289Y-89621789D01*
X142621789Y-89510289D01*
X142709394Y-89379179D01*
X142769737Y-89233497D01*
X142800500Y-89078842D01*
X142800500Y-88921158D01*
X142800500Y-88921155D01*
X142800500Y-88920971D01*
X142800064Y-88918966D01*
X142792924Y-88883070D01*
X142772586Y-88780827D01*
X142769737Y-88766503D01*
X142767284Y-88760581D01*
X142709397Y-88620827D01*
X142709390Y-88620814D01*
X142709379Y-88620797D01*
X142631304Y-88503949D01*
X142616071Y-88472111D01*
X142606165Y-88440474D01*
X142600500Y-88403422D01*
X142600500Y-87443389D01*
X143429500Y-87443389D01*
X143429500Y-87616611D01*
X143456598Y-87787701D01*
X143510127Y-87952445D01*
X143588768Y-88106788D01*
X143690586Y-88246928D01*
X143813072Y-88369414D01*
X143953212Y-88471232D01*
X144107555Y-88549873D01*
X144272299Y-88603402D01*
X144443389Y-88630500D01*
X144443390Y-88630500D01*
X145416610Y-88630500D01*
X145416611Y-88630500D01*
X145587701Y-88603402D01*
X145752445Y-88549873D01*
X145906788Y-88471232D01*
X146046928Y-88369414D01*
X146169414Y-88246928D01*
X146271232Y-88106788D01*
X146349873Y-87952445D01*
X146403402Y-87787701D01*
X146430500Y-87616611D01*
X146430500Y-87443389D01*
X146403402Y-87272299D01*
X146349873Y-87107555D01*
X146271232Y-86953212D01*
X146169414Y-86813072D01*
X146046928Y-86690586D01*
X145906788Y-86588768D01*
X145840540Y-86555013D01*
X145752449Y-86510128D01*
X145596532Y-86459467D01*
X145592010Y-86457614D01*
X145582820Y-86455444D01*
X145578057Y-86455070D01*
X145567513Y-86453400D01*
X145456271Y-86435781D01*
X145440407Y-86433268D01*
X145416614Y-86429500D01*
X145416611Y-86429500D01*
X144443389Y-86429500D01*
X144443388Y-86429500D01*
X144403726Y-86435781D01*
X144403725Y-86435780D01*
X144272304Y-86456596D01*
X144107549Y-86510129D01*
X143953218Y-86588764D01*
X143953205Y-86588772D01*
X143875831Y-86644988D01*
X143824942Y-86681961D01*
X143817563Y-86686093D01*
X143686092Y-86817564D01*
X143681961Y-86824941D01*
X143646859Y-86873255D01*
X143646859Y-86873256D01*
X143588768Y-86953210D01*
X143510129Y-87107547D01*
X143456598Y-87272297D01*
X143456596Y-87272304D01*
X143439293Y-87381555D01*
X143439283Y-87381617D01*
X143439188Y-87382222D01*
X143429500Y-87443389D01*
X142600500Y-87443389D01*
X142600500Y-85732329D01*
X142605523Y-85697393D01*
X142609927Y-85682395D01*
X142647672Y-85623644D01*
X142649041Y-85622457D01*
X142703920Y-85594977D01*
X142711479Y-85593333D01*
X142737832Y-85590500D01*
X143516142Y-85590500D01*
X143542440Y-85593321D01*
X143550182Y-85595001D01*
X143554575Y-85595631D01*
X143554509Y-85596088D01*
X143573445Y-85599494D01*
X143574150Y-85599700D01*
X143628667Y-85632763D01*
X143631393Y-85635599D01*
X143638763Y-85643993D01*
X143650991Y-85659255D01*
X143651004Y-85659269D01*
X143660169Y-85668168D01*
X143674103Y-85684242D01*
X143678158Y-85689823D01*
X143690586Y-85706928D01*
X143813072Y-85829414D01*
X143953212Y-85931232D01*
X144107555Y-86009873D01*
X144272299Y-86063402D01*
X144443389Y-86090500D01*
X144443390Y-86090500D01*
X145416610Y-86090500D01*
X145416611Y-86090500D01*
X145587701Y-86063402D01*
X145752445Y-86009873D01*
X145906788Y-85931232D01*
X146046928Y-85829414D01*
X146169414Y-85706928D01*
X146271232Y-85566788D01*
X146349873Y-85412445D01*
X146403402Y-85247701D01*
X146430500Y-85076611D01*
X146430500Y-84903389D01*
X146403402Y-84732299D01*
X146349873Y-84567555D01*
X146271232Y-84413212D01*
X146169414Y-84273072D01*
X146046928Y-84150586D01*
X145906788Y-84048768D01*
X145855126Y-84022445D01*
X145752449Y-83970128D01*
X145596532Y-83919467D01*
X145592010Y-83917614D01*
X145582820Y-83915444D01*
X145578057Y-83915070D01*
X145538274Y-83908769D01*
X145456271Y-83895781D01*
X145440407Y-83893268D01*
X145416614Y-83889500D01*
X145416611Y-83889500D01*
X144443389Y-83889500D01*
X144443388Y-83889500D01*
X144403726Y-83895781D01*
X144403725Y-83895780D01*
X144272304Y-83916596D01*
X144107549Y-83970129D01*
X143953210Y-84048768D01*
X143873256Y-84106859D01*
X143873255Y-84106859D01*
X143824941Y-84141961D01*
X143817564Y-84146092D01*
X143686092Y-84277564D01*
X143681959Y-84284945D01*
X143678071Y-84290296D01*
X143660608Y-84309665D01*
X143657666Y-84312306D01*
X143633892Y-84340737D01*
X143575785Y-84379537D01*
X143550106Y-84384672D01*
X143539578Y-84385638D01*
X143532077Y-84386559D01*
X143515667Y-84388575D01*
X143500556Y-84389500D01*
X142320934Y-84389500D01*
X142239367Y-84411355D01*
X142239361Y-84411359D01*
X142168217Y-84430422D01*
X142168215Y-84430422D01*
X142168214Y-84430423D01*
X142168212Y-84430423D01*
X142168143Y-84430453D01*
X142167334Y-84430930D01*
X142031298Y-84509470D01*
X142031294Y-84509472D01*
X142031290Y-84509475D01*
X142031282Y-84509481D01*
X142031278Y-84509484D01*
X142031276Y-84509485D01*
X141519485Y-85021276D01*
X141519481Y-85021281D01*
X141519476Y-85021288D01*
X141498695Y-85057284D01*
X141498695Y-85057285D01*
X141473745Y-85100500D01*
X141440423Y-85158215D01*
X141399499Y-85310943D01*
X141399499Y-85310945D01*
X141399499Y-85481400D01*
X141399500Y-85481451D01*
X141399500Y-88402404D01*
X141394476Y-88437341D01*
X141385136Y-88469148D01*
X141369262Y-88503102D01*
X141290613Y-88620807D01*
X141290603Y-88620824D01*
X141290598Y-88620833D01*
X141230264Y-88766496D01*
X141230257Y-88766527D01*
X141199500Y-88921150D01*
X141199500Y-88921153D01*
X141199500Y-89078846D01*
X141199500Y-89078848D01*
X141199499Y-89078848D01*
X122948813Y-89078848D01*
X122892449Y-89050129D01*
X122892448Y-89050128D01*
X122892445Y-89050127D01*
X122834660Y-89031351D01*
X122834657Y-89031350D01*
X122736532Y-88999467D01*
X122732010Y-88997614D01*
X122722820Y-88995444D01*
X122718057Y-88995070D01*
X122707513Y-88993400D01*
X122596271Y-88975781D01*
X122580407Y-88973268D01*
X122556614Y-88969500D01*
X122556611Y-88969500D01*
X121583389Y-88969500D01*
X121583388Y-88969500D01*
X121543726Y-88975781D01*
X121543725Y-88975780D01*
X121412304Y-88996596D01*
X121247549Y-89050129D01*
X121093210Y-89128768D01*
X121051858Y-89158813D01*
X121026067Y-89177552D01*
X120964943Y-89221961D01*
X120957562Y-89226094D01*
X120826093Y-89357563D01*
X120821963Y-89364939D01*
X120801214Y-89393499D01*
X120801212Y-89393502D01*
X120728767Y-89493211D01*
X120650129Y-89647549D01*
X120596597Y-89812302D01*
X120569500Y-89983383D01*
X101520498Y-89983383D01*
X101520498Y-86936613D01*
X108844499Y-86936613D01*
X108860053Y-87034812D01*
X108871573Y-87107547D01*
X108871598Y-87107701D01*
X108925127Y-87272445D01*
X109003768Y-87426788D01*
X109105586Y-87566928D01*
X109228072Y-87689414D01*
X109368212Y-87791232D01*
X109522555Y-87869873D01*
X109687299Y-87923402D01*
X109858389Y-87950500D01*
X109858390Y-87950500D01*
X110581610Y-87950500D01*
X110581611Y-87950500D01*
X110752701Y-87923402D01*
X110917445Y-87869873D01*
X111071788Y-87791232D01*
X111211928Y-87689414D01*
X111334414Y-87566928D01*
X111424171Y-87443389D01*
X120569500Y-87443389D01*
X120569500Y-87616611D01*
X120596598Y-87787701D01*
X120650127Y-87952445D01*
X120728768Y-88106788D01*
X120830586Y-88246928D01*
X120953072Y-88369414D01*
X121093212Y-88471232D01*
X121247555Y-88549873D01*
X121412299Y-88603402D01*
X121583389Y-88630500D01*
X121583390Y-88630500D01*
X122556610Y-88630500D01*
X122556611Y-88630500D01*
X122727701Y-88603402D01*
X122892445Y-88549873D01*
X123046788Y-88471232D01*
X123186928Y-88369414D01*
X123309414Y-88246928D01*
X123411232Y-88106788D01*
X123489873Y-87952445D01*
X123543402Y-87787701D01*
X123570500Y-87616611D01*
X123570500Y-87443389D01*
X123543402Y-87272299D01*
X123489873Y-87107555D01*
X123411232Y-86953212D01*
X123309414Y-86813072D01*
X123186928Y-86690586D01*
X123046788Y-86588768D01*
X122980540Y-86555013D01*
X122892449Y-86510128D01*
X122736532Y-86459467D01*
X122732010Y-86457614D01*
X122722820Y-86455444D01*
X122718057Y-86455070D01*
X122707513Y-86453400D01*
X122596271Y-86435781D01*
X122580407Y-86433268D01*
X122556614Y-86429500D01*
X122556611Y-86429500D01*
X121583389Y-86429500D01*
X121583388Y-86429500D01*
X121543726Y-86435781D01*
X121543725Y-86435780D01*
X121412304Y-86456596D01*
X121247549Y-86510129D01*
X121093218Y-86588764D01*
X121093205Y-86588772D01*
X121015831Y-86644988D01*
X120964942Y-86681961D01*
X120957563Y-86686093D01*
X120826092Y-86817564D01*
X120821961Y-86824941D01*
X120786859Y-86873255D01*
X120786859Y-86873256D01*
X120728768Y-86953210D01*
X120650129Y-87107547D01*
X120596598Y-87272297D01*
X120596596Y-87272304D01*
X120579293Y-87381555D01*
X120579283Y-87381617D01*
X120579188Y-87382222D01*
X120569500Y-87443389D01*
X111424171Y-87443389D01*
X111436232Y-87426788D01*
X111514873Y-87272445D01*
X111568402Y-87107701D01*
X111595500Y-86936611D01*
X111595500Y-86763389D01*
X111568402Y-86592299D01*
X111514873Y-86427555D01*
X111436232Y-86273212D01*
X111334414Y-86133072D01*
X111211928Y-86010586D01*
X111143397Y-85960795D01*
X111118091Y-85936202D01*
X111117731Y-85935735D01*
X111109615Y-85925210D01*
X111084265Y-85860103D01*
X111098138Y-85791626D01*
X111101404Y-85785437D01*
X111138185Y-85742990D01*
X111211920Y-85689420D01*
X111211924Y-85689417D01*
X111211924Y-85689416D01*
X111211928Y-85689414D01*
X111334414Y-85566928D01*
X111436232Y-85426788D01*
X111514873Y-85272445D01*
X111568402Y-85107701D01*
X111595500Y-84936611D01*
X111595500Y-84903389D01*
X120569500Y-84903389D01*
X120569500Y-85076611D01*
X120596598Y-85247701D01*
X120650127Y-85412445D01*
X120728768Y-85566788D01*
X120830586Y-85706928D01*
X120953072Y-85829414D01*
X121093212Y-85931232D01*
X121247555Y-86009873D01*
X121412299Y-86063402D01*
X121583389Y-86090500D01*
X121583390Y-86090500D01*
X122556610Y-86090500D01*
X122556611Y-86090500D01*
X122727701Y-86063402D01*
X122892445Y-86009873D01*
X123046788Y-85931232D01*
X123186928Y-85829414D01*
X123309414Y-85706928D01*
X123411232Y-85566788D01*
X123489873Y-85412445D01*
X123543402Y-85247701D01*
X123570500Y-85076611D01*
X123570500Y-84903389D01*
X123543402Y-84732299D01*
X123489873Y-84567555D01*
X123411232Y-84413212D01*
X123309414Y-84273072D01*
X123186928Y-84150586D01*
X123046788Y-84048768D01*
X122995126Y-84022445D01*
X122892449Y-83970128D01*
X122736532Y-83919467D01*
X122732010Y-83917614D01*
X122722820Y-83915444D01*
X122718057Y-83915070D01*
X122678274Y-83908769D01*
X122596271Y-83895781D01*
X122580407Y-83893268D01*
X122556614Y-83889500D01*
X122556611Y-83889500D01*
X121583389Y-83889500D01*
X121583388Y-83889500D01*
X121543726Y-83895781D01*
X121543725Y-83895780D01*
X121412304Y-83916596D01*
X121247549Y-83970129D01*
X121093210Y-84048768D01*
X121013256Y-84106859D01*
X121013255Y-84106859D01*
X120964941Y-84141961D01*
X120957564Y-84146092D01*
X120826093Y-84277563D01*
X120821964Y-84284937D01*
X120810361Y-84300909D01*
X120798723Y-84316928D01*
X120753642Y-84378976D01*
X120728767Y-84413212D01*
X120728764Y-84413218D01*
X120650129Y-84567549D01*
X120596596Y-84732305D01*
X120572717Y-84883066D01*
X120572718Y-84883067D01*
X120570547Y-84896777D01*
X120569500Y-84903389D01*
X111595500Y-84903389D01*
X111595500Y-84763389D01*
X111568402Y-84592299D01*
X111514873Y-84427555D01*
X111436232Y-84273212D01*
X111334414Y-84133072D01*
X111211928Y-84010586D01*
X111151743Y-83966859D01*
X111071792Y-83908770D01*
X111071789Y-83908769D01*
X111071790Y-83908769D01*
X111071788Y-83908768D01*
X111033972Y-83889500D01*
X110934943Y-83839042D01*
X110929603Y-83835163D01*
X110905287Y-83825090D01*
X110898767Y-83824058D01*
X110848648Y-83807773D01*
X110761532Y-83779467D01*
X110757010Y-83777614D01*
X110747820Y-83775444D01*
X110743057Y-83775070D01*
X110732513Y-83773400D01*
X110621271Y-83755781D01*
X110605407Y-83753268D01*
X110581614Y-83749500D01*
X110581611Y-83749500D01*
X109858389Y-83749500D01*
X109858388Y-83749500D01*
X109818726Y-83755781D01*
X109818725Y-83755780D01*
X109687304Y-83776596D01*
X109522549Y-83830129D01*
X109368210Y-83908768D01*
X109288256Y-83966859D01*
X109288255Y-83966859D01*
X109239941Y-84001961D01*
X109232564Y-84006092D01*
X109101092Y-84137564D01*
X109096961Y-84144941D01*
X109061859Y-84193255D01*
X109061859Y-84193256D01*
X109003768Y-84273210D01*
X108925129Y-84427549D01*
X108871596Y-84592305D01*
X108844500Y-84763383D01*
X108844500Y-84936615D01*
X108870455Y-85100496D01*
X108870456Y-85100496D01*
X108871597Y-85107699D01*
X108925128Y-85272449D01*
X108996460Y-85412445D01*
X109003768Y-85426788D01*
X109105586Y-85566928D01*
X109171421Y-85632763D01*
X109228072Y-85689414D01*
X109228571Y-85689823D01*
X109230094Y-85690884D01*
X109296598Y-85739203D01*
X109321909Y-85763801D01*
X109330384Y-85774792D01*
X109355732Y-85839902D01*
X109341859Y-85908373D01*
X109338599Y-85914552D01*
X109301814Y-85957007D01*
X109228069Y-86010587D01*
X109101092Y-86137564D01*
X109096961Y-86144941D01*
X109061859Y-86193255D01*
X109061859Y-86193256D01*
X109003768Y-86273210D01*
X108925129Y-86427549D01*
X108871596Y-86592305D01*
X108844500Y-86763383D01*
X108844500Y-86936610D01*
X108844499Y-86936613D01*
X101520498Y-86936613D01*
X101520498Y-82363383D01*
X120569500Y-82363383D01*
X120569500Y-82536610D01*
X120581751Y-82613964D01*
X120596598Y-82707701D01*
X120650127Y-82872445D01*
X120728768Y-83026788D01*
X120830586Y-83166928D01*
X120953072Y-83289414D01*
X121093212Y-83391232D01*
X121247555Y-83469873D01*
X121412299Y-83523402D01*
X121583389Y-83550500D01*
X121583390Y-83550500D01*
X122556610Y-83550500D01*
X122556611Y-83550500D01*
X122727701Y-83523402D01*
X122892445Y-83469873D01*
X123046788Y-83391232D01*
X123186928Y-83289414D01*
X123309414Y-83166928D01*
X123411232Y-83026788D01*
X123489873Y-82872445D01*
X123543402Y-82707701D01*
X123570500Y-82536611D01*
X123570500Y-82363389D01*
X123570499Y-82363383D01*
X143429500Y-82363383D01*
X143429500Y-82536610D01*
X143441751Y-82613964D01*
X143456598Y-82707701D01*
X143510127Y-82872445D01*
X143588768Y-83026788D01*
X143690586Y-83166928D01*
X143813072Y-83289414D01*
X143953212Y-83391232D01*
X144107555Y-83469873D01*
X144272299Y-83523402D01*
X144443389Y-83550500D01*
X144443390Y-83550500D01*
X145416610Y-83550500D01*
X145416611Y-83550500D01*
X145587701Y-83523402D01*
X145752445Y-83469873D01*
X145906788Y-83391232D01*
X146046928Y-83289414D01*
X146169414Y-83166928D01*
X146271232Y-83026788D01*
X146349873Y-82872445D01*
X146403402Y-82707701D01*
X146430500Y-82536611D01*
X146430500Y-82363389D01*
X146403402Y-82192299D01*
X146349873Y-82027555D01*
X146271232Y-81873212D01*
X146169414Y-81733072D01*
X146046928Y-81610586D01*
X145906788Y-81508768D01*
X145906786Y-81508767D01*
X145752449Y-81430128D01*
X145596532Y-81379467D01*
X145592010Y-81377614D01*
X145582820Y-81375444D01*
X145578057Y-81375070D01*
X145557329Y-81371787D01*
X145456271Y-81355781D01*
X145440407Y-81353268D01*
X145416614Y-81349500D01*
X145416611Y-81349500D01*
X144443389Y-81349500D01*
X144443388Y-81349500D01*
X144403726Y-81355781D01*
X144403725Y-81355780D01*
X144272304Y-81376596D01*
X144107549Y-81430129D01*
X143953210Y-81508768D01*
X143895774Y-81550499D01*
X143824943Y-81601961D01*
X143817562Y-81606094D01*
X143686094Y-81737562D01*
X143681962Y-81744941D01*
X143588768Y-81873210D01*
X143510129Y-82027549D01*
X143456598Y-82192299D01*
X143456596Y-82192305D01*
X143429500Y-82363383D01*
X123570499Y-82363383D01*
X123543402Y-82192299D01*
X123489873Y-82027555D01*
X123411232Y-81873212D01*
X123309414Y-81733072D01*
X123186928Y-81610586D01*
X123046788Y-81508768D01*
X123046786Y-81508767D01*
X122892449Y-81430128D01*
X122736532Y-81379467D01*
X122732010Y-81377614D01*
X122722820Y-81375444D01*
X122718057Y-81375070D01*
X122697329Y-81371787D01*
X122596271Y-81355781D01*
X122580407Y-81353268D01*
X122556614Y-81349500D01*
X122556611Y-81349500D01*
X121583389Y-81349500D01*
X121583388Y-81349500D01*
X121543726Y-81355781D01*
X121543725Y-81355780D01*
X121412304Y-81376596D01*
X121247549Y-81430129D01*
X121093210Y-81508768D01*
X121035774Y-81550499D01*
X120964943Y-81601961D01*
X120957562Y-81606094D01*
X120826094Y-81737562D01*
X120821962Y-81744941D01*
X120728768Y-81873210D01*
X120650129Y-82027549D01*
X120596598Y-82192299D01*
X120596596Y-82192305D01*
X120569500Y-82363383D01*
X101520498Y-82363383D01*
X101520498Y-79823383D01*
X120569500Y-79823383D01*
X120569500Y-79996614D01*
X120583754Y-80086610D01*
X120583754Y-80086611D01*
X120596598Y-80167701D01*
X120650127Y-80332445D01*
X120728768Y-80486788D01*
X120830586Y-80626928D01*
X120953072Y-80749414D01*
X121093212Y-80851232D01*
X121247555Y-80929873D01*
X121412299Y-80983402D01*
X121583389Y-81010500D01*
X121583390Y-81010500D01*
X122556610Y-81010500D01*
X122556611Y-81010500D01*
X122727701Y-80983402D01*
X122892445Y-80929873D01*
X123046788Y-80851232D01*
X123186928Y-80749414D01*
X123309414Y-80626928D01*
X123411232Y-80486788D01*
X123489873Y-80332445D01*
X123543402Y-80167701D01*
X123570500Y-79996611D01*
X123570500Y-79823389D01*
X123570499Y-79823383D01*
X143429500Y-79823383D01*
X143429500Y-79996614D01*
X143443754Y-80086610D01*
X143443754Y-80086611D01*
X143456598Y-80167701D01*
X143510127Y-80332445D01*
X143588768Y-80486788D01*
X143690586Y-80626928D01*
X143813072Y-80749414D01*
X143953212Y-80851232D01*
X144107555Y-80929873D01*
X144272299Y-80983402D01*
X144443389Y-81010500D01*
X144443390Y-81010500D01*
X145416610Y-81010500D01*
X145416611Y-81010500D01*
X145587701Y-80983402D01*
X145752445Y-80929873D01*
X145906788Y-80851232D01*
X146046928Y-80749414D01*
X146169414Y-80626928D01*
X146271232Y-80486788D01*
X146349873Y-80332445D01*
X146403402Y-80167701D01*
X146430500Y-79996611D01*
X146430500Y-79823389D01*
X146403402Y-79652299D01*
X146349873Y-79487555D01*
X146271232Y-79333212D01*
X146169414Y-79193072D01*
X146046928Y-79070586D01*
X145906788Y-78968768D01*
X145879792Y-78955013D01*
X145752449Y-78890128D01*
X145596532Y-78839467D01*
X145592010Y-78837614D01*
X145582820Y-78835444D01*
X145578057Y-78835070D01*
X145567513Y-78833400D01*
X145456271Y-78815781D01*
X145440407Y-78813268D01*
X145416614Y-78809500D01*
X145416611Y-78809500D01*
X144443389Y-78809500D01*
X144443388Y-78809500D01*
X144403726Y-78815781D01*
X144403725Y-78815780D01*
X144272304Y-78836596D01*
X144107549Y-78890129D01*
X143953211Y-78968767D01*
X143910225Y-79000000D01*
X143910224Y-79000000D01*
X143824942Y-79061961D01*
X143817563Y-79066093D01*
X143686092Y-79197564D01*
X143681961Y-79204941D01*
X143646859Y-79253255D01*
X143646859Y-79253256D01*
X143588768Y-79333210D01*
X143510129Y-79487549D01*
X143456596Y-79652305D01*
X143429500Y-79823383D01*
X123570499Y-79823383D01*
X123543402Y-79652299D01*
X123489873Y-79487555D01*
X123411232Y-79333212D01*
X123309414Y-79193072D01*
X123186928Y-79070586D01*
X123046788Y-78968768D01*
X123019792Y-78955013D01*
X122892449Y-78890128D01*
X122736532Y-78839467D01*
X122732010Y-78837614D01*
X122722820Y-78835444D01*
X122718057Y-78835070D01*
X122707513Y-78833400D01*
X122596271Y-78815781D01*
X122580407Y-78813268D01*
X122556614Y-78809500D01*
X122556611Y-78809500D01*
X121583389Y-78809500D01*
X121583388Y-78809500D01*
X121543726Y-78815781D01*
X121543725Y-78815780D01*
X121412304Y-78836596D01*
X121247549Y-78890129D01*
X121093211Y-78968767D01*
X121050225Y-79000000D01*
X121050224Y-79000000D01*
X120964942Y-79061961D01*
X120957563Y-79066093D01*
X120826092Y-79197564D01*
X120821961Y-79204941D01*
X120786859Y-79253255D01*
X120786859Y-79253256D01*
X120728768Y-79333210D01*
X120650129Y-79487549D01*
X120596596Y-79652305D01*
X120569500Y-79823383D01*
X101520498Y-79823383D01*
X101520498Y-76638383D01*
X112899500Y-76638383D01*
X112899500Y-77361614D01*
X112909256Y-77423211D01*
X112914546Y-77456611D01*
X112926598Y-77532701D01*
X112980127Y-77697445D01*
X113058768Y-77851788D01*
X113160586Y-77991928D01*
X113283072Y-78114414D01*
X113423212Y-78216232D01*
X113577555Y-78294873D01*
X113742299Y-78348402D01*
X113913389Y-78375500D01*
X113913390Y-78375500D01*
X114086610Y-78375500D01*
X114086611Y-78375500D01*
X114257701Y-78348402D01*
X114422445Y-78294873D01*
X114576788Y-78216232D01*
X114716928Y-78114414D01*
X114839414Y-77991928D01*
X114889203Y-77923397D01*
X114913797Y-77898091D01*
X114924794Y-77889611D01*
X114989899Y-77864265D01*
X115058370Y-77878138D01*
X115064551Y-77881399D01*
X115107007Y-77918185D01*
X115127792Y-77946792D01*
X115160586Y-77991928D01*
X115283072Y-78114414D01*
X115423212Y-78216232D01*
X115577555Y-78294873D01*
X115742299Y-78348402D01*
X115913389Y-78375500D01*
X115913390Y-78375500D01*
X116086610Y-78375500D01*
X116086611Y-78375500D01*
X116257701Y-78348402D01*
X116422445Y-78294873D01*
X116576788Y-78216232D01*
X116716928Y-78114414D01*
X116839414Y-77991928D01*
X116941232Y-77851788D01*
X117019873Y-77697445D01*
X117073402Y-77532701D01*
X117085453Y-77456613D01*
X120569499Y-77456613D01*
X120588655Y-77577554D01*
X120596597Y-77627699D01*
X120633833Y-77742301D01*
X120650125Y-77792439D01*
X120650127Y-77792445D01*
X120680583Y-77852220D01*
X120680585Y-77852222D01*
X120728766Y-77946784D01*
X120728770Y-77946792D01*
X120771100Y-78005053D01*
X120830586Y-78086928D01*
X120953072Y-78209414D01*
X121093212Y-78311232D01*
X121247555Y-78389873D01*
X121412299Y-78443402D01*
X121583389Y-78470500D01*
X121583390Y-78470500D01*
X122556610Y-78470500D01*
X122556611Y-78470500D01*
X122727701Y-78443402D01*
X122892445Y-78389873D01*
X123046788Y-78311232D01*
X123186928Y-78209414D01*
X123309414Y-78086928D01*
X123411232Y-77946788D01*
X123489873Y-77792445D01*
X123543402Y-77627701D01*
X123570500Y-77456613D01*
X143429499Y-77456613D01*
X143448655Y-77577554D01*
X143456597Y-77627699D01*
X143493833Y-77742301D01*
X143510125Y-77792439D01*
X143510127Y-77792445D01*
X143540583Y-77852220D01*
X143540585Y-77852222D01*
X143588766Y-77946784D01*
X143588770Y-77946792D01*
X143631100Y-78005053D01*
X143690586Y-78086928D01*
X143813072Y-78209414D01*
X143953212Y-78311232D01*
X144107555Y-78389873D01*
X144272299Y-78443402D01*
X144443389Y-78470500D01*
X144443390Y-78470500D01*
X145416610Y-78470500D01*
X145416611Y-78470500D01*
X145587701Y-78443402D01*
X145752445Y-78389873D01*
X145906788Y-78311232D01*
X146046928Y-78209414D01*
X146169414Y-78086928D01*
X146271232Y-77946788D01*
X146276776Y-77935905D01*
X146288249Y-77913389D01*
X174924500Y-77913389D01*
X174924500Y-78086614D01*
X174924524Y-78086764D01*
X174924537Y-78086931D01*
X174924550Y-78086929D01*
X174940876Y-78190012D01*
X174943949Y-78209411D01*
X174951598Y-78257701D01*
X175005127Y-78422445D01*
X175083768Y-78576788D01*
X175185586Y-78716928D01*
X175278158Y-78809500D01*
X175308072Y-78839414D01*
X175308571Y-78839823D01*
X175310094Y-78840884D01*
X175376598Y-78889203D01*
X175401909Y-78913801D01*
X175410384Y-78924792D01*
X175435732Y-78989902D01*
X175421859Y-79058373D01*
X175418599Y-79064552D01*
X175381814Y-79107007D01*
X175308069Y-79160587D01*
X175181093Y-79287563D01*
X175176964Y-79294937D01*
X175150701Y-79331087D01*
X175149158Y-79333211D01*
X175097808Y-79403886D01*
X175083767Y-79423212D01*
X175083764Y-79423218D01*
X175005129Y-79577549D01*
X174951596Y-79742305D01*
X174924500Y-79913383D01*
X174924500Y-79913389D01*
X174924500Y-80086611D01*
X174951598Y-80257701D01*
X175005127Y-80422445D01*
X175083768Y-80576788D01*
X175185586Y-80716928D01*
X175249998Y-80781340D01*
X175308072Y-80839414D01*
X175308571Y-80839823D01*
X175310094Y-80840884D01*
X175376598Y-80889203D01*
X175401909Y-80913801D01*
X175410384Y-80924792D01*
X175435732Y-80989902D01*
X175421859Y-81058373D01*
X175418599Y-81064552D01*
X175381814Y-81107007D01*
X175308069Y-81160587D01*
X175181092Y-81287564D01*
X175176961Y-81294941D01*
X175141859Y-81343255D01*
X175141859Y-81343256D01*
X175083768Y-81423210D01*
X175005101Y-81577604D01*
X175004630Y-81578546D01*
X175003547Y-81582416D01*
X174994395Y-81610585D01*
X174994394Y-81610587D01*
X174951596Y-81742304D01*
X174930863Y-81873213D01*
X174930863Y-81873214D01*
X174924500Y-81913385D01*
X174924500Y-81913389D01*
X174924500Y-82086611D01*
X174951598Y-82257701D01*
X175005127Y-82422445D01*
X175083768Y-82576788D01*
X175185586Y-82716928D01*
X175253874Y-82785216D01*
X175308072Y-82839414D01*
X175308571Y-82839823D01*
X175310094Y-82840884D01*
X175376598Y-82889203D01*
X175401909Y-82913801D01*
X175410384Y-82924792D01*
X175435732Y-82989902D01*
X175421859Y-83058373D01*
X175418599Y-83064552D01*
X175381814Y-83107007D01*
X175308069Y-83160587D01*
X175181093Y-83287563D01*
X175176961Y-83294942D01*
X175142555Y-83342298D01*
X175107003Y-83391231D01*
X175083768Y-83423211D01*
X175083766Y-83423213D01*
X175083764Y-83423218D01*
X175005129Y-83577549D01*
X174951596Y-83742304D01*
X174937687Y-83830127D01*
X174924500Y-83913384D01*
X174924500Y-83913389D01*
X174924500Y-84086611D01*
X174951598Y-84257701D01*
X175005127Y-84422445D01*
X175083768Y-84576788D01*
X175185586Y-84716928D01*
X175185588Y-84716930D01*
X175280519Y-84811861D01*
X175301670Y-84840114D01*
X175308322Y-84852296D01*
X175323174Y-84920569D01*
X175298758Y-84986034D01*
X175298754Y-84986038D01*
X175293053Y-84993653D01*
X175258888Y-85024877D01*
X175206342Y-85057288D01*
X175082290Y-85181340D01*
X174990187Y-85330662D01*
X174990187Y-85330663D01*
X174990186Y-85330666D01*
X174958334Y-85426788D01*
X174945300Y-85466123D01*
X174936852Y-85479069D01*
X174935365Y-85493630D01*
X174934542Y-85499881D01*
X174934359Y-85503476D01*
X174924500Y-85599973D01*
X174924500Y-85599983D01*
X174924500Y-86400001D01*
X174924500Y-86400009D01*
X174924503Y-86400045D01*
X174928526Y-86439418D01*
X174935000Y-86502796D01*
X174935001Y-86502799D01*
X174959050Y-86575374D01*
X174986684Y-86658764D01*
X174986684Y-86658767D01*
X174990184Y-86669329D01*
X174990184Y-86669331D01*
X175078843Y-86813072D01*
X175082288Y-86818656D01*
X175206344Y-86942712D01*
X175355666Y-87034814D01*
X175522203Y-87089999D01*
X175624991Y-87100500D01*
X176975008Y-87100499D01*
X177077797Y-87089999D01*
X177244334Y-87034814D01*
X177393656Y-86942712D01*
X177517712Y-86818656D01*
X177609814Y-86669334D01*
X177664999Y-86502797D01*
X177675500Y-86400009D01*
X177675499Y-85599992D01*
X177674529Y-85590500D01*
X177664999Y-85497203D01*
X177664998Y-85497200D01*
X177658990Y-85479069D01*
X177655672Y-85469056D01*
X177636913Y-85412445D01*
X177609814Y-85330666D01*
X177517712Y-85181344D01*
X177393656Y-85057288D01*
X177393652Y-85057285D01*
X177344628Y-85027046D01*
X177317535Y-85004435D01*
X177308252Y-84994114D01*
X177278056Y-84931110D01*
X177286715Y-84861782D01*
X177290505Y-84853058D01*
X177316556Y-84814785D01*
X177414409Y-84716933D01*
X177414409Y-84716932D01*
X177414414Y-84716928D01*
X177516232Y-84576788D01*
X177594873Y-84422445D01*
X177648402Y-84257701D01*
X177675500Y-84086611D01*
X177675500Y-83913389D01*
X177648402Y-83742299D01*
X177594873Y-83577555D01*
X177516232Y-83423212D01*
X177414414Y-83283072D01*
X177291928Y-83160586D01*
X177223397Y-83110795D01*
X177198091Y-83086202D01*
X177197731Y-83085735D01*
X177189615Y-83075210D01*
X177164265Y-83010103D01*
X177178138Y-82941626D01*
X177181404Y-82935437D01*
X177218185Y-82892990D01*
X177291365Y-82839823D01*
X177291924Y-82839417D01*
X177291924Y-82839416D01*
X177291928Y-82839414D01*
X177414414Y-82716928D01*
X177516232Y-82576788D01*
X177594873Y-82422445D01*
X177648402Y-82257701D01*
X177675500Y-82086611D01*
X177675500Y-81913389D01*
X177648402Y-81742299D01*
X177594873Y-81577555D01*
X177516232Y-81423212D01*
X177414414Y-81283072D01*
X177291928Y-81160586D01*
X177223397Y-81110795D01*
X177198091Y-81086202D01*
X177192588Y-81079066D01*
X177189615Y-81075210D01*
X177164265Y-81010103D01*
X177178138Y-80941626D01*
X177181404Y-80935437D01*
X177218185Y-80892990D01*
X177291365Y-80839823D01*
X177291924Y-80839417D01*
X177291924Y-80839416D01*
X177291928Y-80839414D01*
X177414414Y-80716928D01*
X177516232Y-80576788D01*
X177594873Y-80422445D01*
X177648402Y-80257701D01*
X177675500Y-80086611D01*
X177675500Y-79913389D01*
X177648402Y-79742299D01*
X177594873Y-79577555D01*
X177516232Y-79423212D01*
X177414414Y-79283072D01*
X177291928Y-79160586D01*
X177223397Y-79110795D01*
X177198091Y-79086202D01*
X177197731Y-79085735D01*
X177189615Y-79075210D01*
X177164265Y-79010103D01*
X177178138Y-78941626D01*
X177181404Y-78935437D01*
X177218185Y-78892990D01*
X177291855Y-78839467D01*
X177291924Y-78839417D01*
X177291924Y-78839416D01*
X177291928Y-78839414D01*
X177414414Y-78716928D01*
X177516232Y-78576788D01*
X177594873Y-78422445D01*
X177648402Y-78257701D01*
X177675500Y-78086611D01*
X177675500Y-77913389D01*
X177648402Y-77742299D01*
X177594873Y-77577555D01*
X177516232Y-77423212D01*
X177414414Y-77283072D01*
X177291928Y-77160586D01*
X177151788Y-77058768D01*
X177151780Y-77058764D01*
X177034189Y-76998848D01*
X184199499Y-76998848D01*
X184229957Y-77151961D01*
X184230261Y-77153489D01*
X184230263Y-77153497D01*
X184230264Y-77153500D01*
X184230267Y-77153509D01*
X184235389Y-77165874D01*
X184242443Y-77189127D01*
X184247117Y-77212627D01*
X184249500Y-77236814D01*
X184249500Y-80433185D01*
X184247118Y-80457370D01*
X184242445Y-80480862D01*
X184242444Y-80480869D01*
X184235398Y-80504104D01*
X184232968Y-80509974D01*
X184232957Y-80510000D01*
X184230273Y-80516477D01*
X184230258Y-80516514D01*
X184230258Y-80516516D01*
X184199500Y-80671148D01*
X184199500Y-80671153D01*
X184199500Y-80828846D01*
X184199500Y-80828848D01*
X184199499Y-80828848D01*
X184230257Y-80983471D01*
X184230261Y-80983489D01*
X184230264Y-80983500D01*
X184230263Y-80983500D01*
X184290598Y-81129165D01*
X184290603Y-81129174D01*
X184290613Y-81129191D01*
X184378211Y-81260290D01*
X184378212Y-81260291D01*
X184378217Y-81260297D01*
X184489701Y-81371781D01*
X184489707Y-81371786D01*
X184489711Y-81371789D01*
X184620814Y-81459390D01*
X184620827Y-81459397D01*
X184740021Y-81508768D01*
X184766503Y-81519737D01*
X184766510Y-81519738D01*
X184766510Y-81519739D01*
X184892630Y-81544825D01*
X184913513Y-81548979D01*
X184916247Y-81549703D01*
X184921155Y-81550500D01*
X185078844Y-81550500D01*
X185082964Y-81550500D01*
X185090814Y-81548118D01*
X185233497Y-81519737D01*
X185379179Y-81459394D01*
X185510289Y-81371789D01*
X185621789Y-81260289D01*
X185665294Y-81195179D01*
X185709390Y-81129186D01*
X185709399Y-81129169D01*
X185769736Y-80983500D01*
X185769737Y-80983497D01*
X185800500Y-80828842D01*
X185800500Y-80671158D01*
X185800500Y-80671155D01*
X185800500Y-80670971D01*
X185800064Y-80668966D01*
X185769738Y-80516506D01*
X185767066Y-80510056D01*
X185764612Y-80504130D01*
X185757554Y-80480862D01*
X185752882Y-80457370D01*
X185750500Y-80433183D01*
X185750500Y-77236814D01*
X185752881Y-77212631D01*
X185757557Y-77189123D01*
X185764613Y-77165866D01*
X185769737Y-77153497D01*
X185800500Y-76998842D01*
X185800500Y-76841158D01*
X185800500Y-76841155D01*
X185800500Y-76840973D01*
X185800065Y-76838972D01*
X185790963Y-76793212D01*
X185770395Y-76689815D01*
X185769983Y-76687399D01*
X185769738Y-76686507D01*
X185769737Y-76686505D01*
X185769737Y-76686503D01*
X185749808Y-76638389D01*
X185709397Y-76540827D01*
X185709390Y-76540814D01*
X185621789Y-76409711D01*
X185621786Y-76409707D01*
X185621781Y-76409701D01*
X185510297Y-76298217D01*
X185510291Y-76298212D01*
X185510290Y-76298211D01*
X185379191Y-76210613D01*
X185379190Y-76210612D01*
X185379185Y-76210609D01*
X185379172Y-76210602D01*
X185379165Y-76210598D01*
X185233502Y-76150264D01*
X185233471Y-76150257D01*
X185078847Y-76119500D01*
X185078845Y-76119500D01*
X185078842Y-76119500D01*
X184921158Y-76119500D01*
X184921155Y-76119500D01*
X184921153Y-76119500D01*
X184766527Y-76150257D01*
X184766496Y-76150264D01*
X184620833Y-76210598D01*
X184620824Y-76210603D01*
X184620807Y-76210613D01*
X184489708Y-76298211D01*
X184489707Y-76298212D01*
X184489701Y-76298217D01*
X184378217Y-76409701D01*
X184378212Y-76409707D01*
X184378211Y-76409708D01*
X184290613Y-76540807D01*
X184290603Y-76540824D01*
X184290598Y-76540833D01*
X184230265Y-76686495D01*
X184230257Y-76686527D01*
X184199500Y-76841150D01*
X184199500Y-76841153D01*
X184199500Y-76998846D01*
X184199500Y-76998848D01*
X184199499Y-76998848D01*
X177034189Y-76998848D01*
X176997449Y-76980128D01*
X176913933Y-76952992D01*
X176841532Y-76929467D01*
X176837010Y-76927614D01*
X176827820Y-76925444D01*
X176823057Y-76925070D01*
X176812513Y-76923400D01*
X176701271Y-76905781D01*
X176685407Y-76903268D01*
X176661614Y-76899500D01*
X176661611Y-76899500D01*
X175938389Y-76899500D01*
X175938388Y-76899500D01*
X175898726Y-76905781D01*
X175898725Y-76905780D01*
X175767304Y-76926596D01*
X175602549Y-76980129D01*
X175448218Y-77058764D01*
X175448205Y-77058772D01*
X175374532Y-77112299D01*
X175319942Y-77151961D01*
X175312563Y-77156093D01*
X175181092Y-77287564D01*
X175176961Y-77294941D01*
X175083770Y-77423207D01*
X175005129Y-77577547D01*
X174951598Y-77742297D01*
X174951597Y-77742301D01*
X174934188Y-77852221D01*
X174934188Y-77852222D01*
X174924500Y-77913389D01*
X146288249Y-77913389D01*
X146319415Y-77852223D01*
X146319415Y-77852222D01*
X146319636Y-77851788D01*
X146349873Y-77792445D01*
X146403402Y-77627701D01*
X146430500Y-77456611D01*
X146430500Y-77283389D01*
X146403402Y-77112299D01*
X146349873Y-76947555D01*
X146271232Y-76793212D01*
X146169414Y-76653072D01*
X146046928Y-76530586D01*
X145906788Y-76428768D01*
X145752449Y-76350128D01*
X145596532Y-76299467D01*
X145592010Y-76297614D01*
X145582820Y-76295444D01*
X145578057Y-76295070D01*
X145567513Y-76293400D01*
X145456271Y-76275781D01*
X145440407Y-76273268D01*
X145416614Y-76269500D01*
X145416611Y-76269500D01*
X144443389Y-76269500D01*
X144443388Y-76269500D01*
X144403726Y-76275781D01*
X144403725Y-76275780D01*
X144272304Y-76296596D01*
X144107549Y-76350129D01*
X143953210Y-76428768D01*
X143873256Y-76486859D01*
X143873255Y-76486859D01*
X143824941Y-76521961D01*
X143817564Y-76526092D01*
X143686092Y-76657564D01*
X143681963Y-76664938D01*
X143666302Y-76686495D01*
X143666300Y-76686498D01*
X143588772Y-76793205D01*
X143588768Y-76793211D01*
X143588766Y-76793213D01*
X143588764Y-76793218D01*
X143510129Y-76947549D01*
X143456598Y-77112299D01*
X143456596Y-77112305D01*
X143429500Y-77283383D01*
X143429500Y-77456611D01*
X143429499Y-77456613D01*
X123570500Y-77456613D01*
X123570500Y-77456611D01*
X123570500Y-77283389D01*
X123543402Y-77112299D01*
X123489873Y-76947555D01*
X123411232Y-76793212D01*
X123309414Y-76653072D01*
X123186928Y-76530586D01*
X123046788Y-76428768D01*
X122892449Y-76350128D01*
X122736532Y-76299467D01*
X122732010Y-76297614D01*
X122722820Y-76295444D01*
X122718057Y-76295070D01*
X122707513Y-76293400D01*
X122596271Y-76275781D01*
X122580407Y-76273268D01*
X122556614Y-76269500D01*
X122556611Y-76269500D01*
X121583389Y-76269500D01*
X121583388Y-76269500D01*
X121543726Y-76275781D01*
X121543725Y-76275780D01*
X121412304Y-76296596D01*
X121247549Y-76350129D01*
X121093210Y-76428768D01*
X121013256Y-76486859D01*
X121013255Y-76486859D01*
X120964941Y-76521961D01*
X120957564Y-76526092D01*
X120826092Y-76657564D01*
X120821963Y-76664938D01*
X120806302Y-76686495D01*
X120806300Y-76686498D01*
X120728772Y-76793205D01*
X120728768Y-76793211D01*
X120728766Y-76793213D01*
X120728764Y-76793218D01*
X120650129Y-76947549D01*
X120596598Y-77112299D01*
X120596596Y-77112305D01*
X120569500Y-77283383D01*
X120569500Y-77456611D01*
X120569499Y-77456613D01*
X117085453Y-77456613D01*
X117100500Y-77361611D01*
X117100500Y-76638389D01*
X117073402Y-76467299D01*
X117019873Y-76302555D01*
X116941232Y-76148212D01*
X116839414Y-76008072D01*
X116716928Y-75885586D01*
X116576788Y-75783768D01*
X116422449Y-75705128D01*
X116266532Y-75654467D01*
X116262010Y-75652614D01*
X116252820Y-75650444D01*
X116248057Y-75650070D01*
X116237513Y-75648400D01*
X116126271Y-75630781D01*
X116110407Y-75628268D01*
X116086614Y-75624500D01*
X116086611Y-75624500D01*
X115913389Y-75624500D01*
X115913388Y-75624500D01*
X115873726Y-75630781D01*
X115873725Y-75630780D01*
X115742304Y-75651596D01*
X115577549Y-75705129D01*
X115423210Y-75783768D01*
X115343256Y-75841859D01*
X115343255Y-75841859D01*
X115294941Y-75876961D01*
X115287564Y-75881092D01*
X115160587Y-76008069D01*
X115110796Y-76076599D01*
X115086198Y-76101909D01*
X115075207Y-76110384D01*
X115010097Y-76135732D01*
X114941619Y-76121856D01*
X114941612Y-76121852D01*
X114935433Y-76118591D01*
X114892992Y-76081813D01*
X114840884Y-76010095D01*
X114839820Y-76008567D01*
X114839414Y-76008072D01*
X114839411Y-76008069D01*
X114716928Y-75885586D01*
X114576788Y-75783768D01*
X114422449Y-75705128D01*
X114266532Y-75654467D01*
X114262010Y-75652614D01*
X114252820Y-75650444D01*
X114248057Y-75650070D01*
X114237513Y-75648400D01*
X114126271Y-75630781D01*
X114110407Y-75628268D01*
X114086614Y-75624500D01*
X114086611Y-75624500D01*
X113913389Y-75624500D01*
X113913388Y-75624500D01*
X113873726Y-75630781D01*
X113873725Y-75630780D01*
X113742304Y-75651596D01*
X113577549Y-75705129D01*
X113423210Y-75783768D01*
X113343256Y-75841859D01*
X113343255Y-75841859D01*
X113294941Y-75876961D01*
X113287564Y-75881092D01*
X113156092Y-76012564D01*
X113151961Y-76019941D01*
X113058770Y-76148207D01*
X112980129Y-76302549D01*
X112926596Y-76467305D01*
X112899500Y-76638383D01*
X101520498Y-76638383D01*
X101520498Y-74182125D01*
X120569500Y-74182125D01*
X120569500Y-75477876D01*
X120569659Y-75479806D01*
X120569885Y-75481454D01*
X120575907Y-75537482D01*
X120603690Y-75611971D01*
X120626202Y-75672328D01*
X120626203Y-75672330D01*
X120626204Y-75672332D01*
X120626205Y-75672333D01*
X120712450Y-75787542D01*
X120712452Y-75787544D01*
X120712455Y-75787547D01*
X120827664Y-75873793D01*
X120827671Y-75873797D01*
X120877155Y-75892253D01*
X120912513Y-75918721D01*
X120969444Y-75924835D01*
X120969443Y-75924839D01*
X120969458Y-75924836D01*
X121022127Y-75930500D01*
X123117872Y-75930499D01*
X123177483Y-75924091D01*
X123312331Y-75873796D01*
X123427546Y-75787546D01*
X123513796Y-75672331D01*
X123564091Y-75537483D01*
X123570500Y-75477873D01*
X123570499Y-74182128D01*
X123564091Y-74122517D01*
X123513796Y-73987669D01*
X123513795Y-73987668D01*
X123513794Y-73987666D01*
X123513778Y-73987623D01*
X123513199Y-73986703D01*
X123512249Y-73985164D01*
X123511397Y-73983937D01*
X123511391Y-73983928D01*
X123508489Y-73980579D01*
X123427547Y-73872455D01*
X123427544Y-73872452D01*
X123427542Y-73872450D01*
X123369616Y-73829086D01*
X123312335Y-73786206D01*
X123312332Y-73786204D01*
X123312330Y-73786203D01*
X123312328Y-73786202D01*
X123262844Y-73767746D01*
X123227497Y-73741284D01*
X123125583Y-73730328D01*
X123120742Y-73729500D01*
X123117881Y-73729500D01*
X123117873Y-73729500D01*
X123117864Y-73729500D01*
X121022129Y-73729500D01*
X121022123Y-73729500D01*
X121020192Y-73729659D01*
X121018545Y-73729885D01*
X120962516Y-73735908D01*
X120877152Y-73767747D01*
X120827666Y-73786204D01*
X120827665Y-73786205D01*
X120712456Y-73872450D01*
X120712450Y-73872456D01*
X120626205Y-73987665D01*
X120626203Y-73987668D01*
X120575908Y-74122516D01*
X120569500Y-74182125D01*
X101520498Y-74182125D01*
X101520498Y-72822329D01*
X101525521Y-72787393D01*
X101529925Y-72772395D01*
X101567670Y-72713644D01*
X101569039Y-72712457D01*
X101623918Y-72684977D01*
X101631477Y-72683333D01*
X101657830Y-72680500D01*
X199377668Y-72680500D01*
X199412604Y-72685523D01*
G37*
%TD.AperFunction*%
%TD*%
%TA.AperFunction,Conductor*%
%TO.N,Secondary Trigger*%
G36*
X144058871Y-84633239D02*
G01*
X144904527Y-84979171D01*
X144910887Y-84985475D01*
X144910926Y-84994430D01*
X144904622Y-85000790D01*
X144904527Y-85000829D01*
X144059045Y-85346689D01*
X144050090Y-85346650D01*
X144045486Y-85343178D01*
X144015515Y-85305773D01*
X143952861Y-85240583D01*
X143952852Y-85240575D01*
X143952846Y-85240570D01*
X143889898Y-85189475D01*
X143889891Y-85189470D01*
X143889888Y-85189468D01*
X143819586Y-85146883D01*
X143819585Y-85146882D01*
X143750700Y-85117877D01*
X143750694Y-85117875D01*
X143750693Y-85117875D01*
X143715774Y-85109506D01*
X143659354Y-85095983D01*
X143586004Y-85090772D01*
X143577994Y-85086767D01*
X143575133Y-85079101D01*
X143575133Y-84900675D01*
X143578560Y-84892402D01*
X143585762Y-84889024D01*
X143681987Y-84880196D01*
X143809180Y-84838260D01*
X143931995Y-84757838D01*
X143991809Y-84700734D01*
X144045465Y-84636562D01*
X144053401Y-84632414D01*
X144058871Y-84633239D01*
G37*
%TD.AperFunction*%
%TD*%
%TA.AperFunction,Conductor*%
%TO.N,3V3*%
G36*
X188645452Y-101673560D02*
G01*
X188648879Y-101681833D01*
X188648830Y-101682901D01*
X188641887Y-101758660D01*
X188641882Y-101758718D01*
X188631821Y-101862733D01*
X188631821Y-101862737D01*
X188641369Y-101971785D01*
X188641371Y-101971792D01*
X188681187Y-102063970D01*
X188681188Y-102063971D01*
X188681190Y-102063975D01*
X188710890Y-102101094D01*
X188714865Y-102106062D01*
X188714868Y-102106065D01*
X188753391Y-102140111D01*
X188757321Y-102148158D01*
X188756204Y-102153913D01*
X188410561Y-102878849D01*
X188403907Y-102884842D01*
X188394965Y-102884375D01*
X188389439Y-102878849D01*
X188043757Y-102153832D01*
X188043290Y-102144890D01*
X188046482Y-102140109D01*
X188089769Y-102101098D01*
X188117586Y-102063971D01*
X188125367Y-102053586D01*
X188125373Y-102053577D01*
X188125372Y-102053577D01*
X188125374Y-102053576D01*
X188148896Y-102004212D01*
X188162417Y-101953834D01*
X188164067Y-101922913D01*
X188167782Y-101853352D01*
X188167781Y-101853332D01*
X188166466Y-101840462D01*
X188158118Y-101758718D01*
X188151170Y-101682900D01*
X188153827Y-101674349D01*
X188161753Y-101670182D01*
X188162821Y-101670133D01*
X188637179Y-101670133D01*
X188645452Y-101673560D01*
G37*
%TD.AperFunction*%
%TD*%
%TA.AperFunction,Conductor*%
%TO.N,Face Hat Right - Down*%
G36*
X181813836Y-95848287D02*
G01*
X182051138Y-95990432D01*
X182384243Y-96189963D01*
X182389580Y-96197154D01*
X182388268Y-96206012D01*
X182384243Y-96210037D01*
X181815406Y-96550771D01*
X181806548Y-96552083D01*
X181799357Y-96546746D01*
X181797792Y-96542246D01*
X181793953Y-96512744D01*
X181777378Y-96471143D01*
X181777376Y-96471140D01*
X181744058Y-96425351D01*
X181700183Y-96386981D01*
X181700182Y-96386980D01*
X181666528Y-96367377D01*
X181632874Y-96347773D01*
X181594201Y-96333021D01*
X181561327Y-96320481D01*
X181561324Y-96320480D01*
X181561323Y-96320480D01*
X181449752Y-96301646D01*
X181442165Y-96296890D01*
X181440000Y-96290109D01*
X181440000Y-96110471D01*
X181443427Y-96102198D01*
X181450408Y-96098843D01*
X181511224Y-96092083D01*
X181511225Y-96092082D01*
X181511230Y-96092082D01*
X181636162Y-96050669D01*
X181728065Y-95990435D01*
X181728066Y-95990434D01*
X181728068Y-95990432D01*
X181781694Y-95920418D01*
X181781693Y-95920418D01*
X181781695Y-95920417D01*
X181796419Y-95855727D01*
X181801596Y-95848423D01*
X181810424Y-95846918D01*
X181813836Y-95848287D01*
G37*
%TD.AperFunction*%
%TD*%
M02*
