M48
; DRILL file {KiCad 9.0.6} date 2026-03-23T13:15:18-0400
; FORMAT={-:-/ absolute / metric / decimal}
; #@! TF.CreationDate,2026-03-23T13:15:18-04:00
; #@! TF.GenerationSoftware,Kicad,Pcbnew,9.0.6
; #@! TF.FileFunction,MixedPlating,1,2
FMAT,2
METRIC
; #@! TA.AperFunction,Plated,PTH,ViaDrill
T1C0.300
; #@! TA.AperFunction,Plated,PTH,ComponentDrill
T2C0.600
; #@! TA.AperFunction,Plated,PTH,ComponentDrill
T3C0.700
; #@! TA.AperFunction,Plated,PTH,ComponentDrill
T4C0.750
; #@! TA.AperFunction,Plated,PTH,ComponentDrill
T5C0.800
; #@! TA.AperFunction,Plated,PTH,ComponentDrill
T6C0.920
; #@! TA.AperFunction,Plated,PTH,ComponentDrill
T7C2.300
; #@! TA.AperFunction,Plated,PTH,ComponentDrill
T8C2.700
%
G90
G05
T1
X160.5Y-100.0
T2
X162.073Y-91.61
X164.073Y-91.61
T3
X149.02Y-74.13
X149.02Y-79.21
X151.18Y-75.82
X151.18Y-80.9
X153.32Y-77.13
X153.32Y-82.21
X153.512Y-94.067
X156.04Y-96.21
X158.592Y-94.067
X160.48Y-88.23
X161.12Y-96.21
X162.67Y-98.31
X165.56Y-88.23
X167.51Y-78.72
X167.53Y-83.83
X167.75Y-98.31
X172.59Y-78.72
X172.61Y-83.83
T4
X110.22Y-75.95
X110.22Y-77.95
X110.22Y-82.85
X110.22Y-84.85
X110.22Y-86.85
X110.22Y-91.761
X110.22Y-93.761
X110.22Y-95.761
X110.22Y-100.67
X110.22Y-102.67
X110.22Y-104.67
X110.22Y-106.67
X110.22Y-108.67
X110.221Y-113.6
X110.221Y-115.6
X110.221Y-117.6
X110.221Y-119.6
X110.221Y-121.6
X114.96Y-120.75
X116.96Y-120.75
X171.54Y-110.0
X171.54Y-112.0
X176.515Y-75.72
X176.515Y-77.72
X176.515Y-79.72
X176.515Y-81.72
X176.515Y-83.72
X176.515Y-88.72
X176.515Y-90.72
X176.515Y-92.72
X176.515Y-94.72
X176.515Y-96.72
X177.06Y-110.0
X177.06Y-112.0
X197.02Y-82.175
X197.02Y-84.175
X197.02Y-86.175
X197.02Y-88.175
X197.02Y-90.175
X197.02Y-95.09
X197.02Y-97.09
X197.02Y-99.09
X197.02Y-101.09
X197.02Y-103.09
T5
X122.09Y-74.3
X122.09Y-76.84
X122.09Y-79.38
X122.09Y-81.92
X122.09Y-84.46
X122.09Y-87.0
X122.09Y-89.54
X122.09Y-92.08
X122.09Y-94.62
X122.09Y-97.16
X122.09Y-99.7
X122.09Y-102.24
X122.09Y-104.78
X122.09Y-107.32
X122.09Y-109.86
X122.09Y-112.4
X144.95Y-74.3
X144.95Y-76.84
X144.95Y-79.38
X144.95Y-81.92
X144.95Y-84.46
X144.95Y-87.0
X144.95Y-89.54
X144.95Y-92.08
X144.95Y-94.62
X144.95Y-97.16
X144.95Y-99.7
X144.95Y-102.24
X144.95Y-104.78
X144.95Y-107.32
X144.95Y-109.86
X144.95Y-112.4
X157.575Y-76.18
X157.575Y-78.72
X157.575Y-81.26
X157.575Y-83.8
X165.195Y-76.18
X165.195Y-78.72
X165.195Y-81.26
X165.195Y-83.8
X183.215Y-74.64
X183.215Y-77.18
X183.215Y-79.72
X183.215Y-82.26
X183.215Y-84.8
X183.215Y-87.34
X183.215Y-89.88
X183.215Y-92.42
X183.215Y-94.96
X183.215Y-97.5
X183.215Y-100.04
X183.215Y-102.58
X183.215Y-105.12
X183.215Y-107.66
X190.835Y-74.64
X190.835Y-77.18
X190.835Y-79.72
X190.835Y-82.26
X190.835Y-84.8
X190.835Y-87.34
X190.835Y-89.88
X190.835Y-92.42
X190.835Y-94.96
X190.835Y-97.5
X190.835Y-100.04
X190.835Y-102.58
X190.835Y-105.12
X190.835Y-107.66
T6
X154.25Y-110.55
X154.25Y-113.17
X156.75Y-110.55
X156.75Y-113.17
X158.75Y-110.55
X158.75Y-113.17
X161.25Y-110.55
X161.25Y-113.17
T7
X151.18Y-110.2
X151.18Y-115.88
X164.32Y-110.2
X164.32Y-115.88
T8
X104.02Y-75.21
X104.02Y-122.21
X197.02Y-75.15
X197.02Y-122.15
M30
