M48
; DRILL file {KiCad 9.0.6} date 2026-04-26T18:51:14-0400
; FORMAT={-:-/ absolute / metric / decimal}
; #@! TF.CreationDate,2026-04-26T18:51:14-04:00
; #@! TF.GenerationSoftware,Kicad,Pcbnew,9.0.6
; #@! TF.FileFunction,MixedPlating,1,2
FMAT,2
METRIC
; #@! TA.AperFunction,Plated,PTH,ViaDrill
T1C0.300
; #@! TA.AperFunction,Plated,PTH,ComponentDrill
T2C0.700
; #@! TA.AperFunction,Plated,PTH,ComponentDrill
T3C0.750
; #@! TA.AperFunction,Plated,PTH,ComponentDrill
T4C0.800
; #@! TA.AperFunction,Plated,PTH,ComponentDrill
T5C0.920
; #@! TA.AperFunction,Plated,PTH,ComponentDrill
T6C2.300
; #@! TA.AperFunction,Plated,PTH,ComponentDrill
T7C2.700
%
G90
G05
T1
X123.0Y-106.57
X147.0Y-86.26
T2
X155.22Y-107.5
X160.3Y-107.5
X174.46Y-105.01
X174.47Y-102.0
X179.54Y-105.01
X179.55Y-102.0
T3
X104.71Y-82.85
X104.71Y-84.85
X110.21Y-113.58
X110.21Y-115.58
X110.21Y-117.58
X110.21Y-119.58
X110.21Y-121.58
X110.219Y-100.67
X110.219Y-102.67
X110.219Y-104.67
X110.219Y-106.67
X110.219Y-108.67
X110.22Y-82.85
X110.22Y-84.85
X110.22Y-86.85
X110.22Y-91.76
X110.22Y-93.76
X110.22Y-95.76
X112.0Y-77.0
X114.0Y-77.0
X116.0Y-77.0
X151.0Y-103.0
X153.0Y-103.0
X158.0Y-103.0
X160.0Y-103.0
X165.01Y-103.01
X167.01Y-103.01
X176.514Y-76.06
X176.514Y-78.06
X176.514Y-80.06
X176.514Y-82.06
X176.514Y-84.06
X176.514Y-89.06
X176.514Y-91.06
X176.514Y-93.06
X176.514Y-95.06
X176.514Y-97.06
X197.02Y-95.429
X197.02Y-97.429
X197.02Y-99.429
X197.02Y-101.429
X197.02Y-103.429
X197.021Y-82.515
X197.021Y-84.515
X197.021Y-86.515
X197.021Y-88.515
X197.021Y-90.515
T4
X122.07Y-74.83
X122.07Y-77.37
X122.07Y-79.91
X122.07Y-82.45
X122.07Y-84.99
X122.07Y-87.53
X122.07Y-90.07
X122.07Y-92.61
X122.07Y-95.15
X122.07Y-97.69
X122.07Y-100.23
X122.07Y-102.77
X122.07Y-105.31
X122.07Y-107.85
X122.07Y-110.39
X122.07Y-112.93
X144.93Y-74.83
X144.93Y-77.37
X144.93Y-79.91
X144.93Y-82.45
X144.93Y-84.99
X144.93Y-87.53
X144.93Y-90.07
X144.93Y-92.61
X144.93Y-95.15
X144.93Y-97.69
X144.93Y-100.23
X144.93Y-102.77
X144.93Y-105.31
X144.93Y-107.85
X144.93Y-110.39
X144.93Y-112.93
X183.215Y-74.98
X183.215Y-77.52
X183.215Y-80.06
X183.215Y-82.6
X183.215Y-85.14
X183.215Y-87.68
X183.215Y-90.22
X183.215Y-92.76
X183.215Y-95.3
X183.215Y-97.84
X183.215Y-100.38
X183.215Y-102.92
X183.215Y-105.46
X183.215Y-108.0
X190.835Y-74.98
X190.835Y-77.52
X190.835Y-80.06
X190.835Y-82.6
X190.835Y-85.14
X190.835Y-87.68
X190.835Y-90.22
X190.835Y-92.76
X190.835Y-95.3
X190.835Y-97.84
X190.835Y-100.38
X190.835Y-102.92
X190.835Y-105.46
X190.835Y-108.0
T5
X154.26Y-110.55
X154.26Y-113.17
X156.76Y-110.55
X156.76Y-113.17
X158.76Y-110.55
X158.76Y-113.17
X161.26Y-110.55
X161.26Y-113.17
T6
X151.19Y-110.2
X151.19Y-115.88
X164.33Y-110.2
X164.33Y-115.88
T7
X104.02Y-75.21
X104.02Y-122.21
X197.02Y-75.15
X197.02Y-122.15
M30
