%TF.GenerationSoftware,KiCad,Pcbnew,9.0.6*%
%TF.CreationDate,2026-03-23T13:15:22-04:00*%
%TF.ProjectId,Mainboard,4d61696e-626f-4617-9264-2e6b69636164,rev?*%
%TF.SameCoordinates,Original*%
%TF.FileFunction,Soldermask,Top*%
%TF.FilePolarity,Negative*%
%FSLAX46Y46*%
G04 Gerber Fmt 4.6, Leading zero omitted, Abs format (unit mm)*
G04 Created by KiCad (PCBNEW 9.0.6) date 2026-03-23 13:15:22*
%MOMM*%
%LPD*%
G01*
G04 APERTURE LIST*
G04 Aperture macros list*
%AMRoundRect*
0 Rectangle with rounded corners*
0 $1 Rounding radius*
0 $2 $3 $4 $5 $6 $7 $8 $9 X,Y pos of 4 corners*
0 Add a 4 corners polygon primitive as box body*
4,1,4,$2,$3,$4,$5,$6,$7,$8,$9,$2,$3,0*
0 Add four circle primitives for the rounded corners*
1,1,$1+$1,$2,$3*
1,1,$1+$1,$4,$5*
1,1,$1+$1,$6,$7*
1,1,$1+$1,$8,$9*
0 Add four rect primitives between the rounded corners*
20,1,$1+$1,$2,$3,$4,$5,0*
20,1,$1+$1,$4,$5,$6,$7,0*
20,1,$1+$1,$6,$7,$8,$9,0*
20,1,$1+$1,$8,$9,$2,$3,0*%
G04 Aperture macros list end*
%ADD10C,1.400000*%
%ADD11RoundRect,0.250000X-0.625000X0.350000X-0.625000X-0.350000X0.625000X-0.350000X0.625000X0.350000X0*%
%ADD12O,1.750000X1.200000*%
%ADD13RoundRect,0.250000X0.625000X-0.350000X0.625000X0.350000X-0.625000X0.350000X-0.625000X-0.350000X0*%
%ADD14RoundRect,0.250000X-0.550000X-0.550000X0.550000X-0.550000X0.550000X0.550000X-0.550000X0.550000X0*%
%ADD15C,1.600000*%
%ADD16C,4.700000*%
%ADD17R,2.000000X1.200000*%
%ADD18O,2.000000X1.200000*%
%ADD19R,1.500000X1.500000*%
%ADD20C,1.500000*%
%ADD21C,3.500000*%
%ADD22RoundRect,0.250000X0.350000X0.350000X-0.350000X0.350000X-0.350000X-0.350000X0.350000X-0.350000X0*%
%ADD23C,1.200000*%
%ADD24RoundRect,0.250000X-0.350000X-0.625000X0.350000X-0.625000X0.350000X0.625000X-0.350000X0.625000X0*%
%ADD25O,1.200000X1.750000*%
G04 APERTURE END LIST*
D10*
%TO.C,R7*%
X172609998Y-83830000D03*
X167529998Y-83830000D03*
%TD*%
D11*
%TO.C,J3*%
X110220000Y-100670000D03*
D12*
X110220000Y-102670000D03*
X110220000Y-104670000D03*
X110220000Y-106670000D03*
X110220000Y-108670000D03*
%TD*%
D13*
%TO.C,J11*%
X177060000Y-112000000D03*
D12*
X177060000Y-110000000D03*
%TD*%
D11*
%TO.C,J2*%
X110220588Y-113600000D03*
D12*
X110220588Y-115600000D03*
X110220588Y-117600000D03*
X110220588Y-119600000D03*
X110220588Y-121600000D03*
%TD*%
D14*
%TO.C,U3*%
X157574998Y-76180000D03*
D15*
X157574998Y-78720000D03*
X157574998Y-81260000D03*
X157574998Y-83800000D03*
X165194998Y-83800000D03*
X165194998Y-81260000D03*
X165194998Y-78720000D03*
X165194998Y-76180000D03*
%TD*%
D10*
%TO.C,R6*%
X165559998Y-88230000D03*
X160479998Y-88230000D03*
%TD*%
D11*
%TO.C,J6*%
X197019998Y-82175000D03*
D12*
X197019998Y-84175000D03*
X197019998Y-86175000D03*
X197019998Y-88175000D03*
X197019998Y-90175000D03*
%TD*%
D16*
%TO.C,M2.5*%
X104019998Y-122210000D03*
%TD*%
D10*
%TO.C,R2*%
X161119998Y-96210000D03*
X156039998Y-96210000D03*
%TD*%
%TO.C,R5*%
X153319998Y-77130000D03*
X153319998Y-82210000D03*
%TD*%
D11*
%TO.C,J12*%
X197020000Y-95090000D03*
D12*
X197020000Y-97090000D03*
X197020000Y-99090000D03*
X197020000Y-101090000D03*
X197020000Y-103090000D03*
%TD*%
D11*
%TO.C,J1*%
X110220000Y-75950000D03*
D12*
X110220000Y-77950000D03*
%TD*%
D10*
%TO.C,R9*%
X162670000Y-98310000D03*
X167750000Y-98310000D03*
%TD*%
D16*
%TO.C,M2.5*%
X197019998Y-75150000D03*
%TD*%
D13*
%TO.C,J10*%
X171540000Y-112000000D03*
D12*
X171540000Y-110000000D03*
%TD*%
D17*
%TO.C,U1*%
X122089998Y-74300000D03*
D18*
X122089998Y-76840000D03*
X122089998Y-79380000D03*
X122089998Y-81920000D03*
X122089998Y-84460000D03*
X122089998Y-87000000D03*
X122089998Y-89540000D03*
X122089998Y-92080000D03*
X122089998Y-94620000D03*
X122089998Y-97160000D03*
X122089998Y-99700000D03*
X122089998Y-102240000D03*
X122089998Y-104780000D03*
X122089998Y-107320000D03*
X122089998Y-109860000D03*
X122089998Y-112400000D03*
X144949998Y-112400000D03*
X144949998Y-109860000D03*
X144949998Y-107320000D03*
X144949998Y-104780000D03*
X144949998Y-102240000D03*
X144949998Y-99700000D03*
X144949998Y-97160000D03*
X144949998Y-94620000D03*
X144949998Y-92080000D03*
X144949998Y-89540000D03*
X144949998Y-87000000D03*
X144949998Y-84460000D03*
X144949998Y-81920000D03*
X144949998Y-79380000D03*
X144949998Y-76840000D03*
X144949998Y-74300000D03*
%TD*%
D16*
%TO.C,M2*%
X104019998Y-75210000D03*
%TD*%
D19*
%TO.C,J9*%
X154250000Y-113170000D03*
D20*
X156750000Y-113170000D03*
X158750000Y-113170000D03*
X161250000Y-113170000D03*
X154250000Y-110550000D03*
X156750000Y-110550000D03*
X158750000Y-110550000D03*
X161250000Y-110550000D03*
D21*
X151180000Y-115880000D03*
X164320000Y-115880000D03*
X151180000Y-110200000D03*
X164320000Y-110200000D03*
%TD*%
D11*
%TO.C,J7*%
X110220000Y-82850000D03*
D12*
X110220000Y-84850000D03*
X110220000Y-86850000D03*
%TD*%
D10*
%TO.C,R3*%
X149019998Y-74130000D03*
X149019998Y-79210000D03*
%TD*%
D14*
%TO.C,U2*%
X183214998Y-74640000D03*
D15*
X183214998Y-77180000D03*
X183214998Y-79720000D03*
X183214998Y-82260000D03*
X183214998Y-84800000D03*
X183214998Y-87340000D03*
X183214998Y-89880000D03*
X183214998Y-92420000D03*
X183214998Y-94960000D03*
X183214998Y-97500000D03*
X183214998Y-100040000D03*
X183214998Y-102580000D03*
X183214998Y-105120000D03*
X183214998Y-107660000D03*
X190834998Y-107660000D03*
X190834998Y-105120000D03*
X190834998Y-102580000D03*
X190834998Y-100040000D03*
X190834998Y-97500000D03*
X190834998Y-94960000D03*
X190834998Y-92420000D03*
X190834998Y-89880000D03*
X190834998Y-87340000D03*
X190834998Y-84800000D03*
X190834998Y-82260000D03*
X190834998Y-79720000D03*
X190834998Y-77180000D03*
X190834998Y-74640000D03*
%TD*%
D22*
%TO.C,C1*%
X164072598Y-91610000D03*
D23*
X162072598Y-91610000D03*
%TD*%
D13*
%TO.C,J4*%
X176514998Y-83720000D03*
D12*
X176514998Y-81720000D03*
X176514998Y-79720000D03*
X176514998Y-77720000D03*
X176514998Y-75720000D03*
%TD*%
D24*
%TO.C,J13*%
X114960000Y-120750000D03*
D25*
X116960000Y-120750000D03*
%TD*%
D10*
%TO.C,R8*%
X167510000Y-78720000D03*
X172590000Y-78720000D03*
%TD*%
%TO.C,R1*%
X158592498Y-94067500D03*
X153512498Y-94067500D03*
%TD*%
%TO.C,R4*%
X151179998Y-75820000D03*
X151179998Y-80900000D03*
%TD*%
D11*
%TO.C,J8*%
X110220000Y-91760707D03*
D12*
X110220000Y-93760707D03*
X110220000Y-95760707D03*
%TD*%
D13*
%TO.C,J5*%
X176514998Y-96720000D03*
D12*
X176514998Y-94720000D03*
X176514998Y-92720000D03*
X176514998Y-90720000D03*
X176514998Y-88720000D03*
%TD*%
D16*
%TO.C,M2.5*%
X197019998Y-122150000D03*
%TD*%
M02*
