%TF.GenerationSoftware,KiCad,Pcbnew,10.0.6*%
%TF.CreationDate,2026-10-02T22:40:01-04:00*%
%TF.ProjectId,Mainboard,4d61696e-626f-4617-9264-2e6b69636164,rev?*%
%TF.SameCoordinates,Original*%
%TF.FileFunction,Soldermask,Bot*%
%TF.FilePolarity,Negative*%
%FSLAX46Y46*%
G04 Gerber Fmt 4.6, Leading zero omitted, Abs format (unit mm)*
G04 Created by KiCad (PCBNEW 10.0.6) date 2026-10-02 22:40:01*
%MOMM*%
%LPD*%
G01*
G04 APERTURE LIST*
G04 Aperture macros list*
%AMRoundRect*
0 Rectangle with rounded corners*
0 $1 Rounding radius*
0 $2 $3 $4 $5 $6 $7 $8 $9 X,Y pos of 4 corners*
0 Add a 4 corners polygon primitive as box body*
4,1,4,$2,$3,$4,$5,$6,$7,$8,$9,$2,$3,0*
0 Add four circle primitives for the rounded corners*
1,1,$1+$1,$2,$3*
1,1,$1+$1,$4,$5*
1,1,$1+$1,$6,$7*
1,1,$1+$1,$8,$9*
0 Add four rect primitives between the rounded corners*
20,1,$1+$1,$2,$3,$4,$5,0*
20,1,$1+$1,$4,$5,$6,$7,0*
20,1,$1+$1,$6,$7,$8,$9,0*
20,1,$1+$1,$8,$9,$2,$3,0*%
G04 Aperture macros list end*
%ADD10RoundRect,0.250000X0.625000X-0.350000X0.625000X0.350000X-0.625000X0.350000X-0.625000X-0.350000X0*%
%ADD11O,1.750000X1.200000*%
%ADD12RoundRect,0.250000X-0.625000X0.350000X-0.625000X-0.350000X0.625000X-0.350000X0.625000X0.350000X0*%
%ADD13RoundRect,0.250000X0.350000X0.625000X-0.350000X0.625000X-0.350000X-0.625000X0.350000X-0.625000X0*%
%ADD14O,1.200000X1.750000*%
%ADD15RoundRect,0.250000X-0.350000X-0.625000X0.350000X-0.625000X0.350000X0.625000X-0.350000X0.625000X0*%
%ADD16C,4.700000*%
%ADD17R,2.000000X1.200000*%
%ADD18O,2.000000X1.200000*%
%ADD19RoundRect,0.250000X-0.500000X-0.500000X0.500000X-0.500000X0.500000X0.500000X-0.500000X0.500000X0*%
%ADD20C,1.500000*%
%ADD21C,3.000000*%
G04 APERTURE END LIST*
D10*
%TO.C,J9*%
X176300000Y-86000000D03*
D11*
X176300000Y-84000000D03*
X176300000Y-82000000D03*
X176300000Y-80000000D03*
X176300000Y-78000000D03*
%TD*%
D12*
%TO.C,J2*%
X110220000Y-82850000D03*
D11*
X110220000Y-84850000D03*
X110220000Y-86850000D03*
%TD*%
D13*
%TO.C,J11*%
X153000000Y-103000000D03*
D14*
X151000000Y-103000000D03*
%TD*%
D13*
%TO.C,J10*%
X190400000Y-102900000D03*
D14*
X188400000Y-102900000D03*
X186400000Y-102900000D03*
X184400000Y-102900000D03*
X182400000Y-102900000D03*
%TD*%
D15*
%TO.C,J8*%
X182400000Y-96200000D03*
D14*
X184400000Y-96200000D03*
X186400000Y-96200000D03*
X188400000Y-96200000D03*
X190400000Y-96200000D03*
%TD*%
D16*
%TO.C,M2.5*%
X104019998Y-122210000D03*
%TD*%
D12*
%TO.C,J7*%
X197700000Y-81600000D03*
D11*
X197700000Y-83600000D03*
X197700000Y-85600000D03*
X197700000Y-87600000D03*
X197700000Y-89600000D03*
%TD*%
D13*
%TO.C,J12*%
X160000000Y-103000000D03*
D14*
X158000000Y-103000000D03*
%TD*%
D12*
%TO.C,J1*%
X104710000Y-82850000D03*
D11*
X104710000Y-84850000D03*
%TD*%
D12*
%TO.C,J4*%
X110219000Y-100670000D03*
D11*
X110219000Y-102670000D03*
X110219000Y-104670000D03*
X110219000Y-106670000D03*
X110219000Y-108670000D03*
%TD*%
D12*
%TO.C,J3*%
X110220000Y-91760000D03*
D11*
X110220000Y-93760000D03*
X110220000Y-95760000D03*
%TD*%
D16*
%TO.C,M2.5*%
X197019998Y-75150000D03*
%TD*%
D17*
%TO.C,U1*%
X122070000Y-74830000D03*
D18*
X122070000Y-77370000D03*
X122070000Y-79910000D03*
X122070000Y-82450000D03*
X122070000Y-84990000D03*
X122070000Y-87530000D03*
X122070000Y-90070000D03*
X122070000Y-92610000D03*
X122070000Y-95150000D03*
X122070000Y-97690000D03*
X122070000Y-100230000D03*
X122070000Y-102770000D03*
X122070000Y-105310000D03*
X122070000Y-107850000D03*
X122070000Y-110390000D03*
X122070000Y-112930000D03*
X144930000Y-112930000D03*
X144930000Y-110390000D03*
X144930000Y-107850000D03*
X144930000Y-105310000D03*
X144930000Y-102770000D03*
X144930000Y-100230000D03*
X144930000Y-97690000D03*
X144930000Y-95150000D03*
X144930000Y-92610000D03*
X144930000Y-90070000D03*
X144930000Y-87530000D03*
X144930000Y-84990000D03*
X144930000Y-82450000D03*
X144930000Y-79910000D03*
X144930000Y-77370000D03*
X144930000Y-74830000D03*
%TD*%
D16*
%TO.C,M2.5*%
X104019998Y-75210000D03*
%TD*%
D19*
%TO.C,J6*%
X154250000Y-110550000D03*
D20*
X156750000Y-110550000D03*
X158750000Y-110550000D03*
X161250000Y-110550000D03*
X154250000Y-113170000D03*
X156750000Y-113170000D03*
X158750000Y-113170000D03*
X161250000Y-113170000D03*
D21*
X151180000Y-110200000D03*
X151180000Y-115880000D03*
X164320000Y-110200000D03*
X164320000Y-115880000D03*
%TD*%
D13*
%TO.C,J13*%
X167002499Y-103000000D03*
D14*
X165002499Y-103000000D03*
%TD*%
D12*
%TO.C,J5*%
X110210000Y-113580000D03*
D11*
X110210000Y-115580000D03*
X110210000Y-117580000D03*
X110210000Y-119580000D03*
X110210000Y-121580000D03*
%TD*%
D15*
%TO.C,J14*%
X112000000Y-77000000D03*
D14*
X114000000Y-77000000D03*
X116000000Y-77000000D03*
%TD*%
D16*
%TO.C,M2.5*%
X197019998Y-122150000D03*
%TD*%
M02*
