M48
; DRILL file KiCad 10.0.6 date 2026-10-02T22:40:03
; FORMAT={-:-/ absolute / metric / decimal}
; #@! TF.CreationDate,2026-10-02T22:40:03-04:00
; #@! TF.GenerationSoftware,Kicad,Pcbnew,10.0.6
; #@! TF.FileFunction,Plated,1,2,PTH
FMAT,2
METRIC
; #@! TA.AperFunction,Plated,PTH,ViaDrill
T1C0.300
; #@! TA.AperFunction,Plated,PTH,ComponentDrill
T2C0.750
; #@! TA.AperFunction,Plated,PTH,ComponentDrill
T3C0.800
; #@! TA.AperFunction,Plated,PTH,ComponentDrill
T4C0.920
; #@! TA.AperFunction,Plated,PTH,ComponentDrill
T5C2.300
; #@! TA.AperFunction,Plated,PTH,ComponentDrill
T6C2.700
%
G90
G05
T1
X142.0Y-89.0
X173.75Y-96.85
X174.5Y-96.2
X178.5Y-96.85
X183.5Y-87.89
X185.0Y-76.92
X185.0Y-80.75
X185.0Y-89.16
X189.0Y-90.43
X189.0Y-91.7
X189.0Y-92.97
X189.035Y-89.16
T2
X104.71Y-82.85
X104.71Y-84.85
X110.21Y-113.58
X110.21Y-115.58
X110.21Y-117.58
X110.21Y-119.58
X110.21Y-121.58
X110.219Y-100.67
X110.219Y-102.67
X110.219Y-104.67
X110.219Y-106.67
X110.219Y-108.67
X110.22Y-82.85
X110.22Y-84.85
X110.22Y-86.85
X110.22Y-91.76
X110.22Y-93.76
X110.22Y-95.76
X112.0Y-77.0
X114.0Y-77.0
X116.0Y-77.0
X151.0Y-103.0
X153.0Y-103.0
X158.0Y-103.0
X160.0Y-103.0
X165.002Y-103.0
X167.002Y-103.0
X176.3Y-78.0
X176.3Y-80.0
X176.3Y-82.0
X176.3Y-84.0
X176.3Y-86.0
X182.4Y-96.2
X182.4Y-102.9
X184.4Y-96.2
X184.4Y-102.9
X186.4Y-96.2
X186.4Y-102.9
X188.4Y-96.2
X188.4Y-102.9
X190.4Y-96.2
X190.4Y-102.9
X197.7Y-81.6
X197.7Y-83.6
X197.7Y-85.6
X197.7Y-87.6
X197.7Y-89.6
T3
X122.07Y-74.83
X122.07Y-77.37
X122.07Y-79.91
X122.07Y-82.45
X122.07Y-84.99
X122.07Y-87.53
X122.07Y-90.07
X122.07Y-92.61
X122.07Y-95.15
X122.07Y-97.69
X122.07Y-100.23
X122.07Y-102.77
X122.07Y-105.31
X122.07Y-107.85
X122.07Y-110.39
X122.07Y-112.93
X144.93Y-74.83
X144.93Y-77.37
X144.93Y-79.91
X144.93Y-82.45
X144.93Y-84.99
X144.93Y-87.53
X144.93Y-90.07
X144.93Y-92.61
X144.93Y-95.15
X144.93Y-97.69
X144.93Y-100.23
X144.93Y-102.77
X144.93Y-105.31
X144.93Y-107.85
X144.93Y-110.39
X144.93Y-112.93
T4
X154.25Y-110.55
X154.25Y-113.17
X156.75Y-110.55
X156.75Y-113.17
X158.75Y-110.55
X158.75Y-113.17
X161.25Y-110.55
X161.25Y-113.17
T5
X151.18Y-110.2
X151.18Y-115.88
X164.32Y-110.2
X164.32Y-115.88
T6
X104.02Y-75.21
X104.02Y-122.21
X197.02Y-75.15
X197.02Y-122.15
M30
