%TF.GenerationSoftware,KiCad,Pcbnew,10.0.6*%
%TF.CreationDate,2026-10-02T22:39:59-04:00*%
%TF.ProjectId,Mainboard,4d61696e-626f-4617-9264-2e6b69636164,rev?*%
%TF.SameCoordinates,Original*%
%TF.FileFunction,Copper,L1,Top*%
%TF.FilePolarity,Positive*%
%FSLAX46Y46*%
G04 Gerber Fmt 4.6, Leading zero omitted, Abs format (unit mm)*
G04 Created by KiCad (PCBNEW 10.0.6) date 2026-10-02 22:39:59*
%MOMM*%
%LPD*%
G01*
G04 APERTURE LIST*
G04 Aperture macros list*
%AMRoundRect*
0 Rectangle with rounded corners*
0 $1 Rounding radius*
0 $2 $3 $4 $5 $6 $7 $8 $9 X,Y pos of 4 corners*
0 Add a 4 corners polygon primitive as box body*
4,1,4,$2,$3,$4,$5,$6,$7,$8,$9,$2,$3,0*
0 Add four circle primitives for the rounded corners*
1,1,$1+$1,$2,$3*
1,1,$1+$1,$4,$5*
1,1,$1+$1,$6,$7*
1,1,$1+$1,$8,$9*
0 Add four rect primitives between the rounded corners*
20,1,$1+$1,$2,$3,$4,$5,0*
20,1,$1+$1,$4,$5,$6,$7,0*
20,1,$1+$1,$6,$7,$8,$9,0*
20,1,$1+$1,$8,$9,$2,$3,0*%
G04 Aperture macros list end*
%TA.AperFunction,ComponentPad*%
%ADD10RoundRect,0.250000X0.625000X-0.350000X0.625000X0.350000X-0.625000X0.350000X-0.625000X-0.350000X0*%
%TD*%
%TA.AperFunction,ComponentPad*%
%ADD11O,1.750000X1.200000*%
%TD*%
%TA.AperFunction,ComponentPad*%
%ADD12RoundRect,0.250000X-0.625000X0.350000X-0.625000X-0.350000X0.625000X-0.350000X0.625000X0.350000X0*%
%TD*%
%TA.AperFunction,ComponentPad*%
%ADD13RoundRect,0.250000X0.350000X0.625000X-0.350000X0.625000X-0.350000X-0.625000X0.350000X-0.625000X0*%
%TD*%
%TA.AperFunction,ComponentPad*%
%ADD14O,1.200000X1.750000*%
%TD*%
%TA.AperFunction,ComponentPad*%
%ADD15RoundRect,0.250000X-0.350000X-0.625000X0.350000X-0.625000X0.350000X0.625000X-0.350000X0.625000X0*%
%TD*%
%TA.AperFunction,ComponentPad*%
%ADD16C,4.700000*%
%TD*%
%TA.AperFunction,SMDPad,CuDef*%
%ADD17RoundRect,0.250000X-0.625000X0.400000X-0.625000X-0.400000X0.625000X-0.400000X0.625000X0.400000X0*%
%TD*%
%TA.AperFunction,ComponentPad*%
%ADD18R,2.000000X1.200000*%
%TD*%
%TA.AperFunction,ComponentPad*%
%ADD19O,2.000000X1.200000*%
%TD*%
%TA.AperFunction,SMDPad,CuDef*%
%ADD20RoundRect,0.150000X-0.875000X-0.150000X0.875000X-0.150000X0.875000X0.150000X-0.875000X0.150000X0*%
%TD*%
%TA.AperFunction,ComponentPad*%
%ADD21RoundRect,0.250000X-0.500000X-0.500000X0.500000X-0.500000X0.500000X0.500000X-0.500000X0.500000X0*%
%TD*%
%TA.AperFunction,ComponentPad*%
%ADD22C,1.500000*%
%TD*%
%TA.AperFunction,ComponentPad*%
%ADD23C,3.000000*%
%TD*%
%TA.AperFunction,SMDPad,CuDef*%
%ADD24RoundRect,0.250000X0.400000X0.625000X-0.400000X0.625000X-0.400000X-0.625000X0.400000X-0.625000X0*%
%TD*%
%TA.AperFunction,ViaPad*%
%ADD25C,0.600000*%
%TD*%
%TA.AperFunction,Conductor*%
%ADD26C,0.500000*%
%TD*%
%TA.AperFunction,Conductor*%
%ADD27C,0.200000*%
%TD*%
%TA.AperFunction,Conductor*%
%ADD28C,2.000000*%
%TD*%
%TA.AperFunction,Conductor*%
%ADD29C,0.300000*%
%TD*%
G04 APERTURE END LIST*
D10*
%TO.P,J9,1,Pin_1_1*%
%TO.N,Thumb Hat - Left*%
X176300000Y-86000000D03*
D11*
%TO.P,J9,2,Pin_2_2*%
%TO.N,Thumb Hat - Center*%
X176300000Y-84000000D03*
%TO.P,J9,3,Pin_3_3*%
%TO.N,Thumb Hat - Up*%
X176300000Y-82000000D03*
%TO.P,J9,4,Pin_4_4*%
%TO.N,Thumb Hat - Right*%
X176300000Y-80000000D03*
%TO.P,J9,5,Pin_5_5*%
%TO.N,Thumb Hat - Down*%
X176300000Y-78000000D03*
%TD*%
D12*
%TO.P,J2,1,Pin_1_1*%
%TO.N,GND*%
X110220000Y-82850000D03*
D11*
%TO.P,J2,2,Pin_2_2*%
%TO.N,3V3*%
X110220000Y-84850000D03*
%TO.P,J2,3,Pin_3_3*%
%TO.N,X-Axis*%
X110220000Y-86850000D03*
%TD*%
D13*
%TO.P,J11,1,Pin_1_1*%
%TO.N,GND*%
X153000000Y-103000000D03*
D14*
%TO.P,J11,2,Pin_2_2*%
%TO.N,Box Switch 1*%
X151000000Y-103000000D03*
%TD*%
D13*
%TO.P,J10,1,Pin_1_1*%
%TO.N,GND*%
X190400000Y-102900000D03*
D14*
%TO.P,J10,2,Pin_2_2*%
%TO.N,3V3*%
X188400000Y-102900000D03*
%TO.P,J10,3,Pin_3_3*%
%TO.N,RE Switch*%
X186400000Y-102900000D03*
%TO.P,J10,4,Pin_4_4*%
%TO.N,RE A*%
X184400000Y-102900000D03*
%TO.P,J10,5,Pin_5_5*%
%TO.N,RE B*%
X182400000Y-102900000D03*
%TD*%
D15*
%TO.P,J8,1,Pin_1_1*%
%TO.N,Face Hat Right - Down*%
X182400000Y-96200000D03*
D14*
%TO.P,J8,2,Pin_2_2*%
%TO.N,Face Hat Right - Left*%
X184400000Y-96200000D03*
%TO.P,J8,3,Pin_3_3*%
%TO.N,Face Hat Right - Center*%
X186400000Y-96200000D03*
%TO.P,J8,4,Pin_4_4*%
%TO.N,Face Hat Right - Right*%
X188400000Y-96200000D03*
%TO.P,J8,5,Pin_5_5*%
%TO.N,Face Hat Right - Up*%
X190400000Y-96200000D03*
%TD*%
D16*
%TO.P,M2.5,1*%
%TO.N,GND*%
X104019998Y-122210000D03*
%TD*%
D17*
%TO.P,R1,1*%
%TO.N,3V3*%
X177500000Y-89350000D03*
%TO.P,R1,2*%
%TO.N,SDA*%
X177500000Y-92450000D03*
%TD*%
D12*
%TO.P,J7,1,Pin_1_1*%
%TO.N,Face Hat Left - Up*%
X197700000Y-81600000D03*
D11*
%TO.P,J7,2,Pin_2_2*%
%TO.N,Face Hat Left - Right*%
X197700000Y-83600000D03*
%TO.P,J7,3,Pin_3_3*%
%TO.N,Face Hat Left - Down*%
X197700000Y-85600000D03*
%TO.P,J7,4,Pin_4_4*%
%TO.N,Face Hat Left - Left*%
X197700000Y-87600000D03*
%TO.P,J7,5,Pin_5_5*%
%TO.N,Face Hat Left - Center*%
X197700000Y-89600000D03*
%TD*%
D13*
%TO.P,J12,1,Pin_1_1*%
%TO.N,GND*%
X160000000Y-103000000D03*
D14*
%TO.P,J12,2,Pin_2_2*%
%TO.N,Box Switch 2*%
X158000000Y-103000000D03*
%TD*%
D17*
%TO.P,R2,1*%
%TO.N,3V3*%
X175200000Y-89350000D03*
%TO.P,R2,2*%
%TO.N,SCK*%
X175200000Y-92450000D03*
%TD*%
D12*
%TO.P,J1,1,Pin_1_1*%
%TO.N,GND*%
X104710000Y-82850000D03*
D11*
%TO.P,J1,2,Pin_2_2*%
X104710000Y-84850000D03*
%TD*%
D12*
%TO.P,J4,1,Pin_1_1*%
%TO.N,GND*%
X110219000Y-100670000D03*
D11*
%TO.P,J4,2,Pin_2_2*%
%TO.N,3V3*%
X110219000Y-102670000D03*
%TO.P,J4,3,Pin_3_3*%
%TO.N,Joystick X*%
X110219000Y-104670000D03*
%TO.P,J4,4,Pin_4_4*%
%TO.N,Joystick Y*%
X110219000Y-106670000D03*
%TO.P,J4,5,Pin_5_5*%
%TO.N,Joystick Button*%
X110219000Y-108670000D03*
%TD*%
D12*
%TO.P,J3,1,Pin_1_1*%
%TO.N,GND*%
X110220000Y-91760000D03*
D11*
%TO.P,J3,2,Pin_2_2*%
%TO.N,3V3*%
X110220000Y-93760000D03*
%TO.P,J3,3,Pin_3_3*%
%TO.N,Y-Axis*%
X110220000Y-95760000D03*
%TD*%
D16*
%TO.P,M2.5,1*%
%TO.N,GND*%
X197019998Y-75150000D03*
%TD*%
D18*
%TO.P,U1,1,3V3_1*%
%TO.N,3V3*%
X122070000Y-74830000D03*
D19*
%TO.P,U1,2,EN/RESET_2*%
%TO.N,unconnected-(U1-EN{slash}RESET-Pad2)*%
X122070000Y-77370000D03*
%TO.P,U1,3,GPIO4/MTMS_3*%
%TO.N,X-Axis*%
X122070000Y-79910000D03*
%TO.P,U1,4,GPIO5/MTDI_4*%
%TO.N,Y-Axis*%
X122070000Y-82450000D03*
%TO.P,U1,5,GPIO6_5*%
%TO.N,SCK*%
X122070000Y-84990000D03*
%TO.P,U1,6,GPIO7_6*%
%TO.N,SDA*%
X122070000Y-87530000D03*
%TO.P,U1,7,GPIO0_7*%
%TO.N,Joystick X*%
X122070000Y-90070000D03*
%TO.P,U1,8,GPIO1_8*%
%TO.N,Joystick Y*%
X122070000Y-92610000D03*
%TO.P,U1,9,GPIO8/BOOT_9*%
%TO.N,Joystick Button*%
X122070000Y-95150000D03*
%TO.P,U1,10,GPIO10_10*%
%TO.N,Base Button*%
X122070000Y-97690000D03*
%TO.P,U1,11,GPIO11_11*%
%TO.N,Head Button*%
X122070000Y-100230000D03*
%TO.P,U1,12,GPIO2_12*%
%TO.N,Face Button*%
X122070000Y-102770000D03*
%TO.P,U1,13,GPIO3_13*%
%TO.N,Primary Trigger*%
X122070000Y-105310000D03*
%TO.P,U1,14,5V_14*%
%TO.N,5V*%
X122070000Y-107850000D03*
%TO.P,U1,15,GND_15*%
%TO.N,GND*%
X122070000Y-110390000D03*
%TO.P,U1,16,NC_16*%
%TO.N,unconnected-(U1-NC-Pad16)*%
X122070000Y-112930000D03*
%TO.P,U1,17,NC_17*%
%TO.N,unconnected-(U1-NC-Pad17)*%
X144930000Y-112930000D03*
%TO.P,U1,18,GND_18*%
%TO.N,GND*%
X144930000Y-110390000D03*
%TO.P,U1,19,GPIO12/USB_D-_19*%
%TO.N,CAN-LOW*%
X144930000Y-107850000D03*
%TO.P,U1,20,GPIO13/USB_D+_20*%
%TO.N,CAN-HI*%
X144930000Y-105310000D03*
%TO.P,U1,21,GND_21*%
%TO.N,GND*%
X144930000Y-102770000D03*
%TO.P,U1,22,GPIO9/BOOT_22*%
%TO.N,Box Switch 1*%
X144930000Y-100230000D03*
%TO.P,U1,23,GPIO18_23*%
%TO.N,Box Switch 2*%
X144930000Y-97690000D03*
%TO.P,U1,24,GPIO19_24*%
%TO.N,Box Switch 3*%
X144930000Y-95150000D03*
%TO.P,U1,25,GPIO20_25*%
%TO.N,RE B*%
X144930000Y-92610000D03*
%TO.P,U1,26,GPIO21_26*%
%TO.N,RE A*%
X144930000Y-90070000D03*
%TO.P,U1,27,GPIO22_27*%
%TO.N,RE Switch*%
X144930000Y-87530000D03*
%TO.P,U1,28,GPIO23_28*%
%TO.N,Secondary Trigger*%
X144930000Y-84990000D03*
%TO.P,U1,29,GPIO15/JTAG_29*%
%TO.N,INT*%
X144930000Y-82450000D03*
%TO.P,U1,30,GPIO17/U0RXD_30*%
%TO.N,Face Hat Right - Down*%
X144930000Y-79910000D03*
%TO.P,U1,31,GPIO16/U0TXD_31*%
%TO.N,Extra*%
X144930000Y-77370000D03*
%TO.P,U1,32,GND_32*%
%TO.N,GND*%
X144930000Y-74830000D03*
%TD*%
D16*
%TO.P,M2.5,1*%
%TO.N,GND*%
X104019998Y-75210000D03*
%TD*%
D20*
%TO.P,U3,1,GPB0_1*%
%TO.N,Face Hat Right - Center*%
X181800000Y-76460000D03*
%TO.P,U3,2,GPB1_2*%
%TO.N,Face Hat Right - Left*%
X181800000Y-77730000D03*
%TO.P,U3,3,GPB2_3*%
%TO.N,Thumb Hat - Down*%
X181800000Y-79000000D03*
%TO.P,U3,4,GPB3_4*%
%TO.N,Thumb Hat - Right*%
X181800000Y-80270000D03*
%TO.P,U3,5,GPB4_5*%
%TO.N,Thumb Hat - Up*%
X181800000Y-81540000D03*
%TO.P,U3,6,GPB5_6*%
%TO.N,Thumb Hat - Center*%
X181800000Y-82810000D03*
%TO.P,U3,7,GPB6_7*%
%TO.N,Thumb Hat - Left*%
X181800000Y-84080000D03*
%TO.P,U3,8,GPB7_8*%
%TO.N,unconnected-(U3-GPB7-Pad8)*%
X181800000Y-85350000D03*
%TO.P,U3,9,V_{DD}_9*%
%TO.N,3V3*%
X181800000Y-86620000D03*
%TO.P,U3,10,V_{SS}_10*%
%TO.N,GND*%
X181800000Y-87890000D03*
%TO.P,U3,11,NC_11*%
%TO.N,unconnected-(U3-NC-Pad11)*%
X181800000Y-89160000D03*
%TO.P,U3,12,SCK_12*%
%TO.N,SCK*%
X181800000Y-90430000D03*
%TO.P,U3,13,SDA_13*%
%TO.N,SDA*%
X181800000Y-91700000D03*
%TO.P,U3,14,NC_14*%
%TO.N,unconnected-(U3-NC-Pad14)*%
X181800000Y-92970000D03*
%TO.P,U3,15,A0_15*%
%TO.N,GND*%
X191100000Y-92970000D03*
%TO.P,U3,16,A1_16*%
X191100000Y-91700000D03*
%TO.P,U3,17,A2_17*%
X191100000Y-90430000D03*
%TO.P,U3,18,~{RESET}_18*%
%TO.N,3V3*%
X191100000Y-89160000D03*
%TO.P,U3,19,INTB_19*%
%TO.N,INT*%
X191100000Y-87890000D03*
%TO.P,U3,20,INTA_20*%
X191100000Y-86620000D03*
%TO.P,U3,21,GPA0_21*%
%TO.N,Face Hat Left - Center*%
X191100000Y-85350000D03*
%TO.P,U3,22,GPA1_22*%
%TO.N,Face Hat Left - Left*%
X191100000Y-84080000D03*
%TO.P,U3,23,GPA2_23*%
%TO.N,Face Hat Left - Down*%
X191100000Y-82810000D03*
%TO.P,U3,24,GPA3_24*%
%TO.N,Face Hat Left - Right*%
X191100000Y-81540000D03*
%TO.P,U3,25,GPA4_25*%
%TO.N,Face Hat Left - Up*%
X191100000Y-80270000D03*
%TO.P,U3,26,GPA5_26*%
%TO.N,Face Hat Right - Up*%
X191100000Y-79000000D03*
%TO.P,U3,27,GPA6_27*%
%TO.N,Face Hat Right - Right*%
X191100000Y-77730000D03*
%TO.P,U3,28,GPA7_28*%
%TO.N,unconnected-(U3-GPA7-Pad28)*%
X191100000Y-76460000D03*
%TD*%
D21*
%TO.P,J6,1,VBUS1_1*%
%TO.N,5V*%
X154250000Y-110550000D03*
D22*
%TO.P,J6,2,D1-_2*%
%TO.N,CAN-LOW*%
X156750000Y-110550000D03*
%TO.P,J6,3,D1+_3*%
%TO.N,CAN-HI*%
X158750000Y-110550000D03*
%TO.P,J6,4,GND1_4*%
%TO.N,GND*%
X161250000Y-110550000D03*
%TO.P,J6,5,VBUS2_5*%
%TO.N,5V*%
X154250000Y-113170000D03*
%TO.P,J6,6,D2-_6*%
%TO.N,CAN-LOW*%
X156750000Y-113170000D03*
%TO.P,J6,7,D2+_7*%
%TO.N,CAN-HI*%
X158750000Y-113170000D03*
%TO.P,J6,8,GND2_8*%
%TO.N,GND*%
X161250000Y-113170000D03*
D23*
%TO.P,J6,SH*%
%TO.N,N/C*%
X151180000Y-110200000D03*
X151180000Y-115880000D03*
X164320000Y-110200000D03*
X164320000Y-115880000D03*
%TD*%
D13*
%TO.P,J13,1,Pin_1_1*%
%TO.N,GND*%
X167002499Y-103000000D03*
D14*
%TO.P,J13,2,Pin_2_2*%
%TO.N,Box Switch 3*%
X165002499Y-103000000D03*
%TD*%
D12*
%TO.P,J5,1,Pin_1_1*%
%TO.N,Base Button*%
X110210000Y-113580000D03*
D11*
%TO.P,J5,2,Pin_2_2*%
%TO.N,Head Button*%
X110210000Y-115580000D03*
%TO.P,J5,3,Pin_3_3*%
%TO.N,Face Button*%
X110210000Y-117580000D03*
%TO.P,J5,4,Pin_4_4*%
%TO.N,Secondary Trigger*%
X110210000Y-119580000D03*
%TO.P,J5,5,Pin_5_5*%
%TO.N,Primary Trigger*%
X110210000Y-121580000D03*
%TD*%
D24*
%TO.P,R3,1*%
%TO.N,CAN-HI*%
X159300000Y-107250000D03*
%TO.P,R3,2*%
%TO.N,CAN-LOW*%
X156200000Y-107250000D03*
%TD*%
D15*
%TO.P,J14,1,Pin_1_1*%
%TO.N,GND*%
X112000000Y-77000000D03*
D14*
%TO.P,J14,2,Pin_2_2*%
%TO.N,3V3*%
X114000000Y-77000000D03*
%TO.P,J14,3,Pin_3_3*%
%TO.N,Extra*%
X116000000Y-77000000D03*
%TD*%
D16*
%TO.P,M2.5,1*%
%TO.N,GND*%
X197019998Y-122150000D03*
%TD*%
D25*
%TO.N,Secondary Trigger*%
X142000000Y-89000000D03*
%TO.N,GND*%
X183500000Y-87890000D03*
X189000000Y-90430000D03*
X189000000Y-92970000D03*
X189000000Y-91700000D03*
%TO.N,3V3*%
X185000000Y-80750000D03*
X185000000Y-89160000D03*
X189035000Y-89160000D03*
X185000000Y-76920000D03*
%TO.N,Face Hat Right - Down*%
X174500000Y-96200000D03*
%TO.N,INT*%
X178500000Y-96850000D03*
X173750000Y-96850000D03*
%TD*%
%TO.N,GND*%
D26*
X189000000Y-92970000D02*
X191100000Y-92970000D01*
X189000000Y-91700000D02*
X191100000Y-91700000D01*
X189000000Y-90430000D02*
X191100000Y-90430000D01*
%TO.N,Secondary Trigger*%
D27*
X113010000Y-119580000D02*
X110210000Y-119580000D01*
X119500000Y-113090000D02*
X113010000Y-119580000D01*
X119500000Y-105120000D02*
X119500000Y-113090000D01*
X120570000Y-104050000D02*
X119500000Y-105120000D01*
X138480000Y-104050000D02*
X120570000Y-104050000D01*
X142000000Y-100530000D02*
X138480000Y-104050000D01*
X142000000Y-89000000D02*
X142000000Y-100530000D01*
%TO.N,Box Switch 1*%
X150000000Y-102000000D02*
X151000000Y-103000000D01*
X146700000Y-102000000D02*
X150000000Y-102000000D01*
X144930000Y-100230000D02*
X146700000Y-102000000D01*
%TO.N,Box Switch 3*%
X146990000Y-95150000D02*
X144930000Y-95150000D01*
X147490000Y-95650000D02*
X146990000Y-95150000D01*
X148510000Y-100500000D02*
X147490000Y-99480000D01*
X162500000Y-100500000D02*
X148510000Y-100500000D01*
X147490000Y-99480000D02*
X147490000Y-95650000D01*
X165010000Y-103010000D02*
X162500000Y-100500000D01*
%TO.N,RE B*%
X149000000Y-100000000D02*
X179500000Y-100000000D01*
X148000000Y-99000000D02*
X149000000Y-100000000D01*
X148000000Y-93610000D02*
X148000000Y-99000000D01*
X147000000Y-92610000D02*
X148000000Y-93610000D01*
X179500000Y-100000000D02*
X182400000Y-102900000D01*
X144930000Y-92610000D02*
X147000000Y-92610000D01*
%TO.N,RE A*%
X149500000Y-99500000D02*
X181000000Y-99500000D01*
X181000000Y-99500000D02*
X184400000Y-102900000D01*
X148500000Y-98500000D02*
X149500000Y-99500000D01*
X148500000Y-91570000D02*
X148500000Y-98500000D01*
X147000000Y-90070000D02*
X148500000Y-91570000D01*
X144930000Y-90070000D02*
X147000000Y-90070000D01*
%TO.N,RE Switch*%
X149000000Y-98000000D02*
X150000000Y-99000000D01*
X150000000Y-99000000D02*
X182500000Y-99000000D01*
X149000000Y-89530000D02*
X149000000Y-98000000D01*
X144930000Y-87530000D02*
X147000000Y-87530000D01*
X147000000Y-87530000D02*
X149000000Y-89530000D01*
X182500000Y-99000000D02*
X186400000Y-102900000D01*
%TO.N,SDA*%
X177500000Y-97000000D02*
X177500000Y-92450000D01*
X176250000Y-98250000D02*
X177500000Y-97000000D01*
X149490000Y-97490000D02*
X150250000Y-98250000D01*
X149490000Y-88760000D02*
X149490000Y-97490000D01*
X146990000Y-86260000D02*
X149490000Y-88760000D01*
X126265000Y-86260000D02*
X146990000Y-86260000D01*
X124995000Y-87530000D02*
X126265000Y-86260000D01*
X122070000Y-87530000D02*
X124995000Y-87530000D01*
X150250000Y-98250000D02*
X176250000Y-98250000D01*
%TO.N,INT*%
X146990000Y-82450000D02*
X144930000Y-82450000D01*
X150510000Y-85970000D02*
X146990000Y-82450000D01*
X150950000Y-96850000D02*
X150510000Y-96410000D01*
X173750000Y-96850000D02*
X150950000Y-96850000D01*
X150510000Y-96410000D02*
X150510000Y-85970000D01*
%TO.N,Face Hat Right - Down*%
X146990000Y-79910000D02*
X144930000Y-79910000D01*
X151000000Y-83920000D02*
X146990000Y-79910000D01*
X151200000Y-96200000D02*
X151000000Y-96000000D01*
X151000000Y-96000000D02*
X151000000Y-83920000D01*
X174500000Y-96200000D02*
X151200000Y-96200000D01*
%TO.N,SCK*%
X177220000Y-90430000D02*
X181800000Y-90430000D01*
X175175000Y-92475000D02*
X177220000Y-90430000D01*
X175175000Y-96995000D02*
X175175000Y-92475000D01*
X174670000Y-97500000D02*
X175175000Y-96995000D01*
X150490000Y-97500000D02*
X174670000Y-97500000D01*
X150011000Y-97021000D02*
X150490000Y-97500000D01*
X147000000Y-83720000D02*
X150011000Y-86731000D01*
X125000000Y-85000000D02*
X126280000Y-83720000D01*
X150011000Y-86731000D02*
X150011000Y-97021000D01*
X122080000Y-85000000D02*
X125000000Y-85000000D01*
X126280000Y-83720000D02*
X147000000Y-83720000D01*
X122070000Y-84990000D02*
X122080000Y-85000000D01*
%TO.N,Primary Trigger*%
X113010000Y-121580000D02*
X110210000Y-121580000D01*
X120000000Y-114590000D02*
X113010000Y-121580000D01*
X120000000Y-106010000D02*
X120000000Y-114590000D01*
X120700000Y-105310000D02*
X120000000Y-106010000D01*
X122070000Y-105310000D02*
X120700000Y-105310000D01*
%TO.N,Face Button*%
X113010000Y-117580000D02*
X110210000Y-117580000D01*
X119000000Y-111590000D02*
X113010000Y-117580000D01*
X120240000Y-102770000D02*
X119000000Y-104010000D01*
X119000000Y-104010000D02*
X119000000Y-111590000D01*
X122070000Y-102770000D02*
X120240000Y-102770000D01*
%TO.N,Head Button*%
X112990000Y-115580000D02*
X110210000Y-115580000D01*
X118490000Y-101510000D02*
X118490000Y-110080000D01*
X119770000Y-100230000D02*
X118490000Y-101510000D01*
X118490000Y-110080000D02*
X112990000Y-115580000D01*
X122070000Y-100230000D02*
X119770000Y-100230000D01*
%TO.N,Base Button*%
X113000000Y-113580000D02*
X110210000Y-113580000D01*
X118010000Y-99150000D02*
X118010000Y-108570000D01*
X119470000Y-97690000D02*
X118010000Y-99150000D01*
X118010000Y-108570000D02*
X113000000Y-113580000D01*
X122070000Y-97690000D02*
X119470000Y-97690000D01*
%TO.N,GND*%
D26*
X151180000Y-115880000D02*
X151187685Y-115887685D01*
X164312315Y-115887685D02*
X164320000Y-115880000D01*
X183500000Y-87890000D02*
X181800000Y-87890000D01*
D28*
X151180000Y-115880000D02*
X164320000Y-115880000D01*
%TO.N,Thumb Hat - Left*%
D27*
X181800000Y-84080000D02*
X178220000Y-84080000D01*
X178220000Y-84080000D02*
X176300000Y-86000000D01*
%TO.N,Thumb Hat - Center*%
X177490000Y-82810000D02*
X176300000Y-84000000D01*
X181800000Y-82810000D02*
X177490000Y-82810000D01*
%TO.N,Thumb Hat - Up*%
X176760000Y-81540000D02*
X176300000Y-82000000D01*
X181800000Y-81540000D02*
X176760000Y-81540000D01*
%TO.N,Thumb Hat - Right*%
X181800000Y-80270000D02*
X176570000Y-80270000D01*
X176570000Y-80270000D02*
X176300000Y-80000000D01*
%TO.N,Thumb Hat - Down*%
X177300000Y-79000000D02*
X176300000Y-78000000D01*
X181800000Y-79000000D02*
X177300000Y-79000000D01*
%TO.N,3V3*%
D26*
X189035000Y-89160000D02*
X191100000Y-89160000D01*
%TO.N,X-Axis*%
D29*
X112510000Y-86850000D02*
X119450000Y-79910000D01*
X110220000Y-86850000D02*
X112510000Y-86850000D01*
X119450000Y-79910000D02*
X122070000Y-79910000D01*
%TO.N,Face Hat Right - Left*%
D27*
X184400000Y-96200000D02*
X184400000Y-94250000D01*
X186000000Y-80475000D02*
X183255000Y-77730000D01*
X184400000Y-94250000D02*
X186000000Y-92650000D01*
X186000000Y-92650000D02*
X186000000Y-80475000D01*
X183255000Y-77730000D02*
X181800000Y-77730000D01*
%TO.N,Face Hat Right - Center*%
X186500000Y-94250000D02*
X186500000Y-79700000D01*
X186400000Y-94350000D02*
X186500000Y-94250000D01*
X183260000Y-76460000D02*
X181800000Y-76460000D01*
X186500000Y-79700000D02*
X183260000Y-76460000D01*
X186400000Y-96200000D02*
X186400000Y-94350000D01*
%TO.N,Face Hat Right - Right*%
X189770000Y-77730000D02*
X191100000Y-77730000D01*
X187500000Y-93925000D02*
X187500000Y-80000000D01*
X188400000Y-96200000D02*
X188400000Y-94825000D01*
X187500000Y-80000000D02*
X189770000Y-77730000D01*
X188400000Y-94825000D02*
X187500000Y-93925000D01*
%TO.N,Face Hat Right - Up*%
X188000000Y-80750000D02*
X189750000Y-79000000D01*
X190400000Y-96200000D02*
X190400000Y-95900000D01*
X189750000Y-79000000D02*
X191100000Y-79000000D01*
X190400000Y-95900000D02*
X188000000Y-93500000D01*
X188000000Y-93500000D02*
X188000000Y-80750000D01*
%TO.N,SDA*%
X177500000Y-92450000D02*
X178250000Y-91700000D01*
X178250000Y-91700000D02*
X181800000Y-91700000D01*
%TO.N,Face Hat Left - Up*%
X193825000Y-81600000D02*
X197700000Y-81600000D01*
X192495000Y-80270000D02*
X193825000Y-81600000D01*
X191100000Y-80270000D02*
X192495000Y-80270000D01*
%TO.N,Face Hat Left - Right*%
X194550000Y-83600000D02*
X197700000Y-83600000D01*
X192490000Y-81540000D02*
X194550000Y-83600000D01*
X191100000Y-81540000D02*
X192490000Y-81540000D01*
%TO.N,Face Hat Left - Down*%
X191100000Y-82810000D02*
X192485000Y-82810000D01*
X195275000Y-85600000D02*
X197700000Y-85600000D01*
X192485000Y-82810000D02*
X195275000Y-85600000D01*
%TO.N,Face Hat Left - Left*%
X191100000Y-84080000D02*
X192505000Y-84080000D01*
X196025000Y-87600000D02*
X197700000Y-87600000D01*
X192505000Y-84080000D02*
X196025000Y-87600000D01*
%TO.N,Face Hat Left - Center*%
X196750000Y-89600000D02*
X197700000Y-89600000D01*
X191100000Y-85350000D02*
X192500000Y-85350000D01*
X192500000Y-85350000D02*
X196750000Y-89600000D01*
%TO.N,Box Switch 2*%
X156000000Y-101000000D02*
X158000000Y-103000000D01*
X148240000Y-101000000D02*
X156000000Y-101000000D01*
X144930000Y-97690000D02*
X148240000Y-101000000D01*
%TO.N,Joystick X*%
D29*
X116910000Y-90070000D02*
X122070000Y-90070000D01*
X115000000Y-91980000D02*
X116910000Y-90070000D01*
X115000000Y-101590000D02*
X115000000Y-91980000D01*
X110220000Y-104670000D02*
X111920000Y-104670000D01*
X111920000Y-104670000D02*
X115000000Y-101590000D01*
%TO.N,Joystick Y*%
X112000000Y-106670000D02*
X116010000Y-102660000D01*
X118420000Y-92610000D02*
X122070000Y-92610000D01*
X116010000Y-102660000D02*
X116010000Y-95020000D01*
X116010000Y-95020000D02*
X118420000Y-92610000D01*
X110220000Y-106670000D02*
X112000000Y-106670000D01*
%TO.N,Joystick Button*%
D27*
X117000000Y-97000000D02*
X118850000Y-95150000D01*
X117000000Y-103650000D02*
X117000000Y-97000000D01*
X111980000Y-108670000D02*
X117000000Y-103650000D01*
X118850000Y-95150000D02*
X122070000Y-95150000D01*
X110220000Y-108670000D02*
X111980000Y-108670000D01*
%TO.N,Y-Axis*%
D29*
X112099293Y-95760707D02*
X114000000Y-93860000D01*
X110220000Y-95760707D02*
X112099293Y-95760707D01*
X114000000Y-88000000D02*
X119550000Y-82450000D01*
X114000000Y-93860000D02*
X114000000Y-88000000D01*
X119550000Y-82450000D02*
X122070000Y-82450000D01*
%TO.N,CAN-LOW*%
D27*
X147000000Y-107850000D02*
X147600000Y-107250000D01*
X156760000Y-109060000D02*
X156760000Y-110550000D01*
X144930000Y-107850000D02*
X147000000Y-107850000D01*
X156760000Y-110060000D02*
X156760000Y-110550000D01*
X156200000Y-108500000D02*
X156760000Y-109060000D01*
X147600000Y-107250000D02*
X156200000Y-107250000D01*
X156750000Y-110550000D02*
X156750000Y-113170000D01*
X156200000Y-107250000D02*
X156200000Y-108500000D01*
%TO.N,CAN-HI*%
X144930000Y-105310000D02*
X147010000Y-105310000D01*
X147700000Y-106000000D02*
X158050000Y-106000000D01*
X158760000Y-109015000D02*
X158760000Y-110550000D01*
X147010000Y-105310000D02*
X147700000Y-106000000D01*
X158050000Y-106000000D02*
X159300000Y-107250000D01*
X158750000Y-110550000D02*
X158750000Y-113170000D01*
X159300000Y-107250000D02*
X159300000Y-108475000D01*
X159300000Y-108475000D02*
X158760000Y-109015000D01*
%TO.N,INT*%
X191100000Y-87890000D02*
X191100000Y-86620000D01*
X181390000Y-98250000D02*
X191700000Y-98250000D01*
X192380000Y-87890000D02*
X191100000Y-87890000D01*
X191700000Y-98250000D02*
X192700000Y-97250000D01*
X178500000Y-96850000D02*
X179990000Y-96850000D01*
X192700000Y-88210000D02*
X192380000Y-87890000D01*
X192700000Y-97250000D02*
X192700000Y-88210000D01*
X179990000Y-96850000D02*
X181390000Y-98250000D01*
%TO.N,Extra*%
X144930000Y-77370000D02*
X143660000Y-78640000D01*
X117640000Y-78640000D02*
X116000000Y-77000000D01*
X143660000Y-78640000D02*
X117640000Y-78640000D01*
%TD*%
%TA.AperFunction,Conductor*%
%TO.N,3V3*%
G36*
X184915740Y-73005021D02*
G01*
X184940984Y-73012434D01*
X184993730Y-73043730D01*
X185401073Y-73451073D01*
X185422223Y-73479325D01*
X185434831Y-73502414D01*
X185450000Y-73561843D01*
X185450000Y-77483573D01*
X185444976Y-77518511D01*
X185441789Y-77529364D01*
X185404014Y-77588141D01*
X185340457Y-77617164D01*
X185271307Y-77607223D01*
X185264329Y-77604036D01*
X185228157Y-77578922D01*
X184598926Y-76949691D01*
X184577774Y-76921435D01*
X184565167Y-76898346D01*
X184550000Y-76838921D01*
X184550000Y-74500000D01*
X184050000Y-74000000D01*
X146118005Y-74000000D01*
X146083067Y-73994976D01*
X146053144Y-73986189D01*
X146015197Y-73967531D01*
X145906798Y-73888775D01*
X145906789Y-73888769D01*
X145906790Y-73888769D01*
X145906788Y-73888768D01*
X145857265Y-73863535D01*
X145752449Y-73810128D01*
X145596532Y-73759467D01*
X145592010Y-73757614D01*
X145582820Y-73755444D01*
X145578057Y-73755070D01*
X145567513Y-73753400D01*
X145456271Y-73735781D01*
X145440407Y-73733268D01*
X145416614Y-73729500D01*
X145416611Y-73729500D01*
X144443389Y-73729500D01*
X144443388Y-73729500D01*
X144403726Y-73735781D01*
X144403725Y-73735780D01*
X144272304Y-73756596D01*
X144107549Y-73810129D01*
X143953209Y-73888769D01*
X143887949Y-73936181D01*
X143887950Y-73936182D01*
X143847133Y-73965838D01*
X143815919Y-73982308D01*
X143786549Y-73992788D01*
X143744879Y-74000000D01*
X123749998Y-74000000D01*
X123250000Y-74499998D01*
X123250000Y-75358170D01*
X123244975Y-75393114D01*
X123240570Y-75408112D01*
X123202827Y-75466855D01*
X123201458Y-75468042D01*
X123146597Y-75495518D01*
X123139039Y-75497163D01*
X123112668Y-75500000D01*
X121141830Y-75500000D01*
X121106889Y-75494975D01*
X121091890Y-75490570D01*
X121033144Y-75452827D01*
X121031957Y-75451458D01*
X121004477Y-75396583D01*
X121002832Y-75389021D01*
X121000000Y-75362668D01*
X121000000Y-74500000D01*
X120500000Y-74000000D01*
X115250000Y-74000000D01*
X115249999Y-74000000D01*
X115249998Y-74000000D01*
X114760000Y-74489998D01*
X114760000Y-77838170D01*
X114754975Y-77873114D01*
X114750570Y-77888112D01*
X114712827Y-77946855D01*
X114711458Y-77948042D01*
X114656597Y-77975518D01*
X114649039Y-77977163D01*
X114622668Y-77980000D01*
X113391830Y-77980000D01*
X113356889Y-77974975D01*
X113341890Y-77970570D01*
X113283144Y-77932827D01*
X113281957Y-77931458D01*
X113254477Y-77876583D01*
X113252832Y-77869021D01*
X113250000Y-77842668D01*
X113250000Y-74500000D01*
X112750000Y-74000000D01*
X109000000Y-74000000D01*
X108999999Y-74000000D01*
X108999998Y-74000000D01*
X108500000Y-74499998D01*
X108500000Y-74499999D01*
X108500000Y-74500000D01*
X108500000Y-83620000D01*
X109000000Y-84120000D01*
X111058170Y-84120000D01*
X111093106Y-84125023D01*
X111108104Y-84129427D01*
X111166855Y-84167172D01*
X111168042Y-84168541D01*
X111195518Y-84223402D01*
X111197163Y-84230960D01*
X111200000Y-84257331D01*
X111200000Y-85428170D01*
X111194975Y-85463114D01*
X111190570Y-85478112D01*
X111152827Y-85536855D01*
X111151458Y-85538042D01*
X111096597Y-85565518D01*
X111089039Y-85567163D01*
X111062668Y-85570000D01*
X108999998Y-85570000D01*
X108500000Y-86069998D01*
X108500000Y-86069999D01*
X108500000Y-86070000D01*
X108500000Y-92550000D01*
X109010000Y-93060000D01*
X111058170Y-93060000D01*
X111093106Y-93065023D01*
X111108104Y-93069427D01*
X111166855Y-93107172D01*
X111168042Y-93108541D01*
X111195518Y-93163402D01*
X111197163Y-93170960D01*
X111200000Y-93197331D01*
X111200000Y-94338170D01*
X111194975Y-94373114D01*
X111190570Y-94388112D01*
X111152827Y-94446855D01*
X111151458Y-94448042D01*
X111096597Y-94475518D01*
X111089039Y-94477163D01*
X111062668Y-94480000D01*
X108999998Y-94480000D01*
X108500000Y-94979998D01*
X108500000Y-94979999D01*
X108500000Y-94980000D01*
X108500000Y-101440000D01*
X109010000Y-101950000D01*
X111058170Y-101950000D01*
X111093106Y-101955023D01*
X111108104Y-101959427D01*
X111166855Y-101997172D01*
X111168042Y-101998541D01*
X111195518Y-102053402D01*
X111197163Y-102060960D01*
X111200000Y-102087331D01*
X111200000Y-103238170D01*
X111194975Y-103273114D01*
X111190570Y-103288112D01*
X111152827Y-103346855D01*
X111151458Y-103348042D01*
X111096597Y-103375518D01*
X111089039Y-103377163D01*
X111062668Y-103380000D01*
X108069192Y-103380000D01*
X108034256Y-103374977D01*
X108009014Y-103367565D01*
X107956269Y-103336269D01*
X107548926Y-102928926D01*
X107527774Y-102900670D01*
X107515167Y-102877581D01*
X107500000Y-102818156D01*
X107500000Y-73569191D01*
X107505022Y-73534258D01*
X107512434Y-73509013D01*
X107543728Y-73456271D01*
X107951076Y-73048923D01*
X107979326Y-73027775D01*
X108002418Y-73015167D01*
X108061843Y-73000000D01*
X184880808Y-73000000D01*
X184915740Y-73005021D01*
G37*
%TD.AperFunction*%
%TA.AperFunction,Conductor*%
G36*
X184728686Y-80067774D02*
G01*
X184735672Y-80070964D01*
X184771842Y-80096077D01*
X185350573Y-80674808D01*
X185371723Y-80703060D01*
X185384331Y-80726149D01*
X185399500Y-80785578D01*
X185399500Y-89358170D01*
X185394475Y-89393114D01*
X185390070Y-89408112D01*
X185352327Y-89466855D01*
X185350958Y-89468042D01*
X185296097Y-89495518D01*
X185288539Y-89497163D01*
X185262168Y-89500000D01*
X184691830Y-89500000D01*
X184656889Y-89494975D01*
X184641890Y-89490570D01*
X184583144Y-89452827D01*
X184581957Y-89451458D01*
X184554477Y-89396583D01*
X184552832Y-89389021D01*
X184550000Y-89362668D01*
X184550000Y-87500000D01*
X184050000Y-87000000D01*
X180750000Y-87000000D01*
X180648157Y-87101843D01*
X180648156Y-87101843D01*
X180551823Y-87198174D01*
X180540147Y-87208468D01*
X180508859Y-87232739D01*
X180506739Y-87237612D01*
X180499263Y-87245788D01*
X180430790Y-87314261D01*
X180421068Y-87319569D01*
X180393468Y-87355146D01*
X180383177Y-87366818D01*
X180250000Y-87499997D01*
X180250000Y-89380808D01*
X180244976Y-89415745D01*
X180237564Y-89440986D01*
X180206269Y-89493730D01*
X179919426Y-89780573D01*
X179891175Y-89801722D01*
X179868087Y-89814330D01*
X179808657Y-89829500D01*
X177308621Y-89829500D01*
X177308558Y-89829499D01*
X177306654Y-89829499D01*
X177299058Y-89829499D01*
X177140943Y-89829499D01*
X177064578Y-89849960D01*
X177064579Y-89849961D01*
X176988212Y-89870423D01*
X176974076Y-89878585D01*
X176974073Y-89878587D01*
X176893297Y-89925223D01*
X176863394Y-89937610D01*
X176832929Y-89945774D01*
X176800832Y-89950000D01*
X174391830Y-89950000D01*
X174356889Y-89944975D01*
X174341890Y-89940570D01*
X174283144Y-89902827D01*
X174281957Y-89901458D01*
X174254477Y-89846583D01*
X174252832Y-89839021D01*
X174250000Y-89812668D01*
X174250000Y-88891829D01*
X174255023Y-88856893D01*
X174259427Y-88841895D01*
X174297172Y-88783144D01*
X174298541Y-88781957D01*
X174353420Y-88754477D01*
X174360979Y-88752833D01*
X174387332Y-88750000D01*
X178810000Y-88750000D01*
X179310000Y-88250000D01*
X179310000Y-86809191D01*
X179315022Y-86774258D01*
X179322434Y-86749013D01*
X179353728Y-86696271D01*
X179751076Y-86298923D01*
X179779326Y-86277775D01*
X179802418Y-86265167D01*
X179861843Y-86250000D01*
X184050000Y-86250000D01*
X184550000Y-85750000D01*
X184550000Y-80191426D01*
X184555021Y-80156499D01*
X184558207Y-80145646D01*
X184595977Y-80086865D01*
X184659531Y-80057836D01*
X184728686Y-80067774D01*
G37*
%TD.AperFunction*%
%TD*%
%TA.AperFunction,Conductor*%
%TO.N,Secondary Trigger*%
G36*
X110969842Y-119227233D02*
G01*
X110999485Y-119264227D01*
X111062139Y-119329417D01*
X111062148Y-119329424D01*
X111062153Y-119329429D01*
X111125101Y-119380524D01*
X111125106Y-119380527D01*
X111125112Y-119380532D01*
X111195413Y-119423116D01*
X111195414Y-119423117D01*
X111264299Y-119452122D01*
X111264301Y-119452122D01*
X111264307Y-119452125D01*
X111355644Y-119474016D01*
X111428997Y-119479227D01*
X111437006Y-119483232D01*
X111439867Y-119490898D01*
X111439867Y-119669324D01*
X111436440Y-119677597D01*
X111429236Y-119680975D01*
X111333013Y-119689804D01*
X111205820Y-119731740D01*
X111205816Y-119731742D01*
X111083012Y-119812156D01*
X111083006Y-119812161D01*
X111023193Y-119869263D01*
X110969867Y-119933038D01*
X110961931Y-119937187D01*
X110955856Y-119936094D01*
X110231150Y-119590561D01*
X110225157Y-119583907D01*
X110225624Y-119574965D01*
X110231150Y-119569439D01*
X110395878Y-119490898D01*
X110955680Y-119223988D01*
X110964620Y-119223522D01*
X110969842Y-119227233D01*
G37*
%TD.AperFunction*%
%TD*%
%TA.AperFunction,Conductor*%
%TO.N,Box Switch 1*%
G36*
X150288290Y-102146464D02*
G01*
X150293519Y-102151438D01*
X150387425Y-102215045D01*
X150491505Y-102247651D01*
X150599818Y-102245399D01*
X150655330Y-102230123D01*
X150701401Y-102209102D01*
X150710350Y-102208786D01*
X150716901Y-102214890D01*
X150717261Y-102215773D01*
X150994024Y-102982201D01*
X150993611Y-102991146D01*
X150986994Y-102997179D01*
X150981256Y-102997741D01*
X150410031Y-102910645D01*
X150402369Y-102906011D01*
X150400096Y-102898968D01*
X150401018Y-102801635D01*
X150383908Y-102710746D01*
X150383908Y-102710744D01*
X150354057Y-102619968D01*
X150306110Y-102515637D01*
X150249824Y-102420211D01*
X150145081Y-102288191D01*
X150142625Y-102279582D01*
X150145974Y-102272649D01*
X150271955Y-102146668D01*
X150280227Y-102143242D01*
X150288290Y-102146464D01*
G37*
%TD.AperFunction*%
%TD*%
%TA.AperFunction,Conductor*%
%TO.N,Box Switch 1*%
G36*
X144948518Y-100237343D02*
G01*
X145792815Y-100590893D01*
X145799122Y-100597248D01*
X145799087Y-100606203D01*
X145798371Y-100607631D01*
X145763599Y-100666541D01*
X145763598Y-100666544D01*
X145746454Y-100722328D01*
X145746454Y-100722330D01*
X145741319Y-100776530D01*
X145741319Y-100776538D01*
X145748236Y-100838206D01*
X145748236Y-100838207D01*
X145766154Y-100893896D01*
X145766155Y-100893899D01*
X145793715Y-100944901D01*
X145793717Y-100944903D01*
X145793719Y-100944907D01*
X145818862Y-100975895D01*
X145821413Y-100984479D01*
X145818049Y-100991540D01*
X145692176Y-101117413D01*
X145683903Y-101120840D01*
X145675814Y-101117593D01*
X145662763Y-101105105D01*
X145662761Y-101105103D01*
X145501344Y-100984479D01*
X145498463Y-100982326D01*
X145318338Y-100889569D01*
X145156364Y-100840017D01*
X145156361Y-100840016D01*
X145156363Y-100840016D01*
X145030180Y-100830687D01*
X145022182Y-100826660D01*
X145019478Y-100820785D01*
X144932435Y-100249900D01*
X144934575Y-100241204D01*
X144942237Y-100236570D01*
X144948518Y-100237343D01*
G37*
%TD.AperFunction*%
%TD*%
%TA.AperFunction,Conductor*%
%TO.N,Box Switch 3*%
G36*
X145809909Y-94793349D02*
G01*
X145814512Y-94796821D01*
X145844485Y-94834227D01*
X145907139Y-94899417D01*
X145907148Y-94899424D01*
X145907153Y-94899429D01*
X145970101Y-94950524D01*
X145970106Y-94950527D01*
X145970112Y-94950532D01*
X146040413Y-94993116D01*
X146040414Y-94993117D01*
X146109299Y-95022122D01*
X146109301Y-95022122D01*
X146109307Y-95022125D01*
X146200644Y-95044016D01*
X146273997Y-95049227D01*
X146282006Y-95053232D01*
X146284867Y-95060898D01*
X146284867Y-95239324D01*
X146281440Y-95247597D01*
X146274236Y-95250975D01*
X146178013Y-95259804D01*
X146050820Y-95301740D01*
X146050816Y-95301742D01*
X145928012Y-95382156D01*
X145928006Y-95382161D01*
X145868193Y-95439263D01*
X145814534Y-95503436D01*
X145806598Y-95507585D01*
X145801128Y-95506760D01*
X144955472Y-95160829D01*
X144949112Y-95154525D01*
X144949073Y-95145570D01*
X144955377Y-95139210D01*
X144955472Y-95139171D01*
X145800955Y-94793310D01*
X145809909Y-94793349D01*
G37*
%TD.AperFunction*%
%TD*%
%TA.AperFunction,Conductor*%
%TO.N,RE B*%
G36*
X181688290Y-102046464D02*
G01*
X181693519Y-102051438D01*
X181787425Y-102115045D01*
X181891505Y-102147651D01*
X181999818Y-102145399D01*
X182055330Y-102130123D01*
X182101401Y-102109102D01*
X182110350Y-102108786D01*
X182116901Y-102114890D01*
X182117261Y-102115773D01*
X182394024Y-102882201D01*
X182393611Y-102891146D01*
X182386994Y-102897179D01*
X182381256Y-102897741D01*
X181810031Y-102810645D01*
X181802369Y-102806011D01*
X181800096Y-102798968D01*
X181801018Y-102701635D01*
X181783908Y-102610746D01*
X181783908Y-102610744D01*
X181754057Y-102519968D01*
X181706110Y-102415637D01*
X181649824Y-102320211D01*
X181545081Y-102188191D01*
X181542625Y-102179582D01*
X181545974Y-102172649D01*
X181671955Y-102046668D01*
X181680227Y-102043242D01*
X181688290Y-102046464D01*
G37*
%TD.AperFunction*%
%TD*%
%TA.AperFunction,Conductor*%
%TO.N,RE B*%
G36*
X145809909Y-92253349D02*
G01*
X145814512Y-92256821D01*
X145844485Y-92294227D01*
X145907139Y-92359417D01*
X145907148Y-92359424D01*
X145907153Y-92359429D01*
X145970101Y-92410524D01*
X145970106Y-92410527D01*
X145970112Y-92410532D01*
X146040413Y-92453116D01*
X146040414Y-92453117D01*
X146109299Y-92482122D01*
X146109301Y-92482122D01*
X146109307Y-92482125D01*
X146200644Y-92504016D01*
X146273997Y-92509227D01*
X146282006Y-92513232D01*
X146284867Y-92520898D01*
X146284867Y-92699324D01*
X146281440Y-92707597D01*
X146274236Y-92710975D01*
X146178013Y-92719804D01*
X146050820Y-92761740D01*
X146050816Y-92761742D01*
X145928012Y-92842156D01*
X145928006Y-92842161D01*
X145868193Y-92899263D01*
X145814534Y-92963436D01*
X145806598Y-92967585D01*
X145801128Y-92966760D01*
X144955472Y-92620829D01*
X144949112Y-92614525D01*
X144949073Y-92605570D01*
X144955377Y-92599210D01*
X144955472Y-92599171D01*
X145800955Y-92253310D01*
X145809909Y-92253349D01*
G37*
%TD.AperFunction*%
%TD*%
%TA.AperFunction,Conductor*%
%TO.N,RE A*%
G36*
X183688290Y-102046464D02*
G01*
X183693519Y-102051438D01*
X183787425Y-102115045D01*
X183891505Y-102147651D01*
X183999818Y-102145399D01*
X184055330Y-102130123D01*
X184101401Y-102109102D01*
X184110350Y-102108786D01*
X184116901Y-102114890D01*
X184117261Y-102115773D01*
X184394024Y-102882201D01*
X184393611Y-102891146D01*
X184386994Y-102897179D01*
X184381256Y-102897741D01*
X183810031Y-102810645D01*
X183802369Y-102806011D01*
X183800096Y-102798968D01*
X183801018Y-102701635D01*
X183783908Y-102610746D01*
X183783908Y-102610744D01*
X183754057Y-102519968D01*
X183706110Y-102415637D01*
X183649824Y-102320211D01*
X183545081Y-102188191D01*
X183542625Y-102179582D01*
X183545974Y-102172649D01*
X183671955Y-102046668D01*
X183680227Y-102043242D01*
X183688290Y-102046464D01*
G37*
%TD.AperFunction*%
%TD*%
%TA.AperFunction,Conductor*%
%TO.N,RE A*%
G36*
X145809909Y-89713349D02*
G01*
X145814512Y-89716821D01*
X145844485Y-89754227D01*
X145907139Y-89819417D01*
X145907148Y-89819424D01*
X145907153Y-89819429D01*
X145970101Y-89870524D01*
X145970106Y-89870527D01*
X145970112Y-89870532D01*
X146040413Y-89913116D01*
X146040414Y-89913117D01*
X146109299Y-89942122D01*
X146109301Y-89942122D01*
X146109307Y-89942125D01*
X146200644Y-89964016D01*
X146273997Y-89969227D01*
X146282006Y-89973232D01*
X146284867Y-89980898D01*
X146284867Y-90159324D01*
X146281440Y-90167597D01*
X146274236Y-90170975D01*
X146178013Y-90179804D01*
X146050820Y-90221740D01*
X146050816Y-90221742D01*
X145928012Y-90302156D01*
X145928006Y-90302161D01*
X145868193Y-90359263D01*
X145814534Y-90423436D01*
X145806598Y-90427585D01*
X145801128Y-90426760D01*
X144955472Y-90080829D01*
X144949112Y-90074525D01*
X144949073Y-90065570D01*
X144955377Y-90059210D01*
X144955472Y-90059171D01*
X145800955Y-89713310D01*
X145809909Y-89713349D01*
G37*
%TD.AperFunction*%
%TD*%
%TA.AperFunction,Conductor*%
%TO.N,RE Switch*%
G36*
X145809909Y-87173349D02*
G01*
X145814512Y-87176821D01*
X145844485Y-87214227D01*
X145907139Y-87279417D01*
X145907148Y-87279424D01*
X145907153Y-87279429D01*
X145970101Y-87330524D01*
X145970106Y-87330527D01*
X145970112Y-87330532D01*
X146040413Y-87373116D01*
X146040414Y-87373117D01*
X146109299Y-87402122D01*
X146109301Y-87402122D01*
X146109307Y-87402125D01*
X146200644Y-87424016D01*
X146273997Y-87429227D01*
X146282006Y-87433232D01*
X146284867Y-87440898D01*
X146284867Y-87619324D01*
X146281440Y-87627597D01*
X146274236Y-87630975D01*
X146178013Y-87639804D01*
X146050820Y-87681740D01*
X146050816Y-87681742D01*
X145928012Y-87762156D01*
X145928006Y-87762161D01*
X145868193Y-87819263D01*
X145814534Y-87883436D01*
X145806598Y-87887585D01*
X145801128Y-87886760D01*
X144955472Y-87540829D01*
X144949112Y-87534525D01*
X144949073Y-87525570D01*
X144955377Y-87519210D01*
X144955472Y-87519171D01*
X145800955Y-87173310D01*
X145809909Y-87173349D01*
G37*
%TD.AperFunction*%
%TD*%
%TA.AperFunction,Conductor*%
%TO.N,RE Switch*%
G36*
X185688290Y-102046464D02*
G01*
X185693519Y-102051438D01*
X185787425Y-102115045D01*
X185891505Y-102147651D01*
X185999818Y-102145399D01*
X186055330Y-102130123D01*
X186101401Y-102109102D01*
X186110350Y-102108786D01*
X186116901Y-102114890D01*
X186117261Y-102115773D01*
X186394024Y-102882201D01*
X186393611Y-102891146D01*
X186386994Y-102897179D01*
X186381256Y-102897741D01*
X185810031Y-102810645D01*
X185802369Y-102806011D01*
X185800096Y-102798968D01*
X185801018Y-102701635D01*
X185783908Y-102610746D01*
X185783908Y-102610744D01*
X185754057Y-102519968D01*
X185706110Y-102415637D01*
X185649824Y-102320211D01*
X185545081Y-102188191D01*
X185542625Y-102179582D01*
X185545974Y-102172649D01*
X185671955Y-102046668D01*
X185680227Y-102043242D01*
X185688290Y-102046464D01*
G37*
%TD.AperFunction*%
%TD*%
%TA.AperFunction,Conductor*%
%TO.N,SDA*%
G36*
X177506013Y-92461730D02*
G01*
X177510037Y-92465754D01*
X177880017Y-93083336D01*
X177881329Y-93092194D01*
X177875993Y-93099386D01*
X177870602Y-93101032D01*
X177867825Y-93101179D01*
X177867820Y-93101180D01*
X177819288Y-93112596D01*
X177775671Y-93134623D01*
X177775670Y-93134624D01*
X177741286Y-93163281D01*
X177730183Y-93172536D01*
X177727543Y-93174736D01*
X177727539Y-93174739D01*
X177687177Y-93225053D01*
X177647705Y-93296262D01*
X177647699Y-93296275D01*
X177620094Y-93370213D01*
X177601638Y-93480236D01*
X177596889Y-93487828D01*
X177590099Y-93490000D01*
X177410151Y-93490000D01*
X177401878Y-93486573D01*
X177398568Y-93479951D01*
X177386173Y-93392971D01*
X177386172Y-93392969D01*
X177386172Y-93392966D01*
X177337054Y-93265392D01*
X177270315Y-93172538D01*
X177259145Y-93164531D01*
X177194755Y-93118376D01*
X177194749Y-93118373D01*
X177125939Y-93103455D01*
X177118580Y-93098353D01*
X177116984Y-93089542D01*
X177118378Y-93086014D01*
X177489963Y-92465753D01*
X177497155Y-92460418D01*
X177506013Y-92461730D01*
G37*
%TD.AperFunction*%
%TD*%
%TA.AperFunction,Conductor*%
%TO.N,SDA*%
G36*
X122949909Y-87173349D02*
G01*
X122954512Y-87176821D01*
X122984485Y-87214227D01*
X123047139Y-87279417D01*
X123047148Y-87279424D01*
X123047153Y-87279429D01*
X123110101Y-87330524D01*
X123110106Y-87330527D01*
X123110112Y-87330532D01*
X123180413Y-87373116D01*
X123180414Y-87373117D01*
X123249299Y-87402122D01*
X123249301Y-87402122D01*
X123249307Y-87402125D01*
X123340644Y-87424016D01*
X123413997Y-87429227D01*
X123422006Y-87433232D01*
X123424867Y-87440898D01*
X123424867Y-87619324D01*
X123421440Y-87627597D01*
X123414236Y-87630975D01*
X123318013Y-87639804D01*
X123190820Y-87681740D01*
X123190816Y-87681742D01*
X123068012Y-87762156D01*
X123068006Y-87762161D01*
X123008193Y-87819263D01*
X122954534Y-87883436D01*
X122946598Y-87887585D01*
X122941128Y-87886760D01*
X122095472Y-87540829D01*
X122089112Y-87534525D01*
X122089073Y-87525570D01*
X122095377Y-87519210D01*
X122095472Y-87519171D01*
X122940955Y-87173310D01*
X122949909Y-87173349D01*
G37*
%TD.AperFunction*%
%TD*%
%TA.AperFunction,Conductor*%
%TO.N,INT*%
G36*
X145809909Y-82093349D02*
G01*
X145814512Y-82096821D01*
X145844485Y-82134227D01*
X145907139Y-82199417D01*
X145907148Y-82199424D01*
X145907153Y-82199429D01*
X145970101Y-82250524D01*
X145970106Y-82250527D01*
X145970112Y-82250532D01*
X146040413Y-82293116D01*
X146040414Y-82293117D01*
X146109299Y-82322122D01*
X146109301Y-82322122D01*
X146109307Y-82322125D01*
X146200644Y-82344016D01*
X146273997Y-82349227D01*
X146282006Y-82353232D01*
X146284867Y-82360898D01*
X146284867Y-82539324D01*
X146281440Y-82547597D01*
X146274236Y-82550975D01*
X146178013Y-82559804D01*
X146050820Y-82601740D01*
X146050816Y-82601742D01*
X145928012Y-82682156D01*
X145928006Y-82682161D01*
X145868193Y-82739263D01*
X145814534Y-82803436D01*
X145806598Y-82807585D01*
X145801128Y-82806760D01*
X144955472Y-82460829D01*
X144949112Y-82454525D01*
X144949073Y-82445570D01*
X144955377Y-82439210D01*
X144955472Y-82439171D01*
X145800955Y-82093310D01*
X145809909Y-82093349D01*
G37*
%TD.AperFunction*%
%TD*%
%TA.AperFunction,Conductor*%
%TO.N,Face Hat Right - Down*%
G36*
X145809909Y-79553349D02*
G01*
X145814512Y-79556821D01*
X145844485Y-79594227D01*
X145907139Y-79659417D01*
X145907148Y-79659424D01*
X145907153Y-79659429D01*
X145970101Y-79710524D01*
X145970106Y-79710527D01*
X145970112Y-79710532D01*
X146040413Y-79753116D01*
X146040414Y-79753117D01*
X146109299Y-79782122D01*
X146109301Y-79782122D01*
X146109307Y-79782125D01*
X146200644Y-79804016D01*
X146273997Y-79809227D01*
X146282006Y-79813232D01*
X146284867Y-79820898D01*
X146284867Y-79999324D01*
X146281440Y-80007597D01*
X146274236Y-80010975D01*
X146178013Y-80019804D01*
X146050820Y-80061740D01*
X146050816Y-80061742D01*
X145928012Y-80142156D01*
X145928006Y-80142161D01*
X145868193Y-80199263D01*
X145814534Y-80263436D01*
X145806598Y-80267585D01*
X145801128Y-80266760D01*
X144955472Y-79920829D01*
X144949112Y-79914525D01*
X144949073Y-79905570D01*
X144955377Y-79899210D01*
X144955472Y-79899171D01*
X145800955Y-79553310D01*
X145809909Y-79553349D01*
G37*
%TD.AperFunction*%
%TD*%
%TA.AperFunction,Conductor*%
%TO.N,SCK*%
G36*
X180792402Y-90252017D02*
G01*
X181237908Y-90330634D01*
X181733416Y-90418073D01*
X181737662Y-90419724D01*
X181738661Y-90420361D01*
X181743797Y-90427694D01*
X181742244Y-90436513D01*
X181734909Y-90441650D01*
X181734408Y-90441750D01*
X180791762Y-90608094D01*
X180787197Y-90607995D01*
X180784486Y-90607394D01*
X180778201Y-90603661D01*
X180777969Y-90603395D01*
X180776374Y-90601042D01*
X180756895Y-90563044D01*
X180756774Y-90562544D01*
X180755766Y-90560809D01*
X180755610Y-90560524D01*
X180755346Y-90560383D01*
X180714566Y-90537116D01*
X180714220Y-90536852D01*
X180713200Y-90536336D01*
X180663672Y-90528816D01*
X180663658Y-90528814D01*
X180663655Y-90528814D01*
X180663650Y-90528813D01*
X180663635Y-90528812D01*
X180616859Y-90529364D01*
X180609364Y-90529582D01*
X180604865Y-90528822D01*
X180603201Y-90528189D01*
X180596688Y-90522046D01*
X180596022Y-90520560D01*
X180595000Y-90515778D01*
X180595000Y-90344371D01*
X180595889Y-90339898D01*
X180595923Y-90339813D01*
X180596571Y-90338250D01*
X180602896Y-90331919D01*
X180604401Y-90331296D01*
X180609211Y-90330411D01*
X180616849Y-90330634D01*
X180700049Y-90326991D01*
X180752117Y-90302751D01*
X180769775Y-90280754D01*
X180776814Y-90261407D01*
X180779181Y-90257508D01*
X180780782Y-90255761D01*
X180787873Y-90252069D01*
X180788848Y-90251941D01*
X180792402Y-90252017D01*
G37*
%TD.AperFunction*%
%TD*%
%TA.AperFunction,Conductor*%
%TO.N,SCK*%
G36*
X176058369Y-91465123D02*
G01*
X176184989Y-91591743D01*
X176188416Y-91600016D01*
X176185910Y-91607251D01*
X176132325Y-91675342D01*
X176063866Y-91811988D01*
X176033321Y-91938879D01*
X176033321Y-91938881D01*
X176038372Y-92043214D01*
X176038373Y-92043219D01*
X176070002Y-92115174D01*
X176070194Y-92124127D01*
X176063999Y-92130593D01*
X176063353Y-92130854D01*
X175217912Y-92443814D01*
X175208963Y-92443473D01*
X175202878Y-92436904D01*
X175202284Y-92431079D01*
X175297113Y-91808818D01*
X175301746Y-91801158D01*
X175307316Y-91798962D01*
X175459531Y-91781133D01*
X175570551Y-91748969D01*
X175679640Y-91704895D01*
X175795192Y-91645645D01*
X175900076Y-91580086D01*
X176042723Y-91464311D01*
X176051306Y-91461759D01*
X176058369Y-91465123D01*
G37*
%TD.AperFunction*%
%TD*%
%TA.AperFunction,Conductor*%
%TO.N,SCK*%
G36*
X175181013Y-92461730D02*
G01*
X175185037Y-92465754D01*
X175555017Y-93083336D01*
X175556329Y-93092194D01*
X175550993Y-93099386D01*
X175545602Y-93101032D01*
X175542825Y-93101179D01*
X175542820Y-93101180D01*
X175494288Y-93112596D01*
X175450671Y-93134623D01*
X175450670Y-93134624D01*
X175416286Y-93163281D01*
X175405183Y-93172536D01*
X175402543Y-93174736D01*
X175402539Y-93174739D01*
X175362177Y-93225053D01*
X175322705Y-93296262D01*
X175322699Y-93296275D01*
X175295094Y-93370213D01*
X175276638Y-93480236D01*
X175271889Y-93487828D01*
X175265099Y-93490000D01*
X175085151Y-93490000D01*
X175076878Y-93486573D01*
X175073568Y-93479951D01*
X175061173Y-93392971D01*
X175061172Y-93392969D01*
X175061172Y-93392966D01*
X175012054Y-93265392D01*
X174945315Y-93172538D01*
X174934145Y-93164531D01*
X174869755Y-93118376D01*
X174869749Y-93118373D01*
X174800939Y-93103455D01*
X174793580Y-93098353D01*
X174791984Y-93089542D01*
X174793378Y-93086014D01*
X175164963Y-92465753D01*
X175172155Y-92460418D01*
X175181013Y-92461730D01*
G37*
%TD.AperFunction*%
%TD*%
%TA.AperFunction,Conductor*%
%TO.N,SCK*%
G36*
X122955545Y-84643404D02*
G01*
X122960252Y-84647028D01*
X122989272Y-84684582D01*
X122989275Y-84684585D01*
X122989278Y-84684589D01*
X122989277Y-84684589D01*
X123049615Y-84749189D01*
X123049616Y-84749190D01*
X123110737Y-84799927D01*
X123110743Y-84799931D01*
X123179878Y-84842554D01*
X123179883Y-84842557D01*
X123220367Y-84859851D01*
X123247963Y-84871641D01*
X123340112Y-84893955D01*
X123414001Y-84899225D01*
X123422008Y-84903230D01*
X123424867Y-84910894D01*
X123424867Y-85089279D01*
X123421440Y-85097552D01*
X123414187Y-85100934D01*
X123321863Y-85109011D01*
X123321862Y-85109011D01*
X123192573Y-85150228D01*
X123066060Y-85230716D01*
X123066054Y-85230721D01*
X123003593Y-85288374D01*
X122946787Y-85353657D01*
X122938771Y-85357649D01*
X122933497Y-85356792D01*
X122095406Y-85010898D01*
X122089066Y-85004574D01*
X122089055Y-84995619D01*
X122095378Y-84989279D01*
X122946592Y-84643344D01*
X122955545Y-84643404D01*
G37*
%TD.AperFunction*%
%TD*%
%TA.AperFunction,Conductor*%
%TO.N,Primary Trigger*%
G36*
X110969842Y-121227233D02*
G01*
X110999485Y-121264227D01*
X111062139Y-121329417D01*
X111062148Y-121329424D01*
X111062153Y-121329429D01*
X111125101Y-121380524D01*
X111125106Y-121380527D01*
X111125112Y-121380532D01*
X111195413Y-121423116D01*
X111195414Y-121423117D01*
X111264299Y-121452122D01*
X111264301Y-121452122D01*
X111264307Y-121452125D01*
X111355644Y-121474016D01*
X111428997Y-121479227D01*
X111437006Y-121483232D01*
X111439867Y-121490898D01*
X111439867Y-121669324D01*
X111436440Y-121677597D01*
X111429236Y-121680975D01*
X111333013Y-121689804D01*
X111205820Y-121731740D01*
X111205816Y-121731742D01*
X111083012Y-121812156D01*
X111083006Y-121812161D01*
X111023193Y-121869263D01*
X110969867Y-121933038D01*
X110961931Y-121937187D01*
X110955856Y-121936094D01*
X110231150Y-121590561D01*
X110225157Y-121583907D01*
X110225624Y-121574965D01*
X110231150Y-121569439D01*
X110395878Y-121490898D01*
X110955680Y-121223988D01*
X110964620Y-121223522D01*
X110969842Y-121227233D01*
G37*
%TD.AperFunction*%
%TD*%
%TA.AperFunction,Conductor*%
%TO.N,Primary Trigger*%
G36*
X121198871Y-104953239D02*
G01*
X122044527Y-105299171D01*
X122050887Y-105305475D01*
X122050926Y-105314430D01*
X122044622Y-105320790D01*
X122044527Y-105320829D01*
X121199045Y-105666689D01*
X121190090Y-105666650D01*
X121185486Y-105663178D01*
X121155515Y-105625773D01*
X121092861Y-105560583D01*
X121092852Y-105560575D01*
X121092846Y-105560570D01*
X121029898Y-105509475D01*
X121029891Y-105509470D01*
X121029888Y-105509468D01*
X120959586Y-105466883D01*
X120959585Y-105466882D01*
X120890700Y-105437877D01*
X120890694Y-105437875D01*
X120890693Y-105437875D01*
X120855774Y-105429506D01*
X120799354Y-105415983D01*
X120726004Y-105410772D01*
X120717994Y-105406767D01*
X120715133Y-105399101D01*
X120715133Y-105220675D01*
X120718560Y-105212402D01*
X120725762Y-105209024D01*
X120821987Y-105200196D01*
X120949180Y-105158260D01*
X121071995Y-105077838D01*
X121131809Y-105020734D01*
X121185465Y-104956562D01*
X121193401Y-104952414D01*
X121198871Y-104953239D01*
G37*
%TD.AperFunction*%
%TD*%
%TA.AperFunction,Conductor*%
%TO.N,Face Button*%
G36*
X110969842Y-117227233D02*
G01*
X110999485Y-117264227D01*
X111062139Y-117329417D01*
X111062148Y-117329424D01*
X111062153Y-117329429D01*
X111125101Y-117380524D01*
X111125106Y-117380527D01*
X111125112Y-117380532D01*
X111195413Y-117423116D01*
X111195414Y-117423117D01*
X111264299Y-117452122D01*
X111264301Y-117452122D01*
X111264307Y-117452125D01*
X111355644Y-117474016D01*
X111428997Y-117479227D01*
X111437006Y-117483232D01*
X111439867Y-117490898D01*
X111439867Y-117669324D01*
X111436440Y-117677597D01*
X111429236Y-117680975D01*
X111333013Y-117689804D01*
X111205820Y-117731740D01*
X111205816Y-117731742D01*
X111083012Y-117812156D01*
X111083006Y-117812161D01*
X111023193Y-117869263D01*
X110969867Y-117933038D01*
X110961931Y-117937187D01*
X110955856Y-117936094D01*
X110231150Y-117590561D01*
X110225157Y-117583907D01*
X110225624Y-117574965D01*
X110231150Y-117569439D01*
X110395878Y-117490898D01*
X110955680Y-117223988D01*
X110964620Y-117223522D01*
X110969842Y-117227233D01*
G37*
%TD.AperFunction*%
%TD*%
%TA.AperFunction,Conductor*%
%TO.N,Face Button*%
G36*
X121198871Y-102413239D02*
G01*
X122044527Y-102759171D01*
X122050887Y-102765475D01*
X122050926Y-102774430D01*
X122044622Y-102780790D01*
X122044527Y-102780829D01*
X121199045Y-103126689D01*
X121190090Y-103126650D01*
X121185486Y-103123178D01*
X121155515Y-103085773D01*
X121092861Y-103020583D01*
X121092852Y-103020575D01*
X121092846Y-103020570D01*
X121029898Y-102969475D01*
X121029891Y-102969470D01*
X121029888Y-102969468D01*
X120959586Y-102926883D01*
X120959585Y-102926882D01*
X120890700Y-102897877D01*
X120890694Y-102897875D01*
X120890693Y-102897875D01*
X120855774Y-102889506D01*
X120799354Y-102875983D01*
X120726004Y-102870772D01*
X120717994Y-102866767D01*
X120715133Y-102859101D01*
X120715133Y-102680675D01*
X120718560Y-102672402D01*
X120725762Y-102669024D01*
X120821987Y-102660196D01*
X120949180Y-102618260D01*
X121071995Y-102537838D01*
X121131809Y-102480734D01*
X121185465Y-102416562D01*
X121193401Y-102412414D01*
X121198871Y-102413239D01*
G37*
%TD.AperFunction*%
%TD*%
%TA.AperFunction,Conductor*%
%TO.N,Head Button*%
G36*
X110969842Y-115227233D02*
G01*
X110999485Y-115264227D01*
X111062139Y-115329417D01*
X111062148Y-115329424D01*
X111062153Y-115329429D01*
X111125101Y-115380524D01*
X111125106Y-115380527D01*
X111125112Y-115380532D01*
X111195413Y-115423116D01*
X111195414Y-115423117D01*
X111264299Y-115452122D01*
X111264301Y-115452122D01*
X111264307Y-115452125D01*
X111355644Y-115474016D01*
X111428997Y-115479227D01*
X111437006Y-115483232D01*
X111439867Y-115490898D01*
X111439867Y-115669324D01*
X111436440Y-115677597D01*
X111429236Y-115680975D01*
X111333013Y-115689804D01*
X111205820Y-115731740D01*
X111205816Y-115731742D01*
X111083012Y-115812156D01*
X111083006Y-115812161D01*
X111023193Y-115869263D01*
X110969867Y-115933038D01*
X110961931Y-115937187D01*
X110955856Y-115936094D01*
X110231150Y-115590561D01*
X110225157Y-115583907D01*
X110225624Y-115574965D01*
X110231150Y-115569439D01*
X110395878Y-115490898D01*
X110955680Y-115223988D01*
X110964620Y-115223522D01*
X110969842Y-115227233D01*
G37*
%TD.AperFunction*%
%TD*%
%TA.AperFunction,Conductor*%
%TO.N,Head Button*%
G36*
X121198871Y-99873239D02*
G01*
X122044527Y-100219171D01*
X122050887Y-100225475D01*
X122050926Y-100234430D01*
X122044622Y-100240790D01*
X122044527Y-100240829D01*
X121199045Y-100586689D01*
X121190090Y-100586650D01*
X121185486Y-100583178D01*
X121155515Y-100545773D01*
X121092861Y-100480583D01*
X121092852Y-100480575D01*
X121092846Y-100480570D01*
X121029898Y-100429475D01*
X121029891Y-100429470D01*
X121029888Y-100429468D01*
X120959586Y-100386883D01*
X120959585Y-100386882D01*
X120890700Y-100357877D01*
X120890694Y-100357875D01*
X120890693Y-100357875D01*
X120855774Y-100349506D01*
X120799354Y-100335983D01*
X120726004Y-100330772D01*
X120717994Y-100326767D01*
X120715133Y-100319101D01*
X120715133Y-100140675D01*
X120718560Y-100132402D01*
X120725762Y-100129024D01*
X120821987Y-100120196D01*
X120949180Y-100078260D01*
X121071995Y-99997838D01*
X121131809Y-99940734D01*
X121185465Y-99876562D01*
X121193401Y-99872414D01*
X121198871Y-99873239D01*
G37*
%TD.AperFunction*%
%TD*%
%TA.AperFunction,Conductor*%
%TO.N,Base Button*%
G36*
X111078628Y-113225510D02*
G01*
X111084947Y-113231855D01*
X111085634Y-113234183D01*
X111097267Y-113297090D01*
X111112532Y-113328109D01*
X111120285Y-113343864D01*
X111120286Y-113343865D01*
X111120286Y-113343866D01*
X111151705Y-113382170D01*
X111151709Y-113382174D01*
X111203135Y-113421346D01*
X111261403Y-113448835D01*
X111360369Y-113473604D01*
X111434182Y-113479182D01*
X111442173Y-113483223D01*
X111445000Y-113490849D01*
X111445000Y-113669194D01*
X111441573Y-113677467D01*
X111434228Y-113680857D01*
X111355774Y-113687099D01*
X111355762Y-113687101D01*
X111241738Y-113719042D01*
X111241734Y-113719044D01*
X111158329Y-113771566D01*
X111105214Y-113843408D01*
X111089893Y-113888101D01*
X111085009Y-113924930D01*
X111080525Y-113932681D01*
X111071873Y-113934990D01*
X111068955Y-113934210D01*
X110235264Y-113590818D01*
X110228920Y-113584499D01*
X110228902Y-113575544D01*
X110235221Y-113569200D01*
X110235264Y-113569182D01*
X111069675Y-113225493D01*
X111078628Y-113225510D01*
G37*
%TD.AperFunction*%
%TD*%
%TA.AperFunction,Conductor*%
%TO.N,Base Button*%
G36*
X121198871Y-97333239D02*
G01*
X122044527Y-97679171D01*
X122050887Y-97685475D01*
X122050926Y-97694430D01*
X122044622Y-97700790D01*
X122044527Y-97700829D01*
X121199045Y-98046689D01*
X121190090Y-98046650D01*
X121185486Y-98043178D01*
X121155515Y-98005773D01*
X121092861Y-97940583D01*
X121092852Y-97940575D01*
X121092846Y-97940570D01*
X121029898Y-97889475D01*
X121029891Y-97889470D01*
X121029888Y-97889468D01*
X120959586Y-97846883D01*
X120959585Y-97846882D01*
X120890700Y-97817877D01*
X120890694Y-97817875D01*
X120890693Y-97817875D01*
X120855774Y-97809506D01*
X120799354Y-97795983D01*
X120726004Y-97790772D01*
X120717994Y-97786767D01*
X120715133Y-97779101D01*
X120715133Y-97600675D01*
X120718560Y-97592402D01*
X120725762Y-97589024D01*
X120821987Y-97580196D01*
X120949180Y-97538260D01*
X121071995Y-97457838D01*
X121131809Y-97400734D01*
X121185465Y-97336562D01*
X121193401Y-97332414D01*
X121198871Y-97333239D01*
G37*
%TD.AperFunction*%
%TD*%
%TA.AperFunction,Conductor*%
%TO.N,Thumb Hat - Left*%
G36*
X181237908Y-83980634D02*
G01*
X181735706Y-84068478D01*
X181743258Y-84073290D01*
X181745195Y-84082033D01*
X181740383Y-84089585D01*
X181735706Y-84091522D01*
X180789471Y-84258499D01*
X180780728Y-84256562D01*
X180777027Y-84252316D01*
X180755609Y-84210535D01*
X180755607Y-84210534D01*
X180755607Y-84210533D01*
X180713202Y-84186338D01*
X180713201Y-84186337D01*
X180663655Y-84178814D01*
X180663641Y-84178813D01*
X180616854Y-84179365D01*
X180607039Y-84179650D01*
X180598670Y-84176464D01*
X180595005Y-84168294D01*
X180595000Y-84167955D01*
X180595000Y-83992044D01*
X180598427Y-83983771D01*
X180606700Y-83980344D01*
X180607014Y-83980348D01*
X180616849Y-83980634D01*
X180700049Y-83976991D01*
X180752117Y-83952751D01*
X180769775Y-83930754D01*
X180777609Y-83909224D01*
X180783658Y-83902624D01*
X180790635Y-83901706D01*
X181237908Y-83980634D01*
G37*
%TD.AperFunction*%
%TD*%
%TA.AperFunction,Conductor*%
%TO.N,Thumb Hat - Left*%
G36*
X177091305Y-85082189D02*
G01*
X177218679Y-85209563D01*
X177222106Y-85217836D01*
X177220321Y-85224048D01*
X177184981Y-85280451D01*
X177167178Y-85366627D01*
X177167177Y-85366634D01*
X177164842Y-85476209D01*
X177164842Y-85476215D01*
X177170957Y-85610714D01*
X177171918Y-85628500D01*
X177168942Y-85636946D01*
X177164737Y-85639930D01*
X176318497Y-85992701D01*
X176309542Y-85992722D01*
X176303196Y-85986404D01*
X176302429Y-85980138D01*
X176389516Y-85408960D01*
X176394150Y-85401300D01*
X176399902Y-85399086D01*
X176420114Y-85397038D01*
X176506548Y-85388282D01*
X176506552Y-85388281D01*
X176610025Y-85361138D01*
X176712313Y-85321617D01*
X176826109Y-85264306D01*
X176929916Y-85199697D01*
X177075658Y-85081378D01*
X177084241Y-85078825D01*
X177091305Y-85082189D01*
G37*
%TD.AperFunction*%
%TD*%
%TA.AperFunction,Conductor*%
%TO.N,Thumb Hat - Center*%
G36*
X177027351Y-83145975D02*
G01*
X177153330Y-83271954D01*
X177156757Y-83280227D01*
X177153536Y-83288289D01*
X177148564Y-83293516D01*
X177084954Y-83387425D01*
X177052347Y-83491508D01*
X177054599Y-83599815D01*
X177054600Y-83599818D01*
X177061192Y-83623775D01*
X177069875Y-83655329D01*
X177069879Y-83655338D01*
X177090895Y-83701401D01*
X177091212Y-83710350D01*
X177085107Y-83716901D01*
X177084225Y-83717261D01*
X176317798Y-83994024D01*
X176308853Y-83993611D01*
X176302820Y-83986994D01*
X176302258Y-83981258D01*
X176389353Y-83410029D01*
X176393987Y-83402369D01*
X176401029Y-83400096D01*
X176477483Y-83400820D01*
X176498364Y-83401018D01*
X176498364Y-83401017D01*
X176498367Y-83401018D01*
X176589256Y-83383908D01*
X176680032Y-83354057D01*
X176784363Y-83306110D01*
X176879789Y-83249824D01*
X177011809Y-83145081D01*
X177020417Y-83142625D01*
X177027351Y-83145975D01*
G37*
%TD.AperFunction*%
%TD*%
%TA.AperFunction,Conductor*%
%TO.N,Thumb Hat - Center*%
G36*
X180792402Y-82632017D02*
G01*
X181237908Y-82710634D01*
X181733416Y-82798073D01*
X181737662Y-82799724D01*
X181738661Y-82800361D01*
X181743797Y-82807694D01*
X181742244Y-82816513D01*
X181734909Y-82821650D01*
X181734408Y-82821750D01*
X180791762Y-82988094D01*
X180787197Y-82987995D01*
X180784486Y-82987394D01*
X180778201Y-82983661D01*
X180777969Y-82983395D01*
X180776374Y-82981042D01*
X180756895Y-82943044D01*
X180756774Y-82942544D01*
X180755766Y-82940809D01*
X180755610Y-82940524D01*
X180755346Y-82940383D01*
X180714566Y-82917116D01*
X180714220Y-82916852D01*
X180713200Y-82916336D01*
X180663672Y-82908816D01*
X180663658Y-82908814D01*
X180663655Y-82908814D01*
X180663650Y-82908813D01*
X180663635Y-82908812D01*
X180616859Y-82909364D01*
X180609364Y-82909582D01*
X180604865Y-82908822D01*
X180603201Y-82908189D01*
X180596688Y-82902046D01*
X180596022Y-82900560D01*
X180595000Y-82895778D01*
X180595000Y-82724371D01*
X180595889Y-82719898D01*
X180595923Y-82719813D01*
X180596571Y-82718250D01*
X180602896Y-82711919D01*
X180604401Y-82711296D01*
X180609211Y-82710411D01*
X180616849Y-82710634D01*
X180700049Y-82706991D01*
X180752117Y-82682751D01*
X180769775Y-82660754D01*
X180776814Y-82641407D01*
X180779181Y-82637508D01*
X180780782Y-82635761D01*
X180787873Y-82632069D01*
X180788848Y-82631941D01*
X180792402Y-82632017D01*
G37*
%TD.AperFunction*%
%TD*%
%TA.AperFunction,Conductor*%
%TO.N,Thumb Hat - Up*%
G36*
X176706008Y-81430829D02*
G01*
X176861561Y-81444188D01*
X177180373Y-81442723D01*
X177304335Y-81440239D01*
X177312675Y-81443500D01*
X177316267Y-81451703D01*
X177316269Y-81451937D01*
X177316269Y-81633630D01*
X177312842Y-81641903D01*
X177310921Y-81643455D01*
X177303442Y-81648287D01*
X177288706Y-81657808D01*
X177263470Y-81703307D01*
X177220128Y-81829780D01*
X177220082Y-81829911D01*
X177190410Y-81913248D01*
X177184407Y-81919893D01*
X177175464Y-81920346D01*
X177168819Y-81914343D01*
X177168266Y-81912954D01*
X177164057Y-81900000D01*
X177164056Y-81899999D01*
X176582085Y-81657808D01*
X176322434Y-81549752D01*
X176316113Y-81543410D01*
X176316128Y-81534456D01*
X176321636Y-81528517D01*
X176571189Y-81401932D01*
X176579157Y-81400978D01*
X176706008Y-81430829D01*
G37*
%TD.AperFunction*%
%TD*%
%TA.AperFunction,Conductor*%
%TO.N,Thumb Hat - Up*%
G36*
X180792402Y-81362017D02*
G01*
X181237908Y-81440634D01*
X181733416Y-81528073D01*
X181737662Y-81529724D01*
X181738661Y-81530361D01*
X181743797Y-81537694D01*
X181742244Y-81546513D01*
X181734909Y-81551650D01*
X181734408Y-81551750D01*
X180791762Y-81718094D01*
X180787197Y-81717995D01*
X180784486Y-81717394D01*
X180778201Y-81713661D01*
X180777969Y-81713395D01*
X180776374Y-81711042D01*
X180756895Y-81673044D01*
X180756774Y-81672544D01*
X180755766Y-81670809D01*
X180755610Y-81670524D01*
X180755346Y-81670383D01*
X180714566Y-81647116D01*
X180714220Y-81646852D01*
X180713200Y-81646336D01*
X180663672Y-81638816D01*
X180663658Y-81638814D01*
X180663655Y-81638814D01*
X180663650Y-81638813D01*
X180663635Y-81638812D01*
X180616859Y-81639364D01*
X180609364Y-81639582D01*
X180604865Y-81638822D01*
X180603201Y-81638189D01*
X180596688Y-81632046D01*
X180596022Y-81630560D01*
X180595000Y-81625778D01*
X180595000Y-81454371D01*
X180595889Y-81449898D01*
X180595923Y-81449813D01*
X180596571Y-81448250D01*
X180602896Y-81441919D01*
X180604401Y-81441296D01*
X180609211Y-81440411D01*
X180616849Y-81440634D01*
X180700049Y-81436991D01*
X180752117Y-81412751D01*
X180769775Y-81390754D01*
X180776814Y-81371407D01*
X180779181Y-81367508D01*
X180780782Y-81365761D01*
X180787873Y-81362069D01*
X180788848Y-81361941D01*
X180792402Y-81362017D01*
G37*
%TD.AperFunction*%
%TD*%
%TA.AperFunction,Conductor*%
%TO.N,Thumb Hat - Right*%
G36*
X177166884Y-79918486D02*
G01*
X177167737Y-79919337D01*
X177170750Y-79924497D01*
X177188439Y-79988369D01*
X177216679Y-80040105D01*
X177244097Y-80072580D01*
X177252112Y-80082074D01*
X177252118Y-80082080D01*
X177301754Y-80120966D01*
X177301757Y-80120968D01*
X177301759Y-80120969D01*
X177301762Y-80120971D01*
X177354939Y-80147722D01*
X177354968Y-80147733D01*
X177355148Y-80147782D01*
X177384149Y-80156217D01*
X177413366Y-80164715D01*
X177453168Y-80168710D01*
X177457528Y-80170043D01*
X177459396Y-80171046D01*
X177464878Y-80177415D01*
X177465326Y-80178668D01*
X177466009Y-80182607D01*
X177466009Y-80356466D01*
X177465117Y-80360946D01*
X177464354Y-80362787D01*
X177458361Y-80368970D01*
X177456988Y-80369590D01*
X177452900Y-80370604D01*
X177366360Y-80375995D01*
X177366334Y-80375997D01*
X177366330Y-80375998D01*
X177366321Y-80375999D01*
X177366318Y-80375999D01*
X177366304Y-80376001D01*
X177366294Y-80376002D01*
X177264371Y-80393807D01*
X177264301Y-80393824D01*
X177264168Y-80393867D01*
X177063632Y-80453484D01*
X177063610Y-80453491D01*
X176811933Y-80551476D01*
X176807437Y-80552270D01*
X176803623Y-80552188D01*
X176798139Y-80550689D01*
X176321991Y-80282928D01*
X176318527Y-80279959D01*
X176317562Y-80278731D01*
X176315144Y-80270109D01*
X176318998Y-80262749D01*
X176319750Y-80262081D01*
X176323025Y-80260032D01*
X177152364Y-79915961D01*
X177156838Y-79915069D01*
X177158621Y-79915069D01*
X177166884Y-79918486D01*
G37*
%TD.AperFunction*%
%TD*%
%TA.AperFunction,Conductor*%
%TO.N,Thumb Hat - Right*%
G36*
X180792402Y-80092017D02*
G01*
X181237908Y-80170634D01*
X181733416Y-80258073D01*
X181737662Y-80259724D01*
X181738661Y-80260361D01*
X181743797Y-80267694D01*
X181742244Y-80276513D01*
X181734909Y-80281650D01*
X181734408Y-80281750D01*
X180791762Y-80448094D01*
X180787197Y-80447995D01*
X180784486Y-80447394D01*
X180778201Y-80443661D01*
X180777969Y-80443395D01*
X180776374Y-80441042D01*
X180756895Y-80403044D01*
X180756774Y-80402544D01*
X180755766Y-80400809D01*
X180755610Y-80400524D01*
X180755346Y-80400383D01*
X180714566Y-80377116D01*
X180714220Y-80376852D01*
X180713200Y-80376336D01*
X180663672Y-80368816D01*
X180663658Y-80368814D01*
X180663655Y-80368814D01*
X180663650Y-80368813D01*
X180663635Y-80368812D01*
X180616859Y-80369364D01*
X180609364Y-80369582D01*
X180604865Y-80368822D01*
X180603201Y-80368189D01*
X180596688Y-80362046D01*
X180596022Y-80360560D01*
X180595000Y-80355778D01*
X180595000Y-80184371D01*
X180595889Y-80179898D01*
X180595923Y-80179813D01*
X180596571Y-80178250D01*
X180602896Y-80171919D01*
X180604401Y-80171296D01*
X180609211Y-80170411D01*
X180616849Y-80170634D01*
X180700049Y-80166991D01*
X180752117Y-80142751D01*
X180769775Y-80120754D01*
X180776814Y-80101407D01*
X180779181Y-80097508D01*
X180780782Y-80095761D01*
X180787873Y-80092069D01*
X180788848Y-80091941D01*
X180792402Y-80092017D01*
G37*
%TD.AperFunction*%
%TD*%
%TA.AperFunction,Conductor*%
%TO.N,Thumb Hat - Down*%
G36*
X176317796Y-78005974D02*
G01*
X176947093Y-78233218D01*
X177084401Y-78282801D01*
X177091018Y-78288834D01*
X177091431Y-78297779D01*
X177091142Y-78298503D01*
X177066077Y-78355665D01*
X177051764Y-78417822D01*
X177051763Y-78417827D01*
X177049253Y-78476648D01*
X177059333Y-78543244D01*
X177059336Y-78543253D01*
X177080493Y-78603100D01*
X177118597Y-78669142D01*
X177118603Y-78669150D01*
X177133592Y-78686951D01*
X177154482Y-78711762D01*
X177157189Y-78720297D01*
X177153805Y-78727570D01*
X177027986Y-78853389D01*
X177019713Y-78856816D01*
X177011712Y-78853653D01*
X176991095Y-78834330D01*
X176963871Y-78814837D01*
X176832279Y-78720611D01*
X176663199Y-78639539D01*
X176514094Y-78600910D01*
X176514098Y-78600910D01*
X176400858Y-78600073D01*
X176392611Y-78596585D01*
X176389379Y-78590137D01*
X176363106Y-78417822D01*
X176302258Y-78018741D01*
X176304398Y-78010047D01*
X176312060Y-78005413D01*
X176317796Y-78005974D01*
G37*
%TD.AperFunction*%
%TD*%
%TA.AperFunction,Conductor*%
%TO.N,Thumb Hat - Down*%
G36*
X181237908Y-78900634D02*
G01*
X181735706Y-78988478D01*
X181743258Y-78993290D01*
X181745195Y-79002033D01*
X181740383Y-79009585D01*
X181735706Y-79011522D01*
X180789471Y-79178499D01*
X180780728Y-79176562D01*
X180777027Y-79172316D01*
X180755609Y-79130535D01*
X180755607Y-79130534D01*
X180755607Y-79130533D01*
X180713202Y-79106338D01*
X180713201Y-79106337D01*
X180663655Y-79098814D01*
X180663641Y-79098813D01*
X180616854Y-79099365D01*
X180607039Y-79099650D01*
X180598670Y-79096464D01*
X180595005Y-79088294D01*
X180595000Y-79087955D01*
X180595000Y-78912044D01*
X180598427Y-78903771D01*
X180606700Y-78900344D01*
X180607014Y-78900348D01*
X180616849Y-78900634D01*
X180700049Y-78896991D01*
X180752117Y-78872751D01*
X180769775Y-78850754D01*
X180777609Y-78829224D01*
X180783658Y-78822624D01*
X180790635Y-78821706D01*
X181237908Y-78900634D01*
G37*
%TD.AperFunction*%
%TD*%
%TA.AperFunction,Conductor*%
%TO.N,X-Axis*%
G36*
X110979883Y-86496687D02*
G01*
X111034014Y-86558711D01*
X111034020Y-86558716D01*
X111096012Y-86610513D01*
X111096019Y-86610518D01*
X111117686Y-86623351D01*
X111158971Y-86647804D01*
X111190185Y-86660304D01*
X111221776Y-86672957D01*
X111221777Y-86672957D01*
X111221784Y-86672960D01*
X111342636Y-86696422D01*
X111438558Y-86699622D01*
X111446711Y-86703322D01*
X111449867Y-86711315D01*
X111449867Y-86988891D01*
X111446440Y-86997164D01*
X111438773Y-87000575D01*
X111310487Y-87007225D01*
X111187432Y-87039471D01*
X111187425Y-87039474D01*
X111076334Y-87104121D01*
X111076332Y-87104123D01*
X111024408Y-87150926D01*
X111024404Y-87150930D01*
X110979876Y-87203162D01*
X110971901Y-87207235D01*
X110965937Y-87206133D01*
X110241150Y-86860561D01*
X110235157Y-86853907D01*
X110235624Y-86844965D01*
X110241150Y-86839439D01*
X110509871Y-86711315D01*
X110966035Y-86493819D01*
X110974976Y-86493353D01*
X110979883Y-86496687D01*
G37*
%TD.AperFunction*%
%TD*%
%TA.AperFunction,Conductor*%
%TO.N,X-Axis*%
G36*
X121198789Y-79553205D02*
G01*
X121686652Y-79752775D01*
X122044527Y-79899171D01*
X122050887Y-79905475D01*
X122050926Y-79914430D01*
X122044622Y-79920790D01*
X122044527Y-79920829D01*
X121198696Y-80266832D01*
X121189741Y-80266793D01*
X121185451Y-80263696D01*
X121130990Y-80201294D01*
X121130986Y-80201289D01*
X121130979Y-80201283D01*
X121068987Y-80149486D01*
X121068980Y-80149481D01*
X121025645Y-80123815D01*
X121006029Y-80112196D01*
X121006027Y-80112195D01*
X121006025Y-80112194D01*
X120943224Y-80087043D01*
X120943218Y-80087041D01*
X120943217Y-80087041D01*
X120822364Y-80063578D01*
X120822359Y-80063577D01*
X120726443Y-80060377D01*
X120718289Y-80056677D01*
X120715133Y-80048684D01*
X120715133Y-79771108D01*
X120718560Y-79762835D01*
X120726224Y-79759425D01*
X120854511Y-79752775D01*
X120977572Y-79720527D01*
X121088668Y-79655877D01*
X121140594Y-79609072D01*
X121185459Y-79556444D01*
X121193433Y-79552372D01*
X121198789Y-79553205D01*
G37*
%TD.AperFunction*%
%TD*%
%TA.AperFunction,Conductor*%
%TO.N,Face Hat Right - Left*%
G36*
X184497597Y-94973560D02*
G01*
X184500975Y-94980764D01*
X184509804Y-95076988D01*
X184532460Y-95145702D01*
X184551740Y-95204179D01*
X184551742Y-95204183D01*
X184632155Y-95326986D01*
X184632158Y-95326990D01*
X184632161Y-95326994D01*
X184689266Y-95386808D01*
X184717619Y-95410515D01*
X184753038Y-95440131D01*
X184757187Y-95448067D01*
X184756094Y-95454142D01*
X184410561Y-96178849D01*
X184403907Y-96184842D01*
X184394965Y-96184375D01*
X184389439Y-96178849D01*
X184273951Y-95936630D01*
X184043988Y-95454318D01*
X184043522Y-95445378D01*
X184047231Y-95440157D01*
X184084225Y-95410515D01*
X184149416Y-95347862D01*
X184166355Y-95326994D01*
X184200523Y-95284899D01*
X184200523Y-95284898D01*
X184200531Y-95284889D01*
X184243118Y-95214586D01*
X184272125Y-95145695D01*
X184294016Y-95054357D01*
X184299228Y-94981004D01*
X184303233Y-94972994D01*
X184310899Y-94970133D01*
X184489324Y-94970133D01*
X184497597Y-94973560D01*
G37*
%TD.AperFunction*%
%TD*%
%TA.AperFunction,Conductor*%
%TO.N,Face Hat Right - Left*%
G36*
X182812799Y-77552002D02*
G01*
X182815509Y-77552603D01*
X182821806Y-77556347D01*
X182822040Y-77556616D01*
X182823624Y-77558957D01*
X182844391Y-77599465D01*
X182844392Y-77599466D01*
X182885432Y-77622882D01*
X182885779Y-77623147D01*
X182886798Y-77623662D01*
X182934991Y-77630980D01*
X182935789Y-77631199D01*
X182936308Y-77631187D01*
X182936358Y-77631186D01*
X182954352Y-77630973D01*
X182983151Y-77630634D01*
X182990634Y-77630416D01*
X182995135Y-77631176D01*
X182995721Y-77631400D01*
X182996801Y-77631811D01*
X183003309Y-77637948D01*
X183003671Y-77638755D01*
X183003972Y-77639425D01*
X183005000Y-77644220D01*
X183005000Y-77815627D01*
X183004109Y-77820106D01*
X183003427Y-77821752D01*
X182997094Y-77828083D01*
X182997093Y-77828083D01*
X182995600Y-77828701D01*
X182990787Y-77829586D01*
X182983165Y-77829366D01*
X182983161Y-77829366D01*
X182983147Y-77829366D01*
X182913816Y-77832401D01*
X182899949Y-77833009D01*
X182847817Y-77857278D01*
X182847484Y-77857743D01*
X182830228Y-77879238D01*
X182830222Y-77879253D01*
X182830206Y-77879292D01*
X182823186Y-77898583D01*
X182820820Y-77902484D01*
X182819219Y-77904232D01*
X182812123Y-77907929D01*
X182811154Y-77908057D01*
X182807589Y-77907980D01*
X181866584Y-77741926D01*
X181862334Y-77740273D01*
X181861336Y-77739638D01*
X181856201Y-77732305D01*
X181857754Y-77723486D01*
X181865089Y-77718349D01*
X181865584Y-77718250D01*
X182808240Y-77551904D01*
X182812799Y-77552002D01*
G37*
%TD.AperFunction*%
%TD*%
%TA.AperFunction,Conductor*%
%TO.N,Face Hat Right - Center*%
G36*
X182819271Y-76283437D02*
G01*
X182822973Y-76287685D01*
X182844392Y-76329466D01*
X182886797Y-76353661D01*
X182886798Y-76353662D01*
X182936344Y-76361185D01*
X182936348Y-76361185D01*
X182936353Y-76361186D01*
X182936357Y-76361185D01*
X182936358Y-76361186D01*
X182954352Y-76360973D01*
X182983151Y-76360634D01*
X182992960Y-76360349D01*
X183001329Y-76363534D01*
X183004995Y-76371704D01*
X183005000Y-76372044D01*
X183005000Y-76547955D01*
X183001573Y-76556228D01*
X182993300Y-76559655D01*
X182992962Y-76559650D01*
X182983161Y-76559366D01*
X182983147Y-76559366D01*
X182899950Y-76563009D01*
X182847883Y-76587248D01*
X182847883Y-76587249D01*
X182830227Y-76609241D01*
X182830224Y-76609248D01*
X182822390Y-76630773D01*
X182816341Y-76637375D01*
X182809363Y-76638293D01*
X181864293Y-76471522D01*
X181856741Y-76466710D01*
X181854804Y-76457967D01*
X181859616Y-76450415D01*
X181864293Y-76448478D01*
X182810530Y-76281500D01*
X182819271Y-76283437D01*
G37*
%TD.AperFunction*%
%TD*%
%TA.AperFunction,Conductor*%
%TO.N,Face Hat Right - Center*%
G36*
X186497597Y-94973560D02*
G01*
X186500975Y-94980764D01*
X186509804Y-95076988D01*
X186532460Y-95145702D01*
X186551740Y-95204179D01*
X186551742Y-95204183D01*
X186632155Y-95326986D01*
X186632158Y-95326990D01*
X186632161Y-95326994D01*
X186689266Y-95386808D01*
X186717619Y-95410515D01*
X186753038Y-95440131D01*
X186757187Y-95448067D01*
X186756094Y-95454142D01*
X186410561Y-96178849D01*
X186403907Y-96184842D01*
X186394965Y-96184375D01*
X186389439Y-96178849D01*
X186273951Y-95936630D01*
X186043988Y-95454318D01*
X186043522Y-95445378D01*
X186047231Y-95440157D01*
X186084225Y-95410515D01*
X186149416Y-95347862D01*
X186166355Y-95326994D01*
X186200523Y-95284899D01*
X186200523Y-95284898D01*
X186200531Y-95284889D01*
X186243118Y-95214586D01*
X186272125Y-95145695D01*
X186294016Y-95054357D01*
X186299228Y-94981004D01*
X186303233Y-94972994D01*
X186310899Y-94970133D01*
X186489324Y-94970133D01*
X186497597Y-94973560D01*
G37*
%TD.AperFunction*%
%TD*%
%TA.AperFunction,Conductor*%
%TO.N,Face Hat Right - Right*%
G36*
X190537908Y-77630634D02*
G01*
X191035706Y-77718478D01*
X191043258Y-77723290D01*
X191045195Y-77732033D01*
X191040383Y-77739585D01*
X191035706Y-77741522D01*
X190089471Y-77908499D01*
X190080728Y-77906562D01*
X190077027Y-77902316D01*
X190055609Y-77860535D01*
X190055607Y-77860534D01*
X190055607Y-77860533D01*
X190013202Y-77836338D01*
X190013201Y-77836337D01*
X189963655Y-77828814D01*
X189963641Y-77828813D01*
X189916854Y-77829365D01*
X189907039Y-77829650D01*
X189898670Y-77826464D01*
X189895005Y-77818294D01*
X189895000Y-77817955D01*
X189895000Y-77642044D01*
X189898427Y-77633771D01*
X189906700Y-77630344D01*
X189907014Y-77630348D01*
X189916849Y-77630634D01*
X190000049Y-77626991D01*
X190052117Y-77602751D01*
X190069775Y-77580754D01*
X190077609Y-77559224D01*
X190083658Y-77552624D01*
X190090635Y-77551706D01*
X190537908Y-77630634D01*
G37*
%TD.AperFunction*%
%TD*%
%TA.AperFunction,Conductor*%
%TO.N,Face Hat Right - Right*%
G36*
X188491472Y-94971022D02*
G01*
X188493405Y-94971823D01*
X188499522Y-94977665D01*
X188500104Y-94978906D01*
X188501162Y-94982805D01*
X188509804Y-95076988D01*
X188532460Y-95145702D01*
X188551740Y-95204179D01*
X188551742Y-95204183D01*
X188632155Y-95326986D01*
X188632158Y-95326990D01*
X188632161Y-95326994D01*
X188689266Y-95386808D01*
X188717619Y-95410515D01*
X188751254Y-95438639D01*
X188754117Y-95442195D01*
X188755331Y-95444518D01*
X188756479Y-95451997D01*
X188756374Y-95452584D01*
X188755418Y-95455559D01*
X188411563Y-96176747D01*
X188408826Y-96180411D01*
X188407692Y-96181431D01*
X188399250Y-96184416D01*
X188391595Y-96181005D01*
X188390861Y-96180271D01*
X188388573Y-96177033D01*
X188273951Y-95936630D01*
X188044988Y-95456415D01*
X188043867Y-95451997D01*
X188043733Y-95449440D01*
X188045882Y-95442055D01*
X188046289Y-95441482D01*
X188048500Y-95439139D01*
X188084225Y-95410515D01*
X188149416Y-95347862D01*
X188166355Y-95326994D01*
X188200374Y-95285082D01*
X188200537Y-95284889D01*
X188200708Y-95284669D01*
X188200850Y-95284493D01*
X188201139Y-95283885D01*
X188243118Y-95214586D01*
X188272125Y-95145695D01*
X188294016Y-95054357D01*
X188299063Y-94983323D01*
X188300268Y-94978923D01*
X188301173Y-94977112D01*
X188307553Y-94971381D01*
X188308930Y-94970868D01*
X188313013Y-94970133D01*
X188486997Y-94970133D01*
X188491472Y-94971022D01*
G37*
%TD.AperFunction*%
%TD*%
%TA.AperFunction,Conductor*%
%TO.N,Face Hat Right - Up*%
G36*
X190092402Y-78822017D02*
G01*
X190537908Y-78900634D01*
X191033416Y-78988073D01*
X191037662Y-78989724D01*
X191038661Y-78990361D01*
X191043797Y-78997694D01*
X191042244Y-79006513D01*
X191034909Y-79011650D01*
X191034408Y-79011750D01*
X190091762Y-79178094D01*
X190087197Y-79177995D01*
X190084486Y-79177394D01*
X190078201Y-79173661D01*
X190077969Y-79173395D01*
X190076374Y-79171042D01*
X190056895Y-79133044D01*
X190056774Y-79132544D01*
X190055766Y-79130809D01*
X190055610Y-79130524D01*
X190055346Y-79130383D01*
X190014566Y-79107116D01*
X190014220Y-79106852D01*
X190013200Y-79106336D01*
X189963672Y-79098816D01*
X189963658Y-79098814D01*
X189963655Y-79098814D01*
X189963650Y-79098813D01*
X189963635Y-79098812D01*
X189916859Y-79099364D01*
X189909364Y-79099582D01*
X189904865Y-79098822D01*
X189903201Y-79098189D01*
X189896688Y-79092046D01*
X189896022Y-79090560D01*
X189895000Y-79085778D01*
X189895000Y-78914371D01*
X189895889Y-78909898D01*
X189895923Y-78909813D01*
X189896571Y-78908250D01*
X189902896Y-78901919D01*
X189904401Y-78901296D01*
X189909211Y-78900411D01*
X189916849Y-78900634D01*
X190000049Y-78896991D01*
X190052117Y-78872751D01*
X190069775Y-78850754D01*
X190076814Y-78831407D01*
X190079181Y-78827508D01*
X190080782Y-78825761D01*
X190087873Y-78822069D01*
X190088848Y-78821941D01*
X190092402Y-78822017D01*
G37*
%TD.AperFunction*%
%TD*%
%TA.AperFunction,Conductor*%
%TO.N,Face Hat Right - Up*%
G36*
X189816233Y-95173539D02*
G01*
X189884951Y-95231615D01*
X190006458Y-95295672D01*
X190155151Y-95330506D01*
X190242043Y-95335244D01*
X190330013Y-95330618D01*
X190338453Y-95333606D01*
X190341853Y-95339007D01*
X190544559Y-96029759D01*
X190543600Y-96038663D01*
X190536627Y-96044281D01*
X190529859Y-96044227D01*
X190176945Y-95934536D01*
X189821496Y-95824058D01*
X189814614Y-95818331D01*
X189813386Y-95811244D01*
X189819880Y-95765507D01*
X189823791Y-95678685D01*
X189817218Y-95600759D01*
X189799110Y-95522339D01*
X189772013Y-95454041D01*
X189722464Y-95372497D01*
X189673727Y-95316248D01*
X189670901Y-95307753D01*
X189674297Y-95300316D01*
X189800411Y-95174202D01*
X189808683Y-95170776D01*
X189816233Y-95173539D01*
G37*
%TD.AperFunction*%
%TD*%
%TA.AperFunction,Conductor*%
%TO.N,SDA*%
G36*
X178489285Y-91603427D02*
G01*
X178492712Y-91611700D01*
X178492712Y-91786139D01*
X178489285Y-91794412D01*
X178481012Y-91797839D01*
X178479048Y-91797673D01*
X178320711Y-91770710D01*
X178303768Y-91792333D01*
X178303765Y-91792337D01*
X178290189Y-91823778D01*
X178290187Y-91823784D01*
X178284903Y-91861143D01*
X178289330Y-91902690D01*
X178289331Y-91902693D01*
X178304787Y-91948466D01*
X178304790Y-91948472D01*
X178332837Y-91997822D01*
X178365527Y-92038277D01*
X178368062Y-92046866D01*
X178363781Y-92054731D01*
X178361295Y-92056270D01*
X177518990Y-92441693D01*
X177510041Y-92442019D01*
X177503483Y-92435922D01*
X177502556Y-92429293D01*
X177596989Y-91809621D01*
X177601623Y-91801961D01*
X177608183Y-91799692D01*
X177720893Y-91796134D01*
X177923699Y-91763420D01*
X178075001Y-91705161D01*
X178178174Y-91630099D01*
X178180565Y-91628760D01*
X178247849Y-91600891D01*
X178252326Y-91600000D01*
X178481012Y-91600000D01*
X178489285Y-91603427D01*
G37*
%TD.AperFunction*%
%TD*%
%TA.AperFunction,Conductor*%
%TO.N,SDA*%
G36*
X181237908Y-91600634D02*
G01*
X181735706Y-91688478D01*
X181743258Y-91693290D01*
X181745195Y-91702033D01*
X181740383Y-91709585D01*
X181735706Y-91711522D01*
X180789471Y-91878499D01*
X180780728Y-91876562D01*
X180777027Y-91872316D01*
X180755609Y-91830535D01*
X180755607Y-91830534D01*
X180755607Y-91830533D01*
X180713202Y-91806338D01*
X180713201Y-91806337D01*
X180663655Y-91798814D01*
X180663641Y-91798813D01*
X180616854Y-91799365D01*
X180607039Y-91799650D01*
X180598670Y-91796464D01*
X180595005Y-91788294D01*
X180595000Y-91787955D01*
X180595000Y-91612044D01*
X180598427Y-91603771D01*
X180606700Y-91600344D01*
X180607014Y-91600348D01*
X180616849Y-91600634D01*
X180700049Y-91596991D01*
X180752117Y-91572751D01*
X180769775Y-91550754D01*
X180777609Y-91529224D01*
X180783658Y-91522624D01*
X180790635Y-91521706D01*
X181237908Y-91600634D01*
G37*
%TD.AperFunction*%
%TD*%
%TA.AperFunction,Conductor*%
%TO.N,Face Hat Left - Up*%
G36*
X196841042Y-81245788D02*
G01*
X196952995Y-81291901D01*
X197674735Y-81589182D01*
X197681080Y-81595501D01*
X197681097Y-81604456D01*
X197674778Y-81610800D01*
X197674759Y-81610808D01*
X197674735Y-81610818D01*
X196840326Y-81954506D01*
X196831371Y-81954488D01*
X196825052Y-81948144D01*
X196824367Y-81945823D01*
X196812732Y-81882910D01*
X196789715Y-81836136D01*
X196789713Y-81836133D01*
X196758294Y-81797829D01*
X196758289Y-81797824D01*
X196706866Y-81758655D01*
X196706865Y-81758654D01*
X196648597Y-81731165D01*
X196648595Y-81731164D01*
X196549636Y-81706396D01*
X196475818Y-81700817D01*
X196467827Y-81696776D01*
X196465000Y-81689150D01*
X196465000Y-81510805D01*
X196468427Y-81502532D01*
X196475769Y-81499143D01*
X196554231Y-81492900D01*
X196668266Y-81460956D01*
X196751673Y-81408431D01*
X196804786Y-81336591D01*
X196820106Y-81291901D01*
X196824990Y-81255067D01*
X196829474Y-81247318D01*
X196838126Y-81245009D01*
X196841042Y-81245788D01*
G37*
%TD.AperFunction*%
%TD*%
%TA.AperFunction,Conductor*%
%TO.N,Face Hat Left - Up*%
G36*
X192112799Y-80092002D02*
G01*
X192115509Y-80092603D01*
X192121806Y-80096347D01*
X192122040Y-80096616D01*
X192123624Y-80098957D01*
X192144391Y-80139465D01*
X192144392Y-80139466D01*
X192185432Y-80162882D01*
X192185779Y-80163147D01*
X192186798Y-80163662D01*
X192234991Y-80170980D01*
X192235789Y-80171199D01*
X192236308Y-80171187D01*
X192236358Y-80171186D01*
X192254352Y-80170973D01*
X192283151Y-80170634D01*
X192290634Y-80170416D01*
X192295135Y-80171176D01*
X192295721Y-80171400D01*
X192296801Y-80171811D01*
X192303309Y-80177948D01*
X192303671Y-80178755D01*
X192303972Y-80179425D01*
X192305000Y-80184220D01*
X192305000Y-80355627D01*
X192304109Y-80360106D01*
X192303427Y-80361752D01*
X192297094Y-80368083D01*
X192297093Y-80368083D01*
X192295600Y-80368701D01*
X192290787Y-80369586D01*
X192283165Y-80369366D01*
X192283161Y-80369366D01*
X192283147Y-80369366D01*
X192213816Y-80372401D01*
X192199949Y-80373009D01*
X192147817Y-80397278D01*
X192147484Y-80397743D01*
X192130228Y-80419238D01*
X192130222Y-80419253D01*
X192130206Y-80419292D01*
X192123186Y-80438583D01*
X192120820Y-80442484D01*
X192119219Y-80444232D01*
X192112123Y-80447929D01*
X192111154Y-80448057D01*
X192107589Y-80447980D01*
X191166584Y-80281926D01*
X191162334Y-80280273D01*
X191161336Y-80279638D01*
X191156201Y-80272305D01*
X191157754Y-80263486D01*
X191165089Y-80258349D01*
X191165584Y-80258250D01*
X192108240Y-80091904D01*
X192112799Y-80092002D01*
G37*
%TD.AperFunction*%
%TD*%
%TA.AperFunction,Conductor*%
%TO.N,Face Hat Left - Right*%
G36*
X196954143Y-83243905D02*
G01*
X197678849Y-83589439D01*
X197684842Y-83596093D01*
X197684375Y-83605035D01*
X197678849Y-83610561D01*
X196954321Y-83956010D01*
X196945379Y-83956477D01*
X196940156Y-83952766D01*
X196910515Y-83915773D01*
X196847861Y-83850583D01*
X196847852Y-83850575D01*
X196847846Y-83850570D01*
X196784898Y-83799475D01*
X196784891Y-83799470D01*
X196784888Y-83799468D01*
X196714586Y-83756883D01*
X196714585Y-83756882D01*
X196645700Y-83727877D01*
X196645694Y-83727875D01*
X196645693Y-83727875D01*
X196610774Y-83719506D01*
X196554354Y-83705983D01*
X196481004Y-83700772D01*
X196472994Y-83696767D01*
X196470133Y-83689101D01*
X196470133Y-83510675D01*
X196473560Y-83502402D01*
X196480762Y-83499024D01*
X196576987Y-83490196D01*
X196704180Y-83448260D01*
X196826995Y-83367838D01*
X196886809Y-83310734D01*
X196940133Y-83246960D01*
X196948068Y-83242812D01*
X196954143Y-83243905D01*
G37*
%TD.AperFunction*%
%TD*%
%TA.AperFunction,Conductor*%
%TO.N,Face Hat Left - Right*%
G36*
X192119271Y-81363437D02*
G01*
X192122973Y-81367685D01*
X192144392Y-81409466D01*
X192186797Y-81433661D01*
X192186798Y-81433662D01*
X192236344Y-81441185D01*
X192236348Y-81441185D01*
X192236353Y-81441186D01*
X192236357Y-81441185D01*
X192236358Y-81441186D01*
X192254352Y-81440973D01*
X192283151Y-81440634D01*
X192292960Y-81440349D01*
X192301329Y-81443534D01*
X192304995Y-81451704D01*
X192305000Y-81452044D01*
X192305000Y-81627955D01*
X192301573Y-81636228D01*
X192293300Y-81639655D01*
X192292962Y-81639650D01*
X192283161Y-81639366D01*
X192283147Y-81639366D01*
X192199950Y-81643009D01*
X192147883Y-81667248D01*
X192147883Y-81667249D01*
X192130227Y-81689241D01*
X192130224Y-81689248D01*
X192122390Y-81710773D01*
X192116341Y-81717375D01*
X192109363Y-81718293D01*
X191164293Y-81551522D01*
X191156741Y-81546710D01*
X191154804Y-81537967D01*
X191159616Y-81530415D01*
X191164293Y-81528478D01*
X192110530Y-81361500D01*
X192119271Y-81363437D01*
G37*
%TD.AperFunction*%
%TD*%
%TA.AperFunction,Conductor*%
%TO.N,Face Hat Left - Down*%
G36*
X192112799Y-82632002D02*
G01*
X192115509Y-82632603D01*
X192121806Y-82636347D01*
X192122040Y-82636616D01*
X192123624Y-82638957D01*
X192144391Y-82679465D01*
X192144392Y-82679466D01*
X192185432Y-82702882D01*
X192185779Y-82703147D01*
X192186798Y-82703662D01*
X192234991Y-82710980D01*
X192235789Y-82711199D01*
X192236308Y-82711187D01*
X192236358Y-82711186D01*
X192254352Y-82710973D01*
X192283151Y-82710634D01*
X192290634Y-82710416D01*
X192295135Y-82711176D01*
X192295721Y-82711400D01*
X192296801Y-82711811D01*
X192303309Y-82717948D01*
X192303671Y-82718755D01*
X192303972Y-82719425D01*
X192305000Y-82724220D01*
X192305000Y-82895627D01*
X192304109Y-82900106D01*
X192303427Y-82901752D01*
X192297094Y-82908083D01*
X192297093Y-82908083D01*
X192295600Y-82908701D01*
X192290787Y-82909586D01*
X192283165Y-82909366D01*
X192283161Y-82909366D01*
X192283147Y-82909366D01*
X192213816Y-82912401D01*
X192199949Y-82913009D01*
X192147817Y-82937278D01*
X192147484Y-82937743D01*
X192130228Y-82959238D01*
X192130222Y-82959253D01*
X192130206Y-82959292D01*
X192123186Y-82978583D01*
X192120820Y-82982484D01*
X192119219Y-82984232D01*
X192112123Y-82987929D01*
X192111154Y-82988057D01*
X192107589Y-82987980D01*
X191166584Y-82821926D01*
X191162334Y-82820273D01*
X191161336Y-82819638D01*
X191156201Y-82812305D01*
X191157754Y-82803486D01*
X191165089Y-82798349D01*
X191165584Y-82798250D01*
X192108240Y-82631904D01*
X192112799Y-82632002D01*
G37*
%TD.AperFunction*%
%TD*%
%TA.AperFunction,Conductor*%
%TO.N,Face Hat Left - Down*%
G36*
X196954143Y-85243905D02*
G01*
X197678849Y-85589439D01*
X197684842Y-85596093D01*
X197684375Y-85605035D01*
X197678849Y-85610561D01*
X196954321Y-85956010D01*
X196945379Y-85956477D01*
X196940156Y-85952766D01*
X196910515Y-85915773D01*
X196847861Y-85850583D01*
X196847852Y-85850575D01*
X196847846Y-85850570D01*
X196784898Y-85799475D01*
X196784891Y-85799470D01*
X196784888Y-85799468D01*
X196714586Y-85756883D01*
X196714585Y-85756882D01*
X196645700Y-85727877D01*
X196645694Y-85727875D01*
X196645693Y-85727875D01*
X196610774Y-85719506D01*
X196554354Y-85705983D01*
X196481004Y-85700772D01*
X196472994Y-85696767D01*
X196470133Y-85689101D01*
X196470133Y-85510675D01*
X196473560Y-85502402D01*
X196480762Y-85499024D01*
X196576987Y-85490196D01*
X196704180Y-85448260D01*
X196826995Y-85367838D01*
X196886809Y-85310734D01*
X196940133Y-85246960D01*
X196948068Y-85242812D01*
X196954143Y-85243905D01*
G37*
%TD.AperFunction*%
%TD*%
%TA.AperFunction,Conductor*%
%TO.N,Face Hat Left - Left*%
G36*
X192119271Y-83903437D02*
G01*
X192122973Y-83907685D01*
X192144392Y-83949466D01*
X192186797Y-83973661D01*
X192186798Y-83973662D01*
X192236344Y-83981185D01*
X192236348Y-83981185D01*
X192236353Y-83981186D01*
X192236357Y-83981185D01*
X192236358Y-83981186D01*
X192254352Y-83980973D01*
X192283151Y-83980634D01*
X192292960Y-83980349D01*
X192301329Y-83983534D01*
X192304995Y-83991704D01*
X192305000Y-83992044D01*
X192305000Y-84167955D01*
X192301573Y-84176228D01*
X192293300Y-84179655D01*
X192292962Y-84179650D01*
X192283161Y-84179366D01*
X192283147Y-84179366D01*
X192199950Y-84183009D01*
X192147883Y-84207248D01*
X192147883Y-84207249D01*
X192130227Y-84229241D01*
X192130224Y-84229248D01*
X192122390Y-84250773D01*
X192116341Y-84257375D01*
X192109363Y-84258293D01*
X191164293Y-84091522D01*
X191156741Y-84086710D01*
X191154804Y-84077967D01*
X191159616Y-84070415D01*
X191164293Y-84068478D01*
X192110530Y-83901500D01*
X192119271Y-83903437D01*
G37*
%TD.AperFunction*%
%TD*%
%TA.AperFunction,Conductor*%
%TO.N,Face Hat Left - Left*%
G36*
X196954143Y-87243905D02*
G01*
X197678849Y-87589439D01*
X197684842Y-87596093D01*
X197684375Y-87605035D01*
X197678849Y-87610561D01*
X196954321Y-87956010D01*
X196945379Y-87956477D01*
X196940156Y-87952766D01*
X196910515Y-87915773D01*
X196847861Y-87850583D01*
X196847852Y-87850575D01*
X196847846Y-87850570D01*
X196784898Y-87799475D01*
X196784891Y-87799470D01*
X196784888Y-87799468D01*
X196714586Y-87756883D01*
X196714585Y-87756882D01*
X196645700Y-87727877D01*
X196645694Y-87727875D01*
X196645693Y-87727875D01*
X196610774Y-87719506D01*
X196554354Y-87705983D01*
X196481004Y-87700772D01*
X196472994Y-87696767D01*
X196470133Y-87689101D01*
X196470133Y-87510675D01*
X196473560Y-87502402D01*
X196480762Y-87499024D01*
X196576987Y-87490196D01*
X196704180Y-87448260D01*
X196826995Y-87367838D01*
X196886809Y-87310734D01*
X196940133Y-87246960D01*
X196948068Y-87242812D01*
X196954143Y-87243905D01*
G37*
%TD.AperFunction*%
%TD*%
%TA.AperFunction,Conductor*%
%TO.N,Face Hat Left - Center*%
G36*
X196955564Y-89244582D02*
G01*
X197160162Y-89342133D01*
X197678849Y-89589439D01*
X197684842Y-89596093D01*
X197684375Y-89605035D01*
X197678849Y-89610561D01*
X196955566Y-89955416D01*
X196946624Y-89955883D01*
X196940489Y-89950859D01*
X196861571Y-89818824D01*
X196861266Y-89818280D01*
X196840153Y-89778149D01*
X196820144Y-89750447D01*
X196797065Y-89718493D01*
X196797063Y-89718492D01*
X196797062Y-89718490D01*
X196775389Y-89704813D01*
X196775384Y-89704811D01*
X196751183Y-89700224D01*
X196748885Y-89699538D01*
X196681439Y-89671601D01*
X196677643Y-89669065D01*
X196598017Y-89589439D01*
X196489665Y-89481086D01*
X196486239Y-89472815D01*
X196489665Y-89464543D01*
X196613303Y-89340905D01*
X196621575Y-89337479D01*
X196629848Y-89340906D01*
X196630914Y-89342131D01*
X196750000Y-89500000D01*
X196783688Y-89491148D01*
X196811327Y-89466514D01*
X196861419Y-89381430D01*
X196940490Y-89249139D01*
X196947674Y-89243798D01*
X196955564Y-89244582D01*
G37*
%TD.AperFunction*%
%TD*%
%TA.AperFunction,Conductor*%
%TO.N,Face Hat Left - Center*%
G36*
X192112799Y-85172002D02*
G01*
X192115509Y-85172603D01*
X192121806Y-85176347D01*
X192122040Y-85176616D01*
X192123624Y-85178957D01*
X192144391Y-85219465D01*
X192144392Y-85219466D01*
X192185432Y-85242882D01*
X192185779Y-85243147D01*
X192186798Y-85243662D01*
X192234991Y-85250980D01*
X192235789Y-85251199D01*
X192236308Y-85251187D01*
X192236358Y-85251186D01*
X192254352Y-85250973D01*
X192283151Y-85250634D01*
X192290634Y-85250416D01*
X192295135Y-85251176D01*
X192295721Y-85251400D01*
X192296801Y-85251811D01*
X192303309Y-85257948D01*
X192303671Y-85258755D01*
X192303972Y-85259425D01*
X192305000Y-85264220D01*
X192305000Y-85435627D01*
X192304109Y-85440106D01*
X192303427Y-85441752D01*
X192297094Y-85448083D01*
X192297093Y-85448083D01*
X192295600Y-85448701D01*
X192290787Y-85449586D01*
X192283165Y-85449366D01*
X192283161Y-85449366D01*
X192283147Y-85449366D01*
X192213816Y-85452401D01*
X192199949Y-85453009D01*
X192147817Y-85477278D01*
X192147484Y-85477743D01*
X192130228Y-85499238D01*
X192130222Y-85499253D01*
X192130206Y-85499292D01*
X192123186Y-85518583D01*
X192120820Y-85522484D01*
X192119219Y-85524232D01*
X192112123Y-85527929D01*
X192111154Y-85528057D01*
X192107589Y-85527980D01*
X191166584Y-85361926D01*
X191162334Y-85360273D01*
X191161336Y-85359638D01*
X191156201Y-85352305D01*
X191157754Y-85343486D01*
X191165089Y-85338349D01*
X191165584Y-85338250D01*
X192108240Y-85171904D01*
X192112799Y-85172002D01*
G37*
%TD.AperFunction*%
%TD*%
%TA.AperFunction,Conductor*%
%TO.N,Box Switch 2*%
G36*
X157288290Y-102146464D02*
G01*
X157293519Y-102151438D01*
X157387425Y-102215045D01*
X157491505Y-102247651D01*
X157599818Y-102245399D01*
X157655330Y-102230123D01*
X157701401Y-102209102D01*
X157710350Y-102208786D01*
X157716901Y-102214890D01*
X157717261Y-102215773D01*
X157994024Y-102982201D01*
X157993611Y-102991146D01*
X157986994Y-102997179D01*
X157981256Y-102997741D01*
X157410031Y-102910645D01*
X157402369Y-102906011D01*
X157400096Y-102898968D01*
X157401018Y-102801635D01*
X157383908Y-102710746D01*
X157383908Y-102710744D01*
X157354057Y-102619968D01*
X157306110Y-102515637D01*
X157249824Y-102420211D01*
X157145081Y-102288191D01*
X157142625Y-102279582D01*
X157145974Y-102272649D01*
X157271955Y-102146668D01*
X157280227Y-102143242D01*
X157288290Y-102146464D01*
G37*
%TD.AperFunction*%
%TD*%
%TA.AperFunction,Conductor*%
%TO.N,Box Switch 2*%
G36*
X144948518Y-97697343D02*
G01*
X145792815Y-98050893D01*
X145799122Y-98057248D01*
X145799087Y-98066203D01*
X145798371Y-98067631D01*
X145763599Y-98126541D01*
X145763598Y-98126544D01*
X145746454Y-98182328D01*
X145746454Y-98182330D01*
X145741319Y-98236530D01*
X145741319Y-98236538D01*
X145748236Y-98298206D01*
X145748236Y-98298207D01*
X145766154Y-98353896D01*
X145766155Y-98353899D01*
X145793715Y-98404901D01*
X145793717Y-98404903D01*
X145793719Y-98404907D01*
X145818862Y-98435895D01*
X145821413Y-98444479D01*
X145818049Y-98451540D01*
X145692176Y-98577413D01*
X145683903Y-98580840D01*
X145675814Y-98577593D01*
X145662763Y-98565105D01*
X145662761Y-98565103D01*
X145501344Y-98444479D01*
X145498463Y-98442326D01*
X145318338Y-98349569D01*
X145156364Y-98300017D01*
X145156361Y-98300016D01*
X145156363Y-98300016D01*
X145030180Y-98290687D01*
X145022182Y-98286660D01*
X145019478Y-98280785D01*
X144932435Y-97709900D01*
X144934575Y-97701204D01*
X144942237Y-97696570D01*
X144948518Y-97697343D01*
G37*
%TD.AperFunction*%
%TD*%
%TA.AperFunction,Conductor*%
%TO.N,Joystick X*%
G36*
X121198789Y-89713205D02*
G01*
X121686652Y-89912775D01*
X122044527Y-90059171D01*
X122050887Y-90065475D01*
X122050926Y-90074430D01*
X122044622Y-90080790D01*
X122044527Y-90080829D01*
X121198696Y-90426832D01*
X121189741Y-90426793D01*
X121185451Y-90423696D01*
X121130990Y-90361294D01*
X121130986Y-90361289D01*
X121130979Y-90361283D01*
X121068987Y-90309486D01*
X121068980Y-90309481D01*
X121025645Y-90283815D01*
X121006029Y-90272196D01*
X121006027Y-90272195D01*
X121006025Y-90272194D01*
X120943224Y-90247043D01*
X120943218Y-90247041D01*
X120943217Y-90247041D01*
X120822364Y-90223578D01*
X120822359Y-90223577D01*
X120726443Y-90220377D01*
X120718289Y-90216677D01*
X120715133Y-90208684D01*
X120715133Y-89931108D01*
X120718560Y-89922835D01*
X120726224Y-89919425D01*
X120854511Y-89912775D01*
X120977572Y-89880527D01*
X121088668Y-89815877D01*
X121140594Y-89769072D01*
X121185459Y-89716444D01*
X121193433Y-89712372D01*
X121198789Y-89713205D01*
G37*
%TD.AperFunction*%
%TD*%
%TA.AperFunction,Conductor*%
%TO.N,Joystick X*%
G36*
X110978883Y-104316687D02*
G01*
X111033014Y-104378711D01*
X111033020Y-104378716D01*
X111095012Y-104430513D01*
X111095019Y-104430518D01*
X111116686Y-104443351D01*
X111157971Y-104467804D01*
X111189185Y-104480304D01*
X111220776Y-104492957D01*
X111220777Y-104492957D01*
X111220784Y-104492960D01*
X111341636Y-104516422D01*
X111437558Y-104519622D01*
X111445711Y-104523322D01*
X111448867Y-104531315D01*
X111448867Y-104808891D01*
X111445440Y-104817164D01*
X111437773Y-104820575D01*
X111309487Y-104827225D01*
X111186432Y-104859471D01*
X111186425Y-104859474D01*
X111075334Y-104924121D01*
X111075332Y-104924123D01*
X111023408Y-104970926D01*
X111023404Y-104970930D01*
X110978876Y-105023162D01*
X110970901Y-105027235D01*
X110964937Y-105026133D01*
X110240150Y-104680561D01*
X110234157Y-104673907D01*
X110234624Y-104664965D01*
X110240150Y-104659439D01*
X110508871Y-104531315D01*
X110965035Y-104313819D01*
X110973976Y-104313353D01*
X110978883Y-104316687D01*
G37*
%TD.AperFunction*%
%TD*%
%TA.AperFunction,Conductor*%
%TO.N,Joystick Y*%
G36*
X121198789Y-92253205D02*
G01*
X121686652Y-92452775D01*
X122044527Y-92599171D01*
X122050887Y-92605475D01*
X122050926Y-92614430D01*
X122044622Y-92620790D01*
X122044527Y-92620829D01*
X121198696Y-92966832D01*
X121189741Y-92966793D01*
X121185451Y-92963696D01*
X121130990Y-92901294D01*
X121130986Y-92901289D01*
X121130979Y-92901283D01*
X121068987Y-92849486D01*
X121068980Y-92849481D01*
X121025645Y-92823815D01*
X121006029Y-92812196D01*
X121006027Y-92812195D01*
X121006025Y-92812194D01*
X120943224Y-92787043D01*
X120943218Y-92787041D01*
X120943217Y-92787041D01*
X120822364Y-92763578D01*
X120822359Y-92763577D01*
X120726443Y-92760377D01*
X120718289Y-92756677D01*
X120715133Y-92748684D01*
X120715133Y-92471108D01*
X120718560Y-92462835D01*
X120726224Y-92459425D01*
X120854511Y-92452775D01*
X120977572Y-92420527D01*
X121088668Y-92355877D01*
X121140594Y-92309072D01*
X121185459Y-92256444D01*
X121193433Y-92252372D01*
X121198789Y-92253205D01*
G37*
%TD.AperFunction*%
%TD*%
%TA.AperFunction,Conductor*%
%TO.N,Joystick Y*%
G36*
X110978883Y-106316687D02*
G01*
X111033014Y-106378711D01*
X111033020Y-106378716D01*
X111095012Y-106430513D01*
X111095019Y-106430518D01*
X111116686Y-106443351D01*
X111157971Y-106467804D01*
X111189185Y-106480304D01*
X111220776Y-106492957D01*
X111220777Y-106492957D01*
X111220784Y-106492960D01*
X111341636Y-106516422D01*
X111437558Y-106519622D01*
X111445711Y-106523322D01*
X111448867Y-106531315D01*
X111448867Y-106808891D01*
X111445440Y-106817164D01*
X111437773Y-106820575D01*
X111309487Y-106827225D01*
X111186432Y-106859471D01*
X111186425Y-106859474D01*
X111075334Y-106924121D01*
X111075332Y-106924123D01*
X111023408Y-106970926D01*
X111023404Y-106970930D01*
X110978876Y-107023162D01*
X110970901Y-107027235D01*
X110964937Y-107026133D01*
X110240150Y-106680561D01*
X110234157Y-106673907D01*
X110234624Y-106664965D01*
X110240150Y-106659439D01*
X110508871Y-106531315D01*
X110965035Y-106313819D01*
X110973976Y-106313353D01*
X110978883Y-106316687D01*
G37*
%TD.AperFunction*%
%TD*%
%TA.AperFunction,Conductor*%
%TO.N,Joystick Button*%
G36*
X121198871Y-94793239D02*
G01*
X122044527Y-95139171D01*
X122050887Y-95145475D01*
X122050926Y-95154430D01*
X122044622Y-95160790D01*
X122044527Y-95160829D01*
X121199045Y-95506689D01*
X121190090Y-95506650D01*
X121185486Y-95503178D01*
X121155515Y-95465773D01*
X121092861Y-95400583D01*
X121092852Y-95400575D01*
X121092846Y-95400570D01*
X121029898Y-95349475D01*
X121029891Y-95349470D01*
X121029888Y-95349468D01*
X120959586Y-95306883D01*
X120959585Y-95306882D01*
X120890700Y-95277877D01*
X120890694Y-95277875D01*
X120890693Y-95277875D01*
X120855774Y-95269506D01*
X120799354Y-95255983D01*
X120726004Y-95250772D01*
X120717994Y-95246767D01*
X120715133Y-95239101D01*
X120715133Y-95060675D01*
X120718560Y-95052402D01*
X120725762Y-95049024D01*
X120821987Y-95040196D01*
X120949180Y-94998260D01*
X121071995Y-94917838D01*
X121131809Y-94860734D01*
X121185465Y-94796562D01*
X121193401Y-94792414D01*
X121198871Y-94793239D01*
G37*
%TD.AperFunction*%
%TD*%
%TA.AperFunction,Conductor*%
%TO.N,Joystick Button*%
G36*
X110978842Y-108317233D02*
G01*
X111008485Y-108354227D01*
X111071139Y-108419417D01*
X111071148Y-108419424D01*
X111071153Y-108419429D01*
X111134101Y-108470524D01*
X111134106Y-108470527D01*
X111134112Y-108470532D01*
X111204413Y-108513116D01*
X111204414Y-108513117D01*
X111273299Y-108542122D01*
X111273301Y-108542122D01*
X111273307Y-108542125D01*
X111364644Y-108564016D01*
X111437997Y-108569227D01*
X111446006Y-108573232D01*
X111448867Y-108580898D01*
X111448867Y-108759324D01*
X111445440Y-108767597D01*
X111438236Y-108770975D01*
X111342013Y-108779804D01*
X111214820Y-108821740D01*
X111214816Y-108821742D01*
X111092012Y-108902156D01*
X111092006Y-108902161D01*
X111032193Y-108959263D01*
X110978867Y-109023038D01*
X110970931Y-109027187D01*
X110964856Y-109026094D01*
X110240150Y-108680561D01*
X110234157Y-108673907D01*
X110234624Y-108664965D01*
X110240150Y-108659439D01*
X110404878Y-108580898D01*
X110964680Y-108313988D01*
X110973620Y-108313522D01*
X110978842Y-108317233D01*
G37*
%TD.AperFunction*%
%TD*%
%TA.AperFunction,Conductor*%
%TO.N,Y-Axis*%
G36*
X110980288Y-95407407D02*
G01*
X111034296Y-95469436D01*
X111096210Y-95521250D01*
X111159102Y-95558538D01*
X111221875Y-95583689D01*
X111342684Y-95607138D01*
X111438556Y-95610330D01*
X111446711Y-95614031D01*
X111449867Y-95622024D01*
X111449867Y-95899597D01*
X111446440Y-95907870D01*
X111438772Y-95911281D01*
X111310698Y-95917908D01*
X111310697Y-95917908D01*
X111187504Y-95950130D01*
X111187499Y-95950132D01*
X111076207Y-96014783D01*
X111076205Y-96014785D01*
X111024149Y-96061607D01*
X110979470Y-96113884D01*
X110971490Y-96117946D01*
X110965538Y-96116842D01*
X110241147Y-95771272D01*
X110235156Y-95764617D01*
X110235625Y-95755674D01*
X110241150Y-95750151D01*
X110966434Y-95404528D01*
X110975376Y-95404064D01*
X110980288Y-95407407D01*
G37*
%TD.AperFunction*%
%TD*%
%TA.AperFunction,Conductor*%
%TO.N,Y-Axis*%
G36*
X121198789Y-82093205D02*
G01*
X121686652Y-82292775D01*
X122044527Y-82439171D01*
X122050887Y-82445475D01*
X122050926Y-82454430D01*
X122044622Y-82460790D01*
X122044527Y-82460829D01*
X121198696Y-82806832D01*
X121189741Y-82806793D01*
X121185451Y-82803696D01*
X121130990Y-82741294D01*
X121130986Y-82741289D01*
X121130979Y-82741283D01*
X121068987Y-82689486D01*
X121068980Y-82689481D01*
X121025645Y-82663815D01*
X121006029Y-82652196D01*
X121006027Y-82652195D01*
X121006025Y-82652194D01*
X120943224Y-82627043D01*
X120943218Y-82627041D01*
X120943217Y-82627041D01*
X120822364Y-82603578D01*
X120822359Y-82603577D01*
X120726443Y-82600377D01*
X120718289Y-82596677D01*
X120715133Y-82588684D01*
X120715133Y-82311108D01*
X120718560Y-82302835D01*
X120726224Y-82299425D01*
X120854511Y-82292775D01*
X120977572Y-82260527D01*
X121088668Y-82195877D01*
X121140594Y-82149072D01*
X121185459Y-82096444D01*
X121193433Y-82092372D01*
X121198789Y-82093205D01*
G37*
%TD.AperFunction*%
%TD*%
%TA.AperFunction,Conductor*%
%TO.N,CAN-LOW*%
G36*
X145809909Y-107493349D02*
G01*
X145814512Y-107496821D01*
X145844485Y-107534227D01*
X145907139Y-107599417D01*
X145907148Y-107599424D01*
X145907153Y-107599429D01*
X145970101Y-107650524D01*
X145970106Y-107650527D01*
X145970112Y-107650532D01*
X146040413Y-107693116D01*
X146040414Y-107693117D01*
X146109299Y-107722122D01*
X146109301Y-107722122D01*
X146109307Y-107722125D01*
X146200644Y-107744016D01*
X146273997Y-107749227D01*
X146282006Y-107753232D01*
X146284867Y-107760898D01*
X146284867Y-107939324D01*
X146281440Y-107947597D01*
X146274236Y-107950975D01*
X146178013Y-107959804D01*
X146050820Y-108001740D01*
X146050816Y-108001742D01*
X145928012Y-108082156D01*
X145928006Y-108082161D01*
X145868193Y-108139263D01*
X145814534Y-108203436D01*
X145806598Y-108207585D01*
X145801128Y-108206760D01*
X144955472Y-107860829D01*
X144949112Y-107854525D01*
X144949073Y-107845570D01*
X144955377Y-107839210D01*
X144955472Y-107839171D01*
X145800955Y-107493310D01*
X145809909Y-107493349D01*
G37*
%TD.AperFunction*%
%TD*%
%TA.AperFunction,Conductor*%
%TO.N,CAN-LOW*%
G36*
X155563987Y-106868379D02*
G01*
X155691476Y-106944755D01*
X156184245Y-107239963D01*
X156189581Y-107247155D01*
X156188269Y-107256013D01*
X156184245Y-107260037D01*
X155566663Y-107630017D01*
X155557805Y-107631329D01*
X155550613Y-107625993D01*
X155548967Y-107620603D01*
X155548819Y-107617818D01*
X155537404Y-107569289D01*
X155515376Y-107525671D01*
X155475266Y-107477545D01*
X155475262Y-107477541D01*
X155475260Y-107477539D01*
X155441926Y-107450799D01*
X155424948Y-107437178D01*
X155353734Y-107397703D01*
X155353727Y-107397700D01*
X155353724Y-107397699D01*
X155279785Y-107370094D01*
X155279787Y-107370094D01*
X155279782Y-107370093D01*
X155262679Y-107367224D01*
X155169764Y-107351637D01*
X155162172Y-107346888D01*
X155160000Y-107340098D01*
X155160000Y-107160150D01*
X155163427Y-107151877D01*
X155170047Y-107148568D01*
X155243785Y-107138059D01*
X155257028Y-107136173D01*
X155257028Y-107136172D01*
X155257034Y-107136172D01*
X155384608Y-107087054D01*
X155477462Y-107020315D01*
X155531626Y-106944751D01*
X155546544Y-106875938D01*
X155551646Y-106868580D01*
X155560457Y-106866984D01*
X155563987Y-106868379D01*
G37*
%TD.AperFunction*%
%TD*%
%TA.AperFunction,Conductor*%
%TO.N,CAN-LOW*%
G36*
X156204759Y-107267079D02*
G01*
X156210689Y-107273009D01*
X156583032Y-108109349D01*
X156583266Y-108118301D01*
X156577102Y-108124797D01*
X156572887Y-108125795D01*
X156569686Y-108125943D01*
X156569685Y-108125944D01*
X156569680Y-108125944D01*
X156569680Y-108125945D01*
X156549830Y-108130262D01*
X156520297Y-108136685D01*
X156520295Y-108136685D01*
X156520293Y-108136686D01*
X156520290Y-108136687D01*
X156520288Y-108136688D01*
X156475962Y-108157920D01*
X156475960Y-108157922D01*
X156427547Y-108196479D01*
X156427545Y-108196482D01*
X156386982Y-108244958D01*
X156386982Y-108244959D01*
X156347632Y-108313144D01*
X156347627Y-108313155D01*
X156320093Y-108384098D01*
X156306893Y-108460236D01*
X156302103Y-108467802D01*
X156293366Y-108469765D01*
X156285800Y-108464975D01*
X156284556Y-108462714D01*
X156276924Y-108444288D01*
X156276923Y-108444288D01*
X156148169Y-108573043D01*
X156139896Y-108576470D01*
X156131629Y-108573049D01*
X156130939Y-108572360D01*
X156128397Y-108568558D01*
X156100574Y-108501386D01*
X156099794Y-108498520D01*
X156095130Y-108464975D01*
X156087844Y-108412570D01*
X156049425Y-108313155D01*
X156039935Y-108288598D01*
X156008055Y-108244958D01*
X155973142Y-108197166D01*
X155973140Y-108197165D01*
X155973140Y-108197164D01*
X155973138Y-108197163D01*
X155896540Y-108143348D01*
X155896538Y-108143347D01*
X155824141Y-108127998D01*
X155816759Y-108122929D01*
X155815122Y-108114125D01*
X155815876Y-108111799D01*
X156189311Y-107273008D01*
X156195807Y-107266845D01*
X156204759Y-107267079D01*
G37*
%TD.AperFunction*%
%TD*%
%TA.AperFunction,Conductor*%
%TO.N,CAN-HI*%
G36*
X145809909Y-104953349D02*
G01*
X145814512Y-104956821D01*
X145844485Y-104994227D01*
X145907139Y-105059417D01*
X145907148Y-105059424D01*
X145907153Y-105059429D01*
X145970101Y-105110524D01*
X145970106Y-105110527D01*
X145970112Y-105110532D01*
X146040413Y-105153116D01*
X146040414Y-105153117D01*
X146109299Y-105182122D01*
X146109301Y-105182122D01*
X146109307Y-105182125D01*
X146200644Y-105204016D01*
X146273997Y-105209227D01*
X146282006Y-105213232D01*
X146284867Y-105220898D01*
X146284867Y-105399324D01*
X146281440Y-105407597D01*
X146274236Y-105410975D01*
X146178013Y-105419804D01*
X146050820Y-105461740D01*
X146050816Y-105461742D01*
X145928012Y-105542156D01*
X145928006Y-105542161D01*
X145868193Y-105599263D01*
X145814534Y-105663436D01*
X145806598Y-105667585D01*
X145801128Y-105666760D01*
X144955472Y-105320829D01*
X144949112Y-105314525D01*
X144949073Y-105305570D01*
X144955377Y-105299210D01*
X144955472Y-105299171D01*
X145800955Y-104953310D01*
X145809909Y-104953349D01*
G37*
%TD.AperFunction*%
%TD*%
%TA.AperFunction,Conductor*%
%TO.N,CAN-HI*%
G36*
X158457248Y-106264087D02*
G01*
X158525350Y-106317679D01*
X158661984Y-106386132D01*
X158788879Y-106416678D01*
X158788880Y-106416677D01*
X158788881Y-106416678D01*
X158797342Y-106416268D01*
X158893217Y-106411628D01*
X158965176Y-106379996D01*
X158974127Y-106379805D01*
X158980594Y-106386000D01*
X158980855Y-106386646D01*
X159293814Y-107232087D01*
X159293473Y-107241036D01*
X159286904Y-107247121D01*
X159281079Y-107247715D01*
X158658820Y-107152887D01*
X158651158Y-107148253D01*
X158648962Y-107142682D01*
X158631133Y-106990468D01*
X158598968Y-106879449D01*
X158554895Y-106770359D01*
X158495645Y-106654807D01*
X158495639Y-106654797D01*
X158430086Y-106549922D01*
X158430082Y-106549918D01*
X158314312Y-106407276D01*
X158311759Y-106398693D01*
X158315122Y-106391631D01*
X158441744Y-106265009D01*
X158450016Y-106261583D01*
X158457248Y-106264087D01*
G37*
%TD.AperFunction*%
%TD*%
%TA.AperFunction,Conductor*%
%TO.N,CAN-HI*%
G36*
X159304759Y-107267079D02*
G01*
X159310689Y-107273009D01*
X159682951Y-108109168D01*
X159683185Y-108118120D01*
X159677021Y-108124616D01*
X159673557Y-108125555D01*
X159673231Y-108125591D01*
X159622205Y-108135173D01*
X159576530Y-108155061D01*
X159527564Y-108191023D01*
X159486615Y-108236437D01*
X159486612Y-108236441D01*
X159447496Y-108299573D01*
X159420092Y-108365533D01*
X159400223Y-108473783D01*
X159399524Y-108476148D01*
X159371602Y-108543559D01*
X159369066Y-108547355D01*
X159350699Y-108565721D01*
X159342426Y-108569148D01*
X159334153Y-108565721D01*
X159212719Y-108444287D01*
X159208658Y-108445095D01*
X159199875Y-108443348D01*
X159194901Y-108435902D01*
X159194775Y-108435140D01*
X159190582Y-108403146D01*
X159145023Y-108285439D01*
X159145022Y-108285437D01*
X159078259Y-108196513D01*
X159078257Y-108196510D01*
X158999809Y-108143299D01*
X158999807Y-108143298D01*
X158999805Y-108143297D01*
X158924280Y-108127909D01*
X158916858Y-108122900D01*
X158915152Y-108114109D01*
X158915927Y-108111686D01*
X159289311Y-107273009D01*
X159295807Y-107266845D01*
X159304759Y-107267079D01*
G37*
%TD.AperFunction*%
%TD*%
%TA.AperFunction,Conductor*%
%TO.N,INT*%
G36*
X191196451Y-87413427D02*
G01*
X191199878Y-87421700D01*
X191199877Y-87421820D01*
X191199857Y-87423698D01*
X191199857Y-87423705D01*
X191207950Y-87525389D01*
X191207951Y-87525392D01*
X191232782Y-87571919D01*
X191233063Y-87572444D01*
X191252953Y-87585158D01*
X191253183Y-87585305D01*
X191263247Y-87587067D01*
X191270805Y-87591869D01*
X191272754Y-87600610D01*
X191271270Y-87604597D01*
X191110041Y-87874209D01*
X191102854Y-87879550D01*
X191093995Y-87878245D01*
X191089959Y-87874209D01*
X190928702Y-87604551D01*
X190927397Y-87595692D01*
X190932738Y-87588505D01*
X190936688Y-87587028D01*
X190947190Y-87585159D01*
X190967481Y-87571918D01*
X190991352Y-87527922D01*
X190999583Y-87473392D01*
X191000142Y-87423704D01*
X191000142Y-87423698D01*
X191000123Y-87421822D01*
X191003463Y-87413514D01*
X191011700Y-87410001D01*
X191011822Y-87410000D01*
X191188178Y-87410000D01*
X191196451Y-87413427D01*
G37*
%TD.AperFunction*%
%TD*%
%TA.AperFunction,Conductor*%
%TO.N,INT*%
G36*
X191106005Y-86631754D02*
G01*
X191110038Y-86635786D01*
X191271270Y-86905402D01*
X191271298Y-86905448D01*
X191272602Y-86914307D01*
X191267261Y-86921495D01*
X191263307Y-86922972D01*
X191252809Y-86924841D01*
X191252808Y-86924841D01*
X191232520Y-86938080D01*
X191232519Y-86938082D01*
X191208648Y-86982077D01*
X191200416Y-87036615D01*
X191199857Y-87086291D01*
X191199877Y-87088178D01*
X191196537Y-87096486D01*
X191188300Y-87099999D01*
X191188178Y-87100000D01*
X191011822Y-87100000D01*
X191003549Y-87096573D01*
X191000122Y-87088300D01*
X191000123Y-87088180D01*
X191000142Y-87086291D01*
X190996188Y-87036608D01*
X190992050Y-86984610D01*
X190966937Y-86937556D01*
X190946816Y-86924694D01*
X190936752Y-86922932D01*
X190929194Y-86918129D01*
X190927245Y-86909389D01*
X190928727Y-86905405D01*
X191089959Y-86635789D01*
X191097146Y-86630449D01*
X191106005Y-86631754D01*
G37*
%TD.AperFunction*%
%TD*%
%TA.AperFunction,Conductor*%
%TO.N,INT*%
G36*
X192119271Y-87713437D02*
G01*
X192122973Y-87717685D01*
X192144392Y-87759466D01*
X192186797Y-87783661D01*
X192186798Y-87783662D01*
X192236344Y-87791185D01*
X192236348Y-87791185D01*
X192236353Y-87791186D01*
X192236357Y-87791185D01*
X192236358Y-87791186D01*
X192254352Y-87790973D01*
X192283151Y-87790634D01*
X192292960Y-87790349D01*
X192301329Y-87793534D01*
X192304995Y-87801704D01*
X192305000Y-87802044D01*
X192305000Y-87977955D01*
X192301573Y-87986228D01*
X192293300Y-87989655D01*
X192292962Y-87989650D01*
X192283161Y-87989366D01*
X192283147Y-87989366D01*
X192199950Y-87993009D01*
X192147883Y-88017248D01*
X192147883Y-88017249D01*
X192130227Y-88039241D01*
X192130224Y-88039248D01*
X192122390Y-88060773D01*
X192116341Y-88067375D01*
X192109363Y-88068293D01*
X191164293Y-87901522D01*
X191156741Y-87896710D01*
X191154804Y-87887967D01*
X191159616Y-87880415D01*
X191164293Y-87878478D01*
X192110530Y-87711500D01*
X192119271Y-87713437D01*
G37*
%TD.AperFunction*%
%TD*%
%TA.AperFunction,Conductor*%
%TO.N,Extra*%
G36*
X144926790Y-77383617D02*
G01*
X144927564Y-77389900D01*
X144840552Y-77960582D01*
X144835918Y-77968244D01*
X144829604Y-77970502D01*
X144727187Y-77975915D01*
X144629631Y-77998308D01*
X144629618Y-77998312D01*
X144532754Y-78033265D01*
X144532723Y-78033278D01*
X144423346Y-78086219D01*
X144423335Y-78086225D01*
X144323425Y-78146960D01*
X144323423Y-78146961D01*
X144184096Y-78258931D01*
X144175501Y-78261442D01*
X144168494Y-78258084D01*
X144042552Y-78132142D01*
X144039125Y-78123869D01*
X144042164Y-78116251D01*
X144042076Y-78116183D01*
X144042316Y-78115870D01*
X144042338Y-78115815D01*
X144042444Y-78115704D01*
X144095868Y-78029053D01*
X144118294Y-77930299D01*
X144105763Y-77831871D01*
X144085686Y-77783962D01*
X144062375Y-77747813D01*
X144060773Y-77739004D01*
X144065868Y-77731640D01*
X144067687Y-77730682D01*
X144911480Y-77377343D01*
X144920434Y-77377309D01*
X144926790Y-77383617D01*
G37*
%TD.AperFunction*%
%TD*%
%TA.AperFunction,Conductor*%
%TO.N,Extra*%
G36*
X116589968Y-77089353D02*
G01*
X116597630Y-77093987D01*
X116599903Y-77101030D01*
X116598981Y-77198364D01*
X116616091Y-77289253D01*
X116616094Y-77289264D01*
X116645939Y-77380021D01*
X116645943Y-77380032D01*
X116693890Y-77484363D01*
X116750176Y-77579789D01*
X116854917Y-77711807D01*
X116857374Y-77720417D01*
X116854024Y-77727351D01*
X116728045Y-77853330D01*
X116719772Y-77856757D01*
X116711709Y-77853535D01*
X116706483Y-77848564D01*
X116702234Y-77845686D01*
X116612575Y-77784954D01*
X116508494Y-77752348D01*
X116508491Y-77752347D01*
X116400183Y-77754599D01*
X116400182Y-77754599D01*
X116400181Y-77754600D01*
X116384906Y-77758803D01*
X116344670Y-77769875D01*
X116298597Y-77790896D01*
X116289648Y-77791212D01*
X116283096Y-77785107D01*
X116282737Y-77784225D01*
X116277555Y-77769876D01*
X116005975Y-77017797D01*
X116006388Y-77008853D01*
X116013005Y-77002820D01*
X116018740Y-77002258D01*
X116589968Y-77089353D01*
G37*
%TD.AperFunction*%
%TD*%
M02*
