%TF.GenerationSoftware,KiCad,Pcbnew,9.0.6*%
%TF.CreationDate,2026-03-23T12:52:33-04:00*%
%TF.ProjectId,JoyStickBoard,4a6f7953-7469-4636-9b42-6f6172642e6b,rev?*%
%TF.SameCoordinates,Original*%
%TF.FileFunction,Copper,L2,Bot*%
%TF.FilePolarity,Positive*%
%FSLAX46Y46*%
G04 Gerber Fmt 4.6, Leading zero omitted, Abs format (unit mm)*
G04 Created by KiCad (PCBNEW 9.0.6) date 2026-03-23 12:52:33*
%MOMM*%
%LPD*%
G01*
G04 APERTURE LIST*
G04 Aperture macros list*
%AMRoundRect*
0 Rectangle with rounded corners*
0 $1 Rounding radius*
0 $2 $3 $4 $5 $6 $7 $8 $9 X,Y pos of 4 corners*
0 Add a 4 corners polygon primitive as box body*
4,1,4,$2,$3,$4,$5,$6,$7,$8,$9,$2,$3,0*
0 Add four circle primitives for the rounded corners*
1,1,$1+$1,$2,$3*
1,1,$1+$1,$4,$5*
1,1,$1+$1,$6,$7*
1,1,$1+$1,$8,$9*
0 Add four rect primitives between the rounded corners*
20,1,$1+$1,$2,$3,$4,$5,0*
20,1,$1+$1,$4,$5,$6,$7,0*
20,1,$1+$1,$6,$7,$8,$9,0*
20,1,$1+$1,$8,$9,$2,$3,0*%
G04 Aperture macros list end*
%TA.AperFunction,ComponentPad*%
%ADD10C,2.500000*%
%TD*%
%TA.AperFunction,ComponentPad*%
%ADD11C,2.400000*%
%TD*%
%TA.AperFunction,ComponentPad*%
%ADD12C,2.000000*%
%TD*%
%TA.AperFunction,ComponentPad*%
%ADD13RoundRect,0.250000X0.350000X0.625000X-0.350000X0.625000X-0.350000X-0.625000X0.350000X-0.625000X0*%
%TD*%
%TA.AperFunction,ComponentPad*%
%ADD14O,1.200000X1.750000*%
%TD*%
%TA.AperFunction,ViaPad*%
%ADD15C,1.000000*%
%TD*%
%TA.AperFunction,Conductor*%
%ADD16C,0.500000*%
%TD*%
G04 APERTURE END LIST*
D10*
%TO.P,U5,*%
%TO.N,GND*%
X143675000Y-105000000D03*
X156325000Y-105000000D03*
X143675000Y-95000000D03*
D11*
X156325000Y-95000000D03*
D12*
%TO.P,U5,1,Vcc*%
%TO.N,VCC*%
X158700000Y-102500000D03*
X147500000Y-91300000D03*
%TO.P,U5,2,GND*%
%TO.N,GND*%
X146750000Y-105560000D03*
X153250000Y-105560000D03*
X158700000Y-97500000D03*
X152500000Y-91300000D03*
%TO.P,U5,3,O1*%
%TO.N,JoyStick X*%
X158700000Y-100000000D03*
%TO.P,U5,4,O2*%
%TO.N,JoyStick Y*%
X150000000Y-91300000D03*
%TO.P,U5,5,Ob*%
%TO.N,JoyStick Button*%
X146750000Y-110150000D03*
X153250000Y-110150000D03*
%TD*%
D13*
%TO.P,J19,1,Pin_1*%
%TO.N,VCC*%
X154000000Y-113950000D03*
D14*
%TO.P,J19,2,Pin_2*%
%TO.N,JoyStick X*%
X152000000Y-113950000D03*
%TO.P,J19,3,Pin_3*%
%TO.N,JoyStick Y*%
X150000000Y-113950000D03*
%TO.P,J19,4,Pin_4*%
%TO.N,JoyStick Button*%
X148000000Y-113950000D03*
%TO.P,J19,5,Pin_5*%
%TO.N,GND*%
X146000000Y-113950000D03*
%TD*%
D15*
%TO.N,VCC*%
X147500000Y-97000000D03*
%TD*%
D16*
%TO.N,GND*%
X156325000Y-95000000D02*
X156325000Y-105000000D01*
X143675000Y-95000000D02*
X156325000Y-95000000D01*
%TD*%
%TA.AperFunction,Conductor*%
%TO.N,VCC*%
G36*
X141893128Y-94971689D02*
G01*
X141922993Y-95034855D01*
X141924500Y-95054127D01*
X141924500Y-95114741D01*
X141935135Y-95195515D01*
X141954452Y-95342238D01*
X141973297Y-95412568D01*
X142013842Y-95563887D01*
X142101650Y-95775876D01*
X142101657Y-95775890D01*
X142216392Y-95974617D01*
X142356081Y-96156661D01*
X142356089Y-96156670D01*
X142518330Y-96318911D01*
X142518338Y-96318918D01*
X142518339Y-96318919D01*
X142557382Y-96348878D01*
X142700382Y-96458607D01*
X142700385Y-96458608D01*
X142700388Y-96458611D01*
X142899112Y-96573344D01*
X142899117Y-96573346D01*
X142899123Y-96573349D01*
X142990480Y-96611190D01*
X143111113Y-96661158D01*
X143332762Y-96720548D01*
X143560266Y-96750500D01*
X143560273Y-96750500D01*
X143789727Y-96750500D01*
X143789734Y-96750500D01*
X144017238Y-96720548D01*
X144238887Y-96661158D01*
X144450888Y-96573344D01*
X144649612Y-96458611D01*
X144831661Y-96318919D01*
X144831665Y-96318914D01*
X144831670Y-96318911D01*
X144993911Y-96156670D01*
X144993914Y-96156665D01*
X144993919Y-96156661D01*
X145133611Y-95974612D01*
X145227206Y-95812499D01*
X145277773Y-95764284D01*
X145334593Y-95750500D01*
X154723141Y-95750500D01*
X154790180Y-95770185D01*
X154830527Y-95812498D01*
X154908052Y-95946774D01*
X154908057Y-95946780D01*
X154908058Y-95946782D01*
X155043751Y-96123622D01*
X155043757Y-96123629D01*
X155201370Y-96281242D01*
X155201377Y-96281248D01*
X155250461Y-96318911D01*
X155378226Y-96416948D01*
X155512501Y-96494472D01*
X155560716Y-96545038D01*
X155574500Y-96601858D01*
X155574500Y-103340407D01*
X155554815Y-103407446D01*
X155512500Y-103447794D01*
X155350382Y-103541392D01*
X155168338Y-103681081D01*
X155006081Y-103843338D01*
X154866392Y-104025382D01*
X154751657Y-104224109D01*
X154751650Y-104224123D01*
X154663842Y-104436112D01*
X154629909Y-104562755D01*
X154593544Y-104622416D01*
X154530697Y-104652945D01*
X154461322Y-104644650D01*
X154409817Y-104603549D01*
X154394517Y-104582490D01*
X154227510Y-104415483D01*
X154036433Y-104276657D01*
X153825996Y-104169433D01*
X153601368Y-104096446D01*
X153368097Y-104059500D01*
X153368092Y-104059500D01*
X153131908Y-104059500D01*
X153131903Y-104059500D01*
X152898631Y-104096446D01*
X152674003Y-104169433D01*
X152463566Y-104276657D01*
X152354550Y-104355862D01*
X152272490Y-104415483D01*
X152272488Y-104415485D01*
X152272487Y-104415485D01*
X152105485Y-104582487D01*
X152105485Y-104582488D01*
X152105483Y-104582490D01*
X152090182Y-104603550D01*
X151966657Y-104773566D01*
X151859433Y-104984003D01*
X151786446Y-105208631D01*
X151749500Y-105441902D01*
X151749500Y-105678097D01*
X151786446Y-105911368D01*
X151859433Y-106135996D01*
X151952634Y-106318911D01*
X151966657Y-106346433D01*
X152105483Y-106537510D01*
X152272490Y-106704517D01*
X152463567Y-106843343D01*
X152562991Y-106894002D01*
X152674003Y-106950566D01*
X152674005Y-106950566D01*
X152674008Y-106950568D01*
X152794412Y-106989689D01*
X152898631Y-107023553D01*
X153131903Y-107060500D01*
X153131908Y-107060500D01*
X153368097Y-107060500D01*
X153601368Y-107023553D01*
X153825992Y-106950568D01*
X154036433Y-106843343D01*
X154227510Y-106704517D01*
X154394517Y-106537510D01*
X154533343Y-106346433D01*
X154640568Y-106135992D01*
X154671752Y-106040017D01*
X154711188Y-105982344D01*
X154775547Y-105955145D01*
X154844393Y-105967059D01*
X154888055Y-106002847D01*
X155006081Y-106156661D01*
X155006085Y-106156665D01*
X155006089Y-106156670D01*
X155168330Y-106318911D01*
X155168338Y-106318918D01*
X155350382Y-106458607D01*
X155350385Y-106458608D01*
X155350388Y-106458611D01*
X155549112Y-106573344D01*
X155549117Y-106573346D01*
X155549123Y-106573349D01*
X155640480Y-106611190D01*
X155761113Y-106661158D01*
X155982762Y-106720548D01*
X156210266Y-106750500D01*
X156210273Y-106750500D01*
X156439727Y-106750500D01*
X156439734Y-106750500D01*
X156667238Y-106720548D01*
X156888887Y-106661158D01*
X157100888Y-106573344D01*
X157299612Y-106458611D01*
X157481661Y-106318919D01*
X157481665Y-106318914D01*
X157481670Y-106318911D01*
X157643911Y-106156670D01*
X157643914Y-106156665D01*
X157643919Y-106156661D01*
X157783611Y-105974612D01*
X157898344Y-105775888D01*
X157986158Y-105563887D01*
X158045548Y-105342238D01*
X158075500Y-105114734D01*
X158075500Y-104885266D01*
X158045548Y-104657762D01*
X157986158Y-104436113D01*
X157898344Y-104224112D01*
X157783611Y-104025388D01*
X157783608Y-104025385D01*
X157783607Y-104025382D01*
X157643918Y-103843338D01*
X157643911Y-103843330D01*
X157481670Y-103681089D01*
X157481661Y-103681081D01*
X157299617Y-103541392D01*
X157137500Y-103447794D01*
X157089284Y-103397227D01*
X157075500Y-103340407D01*
X157075500Y-100633372D01*
X157095185Y-100566333D01*
X157147989Y-100520578D01*
X157217147Y-100510634D01*
X157280703Y-100539659D01*
X157309984Y-100577076D01*
X157416657Y-100786433D01*
X157555483Y-100977510D01*
X157722490Y-101144517D01*
X157913567Y-101283343D01*
X158012991Y-101334002D01*
X158124003Y-101390566D01*
X158124005Y-101390566D01*
X158124008Y-101390568D01*
X158244412Y-101429689D01*
X158348631Y-101463553D01*
X158581903Y-101500500D01*
X158581908Y-101500500D01*
X158818097Y-101500500D01*
X159051368Y-101463553D01*
X159275992Y-101390568D01*
X159486433Y-101283343D01*
X159602614Y-101198931D01*
X159668420Y-101175451D01*
X159736474Y-101191276D01*
X159785169Y-101241381D01*
X159799500Y-101299249D01*
X159799500Y-110997438D01*
X159799394Y-111002562D01*
X159780928Y-111449016D01*
X159780082Y-111459230D01*
X159725128Y-111900099D01*
X159723441Y-111910208D01*
X159632269Y-112345028D01*
X159629753Y-112354963D01*
X159502984Y-112780773D01*
X159499656Y-112790466D01*
X159338161Y-113204339D01*
X159334045Y-113213724D01*
X159138919Y-113612863D01*
X159134041Y-113621877D01*
X158906616Y-114003544D01*
X158901010Y-114012123D01*
X158642859Y-114373687D01*
X158636564Y-114381775D01*
X158349428Y-114720796D01*
X158342487Y-114728336D01*
X158028336Y-115042487D01*
X158020796Y-115049428D01*
X157681775Y-115336564D01*
X157673687Y-115342859D01*
X157312123Y-115601010D01*
X157303544Y-115606616D01*
X156921877Y-115834041D01*
X156912863Y-115838919D01*
X156513724Y-116034045D01*
X156504339Y-116038161D01*
X156090466Y-116199656D01*
X156080773Y-116202984D01*
X155654963Y-116329753D01*
X155645028Y-116332269D01*
X155210208Y-116423441D01*
X155200099Y-116425128D01*
X154759230Y-116480082D01*
X154749016Y-116480928D01*
X154302563Y-116499394D01*
X154297439Y-116499500D01*
X146302425Y-116499500D01*
X146297557Y-116499404D01*
X145849855Y-116481813D01*
X145840149Y-116481050D01*
X145397586Y-116428670D01*
X145387968Y-116427146D01*
X144950912Y-116340209D01*
X144941445Y-116337936D01*
X144512549Y-116216975D01*
X144503290Y-116213967D01*
X144085201Y-116059726D01*
X144076205Y-116056000D01*
X143671507Y-115869432D01*
X143662832Y-115865011D01*
X143274016Y-115647263D01*
X143265714Y-115642176D01*
X142895189Y-115394600D01*
X142887312Y-115388877D01*
X142604889Y-115166232D01*
X142537346Y-115112985D01*
X142529946Y-115106665D01*
X142484236Y-115064411D01*
X142202704Y-114804166D01*
X142195833Y-114797295D01*
X141893329Y-114470047D01*
X141887011Y-114462650D01*
X141885627Y-114460895D01*
X141611119Y-114112684D01*
X141605399Y-114104810D01*
X141357823Y-113734285D01*
X141352735Y-113725983D01*
X141306882Y-113644106D01*
X141306881Y-113644102D01*
X141275680Y-113588389D01*
X144899500Y-113588389D01*
X144899500Y-114311610D01*
X144924594Y-114470053D01*
X144926598Y-114482701D01*
X144980127Y-114647445D01*
X145058768Y-114801788D01*
X145160586Y-114941928D01*
X145283072Y-115064414D01*
X145423212Y-115166232D01*
X145577555Y-115244873D01*
X145742299Y-115298402D01*
X145913389Y-115325500D01*
X145913390Y-115325500D01*
X146086610Y-115325500D01*
X146086611Y-115325500D01*
X146257701Y-115298402D01*
X146422445Y-115244873D01*
X146576788Y-115166232D01*
X146716928Y-115064414D01*
X146839414Y-114941928D01*
X146899682Y-114858975D01*
X146955012Y-114816311D01*
X147024626Y-114810332D01*
X147086421Y-114842938D01*
X147100315Y-114858973D01*
X147160586Y-114941928D01*
X147283072Y-115064414D01*
X147423212Y-115166232D01*
X147577555Y-115244873D01*
X147742299Y-115298402D01*
X147913389Y-115325500D01*
X147913390Y-115325500D01*
X148086610Y-115325500D01*
X148086611Y-115325500D01*
X148257701Y-115298402D01*
X148422445Y-115244873D01*
X148576788Y-115166232D01*
X148716928Y-115064414D01*
X148839414Y-114941928D01*
X148899682Y-114858975D01*
X148955012Y-114816311D01*
X149024626Y-114810332D01*
X149086421Y-114842938D01*
X149100315Y-114858973D01*
X149160586Y-114941928D01*
X149283072Y-115064414D01*
X149423212Y-115166232D01*
X149577555Y-115244873D01*
X149742299Y-115298402D01*
X149913389Y-115325500D01*
X149913390Y-115325500D01*
X150086610Y-115325500D01*
X150086611Y-115325500D01*
X150257701Y-115298402D01*
X150422445Y-115244873D01*
X150576788Y-115166232D01*
X150716928Y-115064414D01*
X150839414Y-114941928D01*
X150899682Y-114858975D01*
X150955012Y-114816311D01*
X151024626Y-114810332D01*
X151086421Y-114842938D01*
X151100315Y-114858973D01*
X151160586Y-114941928D01*
X151283072Y-115064414D01*
X151423212Y-115166232D01*
X151577555Y-115244873D01*
X151742299Y-115298402D01*
X151913389Y-115325500D01*
X151913390Y-115325500D01*
X152086610Y-115325500D01*
X152086611Y-115325500D01*
X152257701Y-115298402D01*
X152422445Y-115244873D01*
X152576788Y-115166232D01*
X152716928Y-115064414D01*
X152839414Y-114941928D01*
X152941232Y-114801788D01*
X153019873Y-114647445D01*
X153073402Y-114482701D01*
X153100500Y-114311611D01*
X153100500Y-113588389D01*
X153073402Y-113417299D01*
X153019873Y-113252555D01*
X152941232Y-113098212D01*
X152839414Y-112958072D01*
X152716928Y-112835586D01*
X152576788Y-112733768D01*
X152422445Y-112655127D01*
X152257701Y-112601598D01*
X152257699Y-112601597D01*
X152257698Y-112601597D01*
X152126271Y-112580781D01*
X152086611Y-112574500D01*
X151913389Y-112574500D01*
X151873728Y-112580781D01*
X151742302Y-112601597D01*
X151577552Y-112655128D01*
X151423211Y-112733768D01*
X151358515Y-112780773D01*
X151283072Y-112835586D01*
X151283070Y-112835588D01*
X151283069Y-112835588D01*
X151160588Y-112958069D01*
X151160581Y-112958078D01*
X151100317Y-113041023D01*
X151044987Y-113083689D01*
X150975374Y-113089667D01*
X150913579Y-113057061D01*
X150899683Y-113041023D01*
X150839418Y-112958078D01*
X150839414Y-112958072D01*
X150716928Y-112835586D01*
X150576788Y-112733768D01*
X150422445Y-112655127D01*
X150257701Y-112601598D01*
X150257699Y-112601597D01*
X150257698Y-112601597D01*
X150126271Y-112580781D01*
X150086611Y-112574500D01*
X149913389Y-112574500D01*
X149873728Y-112580781D01*
X149742302Y-112601597D01*
X149577552Y-112655128D01*
X149423211Y-112733768D01*
X149358515Y-112780773D01*
X149283072Y-112835586D01*
X149283070Y-112835588D01*
X149283069Y-112835588D01*
X149160588Y-112958069D01*
X149160581Y-112958078D01*
X149100317Y-113041023D01*
X149044987Y-113083689D01*
X148975374Y-113089667D01*
X148913579Y-113057061D01*
X148899683Y-113041023D01*
X148839418Y-112958078D01*
X148839414Y-112958072D01*
X148716928Y-112835586D01*
X148576788Y-112733768D01*
X148422445Y-112655127D01*
X148257701Y-112601598D01*
X148257699Y-112601597D01*
X148257698Y-112601597D01*
X148126271Y-112580781D01*
X148086611Y-112574500D01*
X147913389Y-112574500D01*
X147873728Y-112580781D01*
X147742302Y-112601597D01*
X147577552Y-112655128D01*
X147423211Y-112733768D01*
X147358515Y-112780773D01*
X147283072Y-112835586D01*
X147283070Y-112835588D01*
X147283069Y-112835588D01*
X147160588Y-112958069D01*
X147160581Y-112958078D01*
X147100317Y-113041023D01*
X147044987Y-113083689D01*
X146975374Y-113089667D01*
X146913579Y-113057061D01*
X146899683Y-113041023D01*
X146839418Y-112958078D01*
X146839414Y-112958072D01*
X146716928Y-112835586D01*
X146576788Y-112733768D01*
X146422445Y-112655127D01*
X146257701Y-112601598D01*
X146257699Y-112601597D01*
X146257698Y-112601597D01*
X146126271Y-112580781D01*
X146086611Y-112574500D01*
X145913389Y-112574500D01*
X145873728Y-112580781D01*
X145742302Y-112601597D01*
X145577552Y-112655128D01*
X145423211Y-112733768D01*
X145358515Y-112780773D01*
X145283072Y-112835586D01*
X145283070Y-112835588D01*
X145283069Y-112835588D01*
X145160588Y-112958069D01*
X145160588Y-112958070D01*
X145160586Y-112958072D01*
X145160582Y-112958078D01*
X145058768Y-113098211D01*
X144980128Y-113252552D01*
X144926597Y-113417302D01*
X144899500Y-113588389D01*
X141275680Y-113588389D01*
X141134988Y-113337167D01*
X141130573Y-113328504D01*
X140943998Y-112923791D01*
X140940273Y-112914798D01*
X140844475Y-112655127D01*
X140786031Y-112496706D01*
X140783024Y-112487450D01*
X140744272Y-112350047D01*
X140662062Y-112058550D01*
X140659790Y-112049087D01*
X140632165Y-111910208D01*
X140572850Y-111612016D01*
X140571329Y-111602413D01*
X140564009Y-111540568D01*
X140518948Y-111159845D01*
X140518186Y-111150144D01*
X140509789Y-110936433D01*
X140500596Y-110702443D01*
X140500500Y-110697575D01*
X140500500Y-109143713D01*
X141399500Y-109143713D01*
X141399500Y-109356287D01*
X141432754Y-109566243D01*
X141435275Y-109574003D01*
X141498444Y-109768414D01*
X141594951Y-109957820D01*
X141719890Y-110129786D01*
X141870213Y-110280109D01*
X142042179Y-110405048D01*
X142042181Y-110405049D01*
X142042184Y-110405051D01*
X142231588Y-110501557D01*
X142433757Y-110567246D01*
X142643713Y-110600500D01*
X142643714Y-110600500D01*
X142856286Y-110600500D01*
X142856287Y-110600500D01*
X143066243Y-110567246D01*
X143268412Y-110501557D01*
X143457816Y-110405051D01*
X143479789Y-110389086D01*
X143629786Y-110280109D01*
X143629788Y-110280106D01*
X143629792Y-110280104D01*
X143780104Y-110129792D01*
X143851225Y-110031902D01*
X145249500Y-110031902D01*
X145249500Y-110268097D01*
X145286446Y-110501368D01*
X145359433Y-110725996D01*
X145465472Y-110934108D01*
X145466657Y-110936433D01*
X145605483Y-111127510D01*
X145772490Y-111294517D01*
X145963567Y-111433343D01*
X146019706Y-111461947D01*
X146174003Y-111540566D01*
X146174005Y-111540566D01*
X146174008Y-111540568D01*
X146294412Y-111579689D01*
X146398631Y-111613553D01*
X146631903Y-111650500D01*
X146631908Y-111650500D01*
X146868097Y-111650500D01*
X147101368Y-111613553D01*
X147135653Y-111602413D01*
X147325992Y-111540568D01*
X147536433Y-111433343D01*
X147727510Y-111294517D01*
X147894517Y-111127510D01*
X148033343Y-110936433D01*
X148140568Y-110725992D01*
X148213553Y-110501368D01*
X148228808Y-110405051D01*
X148250500Y-110268097D01*
X148250500Y-110031902D01*
X151749500Y-110031902D01*
X151749500Y-110268097D01*
X151786446Y-110501368D01*
X151859433Y-110725996D01*
X151965472Y-110934108D01*
X151966657Y-110936433D01*
X152105483Y-111127510D01*
X152272490Y-111294517D01*
X152463567Y-111433343D01*
X152519706Y-111461947D01*
X152674003Y-111540566D01*
X152674005Y-111540566D01*
X152674008Y-111540568D01*
X152794412Y-111579689D01*
X152898631Y-111613553D01*
X153131903Y-111650500D01*
X153131908Y-111650500D01*
X153368097Y-111650500D01*
X153601368Y-111613553D01*
X153635653Y-111602413D01*
X153825992Y-111540568D01*
X154036433Y-111433343D01*
X154227510Y-111294517D01*
X154394517Y-111127510D01*
X154533343Y-110936433D01*
X154640568Y-110725992D01*
X154713553Y-110501368D01*
X154728808Y-110405051D01*
X154750500Y-110268097D01*
X154750500Y-110031902D01*
X154713553Y-109798631D01*
X154640566Y-109574003D01*
X154533342Y-109363566D01*
X154394517Y-109172490D01*
X154365740Y-109143713D01*
X156149500Y-109143713D01*
X156149500Y-109356287D01*
X156182754Y-109566243D01*
X156185275Y-109574003D01*
X156248444Y-109768414D01*
X156344951Y-109957820D01*
X156469890Y-110129786D01*
X156620213Y-110280109D01*
X156792179Y-110405048D01*
X156792181Y-110405049D01*
X156792184Y-110405051D01*
X156981588Y-110501557D01*
X157183757Y-110567246D01*
X157393713Y-110600500D01*
X157393714Y-110600500D01*
X157606286Y-110600500D01*
X157606287Y-110600500D01*
X157816243Y-110567246D01*
X158018412Y-110501557D01*
X158207816Y-110405051D01*
X158229789Y-110389086D01*
X158379786Y-110280109D01*
X158379788Y-110280106D01*
X158379792Y-110280104D01*
X158530104Y-110129792D01*
X158530106Y-110129788D01*
X158530109Y-110129786D01*
X158655048Y-109957820D01*
X158655047Y-109957820D01*
X158655051Y-109957816D01*
X158751557Y-109768412D01*
X158817246Y-109566243D01*
X158850500Y-109356287D01*
X158850500Y-109143713D01*
X158817246Y-108933757D01*
X158751557Y-108731588D01*
X158655051Y-108542184D01*
X158655049Y-108542181D01*
X158655048Y-108542179D01*
X158530109Y-108370213D01*
X158379786Y-108219890D01*
X158207820Y-108094951D01*
X158018414Y-107998444D01*
X158018413Y-107998443D01*
X158018412Y-107998443D01*
X157816243Y-107932754D01*
X157816241Y-107932753D01*
X157816240Y-107932753D01*
X157654957Y-107907208D01*
X157606287Y-107899500D01*
X157393713Y-107899500D01*
X157345042Y-107907208D01*
X157183760Y-107932753D01*
X156981585Y-107998444D01*
X156792179Y-108094951D01*
X156620213Y-108219890D01*
X156469890Y-108370213D01*
X156344951Y-108542179D01*
X156248444Y-108731585D01*
X156182753Y-108933760D01*
X156171393Y-109005485D01*
X156149500Y-109143713D01*
X154365740Y-109143713D01*
X154227510Y-109005483D01*
X154036433Y-108866657D01*
X153825996Y-108759433D01*
X153601368Y-108686446D01*
X153368097Y-108649500D01*
X153368092Y-108649500D01*
X153131908Y-108649500D01*
X153131903Y-108649500D01*
X152898631Y-108686446D01*
X152674003Y-108759433D01*
X152463566Y-108866657D01*
X152371212Y-108933757D01*
X152272490Y-109005483D01*
X152272488Y-109005485D01*
X152272487Y-109005485D01*
X152105485Y-109172487D01*
X152105485Y-109172488D01*
X152105483Y-109172490D01*
X152076976Y-109211727D01*
X151966657Y-109363566D01*
X151859433Y-109574003D01*
X151786446Y-109798631D01*
X151749500Y-110031902D01*
X148250500Y-110031902D01*
X148213553Y-109798631D01*
X148140566Y-109574003D01*
X148033342Y-109363566D01*
X147894517Y-109172490D01*
X147727510Y-109005483D01*
X147536433Y-108866657D01*
X147325996Y-108759433D01*
X147101368Y-108686446D01*
X146868097Y-108649500D01*
X146868092Y-108649500D01*
X146631908Y-108649500D01*
X146631903Y-108649500D01*
X146398631Y-108686446D01*
X146174003Y-108759433D01*
X145963566Y-108866657D01*
X145871212Y-108933757D01*
X145772490Y-109005483D01*
X145772488Y-109005485D01*
X145772487Y-109005485D01*
X145605485Y-109172487D01*
X145605485Y-109172488D01*
X145605483Y-109172490D01*
X145576976Y-109211727D01*
X145466657Y-109363566D01*
X145359433Y-109574003D01*
X145286446Y-109798631D01*
X145249500Y-110031902D01*
X143851225Y-110031902D01*
X143905051Y-109957816D01*
X144001557Y-109768412D01*
X144067246Y-109566243D01*
X144100500Y-109356287D01*
X144100500Y-109143713D01*
X144067246Y-108933757D01*
X144001557Y-108731588D01*
X143905051Y-108542184D01*
X143905049Y-108542181D01*
X143905048Y-108542179D01*
X143780109Y-108370213D01*
X143629786Y-108219890D01*
X143457820Y-108094951D01*
X143268414Y-107998444D01*
X143268413Y-107998443D01*
X143268412Y-107998443D01*
X143066243Y-107932754D01*
X143066241Y-107932753D01*
X143066240Y-107932753D01*
X142904957Y-107907208D01*
X142856287Y-107899500D01*
X142643713Y-107899500D01*
X142595042Y-107907208D01*
X142433760Y-107932753D01*
X142231585Y-107998444D01*
X142042179Y-108094951D01*
X141870213Y-108219890D01*
X141719890Y-108370213D01*
X141594951Y-108542179D01*
X141498444Y-108731585D01*
X141432753Y-108933760D01*
X141421393Y-109005485D01*
X141399500Y-109143713D01*
X140500500Y-109143713D01*
X140500500Y-104885258D01*
X141924500Y-104885258D01*
X141924500Y-105114741D01*
X141936862Y-105208631D01*
X141954452Y-105342238D01*
X141954453Y-105342240D01*
X142013842Y-105563887D01*
X142101650Y-105775876D01*
X142101657Y-105775890D01*
X142216392Y-105974617D01*
X142356081Y-106156661D01*
X142356089Y-106156670D01*
X142518330Y-106318911D01*
X142518338Y-106318918D01*
X142700382Y-106458607D01*
X142700385Y-106458608D01*
X142700388Y-106458611D01*
X142899112Y-106573344D01*
X142899117Y-106573346D01*
X142899123Y-106573349D01*
X142990480Y-106611190D01*
X143111113Y-106661158D01*
X143332762Y-106720548D01*
X143560266Y-106750500D01*
X143560273Y-106750500D01*
X143789727Y-106750500D01*
X143789734Y-106750500D01*
X144017238Y-106720548D01*
X144238887Y-106661158D01*
X144450888Y-106573344D01*
X144649612Y-106458611D01*
X144831661Y-106318919D01*
X144831665Y-106318914D01*
X144831670Y-106318911D01*
X144993910Y-106156670D01*
X144993919Y-106156661D01*
X145111943Y-106002848D01*
X145168369Y-105961649D01*
X145238115Y-105957494D01*
X145299036Y-105991707D01*
X145328248Y-106040019D01*
X145359433Y-106135996D01*
X145452634Y-106318911D01*
X145466657Y-106346433D01*
X145605483Y-106537510D01*
X145772490Y-106704517D01*
X145963567Y-106843343D01*
X146062991Y-106894002D01*
X146174003Y-106950566D01*
X146174005Y-106950566D01*
X146174008Y-106950568D01*
X146294412Y-106989689D01*
X146398631Y-107023553D01*
X146631903Y-107060500D01*
X146631908Y-107060500D01*
X146868097Y-107060500D01*
X147101368Y-107023553D01*
X147325992Y-106950568D01*
X147536433Y-106843343D01*
X147727510Y-106704517D01*
X147894517Y-106537510D01*
X148033343Y-106346433D01*
X148140568Y-106135992D01*
X148213553Y-105911368D01*
X148250500Y-105678097D01*
X148250500Y-105441902D01*
X148213553Y-105208631D01*
X148140566Y-104984003D01*
X148033342Y-104773566D01*
X147894517Y-104582490D01*
X147727510Y-104415483D01*
X147536433Y-104276657D01*
X147325996Y-104169433D01*
X147101368Y-104096446D01*
X146868097Y-104059500D01*
X146868092Y-104059500D01*
X146631908Y-104059500D01*
X146631903Y-104059500D01*
X146398631Y-104096446D01*
X146174003Y-104169433D01*
X145963566Y-104276657D01*
X145854550Y-104355862D01*
X145772490Y-104415483D01*
X145772488Y-104415485D01*
X145772487Y-104415485D01*
X145605485Y-104582487D01*
X145605480Y-104582493D01*
X145590181Y-104603550D01*
X145534850Y-104646215D01*
X145465236Y-104652191D01*
X145403442Y-104619584D01*
X145370091Y-104562755D01*
X145336158Y-104436113D01*
X145248344Y-104224112D01*
X145133611Y-104025388D01*
X145133608Y-104025385D01*
X145133607Y-104025382D01*
X144993918Y-103843338D01*
X144993911Y-103843330D01*
X144831670Y-103681089D01*
X144831661Y-103681081D01*
X144649617Y-103541392D01*
X144450890Y-103426657D01*
X144450876Y-103426650D01*
X144238887Y-103338842D01*
X144017238Y-103279452D01*
X143979215Y-103274446D01*
X143789741Y-103249500D01*
X143789734Y-103249500D01*
X143560266Y-103249500D01*
X143560258Y-103249500D01*
X143343715Y-103278009D01*
X143332762Y-103279452D01*
X143239076Y-103304554D01*
X143111112Y-103338842D01*
X142899123Y-103426650D01*
X142899109Y-103426657D01*
X142700382Y-103541392D01*
X142518338Y-103681081D01*
X142356081Y-103843338D01*
X142216392Y-104025382D01*
X142101657Y-104224109D01*
X142101650Y-104224123D01*
X142022387Y-104415483D01*
X142013842Y-104436113D01*
X141968979Y-104603548D01*
X141954453Y-104657759D01*
X141954451Y-104657770D01*
X141924500Y-104885258D01*
X140500500Y-104885258D01*
X140500500Y-96448222D01*
X140520185Y-96381183D01*
X140529719Y-96368269D01*
X140546077Y-96348878D01*
X141705719Y-94974173D01*
X141763991Y-94935623D01*
X141833855Y-94934697D01*
X141893128Y-94971689D01*
G37*
%TD.AperFunction*%
%TA.AperFunction,Conductor*%
G36*
X148767789Y-90220185D02*
G01*
X148813544Y-90272989D01*
X148823488Y-90342147D01*
X148801068Y-90397386D01*
X148716657Y-90513566D01*
X148609433Y-90724003D01*
X148536446Y-90948631D01*
X148499500Y-91181902D01*
X148499500Y-91418097D01*
X148536446Y-91651368D01*
X148609433Y-91875996D01*
X148716657Y-92086433D01*
X148855483Y-92277510D01*
X149022490Y-92444517D01*
X149213567Y-92583343D01*
X149312991Y-92634002D01*
X149424003Y-92690566D01*
X149424005Y-92690566D01*
X149424008Y-92690568D01*
X149544412Y-92729689D01*
X149648631Y-92763553D01*
X149881903Y-92800500D01*
X149881908Y-92800500D01*
X150118097Y-92800500D01*
X150351368Y-92763553D01*
X150575992Y-92690568D01*
X150786433Y-92583343D01*
X150977510Y-92444517D01*
X151144517Y-92277510D01*
X151149682Y-92270401D01*
X151205012Y-92227735D01*
X151274625Y-92221756D01*
X151336420Y-92254362D01*
X151350318Y-92270401D01*
X151355483Y-92277510D01*
X151522490Y-92444517D01*
X151713567Y-92583343D01*
X151812991Y-92634002D01*
X151924003Y-92690566D01*
X151924005Y-92690566D01*
X151924008Y-92690568D01*
X152044412Y-92729689D01*
X152148631Y-92763553D01*
X152381903Y-92800500D01*
X152381908Y-92800500D01*
X152618097Y-92800500D01*
X152851368Y-92763553D01*
X153075992Y-92690568D01*
X153286433Y-92583343D01*
X153477510Y-92444517D01*
X153644517Y-92277510D01*
X153783343Y-92086433D01*
X153890568Y-91875992D01*
X153963553Y-91651368D01*
X154000500Y-91418097D01*
X154000500Y-91181902D01*
X153963553Y-90948631D01*
X153890566Y-90724003D01*
X153783342Y-90513566D01*
X153698931Y-90397385D01*
X153675452Y-90331579D01*
X153691277Y-90263525D01*
X153741383Y-90214830D01*
X153799250Y-90200500D01*
X154347831Y-90200500D01*
X154414870Y-90220185D01*
X154433933Y-90235267D01*
X154674791Y-90467674D01*
X159761602Y-95376000D01*
X159796176Y-95436715D01*
X159799500Y-95465232D01*
X159799500Y-96200750D01*
X159779815Y-96267789D01*
X159727011Y-96313544D01*
X159657853Y-96323488D01*
X159602614Y-96301068D01*
X159575334Y-96281248D01*
X159486433Y-96216657D01*
X159447193Y-96196663D01*
X159275996Y-96109433D01*
X159051368Y-96036446D01*
X158818097Y-95999500D01*
X158818092Y-95999500D01*
X158581908Y-95999500D01*
X158581903Y-95999500D01*
X158348631Y-96036446D01*
X158124003Y-96109433D01*
X157913563Y-96216659D01*
X157731579Y-96348878D01*
X157731573Y-96348883D01*
X157722490Y-96355483D01*
X157606585Y-96471387D01*
X157606485Y-96471486D01*
X157555486Y-96522486D01*
X157555485Y-96522488D01*
X157555483Y-96522490D01*
X157539101Y-96545038D01*
X157416657Y-96713566D01*
X157309985Y-96922922D01*
X157262010Y-96973718D01*
X157194189Y-96990513D01*
X157128054Y-96967976D01*
X157084603Y-96913260D01*
X157075500Y-96866627D01*
X157075500Y-96601858D01*
X157095185Y-96534819D01*
X157137498Y-96494472D01*
X157271774Y-96416948D01*
X157448624Y-96281247D01*
X157606247Y-96123624D01*
X157741948Y-95946774D01*
X157853405Y-95753726D01*
X157938710Y-95547781D01*
X157996404Y-95332463D01*
X158025500Y-95111457D01*
X158025500Y-94888543D01*
X157996404Y-94667537D01*
X157938710Y-94452219D01*
X157853405Y-94246274D01*
X157741948Y-94053226D01*
X157606247Y-93876376D01*
X157606242Y-93876370D01*
X157448629Y-93718757D01*
X157448622Y-93718751D01*
X157271782Y-93583058D01*
X157271780Y-93583057D01*
X157271774Y-93583052D01*
X157078726Y-93471595D01*
X157078722Y-93471593D01*
X156872790Y-93386293D01*
X156872783Y-93386291D01*
X156872781Y-93386290D01*
X156657463Y-93328596D01*
X156657457Y-93328595D01*
X156657452Y-93328594D01*
X156436466Y-93299501D01*
X156436463Y-93299500D01*
X156436457Y-93299500D01*
X156213543Y-93299500D01*
X156213537Y-93299500D01*
X156213533Y-93299501D01*
X155992547Y-93328594D01*
X155992540Y-93328595D01*
X155992537Y-93328596D01*
X155892768Y-93355329D01*
X155777219Y-93386290D01*
X155777209Y-93386293D01*
X155571277Y-93471593D01*
X155571273Y-93471595D01*
X155378226Y-93583052D01*
X155378217Y-93583058D01*
X155201377Y-93718751D01*
X155201370Y-93718757D01*
X155043757Y-93876370D01*
X155043751Y-93876377D01*
X154908058Y-94053217D01*
X154908052Y-94053226D01*
X154830529Y-94187500D01*
X154830528Y-94187501D01*
X154779961Y-94235716D01*
X154723141Y-94249500D01*
X145334593Y-94249500D01*
X145267554Y-94229815D01*
X145227206Y-94187500D01*
X145149678Y-94053217D01*
X145133611Y-94025388D01*
X145133608Y-94025385D01*
X145133607Y-94025382D01*
X144993918Y-93843338D01*
X144993911Y-93843330D01*
X144831670Y-93681089D01*
X144831661Y-93681081D01*
X144649617Y-93541392D01*
X144450890Y-93426657D01*
X144450876Y-93426650D01*
X144238887Y-93338842D01*
X144017238Y-93279452D01*
X143979215Y-93274446D01*
X143789741Y-93249500D01*
X143789734Y-93249500D01*
X143560266Y-93249500D01*
X143560260Y-93249500D01*
X143560255Y-93249501D01*
X143428011Y-93266911D01*
X143358976Y-93256145D01*
X143306720Y-93209765D01*
X143287835Y-93142496D01*
X143308316Y-93075696D01*
X143317037Y-93064028D01*
X145622018Y-90331579D01*
X145695435Y-90244547D01*
X145753707Y-90205996D01*
X145790216Y-90200500D01*
X148700750Y-90200500D01*
X148767789Y-90220185D01*
G37*
%TD.AperFunction*%
%TD*%
M02*
