%TF.GenerationSoftware,KiCad,Pcbnew,9.0.6*%
%TF.CreationDate,2026-03-23T13:34:48-04:00*%
%TF.ProjectId,JoyStickBoard,4a6f7953-7469-4636-9b42-6f6172642e6b,rev?*%
%TF.SameCoordinates,Original*%
%TF.FileFunction,Legend,Bot*%
%TF.FilePolarity,Positive*%
%FSLAX46Y46*%
G04 Gerber Fmt 4.6, Leading zero omitted, Abs format (unit mm)*
G04 Created by KiCad (PCBNEW 9.0.6) date 2026-03-23 13:34:48*
%MOMM*%
%LPD*%
G01*
G04 APERTURE LIST*
%ADD10C,0.100000*%
%ADD11C,0.150000*%
%ADD12C,0.120000*%
G04 APERTURE END LIST*
D10*
X147520000Y-98400000D02*
X152520000Y-98400000D01*
X152520000Y-103400000D01*
X147520000Y-103400000D01*
X147520000Y-98400000D01*
G36*
X147520000Y-98400000D02*
G01*
X152520000Y-98400000D01*
X152520000Y-103400000D01*
X147520000Y-103400000D01*
X147520000Y-98400000D01*
G37*
D11*
X150809523Y-110504819D02*
X150809523Y-111219104D01*
X150809523Y-111219104D02*
X150857142Y-111361961D01*
X150857142Y-111361961D02*
X150952380Y-111457200D01*
X150952380Y-111457200D02*
X151095237Y-111504819D01*
X151095237Y-111504819D02*
X151190475Y-111504819D01*
X149809523Y-111504819D02*
X150380951Y-111504819D01*
X150095237Y-111504819D02*
X150095237Y-110504819D01*
X150095237Y-110504819D02*
X150190475Y-110647676D01*
X150190475Y-110647676D02*
X150285713Y-110742914D01*
X150285713Y-110742914D02*
X150380951Y-110790533D01*
X149333332Y-111504819D02*
X149142856Y-111504819D01*
X149142856Y-111504819D02*
X149047618Y-111457200D01*
X149047618Y-111457200D02*
X148999999Y-111409580D01*
X148999999Y-111409580D02*
X148904761Y-111266723D01*
X148904761Y-111266723D02*
X148857142Y-111076247D01*
X148857142Y-111076247D02*
X148857142Y-110695295D01*
X148857142Y-110695295D02*
X148904761Y-110600057D01*
X148904761Y-110600057D02*
X148952380Y-110552438D01*
X148952380Y-110552438D02*
X149047618Y-110504819D01*
X149047618Y-110504819D02*
X149238094Y-110504819D01*
X149238094Y-110504819D02*
X149333332Y-110552438D01*
X149333332Y-110552438D02*
X149380951Y-110600057D01*
X149380951Y-110600057D02*
X149428570Y-110695295D01*
X149428570Y-110695295D02*
X149428570Y-110933390D01*
X149428570Y-110933390D02*
X149380951Y-111028628D01*
X149380951Y-111028628D02*
X149333332Y-111076247D01*
X149333332Y-111076247D02*
X149238094Y-111123866D01*
X149238094Y-111123866D02*
X149047618Y-111123866D01*
X149047618Y-111123866D02*
X148952380Y-111076247D01*
X148952380Y-111076247D02*
X148904761Y-111028628D01*
X148904761Y-111028628D02*
X148857142Y-110933390D01*
D12*
%TO.C,J19*%
X143940000Y-112140000D02*
X156060000Y-112140000D01*
X143940000Y-113450000D02*
X144550000Y-113450000D01*
X143940000Y-114750000D02*
X144550000Y-114750000D01*
X143940000Y-116860000D02*
X143940000Y-112140000D01*
X144550000Y-112750000D02*
X146500000Y-112750000D01*
X144550000Y-116250000D02*
X144550000Y-112750000D01*
X146500000Y-112750000D02*
X146500000Y-112140000D01*
X146900000Y-115750000D02*
X146900000Y-116250000D01*
X147000000Y-116250000D02*
X147000000Y-115750000D01*
X147100000Y-115750000D02*
X146900000Y-115750000D01*
X147100000Y-116250000D02*
X147100000Y-115750000D01*
X148900000Y-115750000D02*
X148900000Y-116250000D01*
X149000000Y-116250000D02*
X149000000Y-115750000D01*
X149100000Y-115750000D02*
X148900000Y-115750000D01*
X149100000Y-116250000D02*
X149100000Y-115750000D01*
X150900000Y-115750000D02*
X150900000Y-116250000D01*
X151000000Y-116250000D02*
X151000000Y-115750000D01*
X151100000Y-115750000D02*
X150900000Y-115750000D01*
X151100000Y-116250000D02*
X151100000Y-115750000D01*
X152900000Y-115750000D02*
X152900000Y-116250000D01*
X153000000Y-116250000D02*
X153000000Y-115750000D01*
X153100000Y-115750000D02*
X152900000Y-115750000D01*
X153100000Y-116250000D02*
X153100000Y-115750000D01*
X153500000Y-112140000D02*
X153500000Y-112750000D01*
X153500000Y-112750000D02*
X155450000Y-112750000D01*
X154300000Y-111940000D02*
X154600000Y-111940000D01*
X154300000Y-112040000D02*
X154600000Y-112040000D01*
X154300000Y-112140000D02*
X154300000Y-111940000D01*
X154600000Y-111940000D02*
X154600000Y-112140000D01*
X155110000Y-111840000D02*
X156360000Y-111840000D01*
X155450000Y-112750000D02*
X155450000Y-116250000D01*
X155450000Y-116250000D02*
X144550000Y-116250000D01*
X156060000Y-112140000D02*
X156060000Y-116860000D01*
X156060000Y-113450000D02*
X155450000Y-113450000D01*
X156060000Y-114750000D02*
X155450000Y-114750000D01*
X156060000Y-116860000D02*
X143940000Y-116860000D01*
X156360000Y-111840000D02*
X156360000Y-113090000D01*
%TD*%
M02*
