%TF.GenerationSoftware,KiCad,Pcbnew,9.0.6*%
%TF.CreationDate,2026-04-26T23:15:55-04:00*%
%TF.ProjectId,Combined Board,436f6d62-696e-4656-9420-426f6172642e,rev?*%
%TF.SameCoordinates,Original*%
%TF.FileFunction,Legend,Bot*%
%TF.FilePolarity,Positive*%
%FSLAX46Y46*%
G04 Gerber Fmt 4.6, Leading zero omitted, Abs format (unit mm)*
G04 Created by KiCad (PCBNEW 9.0.6) date 2026-04-26 23:15:55*
%MOMM*%
%LPD*%
G01*
G04 APERTURE LIST*
%ADD10C,0.100000*%
%ADD11C,0.150000*%
%ADD12C,0.120000*%
G04 APERTURE END LIST*
D10*
X123290000Y-69120000D02*
X128290000Y-69120000D01*
X128290000Y-74120000D01*
X123290000Y-74120000D01*
X123290000Y-69120000D01*
G36*
X123290000Y-69120000D02*
G01*
X128290000Y-69120000D01*
X128290000Y-74120000D01*
X123290000Y-74120000D01*
X123290000Y-69120000D01*
G37*
D11*
X187580830Y-73541587D02*
X187580830Y-74255872D01*
X187580830Y-74255872D02*
X187628449Y-74398729D01*
X187628449Y-74398729D02*
X187723687Y-74493968D01*
X187723687Y-74493968D02*
X187866544Y-74541587D01*
X187866544Y-74541587D02*
X187961782Y-74541587D01*
X186580830Y-74541587D02*
X187152258Y-74541587D01*
X186866544Y-74541587D02*
X186866544Y-73541587D01*
X186866544Y-73541587D02*
X186961782Y-73684444D01*
X186961782Y-73684444D02*
X187057020Y-73779682D01*
X187057020Y-73779682D02*
X187152258Y-73827301D01*
X186247496Y-73541587D02*
X185580830Y-73541587D01*
X185580830Y-73541587D02*
X186009401Y-74541587D01*
X167920830Y-72671587D02*
X167920830Y-73385872D01*
X167920830Y-73385872D02*
X167968449Y-73528729D01*
X167968449Y-73528729D02*
X168063687Y-73623968D01*
X168063687Y-73623968D02*
X168206544Y-73671587D01*
X168206544Y-73671587D02*
X168301782Y-73671587D01*
X166920830Y-73671587D02*
X167492258Y-73671587D01*
X167206544Y-73671587D02*
X167206544Y-72671587D01*
X167206544Y-72671587D02*
X167301782Y-72814444D01*
X167301782Y-72814444D02*
X167397020Y-72909682D01*
X167397020Y-72909682D02*
X167492258Y-72957301D01*
X165968449Y-73671587D02*
X166539877Y-73671587D01*
X166254163Y-73671587D02*
X166254163Y-72671587D01*
X166254163Y-72671587D02*
X166349401Y-72814444D01*
X166349401Y-72814444D02*
X166444639Y-72909682D01*
X166444639Y-72909682D02*
X166539877Y-72957301D01*
X156058464Y-65771587D02*
X156058464Y-66485872D01*
X156058464Y-66485872D02*
X156106083Y-66628729D01*
X156106083Y-66628729D02*
X156201321Y-66723968D01*
X156201321Y-66723968D02*
X156344178Y-66771587D01*
X156344178Y-66771587D02*
X156439416Y-66771587D01*
X155058464Y-66771587D02*
X155629892Y-66771587D01*
X155344178Y-66771587D02*
X155344178Y-65771587D01*
X155344178Y-65771587D02*
X155439416Y-65914444D01*
X155439416Y-65914444D02*
X155534654Y-66009682D01*
X155534654Y-66009682D02*
X155629892Y-66057301D01*
X154725130Y-65771587D02*
X154106083Y-65771587D01*
X154106083Y-65771587D02*
X154439416Y-66152539D01*
X154439416Y-66152539D02*
X154296559Y-66152539D01*
X154296559Y-66152539D02*
X154201321Y-66200158D01*
X154201321Y-66200158D02*
X154153702Y-66247777D01*
X154153702Y-66247777D02*
X154106083Y-66343015D01*
X154106083Y-66343015D02*
X154106083Y-66581110D01*
X154106083Y-66581110D02*
X154153702Y-66676348D01*
X154153702Y-66676348D02*
X154201321Y-66723968D01*
X154201321Y-66723968D02*
X154296559Y-66771587D01*
X154296559Y-66771587D02*
X154582273Y-66771587D01*
X154582273Y-66771587D02*
X154677511Y-66723968D01*
X154677511Y-66723968D02*
X154725130Y-66676348D01*
X174206126Y-78157244D02*
X174920411Y-78157244D01*
X174920411Y-78157244D02*
X175063268Y-78109625D01*
X175063268Y-78109625D02*
X175158507Y-78014387D01*
X175158507Y-78014387D02*
X175206126Y-77871530D01*
X175206126Y-77871530D02*
X175206126Y-77776292D01*
X175206126Y-79157244D02*
X175206126Y-78585816D01*
X175206126Y-78871530D02*
X174206126Y-78871530D01*
X174206126Y-78871530D02*
X174348983Y-78776292D01*
X174348983Y-78776292D02*
X174444221Y-78681054D01*
X174444221Y-78681054D02*
X174491840Y-78585816D01*
X174206126Y-80014387D02*
X174206126Y-79823911D01*
X174206126Y-79823911D02*
X174253745Y-79728673D01*
X174253745Y-79728673D02*
X174301364Y-79681054D01*
X174301364Y-79681054D02*
X174444221Y-79585816D01*
X174444221Y-79585816D02*
X174634697Y-79538197D01*
X174634697Y-79538197D02*
X175015649Y-79538197D01*
X175015649Y-79538197D02*
X175110887Y-79585816D01*
X175110887Y-79585816D02*
X175158507Y-79633435D01*
X175158507Y-79633435D02*
X175206126Y-79728673D01*
X175206126Y-79728673D02*
X175206126Y-79919149D01*
X175206126Y-79919149D02*
X175158507Y-80014387D01*
X175158507Y-80014387D02*
X175110887Y-80062006D01*
X175110887Y-80062006D02*
X175015649Y-80109625D01*
X175015649Y-80109625D02*
X174777554Y-80109625D01*
X174777554Y-80109625D02*
X174682316Y-80062006D01*
X174682316Y-80062006D02*
X174634697Y-80014387D01*
X174634697Y-80014387D02*
X174587078Y-79919149D01*
X174587078Y-79919149D02*
X174587078Y-79728673D01*
X174587078Y-79728673D02*
X174634697Y-79633435D01*
X174634697Y-79633435D02*
X174682316Y-79585816D01*
X174682316Y-79585816D02*
X174777554Y-79538197D01*
X173576126Y-86577244D02*
X174290411Y-86577244D01*
X174290411Y-86577244D02*
X174433268Y-86529625D01*
X174433268Y-86529625D02*
X174528507Y-86434387D01*
X174528507Y-86434387D02*
X174576126Y-86291530D01*
X174576126Y-86291530D02*
X174576126Y-86196292D01*
X174576126Y-87577244D02*
X174576126Y-87005816D01*
X174576126Y-87291530D02*
X173576126Y-87291530D01*
X173576126Y-87291530D02*
X173718983Y-87196292D01*
X173718983Y-87196292D02*
X173814221Y-87101054D01*
X173814221Y-87101054D02*
X173861840Y-87005816D01*
X173576126Y-88196292D02*
X173576126Y-88291530D01*
X173576126Y-88291530D02*
X173623745Y-88386768D01*
X173623745Y-88386768D02*
X173671364Y-88434387D01*
X173671364Y-88434387D02*
X173766602Y-88482006D01*
X173766602Y-88482006D02*
X173957078Y-88529625D01*
X173957078Y-88529625D02*
X174195173Y-88529625D01*
X174195173Y-88529625D02*
X174385649Y-88482006D01*
X174385649Y-88482006D02*
X174480887Y-88434387D01*
X174480887Y-88434387D02*
X174528507Y-88386768D01*
X174528507Y-88386768D02*
X174576126Y-88291530D01*
X174576126Y-88291530D02*
X174576126Y-88196292D01*
X174576126Y-88196292D02*
X174528507Y-88101054D01*
X174528507Y-88101054D02*
X174480887Y-88053435D01*
X174480887Y-88053435D02*
X174385649Y-88005816D01*
X174385649Y-88005816D02*
X174195173Y-87958197D01*
X174195173Y-87958197D02*
X173957078Y-87958197D01*
X173957078Y-87958197D02*
X173766602Y-88005816D01*
X173766602Y-88005816D02*
X173671364Y-88053435D01*
X173671364Y-88053435D02*
X173623745Y-88101054D01*
X173623745Y-88101054D02*
X173576126Y-88196292D01*
X182745115Y-56671587D02*
X182745115Y-55671587D01*
X182745115Y-55671587D02*
X182411782Y-56385872D01*
X182411782Y-56385872D02*
X182078449Y-55671587D01*
X182078449Y-55671587D02*
X182078449Y-56671587D01*
X181649877Y-55766825D02*
X181602258Y-55719206D01*
X181602258Y-55719206D02*
X181507020Y-55671587D01*
X181507020Y-55671587D02*
X181268925Y-55671587D01*
X181268925Y-55671587D02*
X181173687Y-55719206D01*
X181173687Y-55719206D02*
X181126068Y-55766825D01*
X181126068Y-55766825D02*
X181078449Y-55862063D01*
X181078449Y-55862063D02*
X181078449Y-55957301D01*
X181078449Y-55957301D02*
X181126068Y-56100158D01*
X181126068Y-56100158D02*
X181697496Y-56671587D01*
X181697496Y-56671587D02*
X181078449Y-56671587D01*
X180649877Y-56576348D02*
X180602258Y-56623968D01*
X180602258Y-56623968D02*
X180649877Y-56671587D01*
X180649877Y-56671587D02*
X180697496Y-56623968D01*
X180697496Y-56623968D02*
X180649877Y-56576348D01*
X180649877Y-56576348D02*
X180649877Y-56671587D01*
X179697497Y-55671587D02*
X180173687Y-55671587D01*
X180173687Y-55671587D02*
X180221306Y-56147777D01*
X180221306Y-56147777D02*
X180173687Y-56100158D01*
X180173687Y-56100158D02*
X180078449Y-56052539D01*
X180078449Y-56052539D02*
X179840354Y-56052539D01*
X179840354Y-56052539D02*
X179745116Y-56100158D01*
X179745116Y-56100158D02*
X179697497Y-56147777D01*
X179697497Y-56147777D02*
X179649878Y-56243015D01*
X179649878Y-56243015D02*
X179649878Y-56481110D01*
X179649878Y-56481110D02*
X179697497Y-56576348D01*
X179697497Y-56576348D02*
X179745116Y-56623968D01*
X179745116Y-56623968D02*
X179840354Y-56671587D01*
X179840354Y-56671587D02*
X180078449Y-56671587D01*
X180078449Y-56671587D02*
X180173687Y-56623968D01*
X180173687Y-56623968D02*
X180221306Y-56576348D01*
X165836126Y-59757244D02*
X166550411Y-59757244D01*
X166550411Y-59757244D02*
X166693268Y-59709625D01*
X166693268Y-59709625D02*
X166788507Y-59614387D01*
X166788507Y-59614387D02*
X166836126Y-59471530D01*
X166836126Y-59471530D02*
X166836126Y-59376292D01*
X166836126Y-60757244D02*
X166836126Y-60185816D01*
X166836126Y-60471530D02*
X165836126Y-60471530D01*
X165836126Y-60471530D02*
X165978983Y-60376292D01*
X165978983Y-60376292D02*
X166074221Y-60281054D01*
X166074221Y-60281054D02*
X166121840Y-60185816D01*
X165836126Y-61662006D02*
X165836126Y-61185816D01*
X165836126Y-61185816D02*
X166312316Y-61138197D01*
X166312316Y-61138197D02*
X166264697Y-61185816D01*
X166264697Y-61185816D02*
X166217078Y-61281054D01*
X166217078Y-61281054D02*
X166217078Y-61519149D01*
X166217078Y-61519149D02*
X166264697Y-61614387D01*
X166264697Y-61614387D02*
X166312316Y-61662006D01*
X166312316Y-61662006D02*
X166407554Y-61709625D01*
X166407554Y-61709625D02*
X166645649Y-61709625D01*
X166645649Y-61709625D02*
X166740887Y-61662006D01*
X166740887Y-61662006D02*
X166788507Y-61614387D01*
X166788507Y-61614387D02*
X166836126Y-61519149D01*
X166836126Y-61519149D02*
X166836126Y-61281054D01*
X166836126Y-61281054D02*
X166788507Y-61185816D01*
X166788507Y-61185816D02*
X166740887Y-61138197D01*
X162998464Y-65771587D02*
X162998464Y-66485872D01*
X162998464Y-66485872D02*
X163046083Y-66628729D01*
X163046083Y-66628729D02*
X163141321Y-66723968D01*
X163141321Y-66723968D02*
X163284178Y-66771587D01*
X163284178Y-66771587D02*
X163379416Y-66771587D01*
X161998464Y-66771587D02*
X162569892Y-66771587D01*
X162284178Y-66771587D02*
X162284178Y-65771587D01*
X162284178Y-65771587D02*
X162379416Y-65914444D01*
X162379416Y-65914444D02*
X162474654Y-66009682D01*
X162474654Y-66009682D02*
X162569892Y-66057301D01*
X161617511Y-65866825D02*
X161569892Y-65819206D01*
X161569892Y-65819206D02*
X161474654Y-65771587D01*
X161474654Y-65771587D02*
X161236559Y-65771587D01*
X161236559Y-65771587D02*
X161141321Y-65819206D01*
X161141321Y-65819206D02*
X161093702Y-65866825D01*
X161093702Y-65866825D02*
X161046083Y-65962063D01*
X161046083Y-65962063D02*
X161046083Y-66057301D01*
X161046083Y-66057301D02*
X161093702Y-66200158D01*
X161093702Y-66200158D02*
X161665130Y-66771587D01*
X161665130Y-66771587D02*
X161046083Y-66771587D01*
X163010830Y-78131587D02*
X163010830Y-78845872D01*
X163010830Y-78845872D02*
X163058449Y-78988729D01*
X163058449Y-78988729D02*
X163153687Y-79083968D01*
X163153687Y-79083968D02*
X163296544Y-79131587D01*
X163296544Y-79131587D02*
X163391782Y-79131587D01*
X162010830Y-79131587D02*
X162582258Y-79131587D01*
X162296544Y-79131587D02*
X162296544Y-78131587D01*
X162296544Y-78131587D02*
X162391782Y-78274444D01*
X162391782Y-78274444D02*
X162487020Y-78369682D01*
X162487020Y-78369682D02*
X162582258Y-78417301D01*
X161153687Y-78464920D02*
X161153687Y-79131587D01*
X161391782Y-78083968D02*
X161629877Y-78798253D01*
X161629877Y-78798253D02*
X161010830Y-78798253D01*
X188140830Y-76891587D02*
X188140830Y-77605872D01*
X188140830Y-77605872D02*
X188188449Y-77748729D01*
X188188449Y-77748729D02*
X188283687Y-77843968D01*
X188283687Y-77843968D02*
X188426544Y-77891587D01*
X188426544Y-77891587D02*
X188521782Y-77891587D01*
X187140830Y-77891587D02*
X187712258Y-77891587D01*
X187426544Y-77891587D02*
X187426544Y-76891587D01*
X187426544Y-76891587D02*
X187521782Y-77034444D01*
X187521782Y-77034444D02*
X187617020Y-77129682D01*
X187617020Y-77129682D02*
X187712258Y-77177301D01*
X186569401Y-77320158D02*
X186664639Y-77272539D01*
X186664639Y-77272539D02*
X186712258Y-77224920D01*
X186712258Y-77224920D02*
X186759877Y-77129682D01*
X186759877Y-77129682D02*
X186759877Y-77082063D01*
X186759877Y-77082063D02*
X186712258Y-76986825D01*
X186712258Y-76986825D02*
X186664639Y-76939206D01*
X186664639Y-76939206D02*
X186569401Y-76891587D01*
X186569401Y-76891587D02*
X186378925Y-76891587D01*
X186378925Y-76891587D02*
X186283687Y-76939206D01*
X186283687Y-76939206D02*
X186236068Y-76986825D01*
X186236068Y-76986825D02*
X186188449Y-77082063D01*
X186188449Y-77082063D02*
X186188449Y-77129682D01*
X186188449Y-77129682D02*
X186236068Y-77224920D01*
X186236068Y-77224920D02*
X186283687Y-77272539D01*
X186283687Y-77272539D02*
X186378925Y-77320158D01*
X186378925Y-77320158D02*
X186569401Y-77320158D01*
X186569401Y-77320158D02*
X186664639Y-77367777D01*
X186664639Y-77367777D02*
X186712258Y-77415396D01*
X186712258Y-77415396D02*
X186759877Y-77510634D01*
X186759877Y-77510634D02*
X186759877Y-77701110D01*
X186759877Y-77701110D02*
X186712258Y-77796348D01*
X186712258Y-77796348D02*
X186664639Y-77843968D01*
X186664639Y-77843968D02*
X186569401Y-77891587D01*
X186569401Y-77891587D02*
X186378925Y-77891587D01*
X186378925Y-77891587D02*
X186283687Y-77843968D01*
X186283687Y-77843968D02*
X186236068Y-77796348D01*
X186236068Y-77796348D02*
X186188449Y-77701110D01*
X186188449Y-77701110D02*
X186188449Y-77510634D01*
X186188449Y-77510634D02*
X186236068Y-77415396D01*
X186236068Y-77415396D02*
X186283687Y-77367777D01*
X186283687Y-77367777D02*
X186378925Y-77320158D01*
X173055115Y-89271587D02*
X173055115Y-88271587D01*
X173055115Y-88271587D02*
X172721782Y-88985872D01*
X172721782Y-88985872D02*
X172388449Y-88271587D01*
X172388449Y-88271587D02*
X172388449Y-89271587D01*
X171959877Y-88366825D02*
X171912258Y-88319206D01*
X171912258Y-88319206D02*
X171817020Y-88271587D01*
X171817020Y-88271587D02*
X171578925Y-88271587D01*
X171578925Y-88271587D02*
X171483687Y-88319206D01*
X171483687Y-88319206D02*
X171436068Y-88366825D01*
X171436068Y-88366825D02*
X171388449Y-88462063D01*
X171388449Y-88462063D02*
X171388449Y-88557301D01*
X171388449Y-88557301D02*
X171436068Y-88700158D01*
X171436068Y-88700158D02*
X172007496Y-89271587D01*
X172007496Y-89271587D02*
X171388449Y-89271587D01*
X170959877Y-89176348D02*
X170912258Y-89223968D01*
X170912258Y-89223968D02*
X170959877Y-89271587D01*
X170959877Y-89271587D02*
X171007496Y-89223968D01*
X171007496Y-89223968D02*
X170959877Y-89176348D01*
X170959877Y-89176348D02*
X170959877Y-89271587D01*
X170007497Y-88271587D02*
X170483687Y-88271587D01*
X170483687Y-88271587D02*
X170531306Y-88747777D01*
X170531306Y-88747777D02*
X170483687Y-88700158D01*
X170483687Y-88700158D02*
X170388449Y-88652539D01*
X170388449Y-88652539D02*
X170150354Y-88652539D01*
X170150354Y-88652539D02*
X170055116Y-88700158D01*
X170055116Y-88700158D02*
X170007497Y-88747777D01*
X170007497Y-88747777D02*
X169959878Y-88843015D01*
X169959878Y-88843015D02*
X169959878Y-89081110D01*
X169959878Y-89081110D02*
X170007497Y-89176348D01*
X170007497Y-89176348D02*
X170055116Y-89223968D01*
X170055116Y-89223968D02*
X170150354Y-89271587D01*
X170150354Y-89271587D02*
X170388449Y-89271587D01*
X170388449Y-89271587D02*
X170483687Y-89223968D01*
X170483687Y-89223968D02*
X170531306Y-89176348D01*
X198555115Y-72631587D02*
X198555115Y-71631587D01*
X198555115Y-71631587D02*
X198221782Y-72345872D01*
X198221782Y-72345872D02*
X197888449Y-71631587D01*
X197888449Y-71631587D02*
X197888449Y-72631587D01*
X197459877Y-71726825D02*
X197412258Y-71679206D01*
X197412258Y-71679206D02*
X197317020Y-71631587D01*
X197317020Y-71631587D02*
X197078925Y-71631587D01*
X197078925Y-71631587D02*
X196983687Y-71679206D01*
X196983687Y-71679206D02*
X196936068Y-71726825D01*
X196936068Y-71726825D02*
X196888449Y-71822063D01*
X196888449Y-71822063D02*
X196888449Y-71917301D01*
X196888449Y-71917301D02*
X196936068Y-72060158D01*
X196936068Y-72060158D02*
X197507496Y-72631587D01*
X197507496Y-72631587D02*
X196888449Y-72631587D01*
X196459877Y-72536348D02*
X196412258Y-72583968D01*
X196412258Y-72583968D02*
X196459877Y-72631587D01*
X196459877Y-72631587D02*
X196507496Y-72583968D01*
X196507496Y-72583968D02*
X196459877Y-72536348D01*
X196459877Y-72536348D02*
X196459877Y-72631587D01*
X195507497Y-71631587D02*
X195983687Y-71631587D01*
X195983687Y-71631587D02*
X196031306Y-72107777D01*
X196031306Y-72107777D02*
X195983687Y-72060158D01*
X195983687Y-72060158D02*
X195888449Y-72012539D01*
X195888449Y-72012539D02*
X195650354Y-72012539D01*
X195650354Y-72012539D02*
X195555116Y-72060158D01*
X195555116Y-72060158D02*
X195507497Y-72107777D01*
X195507497Y-72107777D02*
X195459878Y-72203015D01*
X195459878Y-72203015D02*
X195459878Y-72441110D01*
X195459878Y-72441110D02*
X195507497Y-72536348D01*
X195507497Y-72536348D02*
X195555116Y-72583968D01*
X195555116Y-72583968D02*
X195650354Y-72631587D01*
X195650354Y-72631587D02*
X195888449Y-72631587D01*
X195888449Y-72631587D02*
X195983687Y-72583968D01*
X195983687Y-72583968D02*
X196031306Y-72536348D01*
X126579523Y-81224819D02*
X126579523Y-81939104D01*
X126579523Y-81939104D02*
X126627142Y-82081961D01*
X126627142Y-82081961D02*
X126722380Y-82177200D01*
X126722380Y-82177200D02*
X126865237Y-82224819D01*
X126865237Y-82224819D02*
X126960475Y-82224819D01*
X125579523Y-82224819D02*
X126150951Y-82224819D01*
X125865237Y-82224819D02*
X125865237Y-81224819D01*
X125865237Y-81224819D02*
X125960475Y-81367676D01*
X125960475Y-81367676D02*
X126055713Y-81462914D01*
X126055713Y-81462914D02*
X126150951Y-81510533D01*
X125103332Y-82224819D02*
X124912856Y-82224819D01*
X124912856Y-82224819D02*
X124817618Y-82177200D01*
X124817618Y-82177200D02*
X124769999Y-82129580D01*
X124769999Y-82129580D02*
X124674761Y-81986723D01*
X124674761Y-81986723D02*
X124627142Y-81796247D01*
X124627142Y-81796247D02*
X124627142Y-81415295D01*
X124627142Y-81415295D02*
X124674761Y-81320057D01*
X124674761Y-81320057D02*
X124722380Y-81272438D01*
X124722380Y-81272438D02*
X124817618Y-81224819D01*
X124817618Y-81224819D02*
X125008094Y-81224819D01*
X125008094Y-81224819D02*
X125103332Y-81272438D01*
X125103332Y-81272438D02*
X125150951Y-81320057D01*
X125150951Y-81320057D02*
X125198570Y-81415295D01*
X125198570Y-81415295D02*
X125198570Y-81653390D01*
X125198570Y-81653390D02*
X125150951Y-81748628D01*
X125150951Y-81748628D02*
X125103332Y-81796247D01*
X125103332Y-81796247D02*
X125008094Y-81843866D01*
X125008094Y-81843866D02*
X124817618Y-81843866D01*
X124817618Y-81843866D02*
X124722380Y-81796247D01*
X124722380Y-81796247D02*
X124674761Y-81748628D01*
X124674761Y-81748628D02*
X124627142Y-81653390D01*
D12*
%TO.C,J17*%
X180411307Y-73296768D02*
X180411307Y-72046768D01*
X180711307Y-68276768D02*
X192831307Y-68276768D01*
X180711307Y-70386768D02*
X181321307Y-70386768D01*
X180711307Y-71686768D02*
X181321307Y-71686768D01*
X180711307Y-72996768D02*
X180711307Y-68276768D01*
X181321307Y-68886768D02*
X192221307Y-68886768D01*
X181321307Y-72386768D02*
X181321307Y-68886768D01*
X181661307Y-73296768D02*
X180411307Y-73296768D01*
X182171307Y-73196768D02*
X182171307Y-72996768D01*
X182471307Y-72996768D02*
X182471307Y-73196768D01*
X182471307Y-73096768D02*
X182171307Y-73096768D01*
X182471307Y-73196768D02*
X182171307Y-73196768D01*
X183271307Y-72386768D02*
X181321307Y-72386768D01*
X183271307Y-72996768D02*
X183271307Y-72386768D01*
X183671307Y-68886768D02*
X183671307Y-69386768D01*
X183671307Y-69386768D02*
X183871307Y-69386768D01*
X183771307Y-68886768D02*
X183771307Y-69386768D01*
X183871307Y-69386768D02*
X183871307Y-68886768D01*
X185671307Y-68886768D02*
X185671307Y-69386768D01*
X185671307Y-69386768D02*
X185871307Y-69386768D01*
X185771307Y-68886768D02*
X185771307Y-69386768D01*
X185871307Y-69386768D02*
X185871307Y-68886768D01*
X187671307Y-68886768D02*
X187671307Y-69386768D01*
X187671307Y-69386768D02*
X187871307Y-69386768D01*
X187771307Y-68886768D02*
X187771307Y-69386768D01*
X187871307Y-69386768D02*
X187871307Y-68886768D01*
X189671307Y-68886768D02*
X189671307Y-69386768D01*
X189671307Y-69386768D02*
X189871307Y-69386768D01*
X189771307Y-68886768D02*
X189771307Y-69386768D01*
X189871307Y-69386768D02*
X189871307Y-68886768D01*
X190271307Y-72386768D02*
X190271307Y-72996768D01*
X192221307Y-68886768D02*
X192221307Y-72386768D01*
X192221307Y-72386768D02*
X190271307Y-72386768D01*
X192831307Y-68276768D02*
X192831307Y-72996768D01*
X192831307Y-70386768D02*
X192221307Y-70386768D01*
X192831307Y-71686768D02*
X192221307Y-71686768D01*
X192831307Y-72996768D02*
X180711307Y-72996768D01*
%TO.C,J11*%
X166068941Y-67406768D02*
X172188941Y-67406768D01*
X166068941Y-68716768D02*
X166678941Y-68716768D01*
X166068941Y-70016768D02*
X166678941Y-70016768D01*
X166068941Y-72126768D02*
X166068941Y-67406768D01*
X166678941Y-68016768D02*
X168628941Y-68016768D01*
X166678941Y-71516768D02*
X166678941Y-68016768D01*
X168628941Y-68016768D02*
X168628941Y-67406768D01*
X169028941Y-71016768D02*
X169028941Y-71516768D01*
X169128941Y-71516768D02*
X169128941Y-71016768D01*
X169228941Y-71016768D02*
X169028941Y-71016768D01*
X169228941Y-71516768D02*
X169228941Y-71016768D01*
X169628941Y-67406768D02*
X169628941Y-68016768D01*
X169628941Y-68016768D02*
X171578941Y-68016768D01*
X170428941Y-67206768D02*
X170728941Y-67206768D01*
X170428941Y-67306768D02*
X170728941Y-67306768D01*
X170428941Y-67406768D02*
X170428941Y-67206768D01*
X170728941Y-67206768D02*
X170728941Y-67406768D01*
X171238941Y-67106768D02*
X172488941Y-67106768D01*
X171578941Y-68016768D02*
X171578941Y-71516768D01*
X171578941Y-71516768D02*
X166678941Y-71516768D01*
X172188941Y-67406768D02*
X172188941Y-72126768D01*
X172188941Y-68716768D02*
X171578941Y-68716768D01*
X172188941Y-70016768D02*
X171578941Y-70016768D01*
X172188941Y-72126768D02*
X166068941Y-72126768D01*
X172488941Y-67106768D02*
X172488941Y-68356768D01*
%TO.C,J13*%
X152188941Y-67406768D02*
X158308941Y-67406768D01*
X152188941Y-68716768D02*
X152798941Y-68716768D01*
X152188941Y-70016768D02*
X152798941Y-70016768D01*
X152188941Y-72126768D02*
X152188941Y-67406768D01*
X152798941Y-68016768D02*
X154748941Y-68016768D01*
X152798941Y-71516768D02*
X152798941Y-68016768D01*
X154748941Y-68016768D02*
X154748941Y-67406768D01*
X155148941Y-71016768D02*
X155148941Y-71516768D01*
X155248941Y-71516768D02*
X155248941Y-71016768D01*
X155348941Y-71016768D02*
X155148941Y-71016768D01*
X155348941Y-71516768D02*
X155348941Y-71016768D01*
X155748941Y-67406768D02*
X155748941Y-68016768D01*
X155748941Y-68016768D02*
X157698941Y-68016768D01*
X156548941Y-67206768D02*
X156848941Y-67206768D01*
X156548941Y-67306768D02*
X156848941Y-67306768D01*
X156548941Y-67406768D02*
X156548941Y-67206768D01*
X156848941Y-67206768D02*
X156848941Y-67406768D01*
X157358941Y-67106768D02*
X158608941Y-67106768D01*
X157698941Y-68016768D02*
X157698941Y-71516768D01*
X157698941Y-71516768D02*
X152798941Y-71516768D01*
X158308941Y-67406768D02*
X158308941Y-72126768D01*
X158308941Y-68716768D02*
X157698941Y-68716768D01*
X158308941Y-70016768D02*
X157698941Y-70016768D01*
X158308941Y-72126768D02*
X152188941Y-72126768D01*
X158608941Y-67106768D02*
X158608941Y-68356768D01*
%TO.C,J16*%
X168941307Y-72906768D02*
X173661307Y-72906768D01*
X168941307Y-85026768D02*
X168941307Y-72906768D01*
X169551307Y-73516768D02*
X173051307Y-73516768D01*
X169551307Y-75966768D02*
X170051307Y-75966768D01*
X169551307Y-76066768D02*
X170051307Y-76066768D01*
X169551307Y-77966768D02*
X170051307Y-77966768D01*
X169551307Y-78066768D02*
X170051307Y-78066768D01*
X169551307Y-79966768D02*
X170051307Y-79966768D01*
X169551307Y-80066768D02*
X170051307Y-80066768D01*
X169551307Y-81966768D02*
X170051307Y-81966768D01*
X169551307Y-82066768D02*
X170051307Y-82066768D01*
X169551307Y-84416768D02*
X169551307Y-73516768D01*
X170051307Y-75866768D02*
X169551307Y-75866768D01*
X170051307Y-76066768D02*
X170051307Y-75866768D01*
X170051307Y-77866768D02*
X169551307Y-77866768D01*
X170051307Y-78066768D02*
X170051307Y-77866768D01*
X170051307Y-79866768D02*
X169551307Y-79866768D01*
X170051307Y-80066768D02*
X170051307Y-79866768D01*
X170051307Y-81866768D02*
X169551307Y-81866768D01*
X170051307Y-82066768D02*
X170051307Y-81866768D01*
X171051307Y-72906768D02*
X171051307Y-73516768D01*
X171051307Y-85026768D02*
X171051307Y-84416768D01*
X172351307Y-72906768D02*
X172351307Y-73516768D01*
X172351307Y-85026768D02*
X172351307Y-84416768D01*
X173051307Y-73516768D02*
X173051307Y-75466768D01*
X173051307Y-75466768D02*
X173661307Y-75466768D01*
X173051307Y-82466768D02*
X173051307Y-84416768D01*
X173051307Y-84416768D02*
X169551307Y-84416768D01*
X173661307Y-72906768D02*
X173661307Y-85026768D01*
X173661307Y-82466768D02*
X173051307Y-82466768D01*
X173661307Y-83266768D02*
X173861307Y-83266768D01*
X173661307Y-85026768D02*
X168941307Y-85026768D01*
X173761307Y-83266768D02*
X173761307Y-83566768D01*
X173861307Y-83266768D02*
X173861307Y-83566768D01*
X173861307Y-83566768D02*
X173661307Y-83566768D01*
X173961307Y-84076768D02*
X173961307Y-85326768D01*
X173961307Y-85326768D02*
X172711307Y-85326768D01*
%TO.C,J10*%
X174911307Y-84026768D02*
X176161307Y-84026768D01*
X174911307Y-85276768D02*
X174911307Y-84026768D01*
X175011307Y-85786768D02*
X175211307Y-85786768D01*
X175011307Y-86086768D02*
X175011307Y-85786768D01*
X175111307Y-86086768D02*
X175111307Y-85786768D01*
X175211307Y-84326768D02*
X179931307Y-84326768D01*
X175211307Y-86086768D02*
X175011307Y-86086768D01*
X175211307Y-86886768D02*
X175821307Y-86886768D01*
X175211307Y-90446768D02*
X175211307Y-84326768D01*
X175821307Y-84936768D02*
X179321307Y-84936768D01*
X175821307Y-86886768D02*
X175821307Y-84936768D01*
X175821307Y-87886768D02*
X175211307Y-87886768D01*
X175821307Y-89836768D02*
X175821307Y-87886768D01*
X176521307Y-84326768D02*
X176521307Y-84936768D01*
X176521307Y-90446768D02*
X176521307Y-89836768D01*
X177821307Y-84326768D02*
X177821307Y-84936768D01*
X177821307Y-90446768D02*
X177821307Y-89836768D01*
X178821307Y-87286768D02*
X178821307Y-87486768D01*
X178821307Y-87486768D02*
X179321307Y-87486768D01*
X179321307Y-84936768D02*
X179321307Y-89836768D01*
X179321307Y-87286768D02*
X178821307Y-87286768D01*
X179321307Y-87386768D02*
X178821307Y-87386768D01*
X179321307Y-89836768D02*
X175821307Y-89836768D01*
X179931307Y-84326768D02*
X179931307Y-90446768D01*
X179931307Y-90446768D02*
X175211307Y-90446768D01*
%TO.C,J15*%
X167171307Y-54206768D02*
X168421307Y-54206768D01*
X167171307Y-55456768D02*
X167171307Y-54206768D01*
X167271307Y-55966768D02*
X167471307Y-55966768D01*
X167271307Y-56266768D02*
X167271307Y-55966768D01*
X167371307Y-56266768D02*
X167371307Y-55966768D01*
X167471307Y-54506768D02*
X172191307Y-54506768D01*
X167471307Y-56266768D02*
X167271307Y-56266768D01*
X167471307Y-57066768D02*
X168081307Y-57066768D01*
X167471307Y-66626768D02*
X167471307Y-54506768D01*
X168081307Y-55116768D02*
X171581307Y-55116768D01*
X168081307Y-57066768D02*
X168081307Y-55116768D01*
X168081307Y-64066768D02*
X167471307Y-64066768D01*
X168081307Y-66016768D02*
X168081307Y-64066768D01*
X168781307Y-54506768D02*
X168781307Y-55116768D01*
X168781307Y-66626768D02*
X168781307Y-66016768D01*
X170081307Y-54506768D02*
X170081307Y-55116768D01*
X170081307Y-66626768D02*
X170081307Y-66016768D01*
X171081307Y-57466768D02*
X171081307Y-57666768D01*
X171081307Y-57666768D02*
X171581307Y-57666768D01*
X171081307Y-59466768D02*
X171081307Y-59666768D01*
X171081307Y-59666768D02*
X171581307Y-59666768D01*
X171081307Y-61466768D02*
X171081307Y-61666768D01*
X171081307Y-61666768D02*
X171581307Y-61666768D01*
X171081307Y-63466768D02*
X171081307Y-63666768D01*
X171081307Y-63666768D02*
X171581307Y-63666768D01*
X171581307Y-55116768D02*
X171581307Y-66016768D01*
X171581307Y-57466768D02*
X171081307Y-57466768D01*
X171581307Y-57566768D02*
X171081307Y-57566768D01*
X171581307Y-59466768D02*
X171081307Y-59466768D01*
X171581307Y-59566768D02*
X171081307Y-59566768D01*
X171581307Y-61466768D02*
X171081307Y-61466768D01*
X171581307Y-61566768D02*
X171081307Y-61566768D01*
X171581307Y-63466768D02*
X171081307Y-63466768D01*
X171581307Y-63566768D02*
X171081307Y-63566768D01*
X171581307Y-66016768D02*
X168081307Y-66016768D01*
X172191307Y-54506768D02*
X172191307Y-66626768D01*
X172191307Y-66626768D02*
X167471307Y-66626768D01*
%TO.C,J12*%
X159128941Y-67406768D02*
X165248941Y-67406768D01*
X159128941Y-68716768D02*
X159738941Y-68716768D01*
X159128941Y-70016768D02*
X159738941Y-70016768D01*
X159128941Y-72126768D02*
X159128941Y-67406768D01*
X159738941Y-68016768D02*
X161688941Y-68016768D01*
X159738941Y-71516768D02*
X159738941Y-68016768D01*
X161688941Y-68016768D02*
X161688941Y-67406768D01*
X162088941Y-71016768D02*
X162088941Y-71516768D01*
X162188941Y-71516768D02*
X162188941Y-71016768D01*
X162288941Y-71016768D02*
X162088941Y-71016768D01*
X162288941Y-71516768D02*
X162288941Y-71016768D01*
X162688941Y-67406768D02*
X162688941Y-68016768D01*
X162688941Y-68016768D02*
X164638941Y-68016768D01*
X163488941Y-67206768D02*
X163788941Y-67206768D01*
X163488941Y-67306768D02*
X163788941Y-67306768D01*
X163488941Y-67406768D02*
X163488941Y-67206768D01*
X163788941Y-67206768D02*
X163788941Y-67406768D01*
X164298941Y-67106768D02*
X165548941Y-67106768D01*
X164638941Y-68016768D02*
X164638941Y-71516768D01*
X164638941Y-71516768D02*
X159738941Y-71516768D01*
X165248941Y-67406768D02*
X165248941Y-72126768D01*
X165248941Y-68716768D02*
X164638941Y-68716768D01*
X165248941Y-70016768D02*
X164638941Y-70016768D01*
X165248941Y-72126768D02*
X159128941Y-72126768D01*
X165548941Y-67106768D02*
X165548941Y-68356768D01*
%TO.C,J14*%
X159119893Y-72926768D02*
X165239893Y-72926768D01*
X159119893Y-74236768D02*
X159729893Y-74236768D01*
X159119893Y-75536768D02*
X159729893Y-75536768D01*
X159119893Y-77646768D02*
X159119893Y-72926768D01*
X159729893Y-73536768D02*
X161679893Y-73536768D01*
X159729893Y-77036768D02*
X159729893Y-73536768D01*
X161679893Y-73536768D02*
X161679893Y-72926768D01*
X162079893Y-76536768D02*
X162079893Y-77036768D01*
X162179893Y-77036768D02*
X162179893Y-76536768D01*
X162279893Y-76536768D02*
X162079893Y-76536768D01*
X162279893Y-77036768D02*
X162279893Y-76536768D01*
X162679893Y-72926768D02*
X162679893Y-73536768D01*
X162679893Y-73536768D02*
X164629893Y-73536768D01*
X163479893Y-72726768D02*
X163779893Y-72726768D01*
X163479893Y-72826768D02*
X163779893Y-72826768D01*
X163479893Y-72926768D02*
X163479893Y-72726768D01*
X163779893Y-72726768D02*
X163779893Y-72926768D01*
X164289893Y-72626768D02*
X165539893Y-72626768D01*
X164629893Y-73536768D02*
X164629893Y-77036768D01*
X164629893Y-77036768D02*
X159729893Y-77036768D01*
X165239893Y-72926768D02*
X165239893Y-77646768D01*
X165239893Y-74236768D02*
X164629893Y-74236768D01*
X165239893Y-75536768D02*
X164629893Y-75536768D01*
X165239893Y-77646768D02*
X159119893Y-77646768D01*
X165539893Y-72626768D02*
X165539893Y-73876768D01*
%TO.C,J18*%
X181271307Y-78526768D02*
X193391307Y-78526768D01*
X181271307Y-79836768D02*
X181881307Y-79836768D01*
X181271307Y-81136768D02*
X181881307Y-81136768D01*
X181271307Y-83246768D02*
X181271307Y-78526768D01*
X181881307Y-79136768D02*
X183831307Y-79136768D01*
X181881307Y-82636768D02*
X181881307Y-79136768D01*
X183831307Y-79136768D02*
X183831307Y-78526768D01*
X184231307Y-82136768D02*
X184231307Y-82636768D01*
X184331307Y-82636768D02*
X184331307Y-82136768D01*
X184431307Y-82136768D02*
X184231307Y-82136768D01*
X184431307Y-82636768D02*
X184431307Y-82136768D01*
X186231307Y-82136768D02*
X186231307Y-82636768D01*
X186331307Y-82636768D02*
X186331307Y-82136768D01*
X186431307Y-82136768D02*
X186231307Y-82136768D01*
X186431307Y-82636768D02*
X186431307Y-82136768D01*
X188231307Y-82136768D02*
X188231307Y-82636768D01*
X188331307Y-82636768D02*
X188331307Y-82136768D01*
X188431307Y-82136768D02*
X188231307Y-82136768D01*
X188431307Y-82636768D02*
X188431307Y-82136768D01*
X190231307Y-82136768D02*
X190231307Y-82636768D01*
X190331307Y-82636768D02*
X190331307Y-82136768D01*
X190431307Y-82136768D02*
X190231307Y-82136768D01*
X190431307Y-82636768D02*
X190431307Y-82136768D01*
X190831307Y-78526768D02*
X190831307Y-79136768D01*
X190831307Y-79136768D02*
X192781307Y-79136768D01*
X191631307Y-78326768D02*
X191931307Y-78326768D01*
X191631307Y-78426768D02*
X191931307Y-78426768D01*
X191631307Y-78526768D02*
X191631307Y-78326768D01*
X191931307Y-78326768D02*
X191931307Y-78526768D01*
X192441307Y-78226768D02*
X193691307Y-78226768D01*
X192781307Y-79136768D02*
X192781307Y-82636768D01*
X192781307Y-82636768D02*
X181881307Y-82636768D01*
X193391307Y-78526768D02*
X193391307Y-83246768D01*
X193391307Y-79836768D02*
X192781307Y-79836768D01*
X193391307Y-81136768D02*
X192781307Y-81136768D01*
X193391307Y-83246768D02*
X181271307Y-83246768D01*
X193691307Y-78226768D02*
X193691307Y-79476768D01*
%TO.C,J19*%
X119710000Y-82860000D02*
X131830000Y-82860000D01*
X119710000Y-84170000D02*
X120320000Y-84170000D01*
X119710000Y-85470000D02*
X120320000Y-85470000D01*
X119710000Y-87580000D02*
X119710000Y-82860000D01*
X120320000Y-83470000D02*
X122270000Y-83470000D01*
X120320000Y-86970000D02*
X120320000Y-83470000D01*
X122270000Y-83470000D02*
X122270000Y-82860000D01*
X122670000Y-86470000D02*
X122670000Y-86970000D01*
X122770000Y-86970000D02*
X122770000Y-86470000D01*
X122870000Y-86470000D02*
X122670000Y-86470000D01*
X122870000Y-86970000D02*
X122870000Y-86470000D01*
X124670000Y-86470000D02*
X124670000Y-86970000D01*
X124770000Y-86970000D02*
X124770000Y-86470000D01*
X124870000Y-86470000D02*
X124670000Y-86470000D01*
X124870000Y-86970000D02*
X124870000Y-86470000D01*
X126670000Y-86470000D02*
X126670000Y-86970000D01*
X126770000Y-86970000D02*
X126770000Y-86470000D01*
X126870000Y-86470000D02*
X126670000Y-86470000D01*
X126870000Y-86970000D02*
X126870000Y-86470000D01*
X128670000Y-86470000D02*
X128670000Y-86970000D01*
X128770000Y-86970000D02*
X128770000Y-86470000D01*
X128870000Y-86470000D02*
X128670000Y-86470000D01*
X128870000Y-86970000D02*
X128870000Y-86470000D01*
X129270000Y-82860000D02*
X129270000Y-83470000D01*
X129270000Y-83470000D02*
X131220000Y-83470000D01*
X130070000Y-82660000D02*
X130370000Y-82660000D01*
X130070000Y-82760000D02*
X130370000Y-82760000D01*
X130070000Y-82860000D02*
X130070000Y-82660000D01*
X130370000Y-82660000D02*
X130370000Y-82860000D01*
X130880000Y-82560000D02*
X132130000Y-82560000D01*
X131220000Y-83470000D02*
X131220000Y-86970000D01*
X131220000Y-86970000D02*
X120320000Y-86970000D01*
X131830000Y-82860000D02*
X131830000Y-87580000D01*
X131830000Y-84170000D02*
X131220000Y-84170000D01*
X131830000Y-85470000D02*
X131220000Y-85470000D01*
X131830000Y-87580000D02*
X119710000Y-87580000D01*
X132130000Y-82560000D02*
X132130000Y-83810000D01*
%TD*%
M02*
