M48
; DRILL file {KiCad 9.0.6} date 2026-04-26T23:15:58-0400
; FORMAT={-:-/ absolute / metric / decimal}
; #@! TF.CreationDate,2026-04-26T23:15:58-04:00
; #@! TF.GenerationSoftware,Kicad,Pcbnew,9.0.6
; #@! TF.FileFunction,MixedPlating,1,2
FMAT,2
METRIC
; #@! TA.AperFunction,Plated,PTH,ViaDrill
T1C0.300
; #@! TA.AperFunction,Plated,PTH,ViaDrill
T2C0.500
; #@! TA.AperFunction,Plated,PTH,ComponentDrill
T3C0.700
; #@! TA.AperFunction,Plated,PTH,ComponentDrill
T4C0.750
; #@! TA.AperFunction,Plated,PTH,ComponentDrill
T5C0.800
; #@! TA.AperFunction,Plated,PTH,ComponentDrill
T6C0.920
; #@! TA.AperFunction,Plated,PTH,ComponentDrill
T7C1.100
; #@! TA.AperFunction,Plated,PTH,ComponentDrill
T8C1.500
; #@! TA.AperFunction,Plated,PTH,ComponentDrill
T9C2.300
; #@! TA.AperFunction,Plated,PTH,ComponentDrill
T10C2.700
; #@! TA.AperFunction,NonPlated,NPTH,ComponentDrill
T11C2.200
%
G90
G05
T1
X125.6Y-135.34
X149.6Y-115.03
T2
X123.27Y-67.72
T3
X157.82Y-136.27
X162.9Y-136.27
X177.06Y-133.78
X177.07Y-130.77
X182.14Y-133.78
X182.15Y-130.77
T4
X107.31Y-111.62
X107.31Y-113.62
X112.81Y-142.35
X112.81Y-144.35
X112.81Y-146.35
X112.81Y-148.35
X112.81Y-150.35
X112.819Y-129.44
X112.819Y-131.44
X112.819Y-133.44
X112.819Y-135.44
X112.819Y-137.44
X112.82Y-111.62
X112.82Y-113.62
X112.82Y-115.62
X112.82Y-120.53
X112.82Y-122.53
X112.82Y-124.53
X114.6Y-105.77
X116.6Y-105.77
X118.6Y-105.77
X121.77Y-84.67
X123.77Y-84.67
X125.77Y-84.67
X127.77Y-84.67
X129.77Y-84.67
X153.6Y-131.77
X154.249Y-69.217
X155.6Y-131.77
X156.249Y-69.217
X160.6Y-131.77
X161.18Y-74.737
X161.189Y-69.217
X162.6Y-131.77
X163.18Y-74.737
X163.189Y-69.217
X167.61Y-131.78
X168.129Y-69.217
X169.281Y-56.567
X169.281Y-58.567
X169.281Y-60.567
X169.281Y-62.567
X169.281Y-64.567
X169.61Y-131.78
X170.129Y-69.217
X171.851Y-74.967
X171.851Y-76.967
X171.851Y-78.967
X171.851Y-80.967
X171.851Y-82.967
X177.021Y-86.387
X177.021Y-88.387
X179.114Y-104.83
X179.114Y-106.83
X179.114Y-108.83
X179.114Y-110.83
X179.114Y-112.83
X179.114Y-117.83
X179.114Y-119.83
X179.114Y-121.83
X179.114Y-123.83
X179.114Y-125.83
X182.771Y-71.187
X183.331Y-80.337
X184.771Y-71.187
X185.331Y-80.337
X186.771Y-71.187
X187.331Y-80.337
X188.771Y-71.187
X189.331Y-80.337
X190.771Y-71.187
X191.331Y-80.337
X199.62Y-124.199
X199.62Y-126.199
X199.62Y-128.199
X199.62Y-130.199
X199.62Y-132.199
X199.621Y-111.285
X199.621Y-113.285
X199.621Y-115.285
X199.621Y-117.285
X199.621Y-119.285
T5
X124.67Y-103.6
X124.67Y-106.14
X124.67Y-108.68
X124.67Y-111.22
X124.67Y-113.76
X124.67Y-116.3
X124.67Y-118.84
X124.67Y-121.38
X124.67Y-123.92
X124.67Y-126.46
X124.67Y-129.0
X124.67Y-131.54
X124.67Y-134.08
X124.67Y-136.62
X124.67Y-139.16
X124.67Y-141.7
X147.53Y-103.6
X147.53Y-106.14
X147.53Y-108.68
X147.53Y-111.22
X147.53Y-113.76
X147.53Y-116.3
X147.53Y-118.84
X147.53Y-121.38
X147.53Y-123.92
X147.53Y-126.46
X147.53Y-129.0
X147.53Y-131.54
X147.53Y-134.08
X147.53Y-136.62
X147.53Y-139.16
X147.53Y-141.7
X185.815Y-103.75
X185.815Y-106.29
X185.815Y-108.83
X185.815Y-111.37
X185.815Y-113.91
X185.815Y-116.45
X185.815Y-118.99
X185.815Y-121.53
X185.815Y-124.07
X185.815Y-126.61
X185.815Y-129.15
X185.815Y-131.69
X185.815Y-134.23
X185.815Y-136.77
X193.435Y-103.75
X193.435Y-106.29
X193.435Y-108.83
X193.435Y-111.37
X193.435Y-113.91
X193.435Y-116.45
X193.435Y-118.99
X193.435Y-121.53
X193.435Y-124.07
X193.435Y-126.61
X193.435Y-129.15
X193.435Y-131.69
X193.435Y-134.23
X193.435Y-136.77
T6
X156.86Y-139.32
X156.86Y-141.94
X159.36Y-139.32
X159.36Y-141.94
X161.36Y-139.32
X161.36Y-141.94
X163.86Y-139.32
X163.86Y-141.94
T7
X122.52Y-76.28
X122.52Y-80.87
X123.27Y-62.02
X125.77Y-62.02
X128.27Y-62.02
X129.02Y-76.28
X129.02Y-80.87
X134.47Y-68.22
X134.47Y-70.72
X134.47Y-73.22
X156.05Y-80.707
X156.05Y-83.507
X156.05Y-87.207
X156.96Y-59.747
X156.96Y-64.247
X163.46Y-59.747
X163.46Y-64.247
X166.55Y-80.707
X166.55Y-83.507
X166.55Y-87.207
X182.021Y-85.637
X182.021Y-88.437
X182.021Y-92.137
X182.321Y-59.387
X182.321Y-62.187
X182.321Y-65.887
X192.521Y-85.637
X192.521Y-88.437
X192.521Y-92.137
X192.821Y-59.387
X192.821Y-62.187
X192.821Y-65.887
T8
X119.445Y-65.72
X119.445Y-75.72
X132.095Y-65.72
X132.095Y-75.72
T9
X153.79Y-138.97
X153.79Y-144.65
X166.93Y-138.97
X166.93Y-144.65
T10
X106.62Y-103.98
X106.62Y-150.98
X171.521Y-92.137
X177.021Y-54.387
X195.521Y-75.387
X199.62Y-103.92
X199.62Y-150.92
T11
X118.52Y-79.97
X133.27Y-79.97
M30
