%TF.GenerationSoftware,KiCad,Pcbnew,9.0.6*%
%TF.CreationDate,2026-04-26T23:15:55-04:00*%
%TF.ProjectId,Combined Board,436f6d62-696e-4656-9420-426f6172642e,rev?*%
%TF.SameCoordinates,Original*%
%TF.FileFunction,Soldermask,Bot*%
%TF.FilePolarity,Negative*%
%FSLAX46Y46*%
G04 Gerber Fmt 4.6, Leading zero omitted, Abs format (unit mm)*
G04 Created by KiCad (PCBNEW 9.0.6) date 2026-04-26 23:15:55*
%MOMM*%
%LPD*%
G01*
G04 APERTURE LIST*
G04 Aperture macros list*
%AMRoundRect*
0 Rectangle with rounded corners*
0 $1 Rounding radius*
0 $2 $3 $4 $5 $6 $7 $8 $9 X,Y pos of 4 corners*
0 Add a 4 corners polygon primitive as box body*
4,1,4,$2,$3,$4,$5,$6,$7,$8,$9,$2,$3,0*
0 Add four circle primitives for the rounded corners*
1,1,$1+$1,$2,$3*
1,1,$1+$1,$4,$5*
1,1,$1+$1,$6,$7*
1,1,$1+$1,$8,$9*
0 Add four rect primitives between the rounded corners*
20,1,$1+$1,$2,$3,$4,$5,0*
20,1,$1+$1,$4,$5,$6,$7,0*
20,1,$1+$1,$6,$7,$8,$9,0*
20,1,$1+$1,$8,$9,$2,$3,0*%
G04 Aperture macros list end*
%ADD10RoundRect,0.250000X-0.625000X0.350000X-0.625000X-0.350000X0.625000X-0.350000X0.625000X0.350000X0*%
%ADD11O,1.750000X1.200000*%
%ADD12RoundRect,0.250000X0.350000X0.625000X-0.350000X0.625000X-0.350000X-0.625000X0.350000X-0.625000X0*%
%ADD13O,1.200000X1.750000*%
%ADD14RoundRect,0.250000X0.625000X-0.350000X0.625000X0.350000X-0.625000X0.350000X-0.625000X-0.350000X0*%
%ADD15C,4.700000*%
%ADD16C,1.400000*%
%ADD17R,2.000000X1.200000*%
%ADD18O,2.000000X1.200000*%
%ADD19R,1.500000X1.500000*%
%ADD20C,1.500000*%
%ADD21C,3.500000*%
%ADD22RoundRect,0.250000X-0.550000X-0.550000X0.550000X-0.550000X0.550000X0.550000X-0.550000X0.550000X0*%
%ADD23C,1.600000*%
%ADD24RoundRect,0.250000X-0.350000X-0.625000X0.350000X-0.625000X0.350000X0.625000X-0.350000X0.625000X0*%
%ADD25C,2.000000*%
%ADD26C,2.200000*%
%ADD27C,2.500000*%
%ADD28C,2.400000*%
G04 APERTURE END LIST*
D10*
%TO.C,J10*%
X199620002Y-124199000D03*
D11*
X199620002Y-126199000D03*
X199620002Y-128199000D03*
X199620002Y-130199000D03*
X199620002Y-132199000D03*
%TD*%
D12*
%TO.C,J13*%
X169610002Y-131780000D03*
D13*
X167610002Y-131780000D03*
%TD*%
D10*
%TO.C,J2*%
X112820002Y-111620000D03*
D11*
X112820002Y-113620000D03*
X112820002Y-115620000D03*
%TD*%
D12*
%TO.C,J11*%
X155600002Y-131770000D03*
D13*
X153600002Y-131770000D03*
%TD*%
D14*
%TO.C,J7*%
X179114000Y-112830000D03*
D11*
X179114000Y-110830000D03*
X179114000Y-108830000D03*
X179114000Y-106830000D03*
X179114000Y-104830000D03*
%TD*%
D15*
%TO.C,M2.5*%
X106620000Y-150980000D03*
%TD*%
D16*
%TO.C,R2*%
X182150002Y-130770000D03*
X177070002Y-130770000D03*
%TD*%
D14*
%TO.C,J8*%
X179114000Y-125830000D03*
D11*
X179114000Y-123830000D03*
X179114000Y-121830000D03*
X179114000Y-119830000D03*
X179114000Y-117830000D03*
%TD*%
D12*
%TO.C,J12*%
X162600002Y-131770000D03*
D13*
X160600002Y-131770000D03*
%TD*%
D10*
%TO.C,J1*%
X107310002Y-111620000D03*
D11*
X107310002Y-113620000D03*
%TD*%
D10*
%TO.C,J4*%
X112819002Y-129440000D03*
D11*
X112819002Y-131440000D03*
X112819002Y-133440000D03*
X112819002Y-135440000D03*
X112819002Y-137440000D03*
%TD*%
D10*
%TO.C,J3*%
X112820002Y-120530000D03*
D11*
X112820002Y-122530000D03*
X112820002Y-124530000D03*
%TD*%
D15*
%TO.C,M2.5*%
X199620000Y-103920000D03*
%TD*%
D17*
%TO.C,U1*%
X124670002Y-103600000D03*
D18*
X124670002Y-106140000D03*
X124670002Y-108680000D03*
X124670002Y-111220000D03*
X124670002Y-113760000D03*
X124670002Y-116300000D03*
X124670002Y-118840000D03*
X124670002Y-121380000D03*
X124670002Y-123920000D03*
X124670002Y-126460000D03*
X124670002Y-129000000D03*
X124670002Y-131540000D03*
X124670002Y-134080000D03*
X124670002Y-136620000D03*
X124670002Y-139160000D03*
X124670002Y-141700000D03*
X147530002Y-141700000D03*
X147530002Y-139160000D03*
X147530002Y-136620000D03*
X147530002Y-134080000D03*
X147530002Y-131540000D03*
X147530002Y-129000000D03*
X147530002Y-126460000D03*
X147530002Y-123920000D03*
X147530002Y-121380000D03*
X147530002Y-118840000D03*
X147530002Y-116300000D03*
X147530002Y-113760000D03*
X147530002Y-111220000D03*
X147530002Y-108680000D03*
X147530002Y-106140000D03*
X147530002Y-103600000D03*
%TD*%
D15*
%TO.C,M2.5*%
X106620000Y-103980000D03*
%TD*%
D19*
%TO.C,J6*%
X156860002Y-141940000D03*
D20*
X159360002Y-141940000D03*
X161360002Y-141940000D03*
X163860002Y-141940000D03*
X156860002Y-139320000D03*
X159360002Y-139320000D03*
X161360002Y-139320000D03*
X163860002Y-139320000D03*
D21*
X153790002Y-144650000D03*
X166930002Y-144650000D03*
X153790002Y-138970000D03*
X166930002Y-138970000D03*
%TD*%
D10*
%TO.C,J9*%
X199621000Y-111285000D03*
D11*
X199621000Y-113285000D03*
X199621000Y-115285000D03*
X199621000Y-117285000D03*
X199621000Y-119285000D03*
%TD*%
D22*
%TO.C,U2*%
X185815000Y-103750000D03*
D23*
X185815000Y-106290000D03*
X185815000Y-108830000D03*
X185815000Y-111370000D03*
X185815000Y-113910000D03*
X185815000Y-116450000D03*
X185815000Y-118990000D03*
X185815000Y-121530000D03*
X185815000Y-124070000D03*
X185815000Y-126610000D03*
X185815000Y-129150000D03*
X185815000Y-131690000D03*
X185815000Y-134230000D03*
X185815000Y-136770000D03*
X193435000Y-136770000D03*
X193435000Y-134230000D03*
X193435000Y-131690000D03*
X193435000Y-129150000D03*
X193435000Y-126610000D03*
X193435000Y-124070000D03*
X193435000Y-121530000D03*
X193435000Y-118990000D03*
X193435000Y-116450000D03*
X193435000Y-113910000D03*
X193435000Y-111370000D03*
X193435000Y-108830000D03*
X193435000Y-106290000D03*
X193435000Y-103750000D03*
%TD*%
D10*
%TO.C,J5*%
X112810002Y-142350000D03*
D11*
X112810002Y-144350000D03*
X112810002Y-146350000D03*
X112810002Y-148350000D03*
X112810002Y-150350000D03*
%TD*%
D16*
%TO.C,R3*%
X162900002Y-136270000D03*
X157820002Y-136270000D03*
%TD*%
D24*
%TO.C,J14*%
X114600002Y-105770000D03*
D13*
X116600002Y-105770000D03*
X118600002Y-105770000D03*
%TD*%
D16*
%TO.C,R1*%
X182140002Y-133780000D03*
X177060002Y-133780000D03*
%TD*%
D15*
%TO.C,M2.5*%
X199620000Y-150920000D03*
%TD*%
D25*
%TO.C,U6*%
X182021307Y-85636768D03*
X182021307Y-88436768D03*
X182021307Y-92136768D03*
X192521307Y-85636768D03*
X192521307Y-88436768D03*
X192521307Y-92136768D03*
%TD*%
%TO.C,U4*%
X182321307Y-59386768D03*
X182321307Y-62186768D03*
X182321307Y-65886768D03*
X192821307Y-59386768D03*
X192821307Y-62186768D03*
X192821307Y-65886768D03*
%TD*%
%TO.C,U5*%
X156049893Y-80706768D03*
X156049893Y-83506768D03*
X156049893Y-87206768D03*
X166549893Y-80706768D03*
X166549893Y-83506768D03*
X166549893Y-87206768D03*
%TD*%
%TO.C,U7*%
X156959893Y-59746768D03*
X163459893Y-59746768D03*
X156959893Y-64246768D03*
X163459893Y-64246768D03*
%TD*%
D24*
%TO.C,J17*%
X182771307Y-71186768D03*
D13*
X184771307Y-71186768D03*
X186771307Y-71186768D03*
X188771307Y-71186768D03*
X190771307Y-71186768D03*
%TD*%
D12*
%TO.C,J11*%
X170128941Y-69216768D03*
D13*
X168128941Y-69216768D03*
%TD*%
D12*
%TO.C,J13*%
X156248941Y-69216768D03*
D13*
X154248941Y-69216768D03*
%TD*%
D14*
%TO.C,J16*%
X171851307Y-82966768D03*
D11*
X171851307Y-80966768D03*
X171851307Y-78966768D03*
X171851307Y-76966768D03*
X171851307Y-74966768D03*
%TD*%
D10*
%TO.C,J10*%
X177021307Y-86386768D03*
D11*
X177021307Y-88386768D03*
%TD*%
D15*
%TO.C,M2.5*%
X177021307Y-54386768D03*
%TD*%
D10*
%TO.C,J15*%
X169281307Y-56566768D03*
D11*
X169281307Y-58566768D03*
X169281307Y-60566768D03*
X169281307Y-62566768D03*
X169281307Y-64566768D03*
%TD*%
D12*
%TO.C,J12*%
X163188941Y-69216768D03*
D13*
X161188941Y-69216768D03*
%TD*%
D12*
%TO.C,J14*%
X163179893Y-74736768D03*
D13*
X161179893Y-74736768D03*
%TD*%
D12*
%TO.C,J18*%
X191331307Y-80336768D03*
D13*
X189331307Y-80336768D03*
X187331307Y-80336768D03*
X185331307Y-80336768D03*
X183331307Y-80336768D03*
%TD*%
D15*
%TO.C,M2.5*%
X171521307Y-92136768D03*
%TD*%
%TO.C,M2.5*%
X195521307Y-75386768D03*
%TD*%
D26*
%TO.C,M2*%
X133270000Y-79970000D03*
%TD*%
%TO.C,M2*%
X118520000Y-79970000D03*
%TD*%
D27*
%TO.C,U5*%
X119445000Y-75720000D03*
X132095000Y-75720000D03*
X119445000Y-65720000D03*
D28*
X132095000Y-65720000D03*
D25*
X134470000Y-73220000D03*
X123270000Y-62020000D03*
X122520000Y-76280000D03*
X129020000Y-76280000D03*
X134470000Y-68220000D03*
X128270000Y-62020000D03*
X134470000Y-70720000D03*
X125770000Y-62020000D03*
X122520000Y-80870000D03*
X129020000Y-80870000D03*
%TD*%
D12*
%TO.C,J19*%
X129770000Y-84670000D03*
D13*
X127770000Y-84670000D03*
X125770000Y-84670000D03*
X123770000Y-84670000D03*
X121770000Y-84670000D03*
%TD*%
M02*
