%TF.GenerationSoftware,KiCad,Pcbnew,9.0.6*%
%TF.CreationDate,2026-03-23T12:56:08-04:00*%
%TF.ProjectId,Faceboard,46616365-626f-4617-9264-2e6b69636164,rev?*%
%TF.SameCoordinates,Original*%
%TF.FileFunction,Legend,Bot*%
%TF.FilePolarity,Positive*%
%FSLAX46Y46*%
G04 Gerber Fmt 4.6, Leading zero omitted, Abs format (unit mm)*
G04 Created by KiCad (PCBNEW 9.0.6) date 2026-03-23 12:56:08*
%MOMM*%
%LPD*%
G01*
G04 APERTURE LIST*
%ADD10C,0.150000*%
%ADD11C,0.120000*%
%ADD12C,0.000000*%
G04 APERTURE END LIST*
D10*
X165059523Y-99154819D02*
X165059523Y-99869104D01*
X165059523Y-99869104D02*
X165107142Y-100011961D01*
X165107142Y-100011961D02*
X165202380Y-100107200D01*
X165202380Y-100107200D02*
X165345237Y-100154819D01*
X165345237Y-100154819D02*
X165440475Y-100154819D01*
X164059523Y-100154819D02*
X164630951Y-100154819D01*
X164345237Y-100154819D02*
X164345237Y-99154819D01*
X164345237Y-99154819D02*
X164440475Y-99297676D01*
X164440475Y-99297676D02*
X164535713Y-99392914D01*
X164535713Y-99392914D02*
X164630951Y-99440533D01*
X163726189Y-99154819D02*
X163059523Y-99154819D01*
X163059523Y-99154819D02*
X163488094Y-100154819D01*
X147417157Y-91384819D02*
X147417157Y-92099104D01*
X147417157Y-92099104D02*
X147464776Y-92241961D01*
X147464776Y-92241961D02*
X147560014Y-92337200D01*
X147560014Y-92337200D02*
X147702871Y-92384819D01*
X147702871Y-92384819D02*
X147798109Y-92384819D01*
X146417157Y-92384819D02*
X146988585Y-92384819D01*
X146702871Y-92384819D02*
X146702871Y-91384819D01*
X146702871Y-91384819D02*
X146798109Y-91527676D01*
X146798109Y-91527676D02*
X146893347Y-91622914D01*
X146893347Y-91622914D02*
X146988585Y-91670533D01*
X145464776Y-92384819D02*
X146036204Y-92384819D01*
X145750490Y-92384819D02*
X145750490Y-91384819D01*
X145750490Y-91384819D02*
X145845728Y-91527676D01*
X145845728Y-91527676D02*
X145940966Y-91622914D01*
X145940966Y-91622914D02*
X146036204Y-91670533D01*
X133537157Y-91384819D02*
X133537157Y-92099104D01*
X133537157Y-92099104D02*
X133584776Y-92241961D01*
X133584776Y-92241961D02*
X133680014Y-92337200D01*
X133680014Y-92337200D02*
X133822871Y-92384819D01*
X133822871Y-92384819D02*
X133918109Y-92384819D01*
X132537157Y-92384819D02*
X133108585Y-92384819D01*
X132822871Y-92384819D02*
X132822871Y-91384819D01*
X132822871Y-91384819D02*
X132918109Y-91527676D01*
X132918109Y-91527676D02*
X133013347Y-91622914D01*
X133013347Y-91622914D02*
X133108585Y-91670533D01*
X132203823Y-91384819D02*
X131584776Y-91384819D01*
X131584776Y-91384819D02*
X131918109Y-91765771D01*
X131918109Y-91765771D02*
X131775252Y-91765771D01*
X131775252Y-91765771D02*
X131680014Y-91813390D01*
X131680014Y-91813390D02*
X131632395Y-91861009D01*
X131632395Y-91861009D02*
X131584776Y-91956247D01*
X131584776Y-91956247D02*
X131584776Y-92194342D01*
X131584776Y-92194342D02*
X131632395Y-92289580D01*
X131632395Y-92289580D02*
X131680014Y-92337200D01*
X131680014Y-92337200D02*
X131775252Y-92384819D01*
X131775252Y-92384819D02*
X132060966Y-92384819D01*
X132060966Y-92384819D02*
X132156204Y-92337200D01*
X132156204Y-92337200D02*
X132203823Y-92289580D01*
X151684819Y-103770476D02*
X152399104Y-103770476D01*
X152399104Y-103770476D02*
X152541961Y-103722857D01*
X152541961Y-103722857D02*
X152637200Y-103627619D01*
X152637200Y-103627619D02*
X152684819Y-103484762D01*
X152684819Y-103484762D02*
X152684819Y-103389524D01*
X152684819Y-104770476D02*
X152684819Y-104199048D01*
X152684819Y-104484762D02*
X151684819Y-104484762D01*
X151684819Y-104484762D02*
X151827676Y-104389524D01*
X151827676Y-104389524D02*
X151922914Y-104294286D01*
X151922914Y-104294286D02*
X151970533Y-104199048D01*
X151684819Y-105627619D02*
X151684819Y-105437143D01*
X151684819Y-105437143D02*
X151732438Y-105341905D01*
X151732438Y-105341905D02*
X151780057Y-105294286D01*
X151780057Y-105294286D02*
X151922914Y-105199048D01*
X151922914Y-105199048D02*
X152113390Y-105151429D01*
X152113390Y-105151429D02*
X152494342Y-105151429D01*
X152494342Y-105151429D02*
X152589580Y-105199048D01*
X152589580Y-105199048D02*
X152637200Y-105246667D01*
X152637200Y-105246667D02*
X152684819Y-105341905D01*
X152684819Y-105341905D02*
X152684819Y-105532381D01*
X152684819Y-105532381D02*
X152637200Y-105627619D01*
X152637200Y-105627619D02*
X152589580Y-105675238D01*
X152589580Y-105675238D02*
X152494342Y-105722857D01*
X152494342Y-105722857D02*
X152256247Y-105722857D01*
X152256247Y-105722857D02*
X152161009Y-105675238D01*
X152161009Y-105675238D02*
X152113390Y-105627619D01*
X152113390Y-105627619D02*
X152065771Y-105532381D01*
X152065771Y-105532381D02*
X152065771Y-105341905D01*
X152065771Y-105341905D02*
X152113390Y-105246667D01*
X152113390Y-105246667D02*
X152161009Y-105199048D01*
X152161009Y-105199048D02*
X152256247Y-105151429D01*
X151054819Y-112190476D02*
X151769104Y-112190476D01*
X151769104Y-112190476D02*
X151911961Y-112142857D01*
X151911961Y-112142857D02*
X152007200Y-112047619D01*
X152007200Y-112047619D02*
X152054819Y-111904762D01*
X152054819Y-111904762D02*
X152054819Y-111809524D01*
X152054819Y-113190476D02*
X152054819Y-112619048D01*
X152054819Y-112904762D02*
X151054819Y-112904762D01*
X151054819Y-112904762D02*
X151197676Y-112809524D01*
X151197676Y-112809524D02*
X151292914Y-112714286D01*
X151292914Y-112714286D02*
X151340533Y-112619048D01*
X151054819Y-113809524D02*
X151054819Y-113904762D01*
X151054819Y-113904762D02*
X151102438Y-114000000D01*
X151102438Y-114000000D02*
X151150057Y-114047619D01*
X151150057Y-114047619D02*
X151245295Y-114095238D01*
X151245295Y-114095238D02*
X151435771Y-114142857D01*
X151435771Y-114142857D02*
X151673866Y-114142857D01*
X151673866Y-114142857D02*
X151864342Y-114095238D01*
X151864342Y-114095238D02*
X151959580Y-114047619D01*
X151959580Y-114047619D02*
X152007200Y-114000000D01*
X152007200Y-114000000D02*
X152054819Y-113904762D01*
X152054819Y-113904762D02*
X152054819Y-113809524D01*
X152054819Y-113809524D02*
X152007200Y-113714286D01*
X152007200Y-113714286D02*
X151959580Y-113666667D01*
X151959580Y-113666667D02*
X151864342Y-113619048D01*
X151864342Y-113619048D02*
X151673866Y-113571429D01*
X151673866Y-113571429D02*
X151435771Y-113571429D01*
X151435771Y-113571429D02*
X151245295Y-113619048D01*
X151245295Y-113619048D02*
X151150057Y-113666667D01*
X151150057Y-113666667D02*
X151102438Y-113714286D01*
X151102438Y-113714286D02*
X151054819Y-113809524D01*
X160223808Y-82284819D02*
X160223808Y-81284819D01*
X160223808Y-81284819D02*
X159890475Y-81999104D01*
X159890475Y-81999104D02*
X159557142Y-81284819D01*
X159557142Y-81284819D02*
X159557142Y-82284819D01*
X159128570Y-81380057D02*
X159080951Y-81332438D01*
X159080951Y-81332438D02*
X158985713Y-81284819D01*
X158985713Y-81284819D02*
X158747618Y-81284819D01*
X158747618Y-81284819D02*
X158652380Y-81332438D01*
X158652380Y-81332438D02*
X158604761Y-81380057D01*
X158604761Y-81380057D02*
X158557142Y-81475295D01*
X158557142Y-81475295D02*
X158557142Y-81570533D01*
X158557142Y-81570533D02*
X158604761Y-81713390D01*
X158604761Y-81713390D02*
X159176189Y-82284819D01*
X159176189Y-82284819D02*
X158557142Y-82284819D01*
X158128570Y-82189580D02*
X158080951Y-82237200D01*
X158080951Y-82237200D02*
X158128570Y-82284819D01*
X158128570Y-82284819D02*
X158176189Y-82237200D01*
X158176189Y-82237200D02*
X158128570Y-82189580D01*
X158128570Y-82189580D02*
X158128570Y-82284819D01*
X157176190Y-81284819D02*
X157652380Y-81284819D01*
X157652380Y-81284819D02*
X157699999Y-81761009D01*
X157699999Y-81761009D02*
X157652380Y-81713390D01*
X157652380Y-81713390D02*
X157557142Y-81665771D01*
X157557142Y-81665771D02*
X157319047Y-81665771D01*
X157319047Y-81665771D02*
X157223809Y-81713390D01*
X157223809Y-81713390D02*
X157176190Y-81761009D01*
X157176190Y-81761009D02*
X157128571Y-81856247D01*
X157128571Y-81856247D02*
X157128571Y-82094342D01*
X157128571Y-82094342D02*
X157176190Y-82189580D01*
X157176190Y-82189580D02*
X157223809Y-82237200D01*
X157223809Y-82237200D02*
X157319047Y-82284819D01*
X157319047Y-82284819D02*
X157557142Y-82284819D01*
X157557142Y-82284819D02*
X157652380Y-82237200D01*
X157652380Y-82237200D02*
X157699999Y-82189580D01*
X143314819Y-85370476D02*
X144029104Y-85370476D01*
X144029104Y-85370476D02*
X144171961Y-85322857D01*
X144171961Y-85322857D02*
X144267200Y-85227619D01*
X144267200Y-85227619D02*
X144314819Y-85084762D01*
X144314819Y-85084762D02*
X144314819Y-84989524D01*
X144314819Y-86370476D02*
X144314819Y-85799048D01*
X144314819Y-86084762D02*
X143314819Y-86084762D01*
X143314819Y-86084762D02*
X143457676Y-85989524D01*
X143457676Y-85989524D02*
X143552914Y-85894286D01*
X143552914Y-85894286D02*
X143600533Y-85799048D01*
X143314819Y-87275238D02*
X143314819Y-86799048D01*
X143314819Y-86799048D02*
X143791009Y-86751429D01*
X143791009Y-86751429D02*
X143743390Y-86799048D01*
X143743390Y-86799048D02*
X143695771Y-86894286D01*
X143695771Y-86894286D02*
X143695771Y-87132381D01*
X143695771Y-87132381D02*
X143743390Y-87227619D01*
X143743390Y-87227619D02*
X143791009Y-87275238D01*
X143791009Y-87275238D02*
X143886247Y-87322857D01*
X143886247Y-87322857D02*
X144124342Y-87322857D01*
X144124342Y-87322857D02*
X144219580Y-87275238D01*
X144219580Y-87275238D02*
X144267200Y-87227619D01*
X144267200Y-87227619D02*
X144314819Y-87132381D01*
X144314819Y-87132381D02*
X144314819Y-86894286D01*
X144314819Y-86894286D02*
X144267200Y-86799048D01*
X144267200Y-86799048D02*
X144219580Y-86751429D01*
X140477157Y-91384819D02*
X140477157Y-92099104D01*
X140477157Y-92099104D02*
X140524776Y-92241961D01*
X140524776Y-92241961D02*
X140620014Y-92337200D01*
X140620014Y-92337200D02*
X140762871Y-92384819D01*
X140762871Y-92384819D02*
X140858109Y-92384819D01*
X139477157Y-92384819D02*
X140048585Y-92384819D01*
X139762871Y-92384819D02*
X139762871Y-91384819D01*
X139762871Y-91384819D02*
X139858109Y-91527676D01*
X139858109Y-91527676D02*
X139953347Y-91622914D01*
X139953347Y-91622914D02*
X140048585Y-91670533D01*
X139096204Y-91480057D02*
X139048585Y-91432438D01*
X139048585Y-91432438D02*
X138953347Y-91384819D01*
X138953347Y-91384819D02*
X138715252Y-91384819D01*
X138715252Y-91384819D02*
X138620014Y-91432438D01*
X138620014Y-91432438D02*
X138572395Y-91480057D01*
X138572395Y-91480057D02*
X138524776Y-91575295D01*
X138524776Y-91575295D02*
X138524776Y-91670533D01*
X138524776Y-91670533D02*
X138572395Y-91813390D01*
X138572395Y-91813390D02*
X139143823Y-92384819D01*
X139143823Y-92384819D02*
X138524776Y-92384819D01*
X140489523Y-103744819D02*
X140489523Y-104459104D01*
X140489523Y-104459104D02*
X140537142Y-104601961D01*
X140537142Y-104601961D02*
X140632380Y-104697200D01*
X140632380Y-104697200D02*
X140775237Y-104744819D01*
X140775237Y-104744819D02*
X140870475Y-104744819D01*
X139489523Y-104744819D02*
X140060951Y-104744819D01*
X139775237Y-104744819D02*
X139775237Y-103744819D01*
X139775237Y-103744819D02*
X139870475Y-103887676D01*
X139870475Y-103887676D02*
X139965713Y-103982914D01*
X139965713Y-103982914D02*
X140060951Y-104030533D01*
X138632380Y-104078152D02*
X138632380Y-104744819D01*
X138870475Y-103697200D02*
X139108570Y-104411485D01*
X139108570Y-104411485D02*
X138489523Y-104411485D01*
X165619523Y-102504819D02*
X165619523Y-103219104D01*
X165619523Y-103219104D02*
X165667142Y-103361961D01*
X165667142Y-103361961D02*
X165762380Y-103457200D01*
X165762380Y-103457200D02*
X165905237Y-103504819D01*
X165905237Y-103504819D02*
X166000475Y-103504819D01*
X164619523Y-103504819D02*
X165190951Y-103504819D01*
X164905237Y-103504819D02*
X164905237Y-102504819D01*
X164905237Y-102504819D02*
X165000475Y-102647676D01*
X165000475Y-102647676D02*
X165095713Y-102742914D01*
X165095713Y-102742914D02*
X165190951Y-102790533D01*
X164048094Y-102933390D02*
X164143332Y-102885771D01*
X164143332Y-102885771D02*
X164190951Y-102838152D01*
X164190951Y-102838152D02*
X164238570Y-102742914D01*
X164238570Y-102742914D02*
X164238570Y-102695295D01*
X164238570Y-102695295D02*
X164190951Y-102600057D01*
X164190951Y-102600057D02*
X164143332Y-102552438D01*
X164143332Y-102552438D02*
X164048094Y-102504819D01*
X164048094Y-102504819D02*
X163857618Y-102504819D01*
X163857618Y-102504819D02*
X163762380Y-102552438D01*
X163762380Y-102552438D02*
X163714761Y-102600057D01*
X163714761Y-102600057D02*
X163667142Y-102695295D01*
X163667142Y-102695295D02*
X163667142Y-102742914D01*
X163667142Y-102742914D02*
X163714761Y-102838152D01*
X163714761Y-102838152D02*
X163762380Y-102885771D01*
X163762380Y-102885771D02*
X163857618Y-102933390D01*
X163857618Y-102933390D02*
X164048094Y-102933390D01*
X164048094Y-102933390D02*
X164143332Y-102981009D01*
X164143332Y-102981009D02*
X164190951Y-103028628D01*
X164190951Y-103028628D02*
X164238570Y-103123866D01*
X164238570Y-103123866D02*
X164238570Y-103314342D01*
X164238570Y-103314342D02*
X164190951Y-103409580D01*
X164190951Y-103409580D02*
X164143332Y-103457200D01*
X164143332Y-103457200D02*
X164048094Y-103504819D01*
X164048094Y-103504819D02*
X163857618Y-103504819D01*
X163857618Y-103504819D02*
X163762380Y-103457200D01*
X163762380Y-103457200D02*
X163714761Y-103409580D01*
X163714761Y-103409580D02*
X163667142Y-103314342D01*
X163667142Y-103314342D02*
X163667142Y-103123866D01*
X163667142Y-103123866D02*
X163714761Y-103028628D01*
X163714761Y-103028628D02*
X163762380Y-102981009D01*
X163762380Y-102981009D02*
X163857618Y-102933390D01*
X150533808Y-114884819D02*
X150533808Y-113884819D01*
X150533808Y-113884819D02*
X150200475Y-114599104D01*
X150200475Y-114599104D02*
X149867142Y-113884819D01*
X149867142Y-113884819D02*
X149867142Y-114884819D01*
X149438570Y-113980057D02*
X149390951Y-113932438D01*
X149390951Y-113932438D02*
X149295713Y-113884819D01*
X149295713Y-113884819D02*
X149057618Y-113884819D01*
X149057618Y-113884819D02*
X148962380Y-113932438D01*
X148962380Y-113932438D02*
X148914761Y-113980057D01*
X148914761Y-113980057D02*
X148867142Y-114075295D01*
X148867142Y-114075295D02*
X148867142Y-114170533D01*
X148867142Y-114170533D02*
X148914761Y-114313390D01*
X148914761Y-114313390D02*
X149486189Y-114884819D01*
X149486189Y-114884819D02*
X148867142Y-114884819D01*
X148438570Y-114789580D02*
X148390951Y-114837200D01*
X148390951Y-114837200D02*
X148438570Y-114884819D01*
X148438570Y-114884819D02*
X148486189Y-114837200D01*
X148486189Y-114837200D02*
X148438570Y-114789580D01*
X148438570Y-114789580D02*
X148438570Y-114884819D01*
X147486190Y-113884819D02*
X147962380Y-113884819D01*
X147962380Y-113884819D02*
X148009999Y-114361009D01*
X148009999Y-114361009D02*
X147962380Y-114313390D01*
X147962380Y-114313390D02*
X147867142Y-114265771D01*
X147867142Y-114265771D02*
X147629047Y-114265771D01*
X147629047Y-114265771D02*
X147533809Y-114313390D01*
X147533809Y-114313390D02*
X147486190Y-114361009D01*
X147486190Y-114361009D02*
X147438571Y-114456247D01*
X147438571Y-114456247D02*
X147438571Y-114694342D01*
X147438571Y-114694342D02*
X147486190Y-114789580D01*
X147486190Y-114789580D02*
X147533809Y-114837200D01*
X147533809Y-114837200D02*
X147629047Y-114884819D01*
X147629047Y-114884819D02*
X147867142Y-114884819D01*
X147867142Y-114884819D02*
X147962380Y-114837200D01*
X147962380Y-114837200D02*
X148009999Y-114789580D01*
X176033808Y-98244819D02*
X176033808Y-97244819D01*
X176033808Y-97244819D02*
X175700475Y-97959104D01*
X175700475Y-97959104D02*
X175367142Y-97244819D01*
X175367142Y-97244819D02*
X175367142Y-98244819D01*
X174938570Y-97340057D02*
X174890951Y-97292438D01*
X174890951Y-97292438D02*
X174795713Y-97244819D01*
X174795713Y-97244819D02*
X174557618Y-97244819D01*
X174557618Y-97244819D02*
X174462380Y-97292438D01*
X174462380Y-97292438D02*
X174414761Y-97340057D01*
X174414761Y-97340057D02*
X174367142Y-97435295D01*
X174367142Y-97435295D02*
X174367142Y-97530533D01*
X174367142Y-97530533D02*
X174414761Y-97673390D01*
X174414761Y-97673390D02*
X174986189Y-98244819D01*
X174986189Y-98244819D02*
X174367142Y-98244819D01*
X173938570Y-98149580D02*
X173890951Y-98197200D01*
X173890951Y-98197200D02*
X173938570Y-98244819D01*
X173938570Y-98244819D02*
X173986189Y-98197200D01*
X173986189Y-98197200D02*
X173938570Y-98149580D01*
X173938570Y-98149580D02*
X173938570Y-98244819D01*
X172986190Y-97244819D02*
X173462380Y-97244819D01*
X173462380Y-97244819D02*
X173509999Y-97721009D01*
X173509999Y-97721009D02*
X173462380Y-97673390D01*
X173462380Y-97673390D02*
X173367142Y-97625771D01*
X173367142Y-97625771D02*
X173129047Y-97625771D01*
X173129047Y-97625771D02*
X173033809Y-97673390D01*
X173033809Y-97673390D02*
X172986190Y-97721009D01*
X172986190Y-97721009D02*
X172938571Y-97816247D01*
X172938571Y-97816247D02*
X172938571Y-98054342D01*
X172938571Y-98054342D02*
X172986190Y-98149580D01*
X172986190Y-98149580D02*
X173033809Y-98197200D01*
X173033809Y-98197200D02*
X173129047Y-98244819D01*
X173129047Y-98244819D02*
X173367142Y-98244819D01*
X173367142Y-98244819D02*
X173462380Y-98197200D01*
X173462380Y-98197200D02*
X173509999Y-98149580D01*
D11*
%TO.C,J17*%
X157890000Y-98910000D02*
X157890000Y-97660000D01*
X158190000Y-93890000D02*
X170310000Y-93890000D01*
X158190000Y-96000000D02*
X158800000Y-96000000D01*
X158190000Y-97300000D02*
X158800000Y-97300000D01*
X158190000Y-98610000D02*
X158190000Y-93890000D01*
X158800000Y-94500000D02*
X169700000Y-94500000D01*
X158800000Y-98000000D02*
X158800000Y-94500000D01*
X159140000Y-98910000D02*
X157890000Y-98910000D01*
X159650000Y-98810000D02*
X159650000Y-98610000D01*
X159950000Y-98610000D02*
X159950000Y-98810000D01*
X159950000Y-98710000D02*
X159650000Y-98710000D01*
X159950000Y-98810000D02*
X159650000Y-98810000D01*
X160750000Y-98000000D02*
X158800000Y-98000000D01*
X160750000Y-98610000D02*
X160750000Y-98000000D01*
X161150000Y-94500000D02*
X161150000Y-95000000D01*
X161150000Y-95000000D02*
X161350000Y-95000000D01*
X161250000Y-94500000D02*
X161250000Y-95000000D01*
X161350000Y-95000000D02*
X161350000Y-94500000D01*
X163150000Y-94500000D02*
X163150000Y-95000000D01*
X163150000Y-95000000D02*
X163350000Y-95000000D01*
X163250000Y-94500000D02*
X163250000Y-95000000D01*
X163350000Y-95000000D02*
X163350000Y-94500000D01*
X165150000Y-94500000D02*
X165150000Y-95000000D01*
X165150000Y-95000000D02*
X165350000Y-95000000D01*
X165250000Y-94500000D02*
X165250000Y-95000000D01*
X165350000Y-95000000D02*
X165350000Y-94500000D01*
X167150000Y-94500000D02*
X167150000Y-95000000D01*
X167150000Y-95000000D02*
X167350000Y-95000000D01*
X167250000Y-94500000D02*
X167250000Y-95000000D01*
X167350000Y-95000000D02*
X167350000Y-94500000D01*
X167750000Y-98000000D02*
X167750000Y-98610000D01*
X169700000Y-94500000D02*
X169700000Y-98000000D01*
X169700000Y-98000000D02*
X167750000Y-98000000D01*
X170310000Y-93890000D02*
X170310000Y-98610000D01*
X170310000Y-96000000D02*
X169700000Y-96000000D01*
X170310000Y-97300000D02*
X169700000Y-97300000D01*
X170310000Y-98610000D02*
X158190000Y-98610000D01*
%TO.C,J11*%
X143547634Y-93020000D02*
X149667634Y-93020000D01*
X143547634Y-94330000D02*
X144157634Y-94330000D01*
X143547634Y-95630000D02*
X144157634Y-95630000D01*
X143547634Y-97740000D02*
X143547634Y-93020000D01*
X144157634Y-93630000D02*
X146107634Y-93630000D01*
X144157634Y-97130000D02*
X144157634Y-93630000D01*
X146107634Y-93630000D02*
X146107634Y-93020000D01*
X146507634Y-96630000D02*
X146507634Y-97130000D01*
X146607634Y-97130000D02*
X146607634Y-96630000D01*
X146707634Y-96630000D02*
X146507634Y-96630000D01*
X146707634Y-97130000D02*
X146707634Y-96630000D01*
X147107634Y-93020000D02*
X147107634Y-93630000D01*
X147107634Y-93630000D02*
X149057634Y-93630000D01*
X147907634Y-92820000D02*
X148207634Y-92820000D01*
X147907634Y-92920000D02*
X148207634Y-92920000D01*
X147907634Y-93020000D02*
X147907634Y-92820000D01*
X148207634Y-92820000D02*
X148207634Y-93020000D01*
X148717634Y-92720000D02*
X149967634Y-92720000D01*
X149057634Y-93630000D02*
X149057634Y-97130000D01*
X149057634Y-97130000D02*
X144157634Y-97130000D01*
X149667634Y-93020000D02*
X149667634Y-97740000D01*
X149667634Y-94330000D02*
X149057634Y-94330000D01*
X149667634Y-95630000D02*
X149057634Y-95630000D01*
X149667634Y-97740000D02*
X143547634Y-97740000D01*
X149967634Y-92720000D02*
X149967634Y-93970000D01*
%TO.C,J13*%
X129667634Y-93020000D02*
X135787634Y-93020000D01*
X129667634Y-94330000D02*
X130277634Y-94330000D01*
X129667634Y-95630000D02*
X130277634Y-95630000D01*
X129667634Y-97740000D02*
X129667634Y-93020000D01*
X130277634Y-93630000D02*
X132227634Y-93630000D01*
X130277634Y-97130000D02*
X130277634Y-93630000D01*
X132227634Y-93630000D02*
X132227634Y-93020000D01*
X132627634Y-96630000D02*
X132627634Y-97130000D01*
X132727634Y-97130000D02*
X132727634Y-96630000D01*
X132827634Y-96630000D02*
X132627634Y-96630000D01*
X132827634Y-97130000D02*
X132827634Y-96630000D01*
X133227634Y-93020000D02*
X133227634Y-93630000D01*
X133227634Y-93630000D02*
X135177634Y-93630000D01*
X134027634Y-92820000D02*
X134327634Y-92820000D01*
X134027634Y-92920000D02*
X134327634Y-92920000D01*
X134027634Y-93020000D02*
X134027634Y-92820000D01*
X134327634Y-92820000D02*
X134327634Y-93020000D01*
X134837634Y-92720000D02*
X136087634Y-92720000D01*
X135177634Y-93630000D02*
X135177634Y-97130000D01*
X135177634Y-97130000D02*
X130277634Y-97130000D01*
X135787634Y-93020000D02*
X135787634Y-97740000D01*
X135787634Y-94330000D02*
X135177634Y-94330000D01*
X135787634Y-95630000D02*
X135177634Y-95630000D01*
X135787634Y-97740000D02*
X129667634Y-97740000D01*
X136087634Y-92720000D02*
X136087634Y-93970000D01*
%TO.C,J16*%
X146420000Y-98520000D02*
X151140000Y-98520000D01*
X146420000Y-110640000D02*
X146420000Y-98520000D01*
X147030000Y-99130000D02*
X150530000Y-99130000D01*
X147030000Y-101580000D02*
X147530000Y-101580000D01*
X147030000Y-101680000D02*
X147530000Y-101680000D01*
X147030000Y-103580000D02*
X147530000Y-103580000D01*
X147030000Y-103680000D02*
X147530000Y-103680000D01*
X147030000Y-105580000D02*
X147530000Y-105580000D01*
X147030000Y-105680000D02*
X147530000Y-105680000D01*
X147030000Y-107580000D02*
X147530000Y-107580000D01*
X147030000Y-107680000D02*
X147530000Y-107680000D01*
X147030000Y-110030000D02*
X147030000Y-99130000D01*
X147530000Y-101480000D02*
X147030000Y-101480000D01*
X147530000Y-101680000D02*
X147530000Y-101480000D01*
X147530000Y-103480000D02*
X147030000Y-103480000D01*
X147530000Y-103680000D02*
X147530000Y-103480000D01*
X147530000Y-105480000D02*
X147030000Y-105480000D01*
X147530000Y-105680000D02*
X147530000Y-105480000D01*
X147530000Y-107480000D02*
X147030000Y-107480000D01*
X147530000Y-107680000D02*
X147530000Y-107480000D01*
X148530000Y-98520000D02*
X148530000Y-99130000D01*
X148530000Y-110640000D02*
X148530000Y-110030000D01*
X149830000Y-98520000D02*
X149830000Y-99130000D01*
X149830000Y-110640000D02*
X149830000Y-110030000D01*
X150530000Y-99130000D02*
X150530000Y-101080000D01*
X150530000Y-101080000D02*
X151140000Y-101080000D01*
X150530000Y-108080000D02*
X150530000Y-110030000D01*
X150530000Y-110030000D02*
X147030000Y-110030000D01*
X151140000Y-98520000D02*
X151140000Y-110640000D01*
X151140000Y-108080000D02*
X150530000Y-108080000D01*
X151140000Y-108880000D02*
X151340000Y-108880000D01*
X151140000Y-110640000D02*
X146420000Y-110640000D01*
X151240000Y-108880000D02*
X151240000Y-109180000D01*
X151340000Y-108880000D02*
X151340000Y-109180000D01*
X151340000Y-109180000D02*
X151140000Y-109180000D01*
X151440000Y-109690000D02*
X151440000Y-110940000D01*
X151440000Y-110940000D02*
X150190000Y-110940000D01*
%TO.C,J10*%
X152390000Y-109640000D02*
X153640000Y-109640000D01*
X152390000Y-110890000D02*
X152390000Y-109640000D01*
X152490000Y-111400000D02*
X152690000Y-111400000D01*
X152490000Y-111700000D02*
X152490000Y-111400000D01*
X152590000Y-111700000D02*
X152590000Y-111400000D01*
X152690000Y-109940000D02*
X157410000Y-109940000D01*
X152690000Y-111700000D02*
X152490000Y-111700000D01*
X152690000Y-112500000D02*
X153300000Y-112500000D01*
X152690000Y-116060000D02*
X152690000Y-109940000D01*
X153300000Y-110550000D02*
X156800000Y-110550000D01*
X153300000Y-112500000D02*
X153300000Y-110550000D01*
X153300000Y-113500000D02*
X152690000Y-113500000D01*
X153300000Y-115450000D02*
X153300000Y-113500000D01*
X154000000Y-109940000D02*
X154000000Y-110550000D01*
X154000000Y-116060000D02*
X154000000Y-115450000D01*
X155300000Y-109940000D02*
X155300000Y-110550000D01*
X155300000Y-116060000D02*
X155300000Y-115450000D01*
X156300000Y-112900000D02*
X156300000Y-113100000D01*
X156300000Y-113100000D02*
X156800000Y-113100000D01*
X156800000Y-110550000D02*
X156800000Y-115450000D01*
X156800000Y-112900000D02*
X156300000Y-112900000D01*
X156800000Y-113000000D02*
X156300000Y-113000000D01*
X156800000Y-115450000D02*
X153300000Y-115450000D01*
X157410000Y-109940000D02*
X157410000Y-116060000D01*
X157410000Y-116060000D02*
X152690000Y-116060000D01*
D12*
%TO.C,G\u002A\u002A\u002A*%
G36*
X135817761Y-109328690D02*
G01*
X135813206Y-109459909D01*
X135764053Y-109507954D01*
X135759942Y-109512022D01*
X135733258Y-109540506D01*
X135708758Y-109569738D01*
X135691292Y-109593985D01*
X135681145Y-109609708D01*
X135669655Y-109625759D01*
X135663507Y-109631985D01*
X135663486Y-109631984D01*
X135656435Y-109626528D01*
X135640542Y-109611890D01*
X135618146Y-109590284D01*
X135591586Y-109563924D01*
X135523844Y-109495849D01*
X135673080Y-109346660D01*
X135822316Y-109197471D01*
X135817761Y-109328690D01*
G37*
G36*
X137597692Y-110188386D02*
G01*
X137626035Y-110208502D01*
X137650545Y-110233004D01*
X137644746Y-110382450D01*
X137643742Y-110406535D01*
X137640787Y-110460989D01*
X137637452Y-110501401D01*
X137633800Y-110527119D01*
X137629891Y-110537490D01*
X137624421Y-110539142D01*
X137610831Y-110534783D01*
X137608142Y-110531492D01*
X137598985Y-110514561D01*
X137586466Y-110486950D01*
X137571770Y-110451763D01*
X137556082Y-110412108D01*
X137540589Y-110371091D01*
X137526475Y-110331818D01*
X137514926Y-110297396D01*
X137507127Y-110270931D01*
X137504264Y-110255530D01*
X137508499Y-110234545D01*
X137527656Y-110207384D01*
X137540973Y-110196025D01*
X137569181Y-110184225D01*
X137597692Y-110188386D01*
G37*
G36*
X140973950Y-110827760D02*
G01*
X141002251Y-110840630D01*
X141015632Y-110851692D01*
X141038633Y-110883185D01*
X141048977Y-110918890D01*
X141047143Y-110955532D01*
X141033609Y-110989836D01*
X141008853Y-111018524D01*
X140973356Y-111038322D01*
X140953355Y-111043260D01*
X140938691Y-111043366D01*
X140931667Y-111041742D01*
X140912961Y-111040000D01*
X140906602Y-111039016D01*
X140886397Y-111028458D01*
X140864529Y-111009669D01*
X140845385Y-110986829D01*
X140833352Y-110964120D01*
X140830925Y-110955323D01*
X140830107Y-110917534D01*
X140843428Y-110880761D01*
X140869714Y-110848730D01*
X140889584Y-110833641D01*
X140910256Y-110825912D01*
X140938389Y-110824000D01*
X140973950Y-110827760D01*
G37*
G36*
X141276611Y-110224880D02*
G01*
X141323181Y-110244722D01*
X141365762Y-110278530D01*
X141381395Y-110295642D01*
X141410574Y-110342448D01*
X141426191Y-110393242D01*
X141428635Y-110445469D01*
X141418291Y-110496577D01*
X141395547Y-110544013D01*
X141360789Y-110585224D01*
X141314404Y-110617658D01*
X141306695Y-110621476D01*
X141253831Y-110637967D01*
X141199021Y-110640180D01*
X141145438Y-110628730D01*
X141096253Y-110604233D01*
X141054642Y-110567303D01*
X141033649Y-110538491D01*
X141011719Y-110489563D01*
X141003272Y-110439062D01*
X141007242Y-110389085D01*
X141022565Y-110341727D01*
X141048178Y-110299086D01*
X141083014Y-110263256D01*
X141126011Y-110236334D01*
X141176103Y-110220417D01*
X141232226Y-110217600D01*
X141276611Y-110224880D01*
G37*
G36*
X137595708Y-110651058D02*
G01*
X137587921Y-110670025D01*
X137570123Y-110698927D01*
X137542880Y-110737985D01*
X137519931Y-110769662D01*
X137493992Y-110804948D01*
X137470979Y-110835744D01*
X137454062Y-110857773D01*
X137440457Y-110874335D01*
X137425544Y-110888439D01*
X137410972Y-110894627D01*
X137391679Y-110896000D01*
X137390143Y-110895985D01*
X137356957Y-110888041D01*
X137330953Y-110867400D01*
X137315702Y-110836845D01*
X137314634Y-110831884D01*
X137314543Y-110813908D01*
X137321859Y-110796411D01*
X137338026Y-110778001D01*
X137364490Y-110757283D01*
X137402695Y-110732864D01*
X137454085Y-110703350D01*
X137464610Y-110697513D01*
X137515390Y-110670121D01*
X137553323Y-110651558D01*
X137578976Y-110642046D01*
X137592915Y-110641806D01*
X137595708Y-110651058D01*
G37*
G36*
X137912913Y-110304404D02*
G01*
X137938680Y-110318920D01*
X137956527Y-110342049D01*
X137963759Y-110370996D01*
X137957681Y-110402966D01*
X137957347Y-110403729D01*
X137949308Y-110415103D01*
X137933583Y-110429289D01*
X137908563Y-110447464D01*
X137872638Y-110470806D01*
X137824195Y-110500490D01*
X137787287Y-110522591D01*
X137751713Y-110543647D01*
X137723010Y-110560369D01*
X137703450Y-110571435D01*
X137695303Y-110575524D01*
X137691604Y-110574329D01*
X137681455Y-110565367D01*
X137680818Y-110563793D01*
X137684142Y-110550653D01*
X137695371Y-110528158D01*
X137712788Y-110498758D01*
X137734674Y-110464904D01*
X137759313Y-110429045D01*
X137784985Y-110393633D01*
X137809974Y-110361116D01*
X137832562Y-110333946D01*
X137851031Y-110314573D01*
X137863664Y-110305447D01*
X137881920Y-110301296D01*
X137912913Y-110304404D01*
G37*
G36*
X137303233Y-110456059D02*
G01*
X137319515Y-110460023D01*
X137346662Y-110469242D01*
X137381465Y-110482375D01*
X137420713Y-110498085D01*
X137461200Y-110515030D01*
X137499715Y-110531873D01*
X137533051Y-110547274D01*
X137557998Y-110559893D01*
X137571347Y-110568392D01*
X137574218Y-110573466D01*
X137573405Y-110587967D01*
X137572355Y-110590081D01*
X137567542Y-110594165D01*
X137557726Y-110596970D01*
X137540709Y-110598651D01*
X137514291Y-110599364D01*
X137476273Y-110599263D01*
X137424457Y-110598505D01*
X137407475Y-110598207D01*
X137360580Y-110597268D01*
X137326438Y-110596131D01*
X137302550Y-110594441D01*
X137286420Y-110591845D01*
X137275548Y-110587985D01*
X137267436Y-110582507D01*
X137259586Y-110575056D01*
X137248637Y-110561314D01*
X137238403Y-110533334D01*
X137239957Y-110505087D01*
X137251969Y-110480300D01*
X137273112Y-110462695D01*
X137302055Y-110456000D01*
X137303233Y-110456059D01*
G37*
G36*
X137730640Y-110617510D02*
G01*
X137761274Y-110620237D01*
X137803867Y-110625002D01*
X137860376Y-110631815D01*
X137899448Y-110636645D01*
X137936664Y-110641631D01*
X137962839Y-110646053D01*
X137980680Y-110650648D01*
X137992897Y-110656152D01*
X138002198Y-110663302D01*
X138011292Y-110672834D01*
X138023586Y-110688083D01*
X138030607Y-110705514D01*
X138029568Y-110727098D01*
X138021635Y-110750689D01*
X138004245Y-110774000D01*
X138003945Y-110774259D01*
X137989049Y-110785027D01*
X137973453Y-110790570D01*
X137955052Y-110790286D01*
X137931738Y-110783572D01*
X137901405Y-110769826D01*
X137861945Y-110748445D01*
X137811250Y-110718828D01*
X137774049Y-110696373D01*
X137734997Y-110671636D01*
X137708379Y-110652959D01*
X137693164Y-110639602D01*
X137688322Y-110630828D01*
X137688568Y-110626747D01*
X137690930Y-110621438D01*
X137697424Y-110618121D01*
X137710009Y-110616808D01*
X137730640Y-110617510D01*
G37*
G36*
X141117371Y-109079882D02*
G01*
X141533470Y-109495996D01*
X141165419Y-109863998D01*
X141141970Y-109887434D01*
X141079560Y-109949711D01*
X141020820Y-110008186D01*
X140966703Y-110061918D01*
X140918164Y-110109966D01*
X140876155Y-110151388D01*
X140841632Y-110185244D01*
X140815546Y-110210592D01*
X140798853Y-110226491D01*
X140792506Y-110232000D01*
X140790213Y-110224743D01*
X140787474Y-110204579D01*
X140784664Y-110174625D01*
X140782127Y-110138000D01*
X140780046Y-110106774D01*
X140776323Y-110061656D01*
X140772169Y-110020312D01*
X140768154Y-109988848D01*
X140759699Y-109933697D01*
X140978513Y-109714844D01*
X141197326Y-109495991D01*
X140938343Y-109236998D01*
X140679360Y-108978005D01*
X140688516Y-108855002D01*
X140689945Y-108835696D01*
X140693209Y-108790688D01*
X140696063Y-108750169D01*
X140698239Y-108717960D01*
X140699472Y-108697884D01*
X140701271Y-108663768D01*
X141117371Y-109079882D01*
G37*
G36*
X137664186Y-110668739D02*
G01*
X137668590Y-110676241D01*
X137678513Y-110696458D01*
X137692539Y-110726687D01*
X137709504Y-110764421D01*
X137728250Y-110807150D01*
X137728261Y-110807175D01*
X137750370Y-110859221D01*
X137766014Y-110898731D01*
X137775809Y-110927514D01*
X137780372Y-110947382D01*
X137780319Y-110960145D01*
X137771621Y-110980136D01*
X137751973Y-111003325D01*
X137728334Y-111018350D01*
X137726294Y-111019085D01*
X137711548Y-111022708D01*
X137697439Y-111020536D01*
X137676635Y-111011614D01*
X137674638Y-111010652D01*
X137660266Y-111002160D01*
X137649541Y-110991207D01*
X137641940Y-110975539D01*
X137636939Y-110952899D01*
X137634015Y-110921034D01*
X137632645Y-110877687D01*
X137632304Y-110820603D01*
X137632442Y-110777512D01*
X137633096Y-110736961D01*
X137634457Y-110708348D01*
X137636712Y-110689432D01*
X137640047Y-110677969D01*
X137644647Y-110671718D01*
X137652689Y-110667023D01*
X137664186Y-110668739D01*
G37*
G36*
X136996806Y-108035696D02*
G01*
X137004119Y-108050952D01*
X137012559Y-108074000D01*
X137025484Y-108108356D01*
X137053977Y-108162117D01*
X137087866Y-108203744D01*
X137093499Y-108209352D01*
X137106817Y-108224824D01*
X137112140Y-108234767D01*
X137112120Y-108235045D01*
X137106529Y-108245052D01*
X137092937Y-108262842D01*
X137074128Y-108284755D01*
X137062565Y-108297530D01*
X137046663Y-108313153D01*
X137032371Y-108321229D01*
X137015415Y-108322636D01*
X136991520Y-108318255D01*
X136956410Y-108308963D01*
X136929586Y-108303340D01*
X136880316Y-108297902D01*
X136822368Y-108296000D01*
X136793361Y-108295654D01*
X136763680Y-108294415D01*
X136743480Y-108292486D01*
X136736022Y-108290090D01*
X136737082Y-108288210D01*
X136746863Y-108276769D01*
X136765275Y-108257014D01*
X136790343Y-108230925D01*
X136820089Y-108200485D01*
X136852539Y-108167674D01*
X136885717Y-108134474D01*
X136917646Y-108102867D01*
X136946352Y-108074835D01*
X136969857Y-108052359D01*
X136986187Y-108037420D01*
X136993366Y-108032000D01*
X136996806Y-108035696D01*
G37*
G36*
X138796685Y-106768014D02*
G01*
X139064755Y-107035910D01*
X139064755Y-107129671D01*
X139068389Y-107215230D01*
X139080736Y-107305716D01*
X139085729Y-107331625D01*
X139091405Y-107361684D01*
X139095279Y-107382962D01*
X139096711Y-107392000D01*
X139096373Y-107391857D01*
X139088293Y-107384543D01*
X139070246Y-107367201D01*
X139043296Y-107340882D01*
X139008509Y-107306639D01*
X138966952Y-107265521D01*
X138919688Y-107218579D01*
X138867784Y-107166865D01*
X138812304Y-107111430D01*
X138527903Y-106826861D01*
X138439250Y-106915430D01*
X138350596Y-107004000D01*
X138329853Y-106976000D01*
X138324504Y-106969154D01*
X138305768Y-106947255D01*
X138281235Y-106920302D01*
X138254796Y-106892620D01*
X138240394Y-106877767D01*
X138219851Y-106855881D01*
X138205732Y-106839907D01*
X138200483Y-106832547D01*
X138200820Y-106831908D01*
X138208831Y-106822734D01*
X138226439Y-106804097D01*
X138252229Y-106777450D01*
X138284787Y-106744247D01*
X138322699Y-106705941D01*
X138364549Y-106663985D01*
X138528615Y-106500117D01*
X138796685Y-106768014D01*
G37*
G36*
X139542932Y-107796074D02*
G01*
X139582831Y-107799613D01*
X139630039Y-107804532D01*
X139682000Y-107810508D01*
X139736159Y-107817217D01*
X139789963Y-107824334D01*
X139840854Y-107831537D01*
X139886279Y-107838501D01*
X139923682Y-107844904D01*
X139950508Y-107850421D01*
X139964202Y-107854728D01*
X139970598Y-107858644D01*
X140000528Y-107886461D01*
X140018134Y-107920565D01*
X140023402Y-107957674D01*
X140016318Y-107994506D01*
X139996868Y-108027777D01*
X139965039Y-108054207D01*
X139959831Y-108057148D01*
X139943332Y-108065124D01*
X139927156Y-108069613D01*
X139909566Y-108069994D01*
X139888822Y-108065646D01*
X139863186Y-108055946D01*
X139830919Y-108040274D01*
X139790283Y-108018008D01*
X139739539Y-107988526D01*
X139676948Y-107951206D01*
X139627983Y-107921673D01*
X139578900Y-107891524D01*
X139541440Y-107867684D01*
X139514327Y-107849281D01*
X139496287Y-107835442D01*
X139486045Y-107825293D01*
X139482326Y-107817964D01*
X139482927Y-107806348D01*
X139492632Y-107794991D01*
X139495281Y-107794430D01*
X139512897Y-107794238D01*
X139542932Y-107796074D01*
G37*
G36*
X139815153Y-107290122D02*
G01*
X139846840Y-107300161D01*
X139865154Y-107309833D01*
X139892097Y-107335695D01*
X139909129Y-107368656D01*
X139915277Y-107404921D01*
X139909564Y-107440692D01*
X139891015Y-107472173D01*
X139879698Y-107481795D01*
X139856124Y-107498774D01*
X139822784Y-107521265D01*
X139781756Y-107547896D01*
X139735119Y-107577296D01*
X139684951Y-107608094D01*
X139636670Y-107636950D01*
X139590751Y-107663618D01*
X139550675Y-107686099D01*
X139518379Y-107703331D01*
X139495804Y-107714251D01*
X139484888Y-107717795D01*
X139471619Y-107711914D01*
X139466727Y-107696359D01*
X139473024Y-107673318D01*
X139490361Y-107644767D01*
X139493601Y-107640380D01*
X139510102Y-107617604D01*
X139532508Y-107586251D01*
X139558290Y-107549872D01*
X139584919Y-107512015D01*
X139622043Y-107459246D01*
X139655764Y-107412017D01*
X139682750Y-107375311D01*
X139704171Y-107347688D01*
X139721194Y-107327710D01*
X139734988Y-107313935D01*
X139746721Y-107304925D01*
X139757561Y-107299239D01*
X139759205Y-107298557D01*
X139788522Y-107289614D01*
X139815153Y-107290122D01*
G37*
G36*
X138876231Y-107537489D02*
G01*
X138902062Y-107543440D01*
X138934833Y-107554508D01*
X138976408Y-107571166D01*
X139028649Y-107593883D01*
X139093417Y-107623132D01*
X139140788Y-107645001D01*
X139188200Y-107667476D01*
X139229066Y-107687468D01*
X139261367Y-107703969D01*
X139283086Y-107715969D01*
X139292206Y-107722462D01*
X139295417Y-107731969D01*
X139288362Y-107748562D01*
X139287150Y-107749927D01*
X139282126Y-107753735D01*
X139274064Y-107756574D01*
X139261112Y-107758515D01*
X139241419Y-107759626D01*
X139213134Y-107759977D01*
X139174406Y-107759636D01*
X139123382Y-107758674D01*
X139058212Y-107757158D01*
X139009191Y-107755885D01*
X138949945Y-107753991D01*
X138903817Y-107751943D01*
X138869093Y-107749619D01*
X138844060Y-107746896D01*
X138827004Y-107743650D01*
X138816211Y-107739759D01*
X138812146Y-107737533D01*
X138784393Y-107713254D01*
X138767532Y-107681324D01*
X138761667Y-107645473D01*
X138766899Y-107609429D01*
X138783331Y-107576920D01*
X138811064Y-107551676D01*
X138821758Y-107545628D01*
X138837942Y-107539055D01*
X138855478Y-107536184D01*
X138876231Y-107537489D01*
G37*
G36*
X139327651Y-107111264D02*
G01*
X139359098Y-107125488D01*
X139376794Y-107140004D01*
X139396726Y-107164309D01*
X139406943Y-107193370D01*
X139409952Y-107232456D01*
X139409818Y-107261884D01*
X139409155Y-107302869D01*
X139408048Y-107350744D01*
X139406595Y-107402649D01*
X139404893Y-107455722D01*
X139403042Y-107507103D01*
X139401137Y-107553931D01*
X139399278Y-107593345D01*
X139397561Y-107622484D01*
X139396084Y-107638487D01*
X139392984Y-107652954D01*
X139385785Y-107662007D01*
X139371113Y-107662487D01*
X139369219Y-107662284D01*
X139364571Y-107661652D01*
X139360251Y-107659919D01*
X139355698Y-107655833D01*
X139350349Y-107648139D01*
X139343644Y-107635583D01*
X139335020Y-107616912D01*
X139323915Y-107590870D01*
X139309769Y-107556206D01*
X139292019Y-107511664D01*
X139270103Y-107455991D01*
X139243461Y-107387933D01*
X139211530Y-107306236D01*
X139196570Y-107264695D01*
X139188588Y-107231466D01*
X139188333Y-107204608D01*
X139195790Y-107180232D01*
X139210944Y-107154451D01*
X139225037Y-107138308D01*
X139255966Y-107118584D01*
X139291722Y-107109266D01*
X139327651Y-107111264D01*
G37*
G36*
X139432857Y-107874116D02*
G01*
X139437334Y-107878729D01*
X139447705Y-107896237D01*
X139462263Y-107924682D01*
X139480040Y-107961823D01*
X139500065Y-108005420D01*
X139521368Y-108053232D01*
X139542981Y-108103018D01*
X139563934Y-108152539D01*
X139583256Y-108199552D01*
X139599978Y-108241818D01*
X139613131Y-108277097D01*
X139621744Y-108303147D01*
X139624848Y-108317728D01*
X139620184Y-108348682D01*
X139602502Y-108385288D01*
X139574494Y-108414000D01*
X139568661Y-108417868D01*
X139541991Y-108428773D01*
X139507286Y-108432000D01*
X139506134Y-108431998D01*
X139478263Y-108430150D01*
X139458058Y-108422938D01*
X139437639Y-108407600D01*
X139433770Y-108404159D01*
X139421267Y-108391814D01*
X139411447Y-108378659D01*
X139404049Y-108362794D01*
X139398810Y-108342325D01*
X139395471Y-108315352D01*
X139393768Y-108279980D01*
X139393441Y-108234310D01*
X139394228Y-108176446D01*
X139395868Y-108104490D01*
X139397537Y-108040599D01*
X139399286Y-107986571D01*
X139401267Y-107945336D01*
X139403744Y-107915245D01*
X139406982Y-107894644D01*
X139411248Y-107881882D01*
X139416805Y-107875308D01*
X139423920Y-107873270D01*
X139432857Y-107874116D01*
G37*
G36*
X139316891Y-107833032D02*
G01*
X139321782Y-107837390D01*
X139327780Y-107844063D01*
X139330344Y-107851137D01*
X139328089Y-107860917D01*
X139319912Y-107875996D01*
X139304712Y-107898965D01*
X139281386Y-107932415D01*
X139264361Y-107956551D01*
X139232733Y-108000936D01*
X139200535Y-108045669D01*
X139172611Y-108084000D01*
X139155314Y-108107613D01*
X139133001Y-108138318D01*
X139114590Y-108163928D01*
X139102885Y-108180557D01*
X139102699Y-108180829D01*
X139083659Y-108203177D01*
X139061531Y-108222557D01*
X139042561Y-108233040D01*
X139007630Y-108240101D01*
X138972543Y-108234576D01*
X138940206Y-108218175D01*
X138913522Y-108192609D01*
X138895395Y-108159586D01*
X138888730Y-108120816D01*
X138888763Y-108115560D01*
X138889835Y-108097014D01*
X138893489Y-108080805D01*
X138901165Y-108065697D01*
X138914306Y-108050456D01*
X138934352Y-108033844D01*
X138962745Y-108014626D01*
X139000925Y-107991566D01*
X139050333Y-107963427D01*
X139112412Y-107928974D01*
X139112454Y-107928951D01*
X139169578Y-107897467D01*
X139214361Y-107873005D01*
X139248464Y-107854840D01*
X139273547Y-107842244D01*
X139291271Y-107834492D01*
X139303295Y-107830856D01*
X139311282Y-107830612D01*
X139316891Y-107833032D01*
G37*
G36*
X136203506Y-110025004D02*
G01*
X136246720Y-110026370D01*
X136288134Y-110028506D01*
X136324654Y-110031364D01*
X136353185Y-110034896D01*
X136414488Y-110044944D01*
X136976544Y-110606909D01*
X137022630Y-110653032D01*
X137099361Y-110730028D01*
X137172247Y-110803419D01*
X137240538Y-110872437D01*
X137303484Y-110936314D01*
X137360335Y-110994282D01*
X137410341Y-111045572D01*
X137452751Y-111089418D01*
X137486816Y-111125051D01*
X137511785Y-111151703D01*
X137526908Y-111168605D01*
X137531435Y-111174991D01*
X137530830Y-111175449D01*
X137518654Y-111181698D01*
X137496350Y-111191347D01*
X137468252Y-111202509D01*
X137437793Y-111216191D01*
X137399860Y-111237360D01*
X137368221Y-111259156D01*
X137324207Y-111294403D01*
X136694474Y-110665685D01*
X136673309Y-110644549D01*
X136590666Y-110561902D01*
X136511507Y-110482558D01*
X136436546Y-110407245D01*
X136366498Y-110336687D01*
X136302077Y-110271610D01*
X136243999Y-110212740D01*
X136192979Y-110160801D01*
X136149730Y-110116520D01*
X136114968Y-110080622D01*
X136089407Y-110053833D01*
X136073762Y-110036878D01*
X136068749Y-110030483D01*
X136074536Y-110028201D01*
X136094007Y-110026007D01*
X136124056Y-110024775D01*
X136161587Y-110024456D01*
X136203506Y-110025004D01*
G37*
G36*
X139291506Y-111504891D02*
G01*
X139325169Y-111507492D01*
X139372357Y-111509892D01*
X139416333Y-111510876D01*
X139450754Y-111510229D01*
X139459024Y-111509827D01*
X139486271Y-111509461D01*
X139504829Y-111510748D01*
X139511065Y-111513493D01*
X139507440Y-111517646D01*
X139493336Y-111532409D01*
X139469367Y-111557003D01*
X139436357Y-111590599D01*
X139395126Y-111632367D01*
X139346498Y-111681478D01*
X139291292Y-111737100D01*
X139230333Y-111798406D01*
X139164441Y-111864564D01*
X139094438Y-111934745D01*
X139021146Y-112008119D01*
X138963533Y-112065726D01*
X138892717Y-112136445D01*
X138825783Y-112203190D01*
X138763556Y-112265144D01*
X138706859Y-112321488D01*
X138656517Y-112371406D01*
X138613355Y-112414080D01*
X138578197Y-112448694D01*
X138551868Y-112474430D01*
X138535191Y-112490471D01*
X138528991Y-112496000D01*
X138524432Y-112492383D01*
X138509714Y-112478669D01*
X138486137Y-112455922D01*
X138454963Y-112425410D01*
X138417456Y-112388404D01*
X138374881Y-112346172D01*
X138328502Y-112299981D01*
X138279582Y-112251102D01*
X138229386Y-112200802D01*
X138179177Y-112150351D01*
X138130221Y-112101017D01*
X138083780Y-112054069D01*
X138041119Y-112010775D01*
X138003501Y-111972405D01*
X137972192Y-111940227D01*
X137948454Y-111915509D01*
X137933553Y-111899521D01*
X137928751Y-111893531D01*
X137931314Y-111893027D01*
X137946619Y-111893167D01*
X137972249Y-111894762D01*
X138004421Y-111897608D01*
X138029682Y-111899508D01*
X138075580Y-111901212D01*
X138125538Y-111901514D01*
X138172474Y-111900300D01*
X138268504Y-111895819D01*
X138400312Y-112027921D01*
X138532120Y-112160022D01*
X138863468Y-111828046D01*
X139194817Y-111496070D01*
X139291506Y-111504891D01*
G37*
G36*
X138112795Y-111172896D02*
G01*
X138118114Y-111195172D01*
X138122737Y-111227918D01*
X138126226Y-111269349D01*
X138125735Y-111332694D01*
X138115409Y-111406629D01*
X138095832Y-111480037D01*
X138068203Y-111550362D01*
X138033719Y-111615047D01*
X137993579Y-111671536D01*
X137948981Y-111717271D01*
X137901123Y-111749697D01*
X137884418Y-111757923D01*
X137858818Y-111769659D01*
X137840370Y-111777065D01*
X137829433Y-111779026D01*
X137804108Y-111780736D01*
X137770317Y-111781317D01*
X137732336Y-111780629D01*
X137699774Y-111778693D01*
X137618461Y-111766202D01*
X137546467Y-111743543D01*
X137484792Y-111711319D01*
X137434434Y-111670133D01*
X137396394Y-111620586D01*
X137371668Y-111563279D01*
X137364103Y-111517324D01*
X137369092Y-111466179D01*
X137387348Y-111418814D01*
X137417405Y-111377189D01*
X137457799Y-111343265D01*
X137507063Y-111319002D01*
X137563732Y-111306359D01*
X137564893Y-111306242D01*
X137613995Y-111307216D01*
X137654413Y-111321085D01*
X137687527Y-111348317D01*
X137709825Y-111382179D01*
X137719340Y-111420558D01*
X137713363Y-111458775D01*
X137691843Y-111495111D01*
X137666705Y-111515477D01*
X137635789Y-111525327D01*
X137604231Y-111523749D01*
X137576209Y-111510983D01*
X137555903Y-111487270D01*
X137547165Y-111465040D01*
X137546450Y-111434287D01*
X137560311Y-111401806D01*
X137570919Y-111383657D01*
X137574751Y-111372189D01*
X137568169Y-111369258D01*
X137550278Y-111372227D01*
X137506109Y-111388332D01*
X137473496Y-111414999D01*
X137453313Y-111451221D01*
X137446399Y-111496000D01*
X137452061Y-111537843D01*
X137471304Y-111575546D01*
X137505142Y-111607716D01*
X137529860Y-111622838D01*
X137581136Y-111640786D01*
X137637545Y-111645983D01*
X137697135Y-111639098D01*
X137757952Y-111620799D01*
X137818044Y-111591755D01*
X137875460Y-111552637D01*
X137928245Y-111504114D01*
X137974448Y-111446854D01*
X137991568Y-111419986D01*
X138017473Y-111373655D01*
X138042923Y-111322632D01*
X138065009Y-111272848D01*
X138080816Y-111230234D01*
X138088871Y-111205061D01*
X138096613Y-111181573D01*
X138101366Y-111168000D01*
X138101823Y-111166899D01*
X138107219Y-111162877D01*
X138112795Y-111172896D01*
G37*
G36*
X140347691Y-108232257D02*
G01*
X140421589Y-108259658D01*
X140439483Y-108268981D01*
X140497675Y-108309363D01*
X140542831Y-108358894D01*
X140575046Y-108417737D01*
X140594415Y-108486052D01*
X140601033Y-108564000D01*
X140597756Y-108627455D01*
X140582410Y-108720471D01*
X140555185Y-108818855D01*
X140516820Y-108920445D01*
X140468052Y-109023080D01*
X140409618Y-109124599D01*
X140407543Y-109127895D01*
X140374391Y-109179116D01*
X140342298Y-109226214D01*
X140312696Y-109267266D01*
X140287013Y-109300350D01*
X140266681Y-109323544D01*
X140253129Y-109334926D01*
X140242088Y-109339630D01*
X140227244Y-109343458D01*
X140218093Y-109338718D01*
X140199886Y-109325037D01*
X140175372Y-109304545D01*
X140147219Y-109279376D01*
X140067237Y-109211740D01*
X139975621Y-109149180D01*
X139881987Y-109101120D01*
X139784982Y-109066766D01*
X139765909Y-109062048D01*
X139737711Y-109057334D01*
X139703752Y-109054318D01*
X139660626Y-109052726D01*
X139604925Y-109052284D01*
X139584340Y-109052319D01*
X139539257Y-109052803D01*
X139503497Y-109054322D01*
X139472217Y-109057466D01*
X139440576Y-109062825D01*
X139403733Y-109070992D01*
X139356847Y-109082556D01*
X139344854Y-109085517D01*
X139294561Y-109096946D01*
X139243704Y-109107162D01*
X139197610Y-109115146D01*
X139161612Y-109119879D01*
X139149555Y-109120925D01*
X139055269Y-109122067D01*
X138967149Y-109110591D01*
X138886321Y-109087030D01*
X138813915Y-109051915D01*
X138751059Y-109005780D01*
X138698879Y-108949155D01*
X138658506Y-108882574D01*
X138646078Y-108855790D01*
X138636519Y-108831057D01*
X138631276Y-108808139D01*
X138629069Y-108781098D01*
X138628618Y-108744000D01*
X138628968Y-108722577D01*
X138634159Y-108671969D01*
X138647116Y-108629556D01*
X138669825Y-108590215D01*
X138704271Y-108548823D01*
X138736681Y-108518632D01*
X138785188Y-108488811D01*
X138835951Y-108474343D01*
X138888075Y-108475442D01*
X138940666Y-108492323D01*
X138950106Y-108497087D01*
X138991316Y-108525843D01*
X139024714Y-108562241D01*
X139048942Y-108603439D01*
X139062644Y-108646600D01*
X139064462Y-108688881D01*
X139053039Y-108727444D01*
X139048430Y-108735014D01*
X139033400Y-108753673D01*
X139014965Y-108772178D01*
X138997507Y-108786347D01*
X138985405Y-108792000D01*
X138983417Y-108786712D01*
X138983630Y-108769512D01*
X138986494Y-108744520D01*
X138986906Y-108741760D01*
X138989942Y-108711973D01*
X138988075Y-108690859D01*
X138980815Y-108672166D01*
X138978428Y-108667795D01*
X138953155Y-108638970D01*
X138917127Y-108621759D01*
X138870078Y-108616029D01*
X138855905Y-108616197D01*
X138832602Y-108618579D01*
X138816300Y-108625383D01*
X138800811Y-108638630D01*
X138800273Y-108639174D01*
X138780404Y-108667789D01*
X138766188Y-108704189D01*
X138760704Y-108740547D01*
X138761567Y-108749580D01*
X138766090Y-108772408D01*
X138773199Y-108799307D01*
X138774248Y-108802725D01*
X138797537Y-108851443D01*
X138832684Y-108891277D01*
X138877890Y-108921540D01*
X138931357Y-108941545D01*
X138991286Y-108950603D01*
X139055878Y-108948028D01*
X139123337Y-108933132D01*
X139139629Y-108927841D01*
X139175967Y-108914061D01*
X139210613Y-108897444D01*
X139245315Y-108876678D01*
X139281822Y-108850449D01*
X139321883Y-108817443D01*
X139367248Y-108776346D01*
X139419666Y-108725845D01*
X139480886Y-108664628D01*
X139504953Y-108640308D01*
X139561530Y-108583609D01*
X139609553Y-108536405D01*
X139650771Y-108497129D01*
X139686933Y-108464217D01*
X139719790Y-108436105D01*
X139751091Y-108411227D01*
X139782587Y-108388019D01*
X139816026Y-108364916D01*
X139817840Y-108363696D01*
X139911617Y-108307409D01*
X140004492Y-108264650D01*
X140095503Y-108235588D01*
X140183682Y-108220390D01*
X140268067Y-108219224D01*
X140347691Y-108232257D01*
G37*
G36*
X137513940Y-106160195D02*
G01*
X137521552Y-106170993D01*
X137534396Y-106192610D01*
X137551254Y-106222972D01*
X137570911Y-106260000D01*
X137572895Y-106263801D01*
X137656290Y-106409605D01*
X137747296Y-106542105D01*
X137846958Y-106662569D01*
X137956325Y-106772267D01*
X138076444Y-106872468D01*
X138171759Y-106950710D01*
X138273939Y-107050242D01*
X138361598Y-107154849D01*
X138434249Y-107264000D01*
X138450428Y-107292547D01*
X138496094Y-107386801D01*
X138528457Y-107480156D01*
X138548696Y-107576569D01*
X138557987Y-107680000D01*
X138558876Y-107707096D01*
X138559264Y-107741820D01*
X138558402Y-107775162D01*
X138555991Y-107809243D01*
X138551735Y-107846183D01*
X138545337Y-107888104D01*
X138536498Y-107937125D01*
X138524923Y-107995368D01*
X138510312Y-108064952D01*
X138492370Y-108148000D01*
X138469881Y-108254347D01*
X138451611Y-108348875D01*
X138437956Y-108431547D01*
X138428925Y-108504114D01*
X138424527Y-108568323D01*
X138424770Y-108625923D01*
X138429662Y-108678664D01*
X138439212Y-108728293D01*
X138453429Y-108776559D01*
X138472320Y-108825212D01*
X138495895Y-108876000D01*
X138515865Y-108913669D01*
X138573069Y-108999105D01*
X138640734Y-109072568D01*
X138718455Y-109133714D01*
X138805824Y-109182203D01*
X138902434Y-109217692D01*
X138914748Y-109221077D01*
X138946441Y-109228165D01*
X138979409Y-109232578D01*
X139018548Y-109234839D01*
X139068756Y-109235473D01*
X139112521Y-109235047D01*
X139152188Y-109233091D01*
X139187887Y-109228812D01*
X139225978Y-109221418D01*
X139272821Y-109210121D01*
X139324909Y-109197297D01*
X139379934Y-109185140D01*
X139427663Y-109176761D01*
X139472514Y-109171536D01*
X139518905Y-109168843D01*
X139571252Y-109168060D01*
X139621556Y-109169249D01*
X139713889Y-109179193D01*
X139795891Y-109199602D01*
X139869118Y-109230926D01*
X139935127Y-109273618D01*
X139935539Y-109273937D01*
X139957577Y-109293640D01*
X139985503Y-109322326D01*
X140015776Y-109356196D01*
X140044859Y-109391448D01*
X140080101Y-109435560D01*
X140108113Y-109468828D01*
X140130783Y-109493079D01*
X140150122Y-109510297D01*
X140168141Y-109522468D01*
X140186852Y-109531575D01*
X140217554Y-109541292D01*
X140246594Y-109542355D01*
X140278418Y-109534110D01*
X140317706Y-109516000D01*
X140321875Y-109513842D01*
X140348512Y-109500741D01*
X140369573Y-109491499D01*
X140380810Y-109488000D01*
X140387732Y-109490018D01*
X140404942Y-109504090D01*
X140426573Y-109529945D01*
X140451453Y-109565646D01*
X140478413Y-109609254D01*
X140506284Y-109658831D01*
X140533894Y-109712440D01*
X140560075Y-109768142D01*
X140583656Y-109824000D01*
X140604919Y-109880586D01*
X140647094Y-110016931D01*
X140678520Y-110159290D01*
X140699459Y-110309341D01*
X140710174Y-110468764D01*
X140710925Y-110639234D01*
X140709519Y-110684253D01*
X140706218Y-110754227D01*
X140701604Y-110828250D01*
X140695890Y-110904318D01*
X140689289Y-110980428D01*
X140682012Y-111054578D01*
X140674272Y-111124765D01*
X140666281Y-111188986D01*
X140658251Y-111245238D01*
X140650393Y-111291519D01*
X140642921Y-111325827D01*
X140636046Y-111346157D01*
X140618443Y-111369783D01*
X140584653Y-111397505D01*
X140538680Y-111424287D01*
X140482581Y-111449232D01*
X140418414Y-111471442D01*
X140348237Y-111490020D01*
X140274107Y-111504067D01*
X140260229Y-111505932D01*
X140205826Y-111509875D01*
X140145208Y-111510180D01*
X140083874Y-111507081D01*
X140027320Y-111500812D01*
X139981044Y-111491606D01*
X139959762Y-111485158D01*
X139909474Y-111466060D01*
X139856094Y-111441697D01*
X139805853Y-111415027D01*
X139764976Y-111389006D01*
X139741468Y-111371236D01*
X139661486Y-111298654D01*
X139589157Y-111213698D01*
X139525440Y-111118150D01*
X139471292Y-111013792D01*
X139427674Y-110902408D01*
X139395545Y-110785779D01*
X139375863Y-110665689D01*
X139374007Y-110646562D01*
X139372022Y-110573286D01*
X139379973Y-110506106D01*
X139398808Y-110439777D01*
X139429475Y-110369058D01*
X139469426Y-110301721D01*
X139526193Y-110231398D01*
X139593287Y-110168190D01*
X139667784Y-110114815D01*
X139746761Y-110073991D01*
X139763842Y-110067223D01*
X139793407Y-110058428D01*
X139824781Y-110054036D01*
X139865007Y-110052783D01*
X139901017Y-110053458D01*
X139928650Y-110056559D01*
X139952574Y-110063300D01*
X139979024Y-110074888D01*
X139998145Y-110085076D01*
X140050890Y-110122388D01*
X140098867Y-110169141D01*
X140136962Y-110220617D01*
X140145795Y-110235789D01*
X140157880Y-110261473D01*
X140163524Y-110285926D01*
X140164971Y-110316858D01*
X140164044Y-110340080D01*
X140155866Y-110375433D01*
X140137102Y-110403774D01*
X140105164Y-110430000D01*
X140097456Y-110434688D01*
X140063933Y-110445974D01*
X140026581Y-110447565D01*
X139988673Y-110440680D01*
X139953488Y-110426535D01*
X139924299Y-110406345D01*
X139904384Y-110381328D01*
X139897017Y-110352701D01*
X139897227Y-110346949D01*
X139905475Y-110319600D01*
X139923093Y-110302028D01*
X139946446Y-110295435D01*
X139971901Y-110301025D01*
X139995821Y-110320000D01*
X140001721Y-110326483D01*
X140023540Y-110341346D01*
X140043711Y-110340997D01*
X140060932Y-110325331D01*
X140064761Y-110317747D01*
X140067125Y-110291834D01*
X140058246Y-110262246D01*
X140039983Y-110232320D01*
X140014193Y-110205398D01*
X139982736Y-110184818D01*
X139970759Y-110179708D01*
X139930454Y-110169635D01*
X139887716Y-110167352D01*
X139848037Y-110172820D01*
X139816911Y-110186000D01*
X139790568Y-110206693D01*
X139770488Y-110232213D01*
X139759218Y-110263902D01*
X139754333Y-110306426D01*
X139753689Y-110322987D01*
X139754641Y-110353974D01*
X139760066Y-110380039D01*
X139771219Y-110408791D01*
X139791016Y-110453541D01*
X139743220Y-110462427D01*
X139710485Y-110470064D01*
X139649647Y-110494767D01*
X139599251Y-110531397D01*
X139559113Y-110580154D01*
X139529046Y-110641236D01*
X139508865Y-110714846D01*
X139499166Y-110786473D01*
X139499688Y-110867490D01*
X139514007Y-110941422D01*
X139542202Y-111008963D01*
X139543320Y-111010992D01*
X139560773Y-111038664D01*
X139582053Y-111067119D01*
X139604609Y-111093547D01*
X139625887Y-111115135D01*
X139643336Y-111129072D01*
X139654402Y-111132546D01*
X139659641Y-111131282D01*
X139661547Y-111135022D01*
X139661030Y-111136168D01*
X139665130Y-111147116D01*
X139680632Y-111161360D01*
X139704681Y-111176176D01*
X139724412Y-111186408D01*
X139703423Y-111161472D01*
X139687164Y-111140568D01*
X139655424Y-111091620D01*
X139626614Y-111037315D01*
X139604562Y-110984506D01*
X139593664Y-110944969D01*
X139585442Y-110882215D01*
X139586478Y-110819136D01*
X139596993Y-110762257D01*
X139619034Y-110709576D01*
X139655463Y-110654714D01*
X139701738Y-110605705D01*
X139754653Y-110565896D01*
X139811002Y-110538638D01*
X139822783Y-110534983D01*
X139873095Y-110526200D01*
X139930615Y-110524534D01*
X139989789Y-110529902D01*
X140045064Y-110542218D01*
X140057449Y-110546237D01*
X140123635Y-110575599D01*
X140184493Y-110615491D01*
X140238265Y-110663829D01*
X140283191Y-110718532D01*
X140317511Y-110777517D01*
X140339467Y-110838700D01*
X140347298Y-110900000D01*
X140346979Y-110914134D01*
X140338423Y-110968802D01*
X140319363Y-111016409D01*
X140291338Y-111055217D01*
X140255888Y-111083487D01*
X140214551Y-111099482D01*
X140168868Y-111101463D01*
X140144819Y-111097347D01*
X140104660Y-111082592D01*
X140076737Y-111060067D01*
X140062063Y-111030772D01*
X140061652Y-110995707D01*
X140061847Y-110994687D01*
X140075293Y-110959340D01*
X140097877Y-110935322D01*
X140126994Y-110923148D01*
X140160038Y-110923335D01*
X140194404Y-110936399D01*
X140227486Y-110962856D01*
X140228384Y-110963798D01*
X140245411Y-110977785D01*
X140257475Y-110977963D01*
X140265628Y-110963635D01*
X140270921Y-110934105D01*
X140271784Y-110918443D01*
X140264436Y-110878168D01*
X140242504Y-110841293D01*
X140205540Y-110807214D01*
X140153098Y-110775331D01*
X140121665Y-110763984D01*
X140079462Y-110756922D01*
X140034794Y-110755642D01*
X139993405Y-110760275D01*
X139961037Y-110770953D01*
X139920087Y-110798051D01*
X139880885Y-110840195D01*
X139854951Y-110891043D01*
X139842844Y-110949746D01*
X139842787Y-110984099D01*
X139854525Y-111040544D01*
X139879884Y-111093477D01*
X139917394Y-111141479D01*
X139965587Y-111183129D01*
X140022994Y-111217009D01*
X140088146Y-111241700D01*
X140159574Y-111255783D01*
X140212502Y-111258512D01*
X140269354Y-111255376D01*
X140321918Y-111246687D01*
X140364633Y-111233059D01*
X140387156Y-111221868D01*
X140433692Y-111188189D01*
X140470409Y-111144009D01*
X140497776Y-111088482D01*
X140516259Y-111020761D01*
X140526325Y-110940000D01*
X140526815Y-110932071D01*
X140525087Y-110857452D01*
X140510747Y-110789668D01*
X140483071Y-110725119D01*
X140468960Y-110703364D01*
X140444445Y-110672133D01*
X140414379Y-110637800D01*
X140382312Y-110604225D01*
X140351797Y-110575267D01*
X140326385Y-110554788D01*
X140303610Y-110539077D01*
X140328178Y-110502686D01*
X140351987Y-110464458D01*
X140373142Y-110418826D01*
X140385463Y-110371492D01*
X140391125Y-110316000D01*
X140392274Y-110278520D01*
X140390835Y-110249231D01*
X140386003Y-110224131D01*
X140377072Y-110197250D01*
X140359406Y-110158855D01*
X140319463Y-110100964D01*
X140267074Y-110049274D01*
X140204029Y-110004789D01*
X140132112Y-109968510D01*
X140053113Y-109941440D01*
X139968817Y-109924583D01*
X139881012Y-109918941D01*
X139839680Y-109920552D01*
X139746944Y-109935301D01*
X139658735Y-109964991D01*
X139576181Y-110009073D01*
X139500411Y-110066993D01*
X139432554Y-110138200D01*
X139432288Y-110138527D01*
X139401081Y-110182413D01*
X139369366Y-110236830D01*
X139339689Y-110296651D01*
X139314594Y-110356749D01*
X139296625Y-110412000D01*
X139291894Y-110432052D01*
X139282584Y-110489289D01*
X139276488Y-110554603D01*
X139273873Y-110622571D01*
X139275008Y-110687769D01*
X139280162Y-110744772D01*
X139296726Y-110830952D01*
X139331680Y-110943831D01*
X139380214Y-111051945D01*
X139441177Y-111153173D01*
X139513419Y-111245395D01*
X139595791Y-111326493D01*
X139606898Y-111336596D01*
X139619341Y-111350118D01*
X139622420Y-111357177D01*
X139622382Y-111357214D01*
X139611409Y-111360651D01*
X139587817Y-111364074D01*
X139554957Y-111367278D01*
X139516177Y-111370057D01*
X139474828Y-111372203D01*
X139434257Y-111373511D01*
X139397815Y-111373775D01*
X139368851Y-111372788D01*
X139291388Y-111362952D01*
X139213950Y-111342416D01*
X139137696Y-111310137D01*
X139058657Y-111264734D01*
X139024303Y-111242345D01*
X138999180Y-111224606D01*
X138985834Y-111212464D01*
X138983234Y-111204571D01*
X138990350Y-111199581D01*
X139006149Y-111196148D01*
X139026500Y-111192662D01*
X139066635Y-111182928D01*
X139093595Y-111171032D01*
X139109370Y-111156205D01*
X139114821Y-111145685D01*
X139115207Y-111125492D01*
X139100173Y-111108950D01*
X139069889Y-111096316D01*
X139068430Y-111095914D01*
X139028637Y-111090506D01*
X138989487Y-111097355D01*
X138946568Y-111117209D01*
X138924451Y-111132220D01*
X138901321Y-111153408D01*
X138877157Y-111181688D01*
X138850884Y-111218573D01*
X138821427Y-111265577D01*
X138787710Y-111324215D01*
X138748661Y-111396000D01*
X138730697Y-111429207D01*
X138699598Y-111483741D01*
X138672152Y-111527203D01*
X138646756Y-111562056D01*
X138621805Y-111590759D01*
X138608989Y-111603537D01*
X138552488Y-111649676D01*
X138483689Y-111693085D01*
X138405490Y-111732265D01*
X138320792Y-111765719D01*
X138232493Y-111791948D01*
X138224861Y-111793740D01*
X138193530Y-111799584D01*
X138159693Y-111804086D01*
X138127008Y-111806986D01*
X138099132Y-111808020D01*
X138079725Y-111806926D01*
X138072443Y-111803441D01*
X138074558Y-111798537D01*
X138083627Y-111783395D01*
X138097414Y-111762599D01*
X138113369Y-111736866D01*
X138138591Y-111687317D01*
X138163353Y-111629069D01*
X138185880Y-111566414D01*
X138204399Y-111503644D01*
X138213449Y-111463880D01*
X138224899Y-111390558D01*
X138231189Y-111314193D01*
X138232168Y-111239279D01*
X138227684Y-111170307D01*
X138217586Y-111111770D01*
X138207380Y-111076080D01*
X138178070Y-111000551D01*
X138140404Y-110928660D01*
X138097368Y-110866498D01*
X138057306Y-110816997D01*
X138098145Y-110803437D01*
X138136254Y-110794882D01*
X138184869Y-110790262D01*
X138236913Y-110789937D01*
X138286292Y-110793939D01*
X138326912Y-110802296D01*
X138343686Y-110807820D01*
X138363895Y-110815530D01*
X138387330Y-110825735D01*
X138416153Y-110839472D01*
X138452529Y-110857775D01*
X138498622Y-110881682D01*
X138556595Y-110912226D01*
X138598183Y-110933708D01*
X138650543Y-110958415D01*
X138694450Y-110975452D01*
X138732700Y-110985694D01*
X138768093Y-110990013D01*
X138803424Y-110989284D01*
X138848324Y-110982217D01*
X138911680Y-110959493D01*
X138967915Y-110923385D01*
X139015245Y-110875139D01*
X139051883Y-110816000D01*
X139053478Y-110812650D01*
X139065704Y-110784459D01*
X139072753Y-110759995D01*
X139075984Y-110732697D01*
X139076759Y-110696000D01*
X139076759Y-110695479D01*
X139075941Y-110658738D01*
X139072686Y-110631640D01*
X139065747Y-110607946D01*
X139053878Y-110581417D01*
X139026865Y-110538462D01*
X138989973Y-110503906D01*
X138942629Y-110479206D01*
X138882912Y-110463030D01*
X138878110Y-110462189D01*
X138828580Y-110460583D01*
X138784501Y-110473593D01*
X138743683Y-110501829D01*
X138721289Y-110524667D01*
X138694547Y-110566050D01*
X138683597Y-110609406D01*
X138688358Y-110654966D01*
X138707479Y-110698664D01*
X138738014Y-110732146D01*
X138778196Y-110753631D01*
X138826397Y-110761857D01*
X138832101Y-110761954D01*
X138856130Y-110760587D01*
X138871918Y-110754340D01*
X138885914Y-110740946D01*
X138899105Y-110720902D01*
X138903653Y-110693337D01*
X138892247Y-110665780D01*
X138890899Y-110663923D01*
X138873365Y-110650199D01*
X138852159Y-110651475D01*
X138826404Y-110667776D01*
X138821771Y-110671521D01*
X138806748Y-110681391D01*
X138798513Y-110683174D01*
X138797660Y-110681968D01*
X138797364Y-110668982D01*
X138802866Y-110649821D01*
X138811895Y-110630741D01*
X138822179Y-110618000D01*
X138832235Y-110612330D01*
X138860369Y-110607438D01*
X138889938Y-110613597D01*
X138914702Y-110630000D01*
X138921997Y-110638256D01*
X138944368Y-110676953D01*
X138953345Y-110719341D01*
X138949543Y-110762362D01*
X138933575Y-110802957D01*
X138906056Y-110838066D01*
X138867600Y-110864631D01*
X138861576Y-110867440D01*
X138809983Y-110882024D01*
X138756058Y-110880818D01*
X138699883Y-110863846D01*
X138641540Y-110831130D01*
X138581109Y-110782695D01*
X138531027Y-110731501D01*
X138472501Y-110653154D01*
X138427632Y-110568151D01*
X138396625Y-110477799D01*
X138379686Y-110383401D01*
X138377020Y-110286264D01*
X138388831Y-110187692D01*
X138415325Y-110088990D01*
X138456707Y-109991464D01*
X138463530Y-109978980D01*
X138479057Y-109952524D01*
X138500068Y-109917964D01*
X138524696Y-109878359D01*
X138551072Y-109836774D01*
X138567476Y-109810959D01*
X138601903Y-109754618D01*
X138627941Y-109707843D01*
X138646568Y-109668415D01*
X138658764Y-109634112D01*
X138665507Y-109602714D01*
X138667776Y-109572000D01*
X138662264Y-109525658D01*
X138642530Y-109476031D01*
X138610195Y-109431623D01*
X138567058Y-109394834D01*
X138514917Y-109368063D01*
X138496841Y-109361836D01*
X138471328Y-109354756D01*
X138453833Y-109351999D01*
X138445524Y-109352704D01*
X138415573Y-109362391D01*
X138380122Y-109381852D01*
X138342517Y-109409048D01*
X138306109Y-109441939D01*
X138289611Y-109458904D01*
X138264308Y-109486490D01*
X138239866Y-109515611D01*
X138214448Y-109548696D01*
X138186219Y-109588171D01*
X138153345Y-109636464D01*
X138113990Y-109696000D01*
X138096024Y-109722864D01*
X138033246Y-109807496D01*
X137968145Y-109880186D01*
X137897734Y-109944035D01*
X137819027Y-110002141D01*
X137780855Y-110026898D01*
X137672889Y-110087252D01*
X137564417Y-110133097D01*
X137453003Y-110165354D01*
X137336211Y-110184946D01*
X137302055Y-110188280D01*
X137268042Y-110190211D01*
X137233911Y-110190328D01*
X137198287Y-110188348D01*
X137159799Y-110183986D01*
X137117072Y-110176959D01*
X137068734Y-110166981D01*
X137013412Y-110153769D01*
X136949732Y-110137039D01*
X136876321Y-110116506D01*
X136791807Y-110091887D01*
X136694815Y-110062896D01*
X136583974Y-110029250D01*
X136472200Y-109995938D01*
X136348461Y-109961351D01*
X136237563Y-109933211D01*
X136138586Y-109911360D01*
X136050613Y-109895637D01*
X135972722Y-109885882D01*
X135903995Y-109881933D01*
X135843511Y-109883632D01*
X135790352Y-109890816D01*
X135743469Y-109902162D01*
X135685918Y-109920786D01*
X135632287Y-109942825D01*
X135588600Y-109966034D01*
X135557530Y-109985539D01*
X135563221Y-109962769D01*
X135570520Y-109938881D01*
X135586522Y-109897647D01*
X135607509Y-109850918D01*
X135631372Y-109803317D01*
X135656002Y-109759467D01*
X135676315Y-109727091D01*
X135745118Y-109634965D01*
X135821622Y-109556488D01*
X135905152Y-109491934D01*
X135995030Y-109441576D01*
X136090580Y-109405687D01*
X136191124Y-109384541D01*
X136295985Y-109378411D01*
X136404487Y-109387571D01*
X136515952Y-109412292D01*
X136532201Y-109417232D01*
X136561616Y-109427298D01*
X136595902Y-109440434D01*
X136636957Y-109457437D01*
X136686681Y-109479101D01*
X136746974Y-109506224D01*
X136819735Y-109539601D01*
X136914970Y-109578889D01*
X137030370Y-109613314D01*
X137147517Y-109633419D01*
X137269446Y-109639881D01*
X137343974Y-109637587D01*
X137415331Y-109629425D01*
X137475652Y-109614841D01*
X137527066Y-109593302D01*
X137571701Y-109564275D01*
X137575539Y-109561141D01*
X137583147Y-109552160D01*
X137578434Y-109547976D01*
X137560340Y-109548312D01*
X137527802Y-109552896D01*
X137517022Y-109554533D01*
X137463735Y-109559762D01*
X137402607Y-109562142D01*
X137338373Y-109561778D01*
X137275768Y-109558771D01*
X137219528Y-109553224D01*
X137174385Y-109545240D01*
X137157516Y-109541040D01*
X137098907Y-109524196D01*
X137039733Y-109503350D01*
X136977520Y-109477419D01*
X136909794Y-109445318D01*
X136834083Y-109405961D01*
X136747911Y-109358265D01*
X136668112Y-109314528D01*
X136582145Y-109271656D01*
X136504128Y-109238187D01*
X136431926Y-109213404D01*
X136363401Y-109196590D01*
X136296418Y-109187028D01*
X136228839Y-109184000D01*
X136209221Y-109184257D01*
X136139767Y-109190512D01*
X136076962Y-109206128D01*
X136014930Y-109232436D01*
X136014182Y-109232813D01*
X135989556Y-109244629D01*
X135971292Y-109252301D01*
X135963295Y-109254183D01*
X135962387Y-109250425D01*
X135964606Y-109233287D01*
X135971252Y-109205182D01*
X135981506Y-109168712D01*
X135994549Y-109126481D01*
X136009564Y-109081092D01*
X136025733Y-109035146D01*
X136042238Y-108991248D01*
X136058261Y-108952000D01*
X136064405Y-108937880D01*
X136123351Y-108817627D01*
X136187913Y-108712138D01*
X136258391Y-108621104D01*
X136335090Y-108544219D01*
X136418309Y-108481176D01*
X136508352Y-108431668D01*
X136605521Y-108395387D01*
X136633228Y-108387676D01*
X136663856Y-108381009D01*
X136695123Y-108376973D01*
X136732144Y-108374950D01*
X136780036Y-108374323D01*
X136840605Y-108375487D01*
X136905894Y-108381171D01*
X136963869Y-108392434D01*
X137019093Y-108410218D01*
X137076129Y-108435464D01*
X137093347Y-108444307D01*
X137166860Y-108491677D01*
X137231460Y-108550683D01*
X137288204Y-108622423D01*
X137338150Y-108708000D01*
X137347571Y-108728712D01*
X137362937Y-108767899D01*
X137380443Y-108817273D01*
X137399057Y-108873783D01*
X137417749Y-108934376D01*
X137435486Y-108996000D01*
X137463845Y-109087736D01*
X137496523Y-109170339D01*
X137532453Y-109238822D01*
X137572185Y-109294079D01*
X137616269Y-109336999D01*
X137665255Y-109368474D01*
X137714978Y-109387873D01*
X137771604Y-109399658D01*
X137828677Y-109402589D01*
X137881755Y-109396453D01*
X137926394Y-109381035D01*
X137928809Y-109379726D01*
X137954184Y-109360777D01*
X137981275Y-109333464D01*
X138005231Y-109303195D01*
X138021204Y-109275373D01*
X138028803Y-109256602D01*
X138030484Y-109246254D01*
X138022173Y-109246848D01*
X138001725Y-109256282D01*
X137938255Y-109279256D01*
X137871861Y-109287648D01*
X137806062Y-109280408D01*
X137742238Y-109257531D01*
X137734840Y-109253808D01*
X137670788Y-109213045D01*
X137619923Y-109163566D01*
X137582533Y-109105646D01*
X137571749Y-109082646D01*
X137561933Y-109055198D01*
X137557388Y-109027680D01*
X137556280Y-108992168D01*
X137556285Y-108989462D01*
X137558019Y-108951296D01*
X137563729Y-108921910D01*
X137574660Y-108894701D01*
X137588280Y-108869907D01*
X137628437Y-108817889D01*
X137677587Y-108777757D01*
X137734015Y-108750726D01*
X137796004Y-108738011D01*
X137813712Y-108736845D01*
X137840683Y-108737458D01*
X137864008Y-108743132D01*
X137891706Y-108755316D01*
X137929205Y-108778884D01*
X137960587Y-108810390D01*
X137967198Y-108819485D01*
X137978734Y-108839161D01*
X137982519Y-108857460D01*
X137980713Y-108882074D01*
X137980007Y-108887534D01*
X137974983Y-108920150D01*
X137969529Y-108937872D01*
X137962204Y-108941638D01*
X137951567Y-108932384D01*
X137936176Y-108911050D01*
X137928599Y-108900376D01*
X137895695Y-108866103D01*
X137858484Y-108846343D01*
X137815100Y-108840000D01*
X137805514Y-108840401D01*
X137767599Y-108851250D01*
X137735978Y-108876513D01*
X137711366Y-108915669D01*
X137707649Y-108924513D01*
X137697360Y-108971475D01*
X137701944Y-109017741D01*
X137720543Y-109061143D01*
X137752299Y-109099511D01*
X137796356Y-109130675D01*
X137804863Y-109134688D01*
X137841423Y-109144762D01*
X137885210Y-109149182D01*
X137930656Y-109147994D01*
X137972195Y-109141243D01*
X138004261Y-109128975D01*
X138039822Y-109103392D01*
X138076366Y-109060934D01*
X138099921Y-109009185D01*
X138110572Y-108948000D01*
X138108289Y-108890063D01*
X138093275Y-108831340D01*
X138064871Y-108771392D01*
X138022477Y-108708952D01*
X137965489Y-108642754D01*
X137950474Y-108627024D01*
X137910830Y-108588118D01*
X137871370Y-108554083D01*
X137829073Y-108522789D01*
X137780915Y-108492109D01*
X137723875Y-108459913D01*
X137654930Y-108424074D01*
X137609790Y-108401061D01*
X137536816Y-108362656D01*
X137475189Y-108328201D01*
X137422699Y-108296244D01*
X137377134Y-108265331D01*
X137336286Y-108234009D01*
X137297942Y-108200823D01*
X137259893Y-108164321D01*
X137246488Y-108150558D01*
X137180659Y-108070557D01*
X137127454Y-107983246D01*
X137087988Y-107890724D01*
X137063379Y-107795087D01*
X137058289Y-107751750D01*
X137056162Y-107690861D01*
X137057904Y-107623643D01*
X137063240Y-107554981D01*
X137071900Y-107489761D01*
X137083609Y-107432868D01*
X137098716Y-107378798D01*
X137140538Y-107257676D01*
X137193049Y-107136000D01*
X137203646Y-107114269D01*
X137221941Y-107078325D01*
X137242166Y-107039960D01*
X137262785Y-107001952D01*
X137282262Y-106967079D01*
X137299062Y-106938120D01*
X137311650Y-106917851D01*
X137318490Y-106909052D01*
X137319274Y-106911128D01*
X137320435Y-106926286D01*
X137321318Y-106954512D01*
X137321900Y-106993945D01*
X137322158Y-107042725D01*
X137322069Y-107098992D01*
X137321610Y-107160884D01*
X137321456Y-107176501D01*
X137320927Y-107256214D01*
X137321106Y-107322454D01*
X137322171Y-107377360D01*
X137324300Y-107423075D01*
X137327670Y-107461740D01*
X137332458Y-107495494D01*
X137338843Y-107526480D01*
X137347003Y-107556838D01*
X137357114Y-107588709D01*
X137366532Y-107615441D01*
X137401874Y-107698196D01*
X137447144Y-107781761D01*
X137503005Y-107866966D01*
X137570120Y-107954639D01*
X137649154Y-108045609D01*
X137740771Y-108140704D01*
X137845634Y-108240753D01*
X137964409Y-108346585D01*
X138002943Y-108380363D01*
X138041982Y-108415415D01*
X138077086Y-108447746D01*
X138105498Y-108474814D01*
X138124459Y-108494078D01*
X138135810Y-108506774D01*
X138162036Y-108538393D01*
X138186154Y-108570312D01*
X138206027Y-108599473D01*
X138219518Y-108622815D01*
X138224491Y-108637279D01*
X138225335Y-108642370D01*
X138231287Y-108644745D01*
X138234357Y-108638334D01*
X138237654Y-108619653D01*
X138239486Y-108593833D01*
X138239608Y-108584625D01*
X138238236Y-108562078D01*
X138233781Y-108539709D01*
X138225400Y-108516389D01*
X138212249Y-108490990D01*
X138193486Y-108462380D01*
X138168269Y-108429431D01*
X138135755Y-108391014D01*
X138095101Y-108345997D01*
X138045464Y-108293253D01*
X137986002Y-108231651D01*
X137915872Y-108160061D01*
X137889109Y-108132789D01*
X137821045Y-108062394D01*
X137763088Y-108000389D01*
X137713972Y-107945003D01*
X137672434Y-107894465D01*
X137637209Y-107847005D01*
X137607031Y-107800850D01*
X137580635Y-107754232D01*
X137556758Y-107705377D01*
X137534133Y-107652516D01*
X137511496Y-107593878D01*
X137502725Y-107569461D01*
X137464978Y-107438347D01*
X137439855Y-107298578D01*
X137427326Y-107149820D01*
X137427359Y-106991739D01*
X137439923Y-106824000D01*
X137442240Y-106802348D01*
X137446808Y-106758282D01*
X137451702Y-106709786D01*
X137456195Y-106664000D01*
X137464783Y-106578471D01*
X137475959Y-106474444D01*
X137488022Y-106368508D01*
X137500157Y-106268000D01*
X137504778Y-106230195D01*
X137508662Y-106196900D01*
X137511328Y-106172307D01*
X137512371Y-106160000D01*
X137513940Y-106160195D01*
G37*
D11*
%TO.C,J15*%
X144650000Y-79820000D02*
X145900000Y-79820000D01*
X144650000Y-81070000D02*
X144650000Y-79820000D01*
X144750000Y-81580000D02*
X144950000Y-81580000D01*
X144750000Y-81880000D02*
X144750000Y-81580000D01*
X144850000Y-81880000D02*
X144850000Y-81580000D01*
X144950000Y-80120000D02*
X149670000Y-80120000D01*
X144950000Y-81880000D02*
X144750000Y-81880000D01*
X144950000Y-82680000D02*
X145560000Y-82680000D01*
X144950000Y-92240000D02*
X144950000Y-80120000D01*
X145560000Y-80730000D02*
X149060000Y-80730000D01*
X145560000Y-82680000D02*
X145560000Y-80730000D01*
X145560000Y-89680000D02*
X144950000Y-89680000D01*
X145560000Y-91630000D02*
X145560000Y-89680000D01*
X146260000Y-80120000D02*
X146260000Y-80730000D01*
X146260000Y-92240000D02*
X146260000Y-91630000D01*
X147560000Y-80120000D02*
X147560000Y-80730000D01*
X147560000Y-92240000D02*
X147560000Y-91630000D01*
X148560000Y-83080000D02*
X148560000Y-83280000D01*
X148560000Y-83280000D02*
X149060000Y-83280000D01*
X148560000Y-85080000D02*
X148560000Y-85280000D01*
X148560000Y-85280000D02*
X149060000Y-85280000D01*
X148560000Y-87080000D02*
X148560000Y-87280000D01*
X148560000Y-87280000D02*
X149060000Y-87280000D01*
X148560000Y-89080000D02*
X148560000Y-89280000D01*
X148560000Y-89280000D02*
X149060000Y-89280000D01*
X149060000Y-80730000D02*
X149060000Y-91630000D01*
X149060000Y-83080000D02*
X148560000Y-83080000D01*
X149060000Y-83180000D02*
X148560000Y-83180000D01*
X149060000Y-85080000D02*
X148560000Y-85080000D01*
X149060000Y-85180000D02*
X148560000Y-85180000D01*
X149060000Y-87080000D02*
X148560000Y-87080000D01*
X149060000Y-87180000D02*
X148560000Y-87180000D01*
X149060000Y-89080000D02*
X148560000Y-89080000D01*
X149060000Y-89180000D02*
X148560000Y-89180000D01*
X149060000Y-91630000D02*
X145560000Y-91630000D01*
X149670000Y-80120000D02*
X149670000Y-92240000D01*
X149670000Y-92240000D02*
X144950000Y-92240000D01*
%TO.C,J12*%
X136607634Y-93020000D02*
X142727634Y-93020000D01*
X136607634Y-94330000D02*
X137217634Y-94330000D01*
X136607634Y-95630000D02*
X137217634Y-95630000D01*
X136607634Y-97740000D02*
X136607634Y-93020000D01*
X137217634Y-93630000D02*
X139167634Y-93630000D01*
X137217634Y-97130000D02*
X137217634Y-93630000D01*
X139167634Y-93630000D02*
X139167634Y-93020000D01*
X139567634Y-96630000D02*
X139567634Y-97130000D01*
X139667634Y-97130000D02*
X139667634Y-96630000D01*
X139767634Y-96630000D02*
X139567634Y-96630000D01*
X139767634Y-97130000D02*
X139767634Y-96630000D01*
X140167634Y-93020000D02*
X140167634Y-93630000D01*
X140167634Y-93630000D02*
X142117634Y-93630000D01*
X140967634Y-92820000D02*
X141267634Y-92820000D01*
X140967634Y-92920000D02*
X141267634Y-92920000D01*
X140967634Y-93020000D02*
X140967634Y-92820000D01*
X141267634Y-92820000D02*
X141267634Y-93020000D01*
X141777634Y-92720000D02*
X143027634Y-92720000D01*
X142117634Y-93630000D02*
X142117634Y-97130000D01*
X142117634Y-97130000D02*
X137217634Y-97130000D01*
X142727634Y-93020000D02*
X142727634Y-97740000D01*
X142727634Y-94330000D02*
X142117634Y-94330000D01*
X142727634Y-95630000D02*
X142117634Y-95630000D01*
X142727634Y-97740000D02*
X136607634Y-97740000D01*
X143027634Y-92720000D02*
X143027634Y-93970000D01*
%TO.C,J14*%
X136598586Y-98540000D02*
X142718586Y-98540000D01*
X136598586Y-99850000D02*
X137208586Y-99850000D01*
X136598586Y-101150000D02*
X137208586Y-101150000D01*
X136598586Y-103260000D02*
X136598586Y-98540000D01*
X137208586Y-99150000D02*
X139158586Y-99150000D01*
X137208586Y-102650000D02*
X137208586Y-99150000D01*
X139158586Y-99150000D02*
X139158586Y-98540000D01*
X139558586Y-102150000D02*
X139558586Y-102650000D01*
X139658586Y-102650000D02*
X139658586Y-102150000D01*
X139758586Y-102150000D02*
X139558586Y-102150000D01*
X139758586Y-102650000D02*
X139758586Y-102150000D01*
X140158586Y-98540000D02*
X140158586Y-99150000D01*
X140158586Y-99150000D02*
X142108586Y-99150000D01*
X140958586Y-98340000D02*
X141258586Y-98340000D01*
X140958586Y-98440000D02*
X141258586Y-98440000D01*
X140958586Y-98540000D02*
X140958586Y-98340000D01*
X141258586Y-98340000D02*
X141258586Y-98540000D01*
X141768586Y-98240000D02*
X143018586Y-98240000D01*
X142108586Y-99150000D02*
X142108586Y-102650000D01*
X142108586Y-102650000D02*
X137208586Y-102650000D01*
X142718586Y-98540000D02*
X142718586Y-103260000D01*
X142718586Y-99850000D02*
X142108586Y-99850000D01*
X142718586Y-101150000D02*
X142108586Y-101150000D01*
X142718586Y-103260000D02*
X136598586Y-103260000D01*
X143018586Y-98240000D02*
X143018586Y-99490000D01*
%TO.C,J18*%
X158750000Y-104140000D02*
X170870000Y-104140000D01*
X158750000Y-105450000D02*
X159360000Y-105450000D01*
X158750000Y-106750000D02*
X159360000Y-106750000D01*
X158750000Y-108860000D02*
X158750000Y-104140000D01*
X159360000Y-104750000D02*
X161310000Y-104750000D01*
X159360000Y-108250000D02*
X159360000Y-104750000D01*
X161310000Y-104750000D02*
X161310000Y-104140000D01*
X161710000Y-107750000D02*
X161710000Y-108250000D01*
X161810000Y-108250000D02*
X161810000Y-107750000D01*
X161910000Y-107750000D02*
X161710000Y-107750000D01*
X161910000Y-108250000D02*
X161910000Y-107750000D01*
X163710000Y-107750000D02*
X163710000Y-108250000D01*
X163810000Y-108250000D02*
X163810000Y-107750000D01*
X163910000Y-107750000D02*
X163710000Y-107750000D01*
X163910000Y-108250000D02*
X163910000Y-107750000D01*
X165710000Y-107750000D02*
X165710000Y-108250000D01*
X165810000Y-108250000D02*
X165810000Y-107750000D01*
X165910000Y-107750000D02*
X165710000Y-107750000D01*
X165910000Y-108250000D02*
X165910000Y-107750000D01*
X167710000Y-107750000D02*
X167710000Y-108250000D01*
X167810000Y-108250000D02*
X167810000Y-107750000D01*
X167910000Y-107750000D02*
X167710000Y-107750000D01*
X167910000Y-108250000D02*
X167910000Y-107750000D01*
X168310000Y-104140000D02*
X168310000Y-104750000D01*
X168310000Y-104750000D02*
X170260000Y-104750000D01*
X169110000Y-103940000D02*
X169410000Y-103940000D01*
X169110000Y-104040000D02*
X169410000Y-104040000D01*
X169110000Y-104140000D02*
X169110000Y-103940000D01*
X169410000Y-103940000D02*
X169410000Y-104140000D01*
X169920000Y-103840000D02*
X171170000Y-103840000D01*
X170260000Y-104750000D02*
X170260000Y-108250000D01*
X170260000Y-108250000D02*
X159360000Y-108250000D01*
X170870000Y-104140000D02*
X170870000Y-108860000D01*
X170870000Y-105450000D02*
X170260000Y-105450000D01*
X170870000Y-106750000D02*
X170260000Y-106750000D01*
X170870000Y-108860000D02*
X158750000Y-108860000D01*
X171170000Y-103840000D02*
X171170000Y-105090000D01*
%TD*%
M02*
