%TF.GenerationSoftware,KiCad,Pcbnew,9.0.6*%
%TF.CreationDate,2026-03-23T13:32:05-04:00*%
%TF.ProjectId,Faceboard,46616365-626f-4617-9264-2e6b69636164,rev?*%
%TF.SameCoordinates,Original*%
%TF.FileFunction,Legend,Top*%
%TF.FilePolarity,Positive*%
%FSLAX46Y46*%
G04 Gerber Fmt 4.6, Leading zero omitted, Abs format (unit mm)*
G04 Created by KiCad (PCBNEW 9.0.6) date 2026-03-23 13:32:05*
%MOMM*%
%LPD*%
G01*
G04 APERTURE LIST*
%ADD10C,0.100000*%
%ADD11C,0.150000*%
%ADD12C,0.120000*%
G04 APERTURE END LIST*
D10*
X149940000Y-90890000D02*
X157940000Y-90890000D01*
X157940000Y-98890000D01*
X149940000Y-98890000D01*
X149940000Y-90890000D01*
G36*
X149940000Y-90890000D02*
G01*
X157940000Y-90890000D01*
X157940000Y-98890000D01*
X149940000Y-98890000D01*
X149940000Y-90890000D01*
G37*
D11*
X157706681Y-108224819D02*
X157706681Y-109034342D01*
X157706681Y-109034342D02*
X157754300Y-109129580D01*
X157754300Y-109129580D02*
X157801919Y-109177200D01*
X157801919Y-109177200D02*
X157897157Y-109224819D01*
X157897157Y-109224819D02*
X158087633Y-109224819D01*
X158087633Y-109224819D02*
X158182871Y-109177200D01*
X158182871Y-109177200D02*
X158230490Y-109129580D01*
X158230490Y-109129580D02*
X158278109Y-109034342D01*
X158278109Y-109034342D02*
X158278109Y-108224819D01*
X159230490Y-108224819D02*
X158754300Y-108224819D01*
X158754300Y-108224819D02*
X158706681Y-108701009D01*
X158706681Y-108701009D02*
X158754300Y-108653390D01*
X158754300Y-108653390D02*
X158849538Y-108605771D01*
X158849538Y-108605771D02*
X159087633Y-108605771D01*
X159087633Y-108605771D02*
X159182871Y-108653390D01*
X159182871Y-108653390D02*
X159230490Y-108701009D01*
X159230490Y-108701009D02*
X159278109Y-108796247D01*
X159278109Y-108796247D02*
X159278109Y-109034342D01*
X159278109Y-109034342D02*
X159230490Y-109129580D01*
X159230490Y-109129580D02*
X159182871Y-109177200D01*
X159182871Y-109177200D02*
X159087633Y-109224819D01*
X159087633Y-109224819D02*
X158849538Y-109224819D01*
X158849538Y-109224819D02*
X158754300Y-109177200D01*
X158754300Y-109177200D02*
X158706681Y-109129580D01*
X132036681Y-103144819D02*
X132036681Y-103954342D01*
X132036681Y-103954342D02*
X132084300Y-104049580D01*
X132084300Y-104049580D02*
X132131919Y-104097200D01*
X132131919Y-104097200D02*
X132227157Y-104144819D01*
X132227157Y-104144819D02*
X132417633Y-104144819D01*
X132417633Y-104144819D02*
X132512871Y-104097200D01*
X132512871Y-104097200D02*
X132560490Y-104049580D01*
X132560490Y-104049580D02*
X132608109Y-103954342D01*
X132608109Y-103954342D02*
X132608109Y-103144819D01*
X133512871Y-103144819D02*
X133322395Y-103144819D01*
X133322395Y-103144819D02*
X133227157Y-103192438D01*
X133227157Y-103192438D02*
X133179538Y-103240057D01*
X133179538Y-103240057D02*
X133084300Y-103382914D01*
X133084300Y-103382914D02*
X133036681Y-103573390D01*
X133036681Y-103573390D02*
X133036681Y-103954342D01*
X133036681Y-103954342D02*
X133084300Y-104049580D01*
X133084300Y-104049580D02*
X133131919Y-104097200D01*
X133131919Y-104097200D02*
X133227157Y-104144819D01*
X133227157Y-104144819D02*
X133417633Y-104144819D01*
X133417633Y-104144819D02*
X133512871Y-104097200D01*
X133512871Y-104097200D02*
X133560490Y-104049580D01*
X133560490Y-104049580D02*
X133608109Y-103954342D01*
X133608109Y-103954342D02*
X133608109Y-103716247D01*
X133608109Y-103716247D02*
X133560490Y-103621009D01*
X133560490Y-103621009D02*
X133512871Y-103573390D01*
X133512871Y-103573390D02*
X133417633Y-103525771D01*
X133417633Y-103525771D02*
X133227157Y-103525771D01*
X133227157Y-103525771D02*
X133131919Y-103573390D01*
X133131919Y-103573390D02*
X133084300Y-103621009D01*
X133084300Y-103621009D02*
X133036681Y-103716247D01*
X170528095Y-81844819D02*
X170528095Y-82654342D01*
X170528095Y-82654342D02*
X170575714Y-82749580D01*
X170575714Y-82749580D02*
X170623333Y-82797200D01*
X170623333Y-82797200D02*
X170718571Y-82844819D01*
X170718571Y-82844819D02*
X170909047Y-82844819D01*
X170909047Y-82844819D02*
X171004285Y-82797200D01*
X171004285Y-82797200D02*
X171051904Y-82749580D01*
X171051904Y-82749580D02*
X171099523Y-82654342D01*
X171099523Y-82654342D02*
X171099523Y-81844819D01*
X172004285Y-82178152D02*
X172004285Y-82844819D01*
X171766190Y-81797200D02*
X171528095Y-82511485D01*
X171528095Y-82511485D02*
X172147142Y-82511485D01*
X136926681Y-82814819D02*
X136926681Y-83624342D01*
X136926681Y-83624342D02*
X136974300Y-83719580D01*
X136974300Y-83719580D02*
X137021919Y-83767200D01*
X137021919Y-83767200D02*
X137117157Y-83814819D01*
X137117157Y-83814819D02*
X137307633Y-83814819D01*
X137307633Y-83814819D02*
X137402871Y-83767200D01*
X137402871Y-83767200D02*
X137450490Y-83719580D01*
X137450490Y-83719580D02*
X137498109Y-83624342D01*
X137498109Y-83624342D02*
X137498109Y-82814819D01*
X137879062Y-82814819D02*
X138545728Y-82814819D01*
X138545728Y-82814819D02*
X138117157Y-83814819D01*
D10*
%TO.C,U6*%
X157750000Y-109550000D02*
X171750000Y-109550000D01*
X157750000Y-119550000D02*
X157750000Y-109550000D01*
X159500000Y-109950000D02*
X159500000Y-110150000D01*
X159500000Y-109950000D02*
X170000000Y-109950000D01*
X159500000Y-112350000D02*
X159500000Y-112950000D01*
X159500000Y-115150000D02*
X159500000Y-116650000D01*
X159500000Y-118850000D02*
X159500000Y-119050000D01*
X159500000Y-119050000D02*
X170000000Y-119050000D01*
X170000000Y-109950000D02*
X170000000Y-110150000D01*
X170000000Y-112950000D02*
X170000000Y-112350000D01*
X170000000Y-116650000D02*
X170000000Y-115150000D01*
X170000000Y-119050000D02*
X170000000Y-118850000D01*
X171750000Y-109550000D02*
X171750000Y-119550000D01*
X171750000Y-119550000D02*
X157750000Y-119550000D01*
%TO.C,U4*%
X158050000Y-83300000D02*
X172050000Y-83300000D01*
X158050000Y-93300000D02*
X158050000Y-83300000D01*
X159800000Y-83700000D02*
X159800000Y-83900000D01*
X159800000Y-83700000D02*
X170300000Y-83700000D01*
X159800000Y-86100000D02*
X159800000Y-86700000D01*
X159800000Y-88900000D02*
X159800000Y-90400000D01*
X159800000Y-92600000D02*
X159800000Y-92800000D01*
X159800000Y-92800000D02*
X170300000Y-92800000D01*
X170300000Y-83700000D02*
X170300000Y-83900000D01*
X170300000Y-86700000D02*
X170300000Y-86100000D01*
X170300000Y-90400000D02*
X170300000Y-88900000D01*
X170300000Y-92800000D02*
X170300000Y-92600000D01*
X172050000Y-83300000D02*
X172050000Y-93300000D01*
X172050000Y-93300000D02*
X158050000Y-93300000D01*
%TO.C,U5*%
X131778586Y-104620000D02*
X145778586Y-104620000D01*
X131778586Y-114620000D02*
X131778586Y-104620000D01*
X133528586Y-105020000D02*
X133528586Y-105220000D01*
X133528586Y-105020000D02*
X144028586Y-105020000D01*
X133528586Y-107420000D02*
X133528586Y-108020000D01*
X133528586Y-110220000D02*
X133528586Y-111720000D01*
X133528586Y-113920000D02*
X133528586Y-114120000D01*
X133528586Y-114120000D02*
X144028586Y-114120000D01*
X144028586Y-105020000D02*
X144028586Y-105220000D01*
X144028586Y-108020000D02*
X144028586Y-107420000D01*
X144028586Y-111720000D02*
X144028586Y-110220000D01*
X144028586Y-114120000D02*
X144028586Y-113920000D01*
X145778586Y-104620000D02*
X145778586Y-114620000D01*
X145778586Y-114620000D02*
X131778586Y-114620000D01*
D12*
%TO.C,U7*%
X134188586Y-86860000D02*
X134188586Y-88360000D01*
X135438586Y-90860000D02*
X139938586Y-90860000D01*
X139938586Y-84360000D02*
X135438586Y-84360000D01*
X141188586Y-88360000D02*
X141188586Y-86860000D01*
%TD*%
M02*
