%TF.GenerationSoftware,KiCad,Pcbnew,9.0.6*%
%TF.CreationDate,2026-03-23T13:32:05-04:00*%
%TF.ProjectId,Faceboard,46616365-626f-4617-9264-2e6b69636164,rev?*%
%TF.SameCoordinates,Original*%
%TF.FileFunction,Soldermask,Top*%
%TF.FilePolarity,Negative*%
%FSLAX46Y46*%
G04 Gerber Fmt 4.6, Leading zero omitted, Abs format (unit mm)*
G04 Created by KiCad (PCBNEW 9.0.6) date 2026-03-23 13:32:05*
%MOMM*%
%LPD*%
G01*
G04 APERTURE LIST*
G04 Aperture macros list*
%AMRoundRect*
0 Rectangle with rounded corners*
0 $1 Rounding radius*
0 $2 $3 $4 $5 $6 $7 $8 $9 X,Y pos of 4 corners*
0 Add a 4 corners polygon primitive as box body*
4,1,4,$2,$3,$4,$5,$6,$7,$8,$9,$2,$3,0*
0 Add four circle primitives for the rounded corners*
1,1,$1+$1,$2,$3*
1,1,$1+$1,$4,$5*
1,1,$1+$1,$6,$7*
1,1,$1+$1,$8,$9*
0 Add four rect primitives between the rounded corners*
20,1,$1+$1,$2,$3,$4,$5,0*
20,1,$1+$1,$4,$5,$6,$7,0*
20,1,$1+$1,$6,$7,$8,$9,0*
20,1,$1+$1,$8,$9,$2,$3,0*%
G04 Aperture macros list end*
%ADD10C,2.000000*%
%ADD11RoundRect,0.250000X-0.350000X-0.625000X0.350000X-0.625000X0.350000X0.625000X-0.350000X0.625000X0*%
%ADD12O,1.200000X1.750000*%
%ADD13RoundRect,0.250000X0.350000X0.625000X-0.350000X0.625000X-0.350000X-0.625000X0.350000X-0.625000X0*%
%ADD14RoundRect,0.250000X0.625000X-0.350000X0.625000X0.350000X-0.625000X0.350000X-0.625000X-0.350000X0*%
%ADD15O,1.750000X1.200000*%
%ADD16RoundRect,0.250000X-0.625000X0.350000X-0.625000X-0.350000X0.625000X-0.350000X0.625000X0.350000X0*%
%ADD17C,4.700000*%
G04 APERTURE END LIST*
D10*
%TO.C,U6*%
X159500000Y-111250000D03*
X159500000Y-114050000D03*
X159500000Y-117750000D03*
X170000000Y-111250000D03*
X170000000Y-114050000D03*
X170000000Y-117750000D03*
%TD*%
%TO.C,U4*%
X159800000Y-85000000D03*
X159800000Y-87800000D03*
X159800000Y-91500000D03*
X170300000Y-85000000D03*
X170300000Y-87800000D03*
X170300000Y-91500000D03*
%TD*%
%TO.C,U5*%
X133528586Y-106320000D03*
X133528586Y-109120000D03*
X133528586Y-112820000D03*
X144028586Y-106320000D03*
X144028586Y-109120000D03*
X144028586Y-112820000D03*
%TD*%
%TO.C,U7*%
X134438586Y-85360000D03*
X140938586Y-85360000D03*
X134438586Y-89860000D03*
X140938586Y-89860000D03*
%TD*%
D11*
%TO.C,J17*%
X160250000Y-96800000D03*
D12*
X162250000Y-96800000D03*
X164250000Y-96800000D03*
X166250000Y-96800000D03*
X168250000Y-96800000D03*
%TD*%
D13*
%TO.C,J11*%
X147607634Y-94830000D03*
D12*
X145607634Y-94830000D03*
%TD*%
D13*
%TO.C,J13*%
X133727634Y-94830000D03*
D12*
X131727634Y-94830000D03*
%TD*%
D14*
%TO.C,J16*%
X149330000Y-108580000D03*
D15*
X149330000Y-106580000D03*
X149330000Y-104580000D03*
X149330000Y-102580000D03*
X149330000Y-100580000D03*
%TD*%
D16*
%TO.C,J10*%
X154500000Y-112000000D03*
D15*
X154500000Y-114000000D03*
%TD*%
D17*
%TO.C,M2.5*%
X154500000Y-80000000D03*
%TD*%
D16*
%TO.C,J15*%
X146760000Y-82180000D03*
D15*
X146760000Y-84180000D03*
X146760000Y-86180000D03*
X146760000Y-88180000D03*
X146760000Y-90180000D03*
%TD*%
D13*
%TO.C,J12*%
X140667634Y-94830000D03*
D12*
X138667634Y-94830000D03*
%TD*%
D13*
%TO.C,J14*%
X140658586Y-100350000D03*
D12*
X138658586Y-100350000D03*
%TD*%
D13*
%TO.C,J18*%
X168810000Y-105950000D03*
D12*
X166810000Y-105950000D03*
X164810000Y-105950000D03*
X162810000Y-105950000D03*
X160810000Y-105950000D03*
%TD*%
D17*
%TO.C,M2.5*%
X149000000Y-117750000D03*
%TD*%
%TO.C,M2.5*%
X173000000Y-101000000D03*
%TD*%
M02*
