M48
; DRILL file {KiCad 9.0.6} date 2026-03-23T13:32:07-0400
; FORMAT={-:-/ absolute / metric / decimal}
; #@! TF.CreationDate,2026-03-23T13:32:07-04:00
; #@! TF.GenerationSoftware,Kicad,Pcbnew,9.0.6
; #@! TF.FileFunction,MixedPlating,1,2
FMAT,2
METRIC
; #@! TA.AperFunction,Plated,PTH,ComponentDrill
T1C0.750
; #@! TA.AperFunction,Plated,PTH,ComponentDrill
T2C1.100
; #@! TA.AperFunction,Plated,PTH,ComponentDrill
T3C2.700
%
G90
G05
T1
X131.728Y-94.83
X133.728Y-94.83
X138.659Y-100.35
X138.668Y-94.83
X140.659Y-100.35
X140.668Y-94.83
X145.608Y-94.83
X146.76Y-82.18
X146.76Y-84.18
X146.76Y-86.18
X146.76Y-88.18
X146.76Y-90.18
X147.608Y-94.83
X149.33Y-100.58
X149.33Y-102.58
X149.33Y-104.58
X149.33Y-106.58
X149.33Y-108.58
X154.5Y-112.0
X154.5Y-114.0
X160.25Y-96.8
X160.81Y-105.95
X162.25Y-96.8
X162.81Y-105.95
X164.25Y-96.8
X164.81Y-105.95
X166.25Y-96.8
X166.81Y-105.95
X168.25Y-96.8
X168.81Y-105.95
T2
X133.529Y-106.32
X133.529Y-109.12
X133.529Y-112.82
X134.439Y-85.36
X134.439Y-89.86
X140.939Y-85.36
X140.939Y-89.86
X144.029Y-106.32
X144.029Y-109.12
X144.029Y-112.82
X159.5Y-111.25
X159.5Y-114.05
X159.5Y-117.75
X159.8Y-85.0
X159.8Y-87.8
X159.8Y-91.5
X170.0Y-111.25
X170.0Y-114.05
X170.0Y-117.75
X170.3Y-85.0
X170.3Y-87.8
X170.3Y-91.5
T3
X149.0Y-117.75
X154.5Y-80.0
X173.0Y-101.0
M30
